<?xml version="1.0"?><svg xmlns="http://www.w3.org/2000/svg"  viewBox="0 0 50 50" width="256px" height="256px">    <path d="M 2 2 L 2 36 L 5 36 L 5 5 L 37 5 L 37 2 L 2 2 z M 7 7 L 7 41 L 10 41 L 10 10 L 42 10 L 42 7 L 7 7 z M 12 12 L 12 46 L 40.34375 46 C 41.770793 47.413116 42.776475 48.400391 42.800781 48.400391 L 43.099609 48.699219 C 44.699609 50.299219 47.300391 50.499219 48.900391 48.699219 C 50.400391 47.099219 50.300781 44.7 48.800781 43 L 48.5 42.699219 L 46.900391 41.099609 L 46.900391 12 L 12 12 z M 27.400391 27.300781 L 31.392578 28.398438 L 28.566406 31.289062 L 27.400391 27.300781 z M 32.814453 29.804688 L 46.75 43.650391 L 43.800781 46.599609 L 43.75 46.650391 L 29.9375 32.748047 L 32.814453 29.804688 z"/></svg>