<svg xmlns="http://www.w3.org/2000/svg" xmlns:xlink="http://www.w3.org/1999/xlink" width="200mm" height="32mm" viewBox="0 0 200 32"><defs><radialGradient id="d" cx="11878.55" cy="12505.51" r="1965.56" fx="11878.55" fy="12505.51" gradientTransform="matrix(-.00546 .00562 -.00562 -.00546 159.148 16.916)" gradientUnits="userSpaceOnUse"><stop offset="0" style="stop-opacity:1;stop-color:#fdd100"/><stop offset="1" style="stop-opacity:1;stop-color:#e62129"/></radialGradient><radialGradient xlink:href="#b" id="e" cx="8181.24" cy="15712.31" r="3338.76" fx="8181.24" fy="15712.31" gradientTransform="matrix(.00794 -.00146 .0017 .00685 -84.163 -65.801)" gradientUnits="userSpaceOnUse"/><radialGradient id="b" cx="9740.38" cy="15618.51" r="2536.41" fx="9740.38" fy="15618.51" gradientTransform="matrix(1.71669 -.4507 .4507 1.71669 -14020 -6804)" gradientUnits="userSpaceOnUse"><stop offset="0" style="stop-opacity:1;stop-color:#1691d1"/><stop offset=".69" style="stop-opacity:1;stop-color:#2f318b"/><stop offset=".122" style="stop-opacity:1;stop-color:#1973b5"/><stop offset="1" style="stop-opacity:1;stop-color:#1b5699"/></radialGradient><radialGradient xlink:href="#b" id="h" cx="9740.38" cy="15618.51" r="2536.41" fx="9740.38" fy="15618.51" gradientTransform="rotate(-14.74 -323.925 322.987)scale(.008)" gradientUnits="userSpaceOnUse"/><linearGradient xlink:href="#a" id="c" x1="14245.24" x2="9492.27" y1="10128.23" y2="14870.34" gradientTransform="matrix(.0045 0 0 .0045 -29.483 -40.951)" gradientUnits="userSpaceOnUse"/><linearGradient id="a" x1="12186.69" x2="11550.46" y1="9890.15" y2="15247.58" gradientUnits="userSpaceOnUse"><stop offset="0" style="stop-opacity:1;stop-color:#fdd100"/><stop offset="1" style="stop-opacity:1;stop-color:#e62129"/></linearGradient><linearGradient id="g" x1="14748.28" x2="10968.3" y1="11309.71" y2="14141.08" gradientTransform="matrix(.0045 0 0 .0045 -29.483 -40.951)" gradientUnits="userSpaceOnUse"><stop offset="0" style="stop-opacity:1;stop-color:#e62129"/><stop offset="1" style="stop-opacity:1;stop-color:#fdd100"/></linearGradient><linearGradient xlink:href="#a" id="f" x1="12186.69" x2="11550.46" y1="9890.15" y2="15247.58" gradientTransform="matrix(.0045 0 0 .0045 -29.483 -40.951)" gradientUnits="userSpaceOnUse"/></defs><path d="M11.82 23.438h23.01l-3.666 3.938c-.445.105-.94.203-1.489.297-3.332.571-12.736-2.487-19.268-1.34l-2.413-2.74L0 18.636l7.75 3.728C3.656 16.11 9.05 12.094 9.05 12.094c-5.575 1.593-8.664 6.55-8.664 6.55 3.974-1.501 6.912 2.974 7.37 3.724l2.226 1.07z" class="fil0" style="clip-rule:evenodd;fill:url(#c);fill-rule:evenodd;stroke-width:.00450676;image-rendering:optimizeQuality;shape-rendering:geometricPrecision;text-rendering:geometricPrecision"/><path d="M13.28 22.66h3.962l1.215-2.89h3.74l.014-1.278-1.227-.014c-2.773-.032-2.559-3.375-1.729-5.727l-3.37-.508c-1.108-4.456 2.393-5.666 6.463-6.068l.01-.868c-1.199.141-2.384.38-2.967.785 0 0-1.19-3.134 3.007-4.36l.018-1.679.398-.053.031 1.615c.916-.219 2.056-.354 3.476-.365 0 0-2.676 2.623-.45 3.852 0 0-1.412 0-2.955.146l.017.875c2.356-.19 4.836-.152 6.68-.344-2.26 2.496-4.9 7.909-1.009 12.66-4.602.046-3.613.078-5.432.062l.025 1.27h3.03l1.215 2.888h3.928c.757 0 1.408-.37 1.796-1.02l1.114-1.869h-3.457l-.118-3.349c1.03.117 2.144.58 3.64 1.036-2.466-1.615-3.442-4.833-1.379-6.394l-2.45-.02-.081-2.325-.398.053-.045 2.268c-4.037.009-2.623 4.282-1.512 5.811a3.651 3.651 0 0 1 1.404-.44l-.068 3.36h-3.589l-1.215 2.89h-5.34l-1.215-2.89h-2.813l-.058-1.642c1.748.103 3.195.768 3.797.93-1.592-1.973-1.698-3.88-.699-6.013-1.34-.024-2.41.124-3.263.386l-.094-2.689-.398.053-.057 2.832c-3.418 1.404-2.608 4.862-2.242 4.974a6.379 6.379 0 0 1 2.152-.477l-.033 1.646h-4.344l1.064 1.843a2.043 2.043 0 0 0 1.811 1.046" class="fil1" style="clip-rule:evenodd;fill:url(#d);fill-rule:evenodd;stroke-width:.00450676;image-rendering:optimizeQuality;shape-rendering:geometricPrecision;text-rendering:geometricPrecision"/><path d="M5.582 29.106c6.254-2.445 12.885 1.23 19.116 2.38 7.241 1.335 12.598-3.306 10.53-7.127-.404 2.107-1.44 3.045-5.553 3.75-4.32.74-18.853-4.625-24.093.997m.594.545c3.504.025 5.05.097 8.435.928 1.913.47 6.337 1.958 8.25 1.219-1.967-.774-5.87-1.615-8.173-2.212-1.495-.388-2.722-.657-4.343-.652-.706.002-1.425.05-2.136.137-.676.084-1.491.185-2.033.58" class="fil2" style="clip-rule:evenodd;fill:url(#e);fill-rule:evenodd;stroke-width:.00450676;image-rendering:optimizeQuality;shape-rendering:geometricPrecision;text-rendering:geometricPrecision"/><path d="M22.348 23.438H34.83l-3.666 3.938c-.445.105-.94.203-1.489.297-1.099.189-2.86-.018-4.959-.338-.933-1.12-1.734-2.434-2.368-3.897" class="fil3" style="clip-rule:evenodd;fill:url(#f);fill-rule:evenodd;stroke-width:.00450676;image-rendering:optimizeQuality;shape-rendering:geometricPrecision;text-rendering:geometricPrecision"/><path d="M32.966 11.063c-2.063 1.56-1.087 4.78 1.38 6.394-1.497-.456-2.61-.919-3.64-1.036l.117 3.35h3.457l-1.114 1.868a2.041 2.041 0 0 1-1.796 1.02h-3.928l-1.215-2.889h-3.03l-.025-1.269c1.82.017.83-.016 5.433-.062-3.892-4.751-1.251-10.164 1.008-12.66-1.844.192-4.324.154-6.68.344v-.025c-1.385 2.617-2.2 5.82-2.2 9.28 0 1.06.077 2.096.223 3.099h.028l1.227.015-.014 1.278h-1.011c.212 1.007.497 1.974.844 2.89h2.982l1.215-2.89h3.59l.067-3.36a3.65 3.65 0 0 0-1.404.44c-1.111-1.529-2.525-5.802 1.512-5.81l.045-2.269.398-.053.082 2.325zm-9.525-5.86c1.324-.101 2.43-.1 2.43-.1-1.034-.572-1.01-1.444-.688-2.214a14.71 14.71 0 0 0-1.742 2.314" class="fil4" style="clip-rule:evenodd;fill:url(#g);fill-rule:evenodd;stroke-width:.00450676;image-rendering:optimizeQuality;shape-rendering:geometricPrecision;text-rendering:geometricPrecision"/><path d="M12.814 28.493c3.992.591 8.015 2.279 11.884 2.992 7.241 1.336 12.598-3.305 10.53-7.126 1.31 9.892-14.89 3.09-22.414 4.134" class="fil5" style="clip-rule:evenodd;fill:url(#h);fill-rule:evenodd;stroke-width:.00450676;image-rendering:optimizeQuality;shape-rendering:geometricPrecision;text-rendering:geometricPrecision"/><path d="M60.806 16.075c.802 1.147 1.203 2.434 1.203 3.859 0 1.05-.219 2.039-.657 2.969-.59 1.267-1.467 2.227-2.632 2.88-1.028.574-2.168.86-3.422.86H44v-13.3h11.712c.35 0 .677-.08.977-.243.414-.242.62-.598.62-1.064 0-.465-.206-.81-.62-1.033a2.013 2.013 0 0 0-.977-.243H44l2.838-5.522h8.46c1.266 0 2.413.296 3.44.89 1.154.673 2.024 1.653 2.614 2.94.438.95.657 1.959.657 3.028 0 1.465-.4 2.79-1.203 3.979m-5.11 2.79h-7.485v2.256h7.485c.439 0 .852-.069 1.24-.207.574-.198.863-.505.863-.92 0-.416-.289-.723-.862-.92a3.66 3.66 0 0 0-1.24-.209m22.582 2.286-2.707 5.523H63.56V13.076H77.62l-2.707 5.522H67.77v2.553zm5.873 5.523h-4.21V5.267h4.21zm26.647.06h-4.606l-1.786-11.313-3.798 9.65c-.5 1.246-1.19 1.87-2.068 1.87-.45 0-.89-.179-1.316-.535a3.305 3.305 0 0 1-.958-1.336l-3.817-9.649-1.767 11.312h-4.624l3.515-19.002c.138-.771.43-1.42.874-1.944.445-.525.956-.787 1.532-.787.89 0 1.661.831 2.313 2.494l4.136 10.658 4.154-10.658C103.222 5.83 103.986 5 104.876 5c.589 0 1.103.262 1.541.787.439.524.733 1.173.884 1.944zm6.417-.06h-4.21V5.267h4.21zm18.676-2.761c0 1.939-.558 2.909-1.674 2.909-.802 0-1.566-.475-2.293-1.425l-7.933-10.48v11.757h-4.211V8.004c0-.792.16-1.45.48-1.965.319-.514.773-.772 1.362-.772.764 0 1.473.425 2.124 1.282l7.934 10.505V5.267h4.21zm19.465-18.646-2.708 5.522h-6.805c-1.153 0-2.109.49-2.867 1.475-.758.98-1.137 2.237-1.137 3.766s.376 2.766 1.128 3.706c.752.945 1.71 1.415 2.876 1.415h4.888v-1.989h-3.654l-2.764-5.285h10.629v12.797h-9.099c-2.356 0-4.308-1.035-5.856-3.103-1.548-2.068-2.322-4.666-2.322-7.794 0-3.127.765-5.66 2.294-7.6 1.529-1.94 3.49-2.91 5.884-2.91zm25.424 0-3.516 19.002c-.138.752-.42 1.385-.846 1.9-.464.554-.984.831-1.56.831-.89 0-1.66-.831-2.312-2.494l-4.136-10.658-4.155 10.658c-.64 1.663-1.404 2.494-2.293 2.494-.577 0-1.088-.267-1.533-.802-.444-.534-.736-1.177-.874-1.93l-3.515-19h4.606l1.786 11.311 3.797-9.65c.501-1.266 1.19-1.9 2.068-1.9.464 0 .906.179 1.325.535.42.356.743.812.968 1.366l3.798 9.65 1.767-11.313zM200 16.935c0 6.492-2.82 9.739-8.46 9.739h-.883c-5.64 0-8.46-3.247-8.46-9.739V5.267h4.211v11.668c0 1.94.54 3.187 1.614 3.742.576.316 1.751.474 3.528.474 1.413 0 2.419-.237 3.02-.712.812-.614 1.219-1.782 1.219-3.504V5.267H200Z" class="fil6" style="clip-rule:evenodd;fill:#2c4094;fill-rule:nonzero;stroke-width:.0151046;image-rendering:optimizeQuality;shape-rendering:geometricPrecision;text-rendering:geometricPrecision"/><path d="M63.559 10.79H75.57l2.707-5.523h-14.72Z" class="fil7" style="clip-rule:evenodd;fill:#e94a26;fill-rule:nonzero;stroke-width:.0151046;image-rendering:optimizeQuality;shape-rendering:geometricPrecision;text-rendering:geometricPrecision"/></svg>