<svg xmlns="http://www.w3.org/2000/svg" viewBox="0 0 32 32" width="256px" height="256px">
  <g id="left-top">
    <path fill="#308014 " d="m 0 4 v 12 h 4 c 0 2.21 1.79 4 4 4 s 4 -1.79 4 -4 h 4 v -4 c -2.21 0 -4 -1.79 -4 -4 c 0 -2.21 1.79 -4 4 -4 v -4 h -12 c -2.209 0 -4 1.791 -4 4 z" />
  </g>
  <g id="right-top">
    <path fill="#E3CF57"
      d="m 12 8 c 0 2.21 1.79 4 4 4 v 4 h 4 c 0 -2.21 1.79 -4 4 -4 s 4 1.79 4 4 h 4 v -12 c 0 -2.209 -1.791 -4 -4 -4 h -12 v 4 c -2.21 0 -4 1.79 -4 4 z" />
    <path fill="#D3BF47"
      d="m 13 8 c 0 -2.21 1.79 -4 4 -4 v -4 h -1 v 4 c -2.21 0 -4 1.79 -4 4 c 0 2.21 1.79 4 4 4 v 4 h 1 v -4 c -2.21 0 -4 -1.79 -4 -4 z" />
  </g>
  <g id="left-bottom">
    <path fill="#FC4D00"
      d="m 0 16 v 12 c 0 2.209 1.791 4 4 4 h 12 v -4 c 2.21 0 4 -1.79 4 -4 c 0 -2.21 -1.79 -4 -4 -4 v -4 h -4 c 0 2.21 -1.79 4 -4 4 s -4 -1.79 -4 -4 h -4 z" />
    <path fill="#DC3D00"
      d="m 8 21 c 2.21 0 4 -1.79 4 -4 h 4 v -1 h -4 c 0 2.21 -1.79 4 -4 4 s -4 -1.79 -4 -4 h -4 v 1 h 4 c 0 2.21 1.79 4 4 4 z" />
  </g>
  <g id="right-bottom">
    <path fill="#4B4FA6"
      d="m 20 24 c 0 2.21 -1.79 4 -4 4 v 4 h 12 c 2.209 0 4 -1.791 4 -4 v -12 h -4 c 0 -2.21 -1.79 -4 -4 -4 s -4 1.79 -4 4 h -4 v 4 c 2.21 0 4 1.79 4 4 z" />
    <path fill="#3B3F96"
      d="m 21 24 c 0 -2.21 -1.79 -4 -4 -4 v -4 h -1 v 4 c 2.21 0 4 1.79 4 4 c 0 2.21 -1.79 4 -4 4 v 4 h 1 v -4 c 2.21 0 4 -1.79 4 -4 z" />
    <path fill="#3B3F96"
      d="m 24 12 c -2.21 0 -4 1.79 -4 4 h -4 v 1 h 4 c 0 -2.21 1.79 -4 4 -4 s 4 1.79 4 4 h 4 v -1 h -4 c 0 -2.21 -1.79 -4 -4 -4 z" />
  </g>
</svg>