<svg xmlns="http://www.w3.org/2000/svg" xmlns:xlink="http://www.w3.org/1999/xlink" width="80mm" height="72mm" viewBox="0 0 80 72"><defs><radialGradient id="d" cx="11878.55" cy="12505.51" r="1965.56" fx="11878.55" fy="12505.51" gradientTransform="matrix(-.01224 .01264 -.0126 -.01228 356.87 38.06)" gradientUnits="userSpaceOnUse"><stop offset="0" style="stop-opacity:1;stop-color:#fdd100"/><stop offset="1" style="stop-opacity:1;stop-color:#e62129"/></radialGradient><radialGradient xlink:href="#b" id="e" cx="8181.24" cy="15712.31" r="3338.76" fx="8181.24" fy="15712.31" gradientTransform="matrix(.0178 -.00328 .0038 .0154 -188.726 -148.053)" gradientUnits="userSpaceOnUse"/><radialGradient id="b" cx="9740.38" cy="15618.51" r="2536.41" fx="9740.38" fy="15618.51" gradientTransform="matrix(1.71669 -.4507 .4507 1.71669 -14020 -6804)" gradientUnits="userSpaceOnUse"><stop offset="0" style="stop-opacity:1;stop-color:#1691d1"/><stop offset=".69" style="stop-opacity:1;stop-color:#2f318b"/><stop offset=".122" style="stop-opacity:1;stop-color:#1973b5"/><stop offset="1" style="stop-opacity:1;stop-color:#1b5699"/></radialGradient><radialGradient xlink:href="#b" id="h" cx="9740.38" cy="15618.51" r="2536.41" fx="9740.38" fy="15618.51" gradientTransform="matrix(.01735 -.00457 .00455 .0174 -207.796 -161.134)" gradientUnits="userSpaceOnUse"/><linearGradient xlink:href="#a" id="c" x1="14245.24" x2="9492.27" y1="10128.23" y2="14870.34" gradientTransform="matrix(.0101 0 0 .01014 -66.112 -92.14)" gradientUnits="userSpaceOnUse"/><linearGradient id="a" x1="12186.69" x2="11550.46" y1="9890.15" y2="15247.58" gradientUnits="userSpaceOnUse"><stop offset="0" style="stop-opacity:1;stop-color:#fdd100"/><stop offset="1" style="stop-opacity:1;stop-color:#e62129"/></linearGradient><linearGradient id="g" x1="14748.28" x2="10968.3" y1="11309.71" y2="14141.08" gradientTransform="matrix(.0101 0 0 .01014 -66.112 -92.14)" gradientUnits="userSpaceOnUse"><stop offset="0" style="stop-opacity:1;stop-color:#e62129"/><stop offset="1" style="stop-opacity:1;stop-color:#fdd100"/></linearGradient><linearGradient xlink:href="#a" id="f" x1="12186.69" x2="11550.46" y1="9890.15" y2="15247.58" gradientTransform="matrix(.0101 0 0 .01014 -66.112 -92.14)" gradientUnits="userSpaceOnUse"/></defs><path d="M26.503 52.737h51.599l-8.22 8.86c-.999.235-2.107.456-3.338.668-7.473 1.285-28.56-5.597-43.208-3.015l-5.41-6.165L0 41.93l17.378 8.388c-9.18-14.073 2.918-23.107 2.918-23.107C7.794 30.796.868 41.947.868 41.947c8.911-3.376 15.5 6.693 16.528 8.381l4.99 2.409z" class="fil0" style="clip-rule:evenodd;fill:url(#c);fill-rule:evenodd;stroke-width:.010123;image-rendering:optimizeQuality;shape-rendering:geometricPrecision;text-rendering:geometricPrecision"/><path d="M29.779 50.983h8.885l2.724-6.5h8.386l.032-2.877-2.752-.03c-6.219-.071-5.738-7.595-3.876-12.887l-7.558-1.143c-2.485-10.025 5.367-12.749 14.493-13.653l.022-1.952c-2.688.318-5.345.856-6.653 1.765 0 0-2.667-7.05 6.742-9.808L50.266.12l.892-.12.07 3.633c2.054-.492 4.61-.797 7.794-.821 0 0-6 5.901-1.009 8.668 0 0-3.168-.001-6.627.328l.038 1.968c5.284-.426 10.844-.34 14.98-.773-5.066 5.617-10.987 17.795-2.262 28.485-10.32.102-8.101.176-12.18.14l.054 2.855h6.795l2.725 6.5h8.807c1.699 0 3.158-.832 4.028-2.296l2.497-4.204h-7.75l-.265-7.535c2.31.263 4.807 1.304 8.163 2.33-5.531-3.633-7.719-10.875-3.093-14.387l-5.493-.045-.183-5.23-.892.12-.102 5.102c-9.053.02-5.881 9.635-3.39 13.075 1.09-.588 2.118-.893 3.148-.991l-.152 7.56h-8.048l-2.724 6.501H44.113l-2.725-6.5H35.08l-.129-3.695c3.92.23 7.164 1.729 8.514 2.091-3.57-4.437-3.807-8.729-1.567-13.528-3.005-.055-5.405.28-7.317.868l-.211-6.049-.892.12-.127 6.37c-7.665 3.16-5.85 10.94-5.03 11.193a14.262 14.262 0 0 1 4.827-1.075l-.075 3.705h-9.741l2.386 4.147c.86 1.497 2.34 2.353 4.062 2.353" class="fil1" style="clip-rule:evenodd;fill:url(#d);fill-rule:evenodd;stroke-width:.010123;image-rendering:optimizeQuality;shape-rendering:geometricPrecision;text-rendering:geometricPrecision"/><path d="M12.518 65.488c14.023-5.5 28.893 2.769 42.865 5.354 16.237 3.004 28.25-7.438 23.611-16.034-.905 4.74-3.227 6.85-12.45 8.436-9.69 1.667-42.277-10.405-54.026 2.244m1.33 1.226c7.86.057 11.324.218 18.916 2.088 4.288 1.056 14.21 4.406 18.5 2.743-4.411-1.741-13.164-3.634-18.328-4.977-3.351-.872-6.103-1.478-9.737-1.467a40.125 40.125 0 0 0-4.791.31c-1.515.187-3.344.415-4.56 1.303" class="fil2" style="clip-rule:evenodd;fill:url(#e);fill-rule:evenodd;stroke-width:.010123;image-rendering:optimizeQuality;shape-rendering:geometricPrecision;text-rendering:geometricPrecision"/><path d="M50.112 52.736H78.102l-8.22 8.86c-.999.236-2.107.457-3.338.67-2.465.423-6.412-.042-11.12-.763-2.093-2.518-3.89-5.476-5.312-8.767" class="fil3" style="clip-rule:evenodd;fill:url(#f);fill-rule:evenodd;stroke-width:.010123;image-rendering:optimizeQuality;shape-rendering:geometricPrecision;text-rendering:geometricPrecision"/><path d="M73.923 24.891c-4.626 3.512-2.438 10.754 3.093 14.388-3.356-1.027-5.853-2.068-8.163-2.33l.264 7.534h7.752l-2.498 4.204c-.87 1.464-2.33 2.296-4.028 2.296h-8.807l-2.725-6.5h-6.795l-.055-2.855c4.08.036 1.861-.038 12.181-.14-8.725-10.69-2.804-22.868 2.263-28.485-4.137.432-9.697.347-14.981.773l-.001-.056C48.318 19.61 46.49 26.816 46.49 34.6c0 2.386.173 4.717.5 6.973l.063.002 2.752.031-.032 2.877h-2.268a43.973 43.973 0 0 0 1.894 6.5h6.687l2.724-6.5h8.048l.152-7.561c-1.03.098-2.057.403-3.148.99-2.491-3.439-5.663-13.054 3.39-13.074l.102-5.102.892-.12.183 5.23zM52.565 11.707c2.968-.228 5.448-.227 5.448-.227-2.318-1.286-2.264-3.247-1.543-4.98a33.087 33.087 0 0 0-3.905 5.207" class="fil4" style="clip-rule:evenodd;fill:url(#g);fill-rule:evenodd;stroke-width:.010123;image-rendering:optimizeQuality;shape-rendering:geometricPrecision;text-rendering:geometricPrecision"/><path d="M28.735 64.109c8.95 1.33 17.972 5.128 26.648 6.733 16.237 3.005 28.25-7.438 23.611-16.034 2.939 22.258-33.39 6.953-50.26 9.3" class="fil5" style="clip-rule:evenodd;fill:url(#h);fill-rule:evenodd;stroke-width:.010123;image-rendering:optimizeQuality;shape-rendering:geometricPrecision;text-rendering:geometricPrecision"/></svg>