<svg xmlns="http://www.w3.org/2000/svg"  viewBox="0 0 48 48" width="256px" height="256px"><path d="M 12 6 C 8.686 6 6 8.686 6 12 L 6 16 L 16 16 L 16 6 L 12 6 z M 19 6 L 19 16 L 29 16 L 29 6 L 19 6 z M 32 6 L 32 16 L 42 16 L 42 12 C 42 8.686 39.314 6 36 6 L 32 6 z M 30.476562 18.978516 A 1.50015 1.50015 0 0 0 30.259766 19 L 20.5 19 A 1.50015 1.50015 0 0 0 19 20.5 L 19 30.253906 A 1.50015 1.50015 0 0 0 19 30.740234 L 19 40.5 A 1.50015 1.50015 0 0 0 20.5 42 L 30.253906 42 A 1.50015 1.50015 0 0 0 30.740234 42 L 36.5 42 C 39.519774 42 42 39.519774 42 36.5 L 42 30.746094 A 1.50015 1.50015 0 0 0 42 30.259766 L 42 20.5 A 1.50015 1.50015 0 0 0 40.5 19 L 30.746094 19 A 1.50015 1.50015 0 0 0 30.476562 18.978516 z M 6 19 L 6 29 L 16 29 L 16 19 L 6 19 z M 22 22 L 29 22 L 29 29 L 22 29 L 22 22 z M 32 22 L 39 22 L 39 29 L 32 29 L 32 22 z M 6 32 L 6 36 C 6 39.314 8.686 42 12 42 L 16 42 L 16 32 L 6 32 z M 22 32 L 29 32 L 29 39 L 22 39 L 22 32 z M 32 32 L 39 32 L 39 36.5 C 39 37.898226 37.898226 39 36.5 39 L 32 39 L 32 32 z"/></svg>