<svg xmlns="http://www.w3.org/2000/svg"  viewBox="0 0 50 50" width="256px" height="256px"><path d="M 0 5 L 0 29.585938 L 11.15625 18.429688 L 15.460938 24.890625 L 20.328125 23.914063 L 24.414063 28 L 30.320313 28 L 37.320313 33 L 50 33 L 50 5 Z M 37.5 14 C 39.433594 14 41 15.566406 41 17.5 C 41 19.433594 39.433594 21 37.5 21 C 35.566406 21 34 19.433594 34 17.5 C 34 15.566406 35.566406 14 37.5 14 Z M 10.84375 21.570313 L 0 32.414063 L 0 45 L 50 45 L 50 35 L 36.679688 35 L 29.679688 30 L 23.585938 30 L 19.671875 26.085938 L 14.539063 27.109375 Z"/></svg>