<svg xmlns="http://www.w3.org/2000/svg" viewBox="10 10 50 50">
    <path d="M55 15c1.657 0 3 1.343 3 3v9H46V15H55zM52 23c1.104 0 2-.895 2-2 0-1.105-.896-2-2-2s-2 .895-2 2C50 22.105 50.896 23 52 23zM30 27V15h12v12H30zM36 19c-1.104 0-2 .895-2 2 0 1.105.896 2 2 2s2-.895 2-2C38 19.895 37.104 19 36 19zM14 18c0-1.657 1.343-3 3-3h9v12H14V18zM20 19c-1.104 0-2 .895-2 2 0 1.105.896 2 2 2s2-.895 2-2C22 19.895 21.104 19 20 19zM14 43V31h12v12H14zM20 35c-1.104 0-2 .895-2 2 0 1.105.896 2 2 2s2-.895 2-2C22 35.895 21.104 35 20 35zM14 56v-9h12v12h-9C15.343 59 14 57.657 14 56zM20 51c-1.104 0-2 .895-2 2 0 1.105.896 2 2 2s2-.895 2-2C22 51.895 21.104 51 20 51zM30 59V47h12v12H30zM46 59V47h12v9c0 1.657-1.343 3-3 3H46zM46 43V31h12v12H46zM30 43V31h12v12H30z" />
</svg>