<svg width="294" height="188" viewBox="5 55 284 123" fill="none" xmlns="http://www.w3.org/2000/svg" style="background: white">
<path d="M5.4 135V57.72H27.96V117.72H62.76V135H5.4Z" fill="#FC4D00"/>
<path d="M157.4 132V54.72H179.36L198.56 93.96L217.64 54.72H239.48V132H216.92V93.36L204.56 118.8H192.44L179.96 93.36V132H157.4Z" fill="#FC4D00"/>
<path d="M64.048 150V88.176H107.152V96.336H74.512V115.056H103.6V123.12H74.512V141.936H107.152V150H64.048ZM116.829 150V88.176H159.933V96.336H127.293V115.056H156.381V123.12H127.293V141.936H159.933V150H116.829Z" fill="#46479D"/>
<path d="M230.224 150L253.84 88.176H265.552L288.976 150H278.224L272.08 134.064H247.216L241.072 150H230.224ZM248.848 126H270.352L259.6 97.68L248.848 126Z" fill="#46479D"/>
<path d="M68.512 178V162.544H71.128V175.984H79.048V178H68.512ZM81.1214 178V162.544H91.8974V164.584H83.7374V169.264H91.0094V171.28H83.7374V175.984H91.8974V178H81.1214ZM97.3999 178.24C96.6799 178.24 96.0079 178.112 95.3839 177.856C94.7759 177.6 94.2879 177.216 93.9199 176.704C93.5519 176.176 93.3679 175.528 93.3679 174.76C93.3679 173.672 93.7359 172.8 94.4719 172.144C95.2239 171.472 96.3759 171.136 97.9279 171.136H101.576V170.632C101.576 170.088 101.488 169.656 101.312 169.336C101.152 169.016 100.848 168.784 100.4 168.64C99.9679 168.496 99.3279 168.424 98.4799 168.424C97.1359 168.424 95.8799 168.624 94.7119 169.024V167.08C95.2239 166.872 95.8479 166.704 96.5839 166.576C97.3199 166.448 98.1119 166.384 98.9599 166.384C100.624 166.384 101.888 166.72 102.752 167.392C103.632 168.064 104.072 169.16 104.072 170.68V178H101.84L101.672 176.848C101.208 177.296 100.632 177.64 99.9439 177.88C99.2719 178.12 98.4239 178.24 97.3999 178.24ZM98.0959 176.368C98.8799 176.368 99.5599 176.24 100.136 175.984C100.728 175.712 101.208 175.352 101.576 174.904V172.912H97.9759C97.2079 172.912 96.6479 173.064 96.2959 173.368C95.9599 173.656 95.7919 174.104 95.7919 174.712C95.7919 175.304 95.9919 175.728 96.3919 175.984C96.7919 176.24 97.3599 176.368 98.0959 176.368ZM106.973 178V166.624H109.373L109.517 167.944C110.061 167.592 110.709 167.272 111.461 166.984C112.213 166.696 112.957 166.496 113.693 166.384V168.376C113.245 168.456 112.757 168.576 112.229 168.736C111.717 168.88 111.229 169.048 110.765 169.24C110.301 169.416 109.909 169.6 109.589 169.792V178H106.973ZM115.598 178V166.624H117.998L118.118 167.824C118.63 167.424 119.238 167.088 119.942 166.816C120.662 166.528 121.454 166.384 122.318 166.384C123.79 166.384 124.862 166.728 125.534 167.416C126.206 168.104 126.542 169.176 126.542 170.632V178H123.95V170.752C123.95 169.872 123.766 169.256 123.398 168.904C123.046 168.552 122.374 168.376 121.382 168.376C120.79 168.376 120.206 168.496 119.63 168.736C119.07 168.976 118.598 169.288 118.214 169.672V178H115.598ZM131.384 178L128.384 166.624H131L132.968 174.904L135.2 168.016V166.624H137.192L139.664 174.904L141.632 166.624H144.224L141.248 178H138.776L136.352 170.56L133.88 178H131.384ZM149.244 178.24C148.524 178.24 147.852 178.112 147.228 177.856C146.62 177.6 146.132 177.216 145.764 176.704C145.396 176.176 145.212 175.528 145.212 174.76C145.212 173.672 145.58 172.8 146.316 172.144C147.068 171.472 148.22 171.136 149.772 171.136H153.42V170.632C153.42 170.088 153.332 169.656 153.156 169.336C152.996 169.016 152.692 168.784 152.244 168.64C151.812 168.496 151.172 168.424 150.324 168.424C148.98 168.424 147.724 168.624 146.556 169.024V167.08C147.068 166.872 147.692 166.704 148.428 166.576C149.164 166.448 149.956 166.384 150.804 166.384C152.468 166.384 153.732 166.72 154.596 167.392C155.476 168.064 155.916 169.16 155.916 170.68V178H153.684L153.516 176.848C153.052 177.296 152.476 177.64 151.788 177.88C151.116 178.12 150.268 178.24 149.244 178.24ZM149.94 176.368C150.724 176.368 151.404 176.24 151.98 175.984C152.572 175.712 153.052 175.352 153.42 174.904V172.912H149.82C149.052 172.912 148.492 173.064 148.14 173.368C147.804 173.656 147.636 174.104 147.636 174.712C147.636 175.304 147.836 175.728 148.236 175.984C148.636 176.24 149.204 176.368 149.94 176.368ZM158.817 178V166.624H161.217L161.361 167.944C161.905 167.592 162.553 167.272 163.305 166.984C164.057 166.696 164.801 166.496 165.537 166.384V168.376C165.089 168.456 164.601 168.576 164.073 168.736C163.561 168.88 163.073 169.048 162.609 169.24C162.145 169.416 161.753 169.6 161.433 169.792V178H158.817ZM167.442 178V162.544H178.218V164.584H170.058V169.264H177.33V171.28H170.058V175.984H178.218V178H167.442ZM186.168 178V162.544H188.856L193.752 172.552L198.624 162.544H201.312V178H198.72V166.792L194.544 175.336H192.96L188.76 166.792V178H186.168ZM203.876 178L209.78 162.544H212.708L218.564 178H215.876L214.34 174.016H208.124L206.588 178H203.876ZM208.532 172H213.908L211.22 164.92L208.532 172ZM221.137 178V166.624H223.537L223.681 167.944C224.225 167.592 224.873 167.272 225.625 166.984C226.377 166.696 227.121 166.496 227.857 166.384V168.376C227.409 168.456 226.921 168.576 226.393 168.736C225.881 168.88 225.393 169.048 224.929 169.24C224.465 169.416 224.073 169.6 223.753 169.792V178H221.137ZM229.762 178V161.824H232.378V171.184L237.154 166.624H240.154L235.522 171.208L240.418 178H237.658L233.89 172.6L232.378 174.04V178H229.762ZM246.842 178.24C244.858 178.24 243.322 177.752 242.234 176.776C241.146 175.8 240.602 174.304 240.602 172.288C240.602 170.464 241.066 169.024 241.994 167.968C242.922 166.912 244.33 166.384 246.218 166.384C247.946 166.384 249.242 166.84 250.106 167.752C250.986 168.648 251.426 169.808 251.426 171.232V173.344H243.098C243.226 174.448 243.626 175.208 244.298 175.624C244.97 176.04 245.994 176.248 247.37 176.248C247.946 176.248 248.538 176.192 249.146 176.08C249.754 175.968 250.282 175.824 250.73 175.648V177.568C250.218 177.792 249.626 177.96 248.954 178.072C248.298 178.184 247.594 178.24 246.842 178.24ZM243.098 171.64H249.122V170.848C249.122 170.064 248.906 169.456 248.474 169.024C248.042 168.576 247.314 168.352 246.29 168.352C245.074 168.352 244.234 168.616 243.77 169.144C243.322 169.672 243.098 170.504 243.098 171.64ZM258.317 178.24C257.101 178.24 256.189 177.92 255.581 177.28C254.989 176.624 254.693 175.736 254.693 174.616V168.664H253.013V166.624H254.693V164.008L257.285 163.216V166.624H260.309L260.141 168.664H257.285V174.472C257.285 175.128 257.437 175.592 257.741 175.864C258.045 176.12 258.541 176.248 259.229 176.248C259.661 176.248 260.117 176.168 260.597 176.008V177.856C259.973 178.112 259.213 178.24 258.317 178.24Z" fill="black"/>
</svg>
