<svg xmlns="http://www.w3.org/2000/svg" width="256" height="64" viewBox="0 0 128 32"><path fill="#308014" d="M0 4v12h4c0 2.21 1.79 4 4 4s4-1.79 4-4h4v-4c-2.21 0-4-1.79-4-4s1.79-4 4-4V0H4a4 4 0 0 0-4 4Z"/><path fill="#fdd835" d="M12 8c0 2.21 1.79 4 4 4v4h4c0-2.21 1.79-4 4-4s4 1.79 4 4h4V4a4 4 0 0 0-4-4H16v4c-2.21 0-4 1.79-4 4z"/><path fill="#ddc825" d="M13 8c0-2.21 1.79-4 4-4V0h-1v4c-2.21 0-4 1.79-4 4s1.79 4 4 4v4h1v-4c-2.21 0-4-1.79-4-4z"/><path fill="#fc4d00" d="M0 16v12a4 4 0 0 0 4 4h12v-4c2.21 0 4-1.79 4-4s-1.79-4-4-4v-4h-4c0 2.21-1.79 4-4 4s-4-1.79-4-4z"/><path fill="#dc3d00" d="M8 21c2.21 0 4-1.79 4-4h4v-1h-4c0 2.21-1.79 4-4 4s-4-1.79-4-4H0v1h4c0 2.21 1.79 4 4 4z"/><path fill="#4b4fa6" d="M20 24c0 2.21-1.79 4-4 4v4h12a4 4 0 0 0 4-4V16h-4c0-2.21-1.79-4-4-4s-4 1.79-4 4h-4v4c2.21 0 4 1.79 4 4z"/><path fill="#3b3f96" d="M21 24c0-2.21-1.79-4-4-4v-4h-1v4c2.21 0 4 1.79 4 4s-1.79 4-4 4v4h1v-4c2.21 0 4-1.79 4-4z"/><path fill="#3b3f96" d="M24 12c-2.21 0-4 1.79-4 4h-4v1h4c0-2.21 1.79-4 4-4s4 1.79 4 4h4v-1h-4c0-2.21-1.79-4-4-4z"/><path fill="#FC4D00" d="M39.879 21h6.833v-1.824h-4.621v-8.745h-2.212z"/><path fill="#4B4FA6" d="M47.745 21h7.002v-1.824h-4.79v-2.658h4.52v-1.729h-4.52v-2.534h4.79V10.43h-7.002zM55.355 21h2.322l2.644-8.518h.674v-2.05h-1.949zm1.985-2.563h6.013l-.542-1.656h-4.93ZM63.009 21h2.322l-3.685-10.569h-1.281v2.05zM65.558 21h2.212v-3.83H69.542l1.97 3.83h2.505l-2.226-4.16q.878-.344 1.391-1.157.52-.813.52-1.853v-.015q0-1.062-.454-1.816-.447-.762-1.296-1.165-.843-.403-2.03-.403h-4.364zm2.212-5.508V12.16h1.882q.82 0 1.304.446.483.447.483 1.209v.015q0 .776-.469 1.223-.461.44-1.289.44zM74.544 21h2.205v-6.921h.93l-1.853-1.4L81.583 21h1.919V10.431h-2.205v6.87h-.922l1.853 1.4-5.75-8.27h-1.934z"/><path fill="#FC4D00" d="M87.267 21h2.16l1.948-7.083h.044L93.36 21h2.161l2.805-10.569h-2.292l-1.678 7.573h-.043l-1.949-7.573h-1.94l-1.949 7.573h-.044l-1.67-7.573H84.47z"/><path fill="#4B4FA6" d="M98.216 21h2.322l2.644-8.518h.674v-2.05h-1.948zm1.985-2.563h6.013l-.542-1.656h-4.929zm5.67 2.563h2.32l-3.683-10.569h-1.282v2.05zM108.419 21h2.212v-3.83h1.772l1.97 3.83h2.505l-2.226-4.16q.879-.344 1.391-1.157.52-.813.52-1.853v-.015q0-1.062-.454-1.816-.446-.762-1.296-1.165-.842-.403-2.029-.403h-4.365zm2.212-5.508V12.16h1.882q.82 0 1.304.446.483.447.483 1.209v.015q0 .776-.468 1.223-.462.44-1.29.44zM117.406 21h7.002v-1.824h-4.79v-2.658h4.519v-1.729h-4.52v-2.534h4.79V10.43h-7.001z"/></svg>