<svg width="1440" height="825" fill="none" xmlns="http://www.w3.org/2000/svg" xmlns:xlink="http://www.w3.org/1999/xlink" viewBox="0 0 1440 825">
  <defs>
    <g id="developer-logo">
      <path d="M 256 28 A 228 228 0 0 0 94.779297 417.2207 A 228 228 0 1 0 417.2207 94.779297 A 226.51 226.51 0 0 0 256 28 z M 256 48 C 370.691 48 464 141.309 464 256 A 207.435 207.435 0 0 1 399.25195 406.66992 L 399.25195 403.71289 C 399.25195 324.72489 334.98995 260.46289 256.00195 260.46289 C 177.01395 260.46289 112.75195 324.72489 112.75195 403.71289 L 112.75195 406.67383 A 207.435 207.435 0 0 1 48 256 C 48 141.309 141.309 48 256 48 z M 256.45508 95.146484 A 77.308 77.308 0 1 0 333.76367 172.45508 A 77.4 77.4 0 0 0 256.45508 95.146484 z M 254.07227 115.19727 A 57.308 57.308 0 0 1 313.76367 172.45508 A 57.373 57.373 0 0 1 256.45508 229.76367 A 57.308 57.308 0 0 1 254.07227 115.19727 z M 259.59961 280.51367 A 123.25 123.25 0 0 1 379.25195 403.71094 L 379.25195 423.44141 A 207.546 207.546 0 0 1 132.75195 423.44141 L 132.75195 403.71094 A 123.25 123.25 0 0 1 259.59961 280.51367 z" fill="black" transform="scale(0.09)" />
    </g>
    <g id="cloud" transform="scale(0.22)">
      <g transform="translate(-123 -1297)"><path d="M185.783 1455.07C181.667 1425.5 191.266 1395.68 211.953 1373.74 244.639 1339.07 297.632 1331.34 339.264 1355.15 364.674 1308.37 429.014 1298.7 467.623 1335.87 477.359 1316.8 496.056 1303.63 517.639 1300.64 541.394 1297.35 565.119 1306.85 579.67 1325.5 600.66 1301.37 635.382 1293.45 665.182 1305.98 687.889 1315.53 704.171 1335.52 708.545 1359.23 734.791 1366.23 755.691 1385.63 764.197 1410.91 770.378 1429.26 769.497 1449.19 761.706 1466.95 780.858 1491.29 787.557 1522.85 779.902 1552.63 769.725 1592.21 736.037 1621.85 694.663 1627.63 694.465 1652.33 683.332 1675.76 664.149 1691.89 635.002 1716.4 592.899 1719.55 560.259 1699.67 549.703 1733.82 521.436 1759.92 486.017 1768.23 444.278 1778.03 400.717 1761.33 376.856 1726.38 320.536 1759.56 247.388 1740.91 214.702 1685.04 182.593 1688.71 152.444 1669.26 143.406 1639.03 136.86 1617.15 142.647 1593.55 158.641 1576.92 135.949 1563.87 123.312 1538.84 126.471 1513.2 130.177 1483.17 154.57 1459.66 185.221 1456.56 185.403 1456.06 185.6 1455.57 185.783 1455.07Z" fill="#E2F0D9" fill-rule="evenodd" fill-opacity="1"/></g>
    </g>
    <g id="arrow">
      <path d="M0 5h57v-6l16 14l-16 14v-6h-57z" stroke="black" />
    </g>
    <g id="nn">
      <circle cx="25" cy="10" r="10" fill="black" />
      <circle cx="55" cy="10" r="10" fill="black" />
      <circle cx="85" cy="10" r="10" fill="black" />
      <path d="M25 20L10 40" stroke="black" />
      <path d="M25 20L40 40" stroke="black" />
      <path d="M25 20L70 40" stroke="black" />
      <path d="M25 20L100 40" stroke="black" />
      <path d="M55 20L10 40" stroke="black" />
      <path d="M55 20L40 40" stroke="black" />
      <path d="M55 20L70 40" stroke="black" />
      <path d="M55 20L100 40" stroke="black" />
      <path d="M85 20L10 40" stroke="black" />
      <path d="M85 20L40 40" stroke="black" />
      <path d="M85 20L70 40" stroke="black" />
      <path d="M85 20L100 40" stroke="black" />
      <circle cx="10" cy="50" r="10" fill="black" />
      <circle cx="40" cy="50" r="10" fill="black" />
      <circle cx="70" cy="50" r="10" fill="black" />
      <circle cx="100" cy="50" r="10" fill="black" />
      <path d="M10 60L10 80" stroke="black" />
      <path d="M10 60L40 80" stroke="black" />
      <path d="M10 60L70 80" stroke="black" />
      <path d="M10 60L100 80" stroke="black" />
      <path d="M40 60L10 80" stroke="black" />
      <path d="M40 60L40 80" stroke="black" />
      <path d="M40 60L70 80" stroke="black" />
      <path d="M40 60L100 80" stroke="black" />
      <path d="M70 60L10 80" stroke="black" />
      <path d="M70 60L40 80" stroke="black" />
      <path d="M70 60L70 80" stroke="black" />
      <path d="M70 60L100 80" stroke="black" />
      <path d="M100 60L10 80" stroke="black" />
      <path d="M100 60L40 80" stroke="black" />
      <path d="M100 60L70 80" stroke="black" />
      <path d="M100 60L100 80" stroke="black" />
      <circle cx="10" cy="90" r="10" fill="black" />
      <circle cx="40" cy="90" r="10" fill="black" />
      <circle cx="70" cy="90" r="10" fill="black" />
      <circle cx="100" cy="90" r="10" fill="black" />
    </g>
  </defs>

  <g style="opacity: 10%">
    <image xlink:href="./process.png" />
  </g>

  <g id="developers">
    <path d="M22 746 h216 v52 h-216 v-52" stroke="black" stroke-dasharray="4" />
    <use xlink:href="#developer-logo" transform="translate(29, 749)" />
    <text>
      <tspan x="80" y="780" fill="black" font-size="25">Developers</tspan>
    </text>
  </g>

  <g id="submitting-stage">
    <text text-anchor="middle">
      <tspan x="436" y="785" fill="black" font-size="28" font-weight="800">Submitting Stage</tspan>
    </text>
    <path d="M436 746 l-2 -9 h-250 l-1 -12" stroke="black" />
    <path d="M436 746 l2 -9 h250 l1 -12" stroke="black" />
  </g>

  <g id="task-1">
    <use xlink:href="#cloud" transform="translate(24, 100)" />
    <use xlink:href="#arrow" transform="translate(182, 156)" />
    <use xlink:href="#developer-logo" transform="translate(196, 105)" />
    <use xlink:href="#nn" />
  </g>
</svg>