<?xml version="1.0"?><svg xmlns="http://www.w3.org/2000/svg"  viewBox="0 0 50 50" width="256px" height="256px">    <path d="M 13 1 C 12.448 1 12 1.448 12 2 L 12 5 L 14 5 L 14 2 C 14 1.448 13.552 1 13 1 z M 21 1 C 20.448 1 20 1.448 20 2 L 20 5 L 22 5 L 22 2 C 22 1.448 21.552 1 21 1 z M 29 1 C 28.448 1 28 1.448 28 2 L 28 5 L 30 5 L 30 2 C 30 1.448 29.552 1 29 1 z M 37 1 C 36.448 1 36 1.448 36 2 L 36 5 L 38 5 L 38 2 C 38 1.448 37.552 1 37 1 z M 9 6 C 7.343 6 6 7.343 6 9 L 6 41 C 6 42.657 7.343 44 9 44 L 41 44 C 42.657 44 44 42.657 44 41 L 44 9 C 44 7.343 42.657 6 41 6 L 9 6 z M 12 10 C 13.104 10 14 10.896 14 12 C 14 13.104 13.104 14 12 14 C 10.896 14 10 13.104 10 12 C 10 10.896 10.896 10 12 10 z M 2 12 C 1.448 12 1 12.448 1 13 C 1 13.552 1.448 14 2 14 L 5 14 L 5 12 L 2 12 z M 45 12 L 45 14 L 48 14 C 48.553 14 49 13.552 49 13 C 49 12.448 48.553 12 48 12 L 45 12 z M 2 20 C 1.448 20 1 20.448 1 21 C 1 21.552 1.448 22 2 22 L 5 22 L 5 20 L 2 20 z M 45 20 L 45 22 L 48 22 C 48.553 22 49 21.552 49 21 C 49 20.448 48.553 20 48 20 L 45 20 z M 2 28 C 1.448 28 1 28.448 1 29 C 1 29.552 1.448 30 2 30 L 5 30 L 5 28 L 2 28 z M 45 28 L 45 30 L 48 30 C 48.553 30 49 29.552 49 29 C 49 28.448 48.553 28 48 28 L 45 28 z M 2 36 C 1.448 36 1 36.448 1 37 C 1 37.552 1.448 38 2 38 L 5 38 L 5 36 L 2 36 z M 38 36 C 39.104 36 40 36.896 40 38 C 40 39.104 39.104 40 38 40 C 36.896 40 36 39.104 36 38 C 36 36.896 36.896 36 38 36 z M 45 36 L 45 38 L 48 38 C 48.553 38 49 37.552 49 37 C 49 36.448 48.553 36 48 36 L 45 36 z M 12 45 L 12 48 C 12 48.553 12.447 49 13 49 C 13.553 49 14 48.553 14 48 L 14 45 L 12 45 z M 20 45 L 20 48 C 20 48.553 20.447 49 21 49 C 21.553 49 22 48.553 22 48 L 22 45 L 20 45 z M 28 45 L 28 48 C 28 48.553 28.447 49 29 49 C 29.553 49 30 48.553 30 48 L 30 45 L 28 45 z M 36 45 L 36 48 C 36 48.553 36.447 49 37 49 C 37.553 49 38 48.553 38 48 L 38 45 L 36 45 z"/></svg>