<svg xmlns="http://www.w3.org/2000/svg"  viewBox="0 0 60 42" width="256px" height="256px"><path d="M 1.0292969 0 C 0.47729687 0 0.029296875 0.448 0.029296875 1 C 0.029296875 1.552 0.47729687 2 1.0292969 2 L 6.0292969 2 L 6.0292969 6 L 6.0292969 7 L 3.0292969 7 C 2.4772969 7 2.0292969 7.448 2.0292969 8 C 2.0292969 8.552 2.4772969 9 3.0292969 9 L 6.0292969 9 L 6.0292969 11 L 3.0292969 11 C 2.4772969 11 2.0292969 11.448 2.0292969 12 L 2.0292969 20 C 2.0292969 20.552 2.4772969 21 3.0292969 21 L 6.0292969 21 L 6.0292969 23 L 3.0292969 23 C 2.4772969 23 2.0292969 23.448 2.0292969 24 C 2.0292969 24.552 2.4772969 25 3.0292969 25 L 6.0292969 25 L 6.0292969 27 L 3.0292969 27 C 2.4772969 27 2.0292969 27.448 2.0292969 28 L 2.0292969 36 C 2.0292969 36.552 2.4772969 37 3.0292969 37 L 6.0292969 37 L 6.0292969 41 C 6.0292969 41.552 6.4772969 42 7.0292969 42 C 7.5812969 42 8.0292969 41.552 8.0292969 41 L 8.0292969 36 L 8.0292969 35 L 13.029297 35 L 13.029297 41 C 13.029297 41.552 13.477297 42 14.029297 42 L 36.029297 42 C 36.581297 42 37.029297 41.552 37.029297 41 L 37.029297 35 L 41.029297 35 L 41.029297 41 C 41.029297 41.552 41.477297 42 42.029297 42 L 50.029297 42 C 50.581297 42 51.029297 41.552 51.029297 41 L 51.029297 35 L 54.03125 35 C 57.33925 35 60.029297 32.309953 60.029297 29.001953 L 60.029297 10.998047 C 60.029297 7.6910469 57.33925 5 54.03125 5 L 8.0292969 5 L 8.0292969 1 C 8.0292969 0.448 7.5812969 0 7.0292969 0 L 1.0292969 0 z M 21.029297 9 C 21.508297 9 21.977844 9.0414687 22.464844 9.1054688 C 25.407844 9.4914687 27.984703 11.04125 29.720703 13.28125 C 29.757703 13.31625 29.779547 13.362344 29.810547 13.402344 C 31.196547 15.243344 32.029297 17.524 32.029297 20 C 32.029297 20.479 31.988781 20.948547 31.925781 21.435547 C 31.925781 21.803547 31.799844 22.214312 31.714844 22.570312 C 31.624844 22.947312 31.513812 23.320547 31.382812 23.685547 C 31.125812 24.405547 30.793578 25.097047 30.392578 25.748047 C 29.530578 27.147047 28.358469 28.339422 26.980469 29.232422 C 25.604469 30.124422 24.03325 30.705109 22.40625 30.912109 C 21.94825 30.970109 21.489297 31 21.029297 31 C 20.550297 31 20.08075 30.958531 19.59375 30.894531 C 16.65075 30.508531 14.075844 28.95975 12.339844 26.71875 C 12.302844 26.68375 12.279047 26.637656 12.248047 26.597656 C 10.862047 24.756656 10.029297 22.476 10.029297 20 C 10.029297 19.521 10.070813 19.051406 10.132812 18.566406 C 10.518812 15.622406 12.070547 13.046547 14.310547 11.310547 C 14.346547 11.273547 14.390641 11.24975 14.431641 11.21875 C 16.270641 9.83275 18.553297 9 21.029297 9 z M 45.029297 9.0019531 C 45.508297 9.0019531 45.977844 9.0414687 46.464844 9.1054688 C 49.407844 9.4914687 51.984703 11.043203 53.720703 13.283203 C 53.757703 13.318203 53.779547 13.364297 53.810547 13.404297 C 55.196547 15.245297 56.029297 17.525953 56.029297 20.001953 C 56.030297 20.479953 55.989781 20.948547 55.925781 21.435547 C 55.925781 22.083547 55.67075 22.823594 55.46875 23.433594 C 55.25475 24.083594 54.979437 24.712547 54.648438 25.310547 C 53.997437 26.485547 53.129516 27.537297 52.103516 28.404297 C 50.137516 30.065297 47.604297 31.001953 45.029297 31.001953 C 44.550297 31.001953 44.08075 30.960484 43.59375 30.896484 C 40.64975 30.510484 38.074844 28.95875 36.339844 26.71875 C 36.302844 26.68375 36.279047 26.637656 36.248047 26.597656 C 34.862047 24.756656 34.029297 22.477953 34.029297 20.001953 C 34.029297 19.522953 34.070813 19.053359 34.132812 18.568359 C 34.518813 15.624359 36.070547 13.046547 38.310547 11.310547 C 38.346547 11.273547 38.390641 11.251703 38.431641 11.220703 C 40.271641 9.8347031 42.553297 9.0019531 45.029297 9.0019531 z M 21.029297 11 C 19.898297 11 18.820266 11.219563 17.822266 11.601562 C 19.816266 12.440563 21.530641 14.092328 21.931641 16.111328 C 22.285641 16.193328 22.614781 16.331 22.925781 16.5 C 23.738781 14.919 23.176594 12.477875 21.933594 11.046875 C 21.636594 11.016875 21.334297 11 21.029297 11 z M 45.029297 11 C 43.898297 11 42.820266 11.219563 41.822266 11.601562 C 43.816266 12.440563 45.530641 14.092328 45.931641 16.111328 C 46.285641 16.193328 46.614781 16.331 46.925781 16.5 C 47.738781 14.919 47.176594 12.477875 45.933594 11.046875 C 45.636594 11.016875 45.334297 11 45.029297 11 z M 24.701172 11.789062 C 25.519172 13.794062 25.562016 16.180578 24.416016 17.892578 C 24.603016 18.193578 24.744656 18.521187 24.847656 18.867188 C 26.531656 18.327188 27.867672 16.215031 28.013672 14.332031 C 27.129672 13.244031 25.995172 12.370063 24.701172 11.789062 z M 48.701172 11.789062 C 49.519172 13.794062 49.562016 16.180578 48.416016 17.892578 C 48.603016 18.193578 48.744656 18.521187 48.847656 18.867188 C 50.531656 18.327188 51.867672 16.215031 52.013672 14.332031 C 51.129672 13.244031 49.995172 12.370063 48.701172 11.789062 z M 4.0292969 13 L 6.0292969 13 L 6.0292969 19 L 4.0292969 19 L 4.0292969 13 z M 15.363281 13.015625 C 14.270281 13.904625 13.3935 15.045656 12.8125 16.347656 C 13.4805 16.071656 14.183438 15.860438 14.898438 15.773438 C 16.452438 15.581437 17.845828 15.884281 18.923828 16.613281 C 19.223828 16.426281 19.550484 16.286594 19.896484 16.183594 C 19.356484 14.499594 17.247281 13.160625 15.363281 13.015625 z M 39.363281 13.015625 C 38.270281 13.904625 37.3935 15.045656 36.8125 16.347656 C 37.4805 16.071656 38.183437 15.860438 38.898438 15.773438 C 40.452438 15.581437 41.845828 15.884281 42.923828 16.613281 C 43.223828 16.426281 43.550484 16.286594 43.896484 16.183594 C 43.356484 14.499594 41.247281 13.160625 39.363281 13.015625 z M 29.427734 16.792969 C 28.589734 18.787969 26.936969 20.501344 24.917969 20.902344 C 24.835969 21.252344 24.700203 21.578719 24.533203 21.886719 C 25.181203 22.218719 26.008922 22.352234 26.919922 22.240234 C 28.069922 22.101234 29.180422 21.600344 29.982422 20.902344 C 30.012422 20.605344 30.029297 20.303047 30.029297 19.998047 C 30.029297 18.867047 29.810734 17.790969 29.427734 16.792969 z M 53.427734 16.792969 C 52.589734 18.787969 50.936969 20.501344 48.917969 20.902344 C 48.835969 21.252344 48.700203 21.578719 48.533203 21.886719 C 49.181203 22.218719 50.008922 22.352234 50.919922 22.240234 C 52.069922 22.101234 53.180422 21.600344 53.982422 20.902344 C 54.012422 20.605344 54.029297 20.303047 54.029297 19.998047 C 54.029297 18.867047 53.810734 17.790969 53.427734 16.792969 z M 15.806641 17.720703 C 15.590922 17.718531 15.368625 17.732266 15.140625 17.759766 C 13.990625 17.898766 12.877172 18.399656 12.076172 19.097656 C 12.046172 19.394656 12.029297 19.695 12.029297 20 C 12.029297 21.131 12.248859 22.209031 12.630859 23.207031 C 13.469859 21.213031 15.123578 19.498656 17.142578 19.097656 C 17.223578 18.747656 17.358391 18.422281 17.525391 18.113281 C 17.039391 17.865031 16.453797 17.727219 15.806641 17.720703 z M 39.806641 17.720703 C 39.590969 17.718531 39.368375 17.732266 39.140625 17.759766 C 37.990625 17.898766 36.877172 18.399656 36.076172 19.097656 C 36.046172 19.394656 36.029297 19.695 36.029297 20 C 36.029297 21.131 36.248859 22.209031 36.630859 23.207031 C 37.469859 21.213031 39.123578 19.498656 41.142578 19.097656 C 41.223578 18.747656 41.358391 18.422281 41.525391 18.113281 C 41.039391 17.865031 40.453656 17.727219 39.806641 17.720703 z M 21.029297 18 A 2 2 0 0 0 21.029297 22 A 2 2 0 0 0 21.029297 18 z M 45.029297 18 A 2 2 0 0 0 45.029297 22 A 2 2 0 0 0 45.029297 18 z M 17.212891 21.132812 C 15.528891 21.672812 14.191875 23.784969 14.046875 25.667969 C 14.931875 26.755969 16.065375 27.629937 17.359375 28.210938 C 16.541375 26.205938 16.498531 23.819422 17.644531 22.107422 C 17.457531 21.806422 17.315891 21.478812 17.212891 21.132812 z M 41.212891 21.132812 C 39.528891 21.672812 38.191875 23.784969 38.046875 25.667969 C 38.931875 26.755969 40.065375 27.629937 41.359375 28.210938 C 40.541375 26.205938 40.498531 23.819422 41.644531 22.107422 C 41.457531 21.806422 41.315891 21.478812 41.212891 21.132812 z M 23.136719 23.386719 C 22.836719 23.574719 22.509109 23.713406 22.162109 23.816406 C 22.702109 25.500406 24.811312 26.839375 26.695312 26.984375 C 27.788312 26.095375 28.665094 24.954344 29.246094 23.652344 C 28.578094 23.928344 27.875156 24.139562 27.160156 24.226562 C 26.854156 24.264562 26.552766 24.28125 26.259766 24.28125 C 25.067766 24.28125 24.001719 23.969719 23.136719 23.386719 z M 47.136719 23.386719 C 46.836719 23.574719 46.509109 23.713406 46.162109 23.816406 C 46.702109 25.500406 48.811313 26.839375 50.695312 26.984375 C 51.788313 26.095375 52.665094 24.954344 53.246094 23.652344 C 52.578094 23.928344 51.875156 24.139562 51.160156 24.226562 C 50.854156 24.264562 50.552766 24.28125 50.259766 24.28125 C 49.067766 24.28125 48.001719 23.969719 47.136719 23.386719 z M 19.134766 23.5 C 18.321766 25.081 18.883953 27.522125 20.126953 28.953125 C 20.423953 28.983125 20.724297 29 21.029297 29 C 22.160297 29 23.238328 28.780438 24.236328 28.398438 C 22.242328 27.559438 20.529906 25.907672 20.128906 23.888672 C 19.774906 23.806672 19.445766 23.669 19.134766 23.5 z M 43.132812 23.5 C 42.319812 25.081 42.883953 27.522125 44.126953 28.953125 C 44.423953 28.983125 44.725297 29 45.029297 29 C 46.160297 29 47.238328 28.780438 48.236328 28.398438 C 46.243328 27.559437 44.528953 25.907672 44.126953 23.888672 C 43.772953 23.806672 43.443813 23.669 43.132812 23.5 z M 4.0292969 29 L 6.0292969 29 L 6.0292969 34 L 6.0292969 35 L 4.0292969 35 L 4.0292969 29 z M 15.029297 35 L 35.029297 35 L 35.029297 40 L 32.029297 40 L 32.029297 38 C 32.029297 37.448 31.581297 37 31.029297 37 C 30.477297 37 30.029297 37.448 30.029297 38 L 30.029297 40 L 28.029297 40 L 28.029297 38 C 28.029297 37.448 27.581297 37 27.029297 37 C 26.477297 37 26.029297 37.448 26.029297 38 L 26.029297 40 L 24.029297 40 L 24.029297 38 C 24.029297 37.448 23.581297 37 23.029297 37 C 22.477297 37 22.029297 37.448 22.029297 38 L 22.029297 40 L 20.029297 40 L 20.029297 38 C 20.029297 37.448 19.581297 37 19.029297 37 C 18.477297 37 18.029297 37.448 18.029297 38 L 18.029297 40 L 15.029297 40 L 15.029297 35 z M 43.029297 35 L 49.029297 35 L 49.029297 40 L 47.029297 40 L 47.029297 38 C 47.029297 37.448 46.581297 37 46.029297 37 C 45.477297 37 45.029297 37.448 45.029297 38 L 45.029297 40 L 43.029297 40 L 43.029297 35 z"/></svg>