<svg xmlns="http://www.w3.org/2000/svg"  viewBox="0 0 468 468" width="256px" height="256px"><path d="M 37.205078 0 C 34.330078 -5.9211895e-16 32 2.3357969 32 5.2167969 L 32 41.185547 C 32 44.066547 34.330078 46.400391 37.205078 46.400391 C 40.080078 46.400391 42.412109 44.066547 42.412109 41.185547 L 42.412109 10.431641 L 72.751953 10.431641 C 75.626953 10.431641 77.957031 8.0977969 77.957031 5.2167969 C 77.957031 2.3357969 75.626953 0 72.751953 0 L 37.205078 0 z M 395.24609 0 C 392.37109 -5.9211895e-16 390.04297 2.3357969 390.04297 5.2167969 C 390.04297 8.0977969 392.37205 10.431641 395.24805 10.431641 L 425.58789 10.431641 L 425.58789 41.185547 C 425.58789 44.066547 427.91892 46.400391 430.79492 46.400391 C 433.66992 46.400391 436 44.066547 436 41.185547 L 436 5.2167969 C 436 2.3357969 433.66897 0 430.79297 0 L 395.24609 0 z M 233.61914 0.65820312 C 180.58514 0.65820312 143.197 43.235656 135.375 112.09766 C 154.363 117.67666 175.26853 109.03183 184.26953 91.298828 L 197.33789 65.550781 C 200.84689 60.537781 205.14577 63.458484 206.13477 64.771484 C 235.49477 103.98648 285.09934 121.77128 333.27734 111.36328 C 327.60934 47.928281 285.39814 0.65820313 233.61914 0.65820312 z M 202.9707 77.470703 L 193.55273 96.027344 C 189.10373 104.79134 182.33905 111.97484 173.87305 116.96484 L 173.87305 157.49219 C 173.87305 190.49819 200.67414 217.34961 233.61914 217.34961 C 266.56414 217.34961 293.36523 190.49819 293.36523 157.49219 L 293.36523 124.08594 C 258.06623 120.82894 225.7317 104.1207 202.9707 77.470703 z M 163.46094 121.66406 C 154.10594 124.71106 144.06567 125.06383 134.51367 122.67383 C 134.03767 130.17283 133.79688 136.36662 133.79688 141.14062 L 133.79688 222.7207 C 133.79688 258.2537 161.82062 287.46789 197.26562 290.08789 L 197.4082 217.70508 C 176.3892 205.00508 163.46094 182.21623 163.46094 157.49023 L 163.46094 121.66406 z M 333.62109 121.90039 C 323.81809 123.80639 313.81434 124.84963 303.77734 124.64062 L 303.77734 157.49023 C 303.77734 181.28123 292.13075 202.9483 272.46875 216.0293 L 272.31055 290.08203 C 305.76555 288.22803 334.50447 258.20414 333.73047 224.49414 L 333.62109 121.90039 z M 262.04492 221.75781 C 253.13592 225.71781 243.46414 227.78125 233.61914 227.78125 C 224.76514 227.78125 215.99055 226.09447 207.81055 222.85547 L 207.72461 266.01758 C 212.47761 276.10658 222.59802 282.56836 233.79102 282.56836 C 247.36502 282.56836 259.13589 273.01039 261.96289 259.77539 L 262.04492 221.75781 z M 37.205078 224.20703 C 34.330078 224.20703 32 226.54283 32 229.42383 L 32 265.39258 C 32 268.27358 34.330078 270.60742 37.205078 270.60742 L 72.753906 270.60742 C 75.628906 270.60742 77.958031 268.27358 77.957031 265.39258 C 77.957031 262.51158 75.626953 260.17578 72.751953 260.17578 L 42.412109 260.17578 L 42.412109 229.42383 C 42.412109 226.54283 40.080078 224.20703 37.205078 224.20703 z M 430.79492 235.06641 C 427.91992 235.06641 425.58789 237.40025 425.58789 240.28125 L 425.58789 271.03516 L 395.24805 271.03516 C 392.37305 271.03516 390.04297 273.37095 390.04297 276.25195 C 390.04297 279.13295 392.37205 281.4668 395.24805 281.4668 L 430.79492 281.4668 C 433.66992 281.4668 436 279.13295 436 276.25195 L 436 240.28125 C 436 237.40025 433.66992 235.06641 430.79492 235.06641 z M 139.37695 269.72852 C 120.10395 290.12152 109.56055 316.5902 109.56055 344.9082 L 109.56055 370.85938 L 151.39648 370.85938 L 151.39648 333.36328 C 151.39648 330.48228 153.72656 328.14648 156.60156 328.14648 C 159.47656 328.14648 161.80859 330.48228 161.80859 333.36328 L 161.80859 468 L 305.64844 468 L 305.64844 333.36133 C 305.64844 330.48033 307.98047 328.14453 310.85547 328.14453 C 313.73047 328.14453 316.06055 330.48033 316.06055 333.36133 L 316.06055 370.85742 L 357.89648 370.85742 L 357.89648 345.44922 L 357.89648 345.42578 C 358.02948 317.24078 347.69964 290.81914 328.68164 270.36914 C 314.15064 289.47914 291.57775 300.71289 267.09375 300.71289 C 264.29175 300.76789 261.82667 298.29037 261.88867 295.48438 L 261.91992 281.07617 C 254.72392 288.48017 244.68597 293.00195 233.79297 293.00195 C 223.96097 293.00195 214.73541 289.34073 207.69141 283.05273 L 207.66797 295.50586 C 207.66197 298.38286 205.33194 300.71289 202.46094 300.71289 C 177.43194 300.71289 154.29695 289.24052 139.37695 269.72852 z M 109.55859 381.28906 L 109.55859 468 L 151.39453 468 L 151.39453 381.28906 L 109.55859 381.28906 z M 316.06055 381.28906 L 316.06055 468 L 357.89453 468 L 357.89453 381.28906 L 316.06055 381.28906 z"/></svg>