<svg xmlns="http://www.w3.org/2000/svg"  viewBox="0 0 110 110"><path d="M 35.753906 8.5429688 C 31.818572 8.4021859 29.742188 13.539062 29.742188 13.539062 C 25.766968 12.228027 24.751953 18.021484 24.751953 18.021484 C 22.554871 17.972656 21.800354 20.442627 21.550781 22.541016 L 15.683594 22.541016 C 15.156677 22.541016 14.728516 22.967285 14.728516 23.494141 L 14.728516 26.605469 C 14.728516 27.132324 15.156677 27.560547 15.683594 27.560547 L 30.816406 27.560547 C 31.343262 27.560547 31.769531 27.132324 31.769531 26.605469 L 31.769531 23.494141 C 31.769531 22.967285 31.343262 22.541016 30.816406 22.541016 L 27.480469 22.541016 C 28.536621 21.552124 28.347656 20.136719 28.347656 20.136719 C 31.688538 21.363037 32.449219 17.894531 32.449219 17.894531 C 37.904541 18.401978 37.330078 13.455078 37.330078 13.455078 C 39.093994 13.476196 39.681458 12.682861 39.828125 11.884766 C 39.991638 10.994507 39.53064 10.107178 38.773438 9.6113281 C 37.669827 8.8886108 36.66206 8.5754571 35.753906 8.5429688 z M 17.878906 29.560547 L 17.560547 35.646484 L 28.935547 35.646484 L 28.619141 29.560547 L 17.878906 29.560547 z M 51.21875 29.792969 C 48.831055 29.792969 46.888672 31.735353 46.888672 34.123047 L 46.888672 44.242188 C 46.888672 44.260742 46.897461 44.276611 46.898438 44.294922 C 42.294189 44.788818 38.708984 48.684936 38.708984 53.429688 L 38.708984 69.976562 C 38.707825 69.976562 38.706238 69.974609 38.705078 69.974609 L 30.728516 69.974609 L 30.556641 66.667969 L 15.941406 66.667969 L 15.541016 74.347656 L 30.957031 74.347656 L 30.832031 71.974609 L 38.705078 71.974609 C 38.706238 71.974609 38.707825 71.974609 38.708984 71.974609 L 38.708984 75.871094 L 57.068359 75.871094 L 57.068359 53.429688 C 57.068359 48.609985 53.411621 44.788086 48.876953 44.296875 C 48.877991 44.278076 48.888672 44.26123 48.888672 44.242188 L 48.888672 34.123047 C 48.888672 32.837891 49.934082 31.792969 51.21875 31.792969 L 74.154297 31.792969 C 75.439453 31.792969 76.486328 32.837891 76.486328 34.123047 L 76.486328 44.242188 C 76.486328 44.260864 76.495056 44.276367 76.496094 44.294922 C 71.884094 44.789307 68.298828 48.685303 68.298828 53.429688 L 68.298828 75.871094 L 86.667969 75.871094 L 86.667969 53.429688 C 86.667969 48.671997 83.061951 44.787598 78.474609 44.294922 C 78.475586 44.276489 78.486328 44.260742 78.486328 44.242188 L 78.486328 34.123047 C 78.486328 31.735353 76.541992 29.792969 74.154297 29.792969 L 51.21875 29.792969 z M 17.457031 37.646484 L 17.041016 45.587891 L 29.455078 45.587891 L 29.041016 37.646484 L 17.457031 37.646484 z M 16.9375 47.587891 L 16.550781 54.998047 L 29.947266 54.998047 L 29.560547 47.587891 L 16.9375 47.587891 z M 45.517578 54.589844 L 50.257812 54.589844 C 50.937805 54.589844 51.498047 55.140015 51.498047 55.830078 L 51.498047 61.919922 C 51.498047 62.609985 50.937805 63.160156 50.257812 63.160156 L 45.517578 63.160156 C 44.837585 63.160156 44.289063 62.609985 44.289062 61.919922 L 44.289062 55.830078 C 44.289062 55.140015 44.837585 54.589844 45.517578 54.589844 z M 75.119141 54.589844 L 79.859375 54.589844 C 80.539368 54.589844 81.087891 55.140015 81.087891 55.830078 L 81.087891 61.919922 C 81.087891 62.609985 80.539368 63.160156 79.859375 63.160156 L 75.119141 63.160156 C 74.439148 63.160156 73.888672 62.609985 73.888672 61.919922 L 73.888672 55.830078 C 73.888672 55.140015 74.439148 54.589844 75.119141 54.589844 z M 16.445312 56.998047 L 16.044922 64.667969 L 30.451172 64.667969 L 30.050781 56.998047 L 16.445312 56.998047 z M 15.435547 76.347656 L 15.035156 84.017578 L 31.460938 84.017578 L 31.060547 76.347656 L 15.435547 76.347656 z M 38.707031 77.869141 L 38.707031 84.730469 L 57.068359 84.730469 L 57.068359 77.869141 L 38.707031 77.869141 z M 68.298828 77.869141 L 68.298828 84.730469 L 86.667969 84.730469 L 86.667969 77.869141 L 68.298828 77.869141 z M 14.927734 86.019531 L 14.507812 94.111328 L 11.828125 94.111328 C 10.868103 94.111328 10.087891 94.889526 10.087891 95.849609 L 10.087891 99.460938 L 6.9980469 99.460938 C 6.4480591 99.460938 5.9980469 99.901001 5.9980469 100.46094 C 5.9980469 101.01099 6.4480591 101.46094 6.9980469 101.46094 L 96.828125 101.46094 C 97.378113 101.46094 97.828125 101.01099 97.828125 100.46094 C 97.828125 99.901001 97.378113 99.460938 96.828125 99.460938 L 93.859375 99.460938 L 93.859375 95.849609 C 93.859375 94.889526 93.088928 94.111328 92.128906 94.111328 L 90.109375 94.111328 L 90.109375 88.820312 C 90.109375 87.670288 89.177551 86.730469 88.017578 86.730469 L 66.958984 86.730469 C 65.799011 86.730469 64.869141 87.670288 64.869141 88.820312 L 64.869141 94.111328 L 60.517578 94.111328 L 60.517578 88.820312 C 60.517578 87.670288 59.577942 86.730469 58.417969 86.730469 L 37.359375 86.730469 C 36.199341 86.730469 35.267578 87.670288 35.267578 88.820312 L 35.267578 94.111328 L 31.988281 94.111328 L 31.568359 86.019531 L 14.927734 86.019531 z M 100.76367 99.457031 C 100.21143 99.457031 99.763672 99.904297 99.763672 100.45703 C 99.763672 101.00977 100.21143 101.45703 100.76367 101.45703 L 103.00195 101.45703 C 103.5542 101.45703 104.00195 101.00977 104.00195 100.45703 C 104.00195 99.904297 103.5542 99.457031 103.00195 99.457031 L 100.76367 99.457031 z"/></svg>