<svg xmlns="http://www.w3.org/2000/svg"  viewBox="0 0 24 24">    <path d="M12,2C6.486,2,2,6.486,2,12s4.486,10,10,10s10-4.486,10-10S17.514,2,12,2z M7,13.25c-0.69,0-1.25-0.56-1.25-1.25 c0-0.69,0.56-1.25,1.25-1.25S8.25,11.31,8.25,12C8.25,12.69,7.69,13.25,7,13.25z M12,13.25c-0.69,0-1.25-0.56-1.25-1.25 c0-0.69,0.56-1.25,1.25-1.25s1.25,0.56,1.25,1.25C13.25,12.69,12.69,13.25,12,13.25z M17,13.25c-0.69,0-1.25-0.56-1.25-1.25 c0-0.69,0.56-1.25,1.25-1.25s1.25,0.56,1.25,1.25C18.25,12.69,17.69,13.25,17,13.25z"/></svg>