<svg xmlns="http://www.w3.org/2000/svg" xmlns:xlink="http://www.w3.org/1999/xlink" width="384" height="384" viewBox="0 0 288 288"><defs><style>*{stroke-linejoin:round;stroke-linecap:butt}</style></defs><g id="figure_1"><path id="patch_1" d="M0 288h288V0H0z" style="fill:#fff"/><g id="axes_1"><path id="patch_2" d="M36 256.32h223.2V34.56H36z" style="fill:#fff"/><g id="PathCollection_2"><path d="m36 165.56 1.985-3.455 2.315-3.555 2.603-3.555 2.937-3.61 3.579-4.004 5.072-5.274 6.371-6.666 3.052-3.555 2.37-3.111 2.082-3.111 1.827-3.111 1.838-3.555 2.047-4.444 7.546-17.003 2.287-4.329 2.36-4 2.641-4 2.622-3.555 2.916-3.555 2.83-3.111 3.13-3.114 3.131-2.811 3.132-2.54 3.578-2.6 3.578-2.298 3.579-2.015 3.578-1.74 3.578-1.476 3.579-1.217 3.578-.965 3.578-.72 3.579-.48 3.578-.25 3.578-.035 4.026.195 4.473.465 5.815.867 9.393 1.431 4.026.364 3.578.1 3.578-.14 3.579-.376 4.025-.665 4.92-1.06L208.3 50.56l4.382-.697 4.026-.43 4.026-.2 3.578.031 3.578.243 3.579.468 3.578.706 3.131.824 3.131 1.029 3.131 1.248 3.131 1.483 3.131 1.741 3.131 2.027 2.938 2.193 2.43 2.055M78.93 256.32l-3.12-.244-3.132-.453-3.13-.665-3.132-.886-3.131-1.115-3.131-1.36-3.131-1.624-3.131-1.913-2.77-1.961-2.743-2.222-2.539-2.342-2.433-2.547-2.248-2.666-2.028-2.72-2.007-3.058L36 228.63M259.2 158.13l-2.684 2.342-2.686 2.078-3.129 2.13-3.165 1.87-3.097 1.583-3.578 1.552-3.578 1.286-3.579 1.04-3.578.818-4.026.68-4.025.452-4.473.276-5.368.089-8.499-.138-6.709-.022-4.473.198-4.026.405-3.578.573-3.578.78-4.026 1.108-4.473 1.474-4.92 1.85-4.92 2.057-4.588 2.16-3.464 1.879-2.683 1.69-2.397 1.763-2.076 1.795-1.79 1.81-1.83 2.172-1.748 2.442-1.79 2.926-1.863 3.52-2.518 5.333-5.212 11.11-2.483 4.602-2.236 3.685-2.237 3.287-2.362 3.092-2.558 2.968-2.29 2.365-2.63 2.422-2.684 2.182-2.893 2.062-2.922 1.81-3.131 1.662-3.18 1.417-3.082 1.134-3.131.923-3.131.701-3.131.49-3.131.28-.543.027" clip-path="url(#p48aa6b185b)" style="fill:none;stroke:#dbf1d6;stroke-width:1.5"/></g><path id="PathCollection_3" d="m259.2 138.323-1.79 2.631-1.936 2.486-2.089 2.348-2.236 2.204-2.459 2.114-2.462 1.844-2.683 1.739-2.684 1.49-3.131 1.461-3.131 1.191-3.131.947-3.131.723-3.131.52-3.579.364-3.578.145-4.026-.068-4.473-.312-5.367-.608-12.077-1.454-4.026-.195-3.13.05-3.132.26-3.131.48-3.368.756-3.341.957-4.473 1.516-7.619 2.86-12.51 4.907-3.831 1.759-2.878 1.567-2.351 1.544-1.695 1.333-1.867 1.778-1.518 1.777-1.255 1.778-1.294 2.222-1.268 2.666-1.276 3.266-1.414 4.29-4.401 13.958-1.473 3.818-1.658 3.727-1.741 3.383-1.848 3.111-1.812 2.667-2.203 2.825-2.26 2.507-2.309 2.223-2.14 1.797-2.684 1.945-2.684 1.64-2.684 1.37-2.684 1.12-2.683.893-2.684.675-2.684.467-2.684.266-2.684.067-2.683-.13-2.711-.333-2.657-.53-2.866-.804-2.501-.909-2.684-1.207-2.684-1.469-2.684-1.76-2.29-1.765-2.183-1.944-2.236-2.306-2.017-2.416-1.913-2.667-1.638-2.666-1.589-3.06-1.182-2.718-1.114-3.11-.882-3.111-.666-3.111-.46-3.111-.281-3.555-.03-3.556.221-3.555.402-3.11.598-3.112.803-3.11 1.017-3.111 1.242-3.111 1.485-3.111 1.745-3.11 2.031-3.112 2.228-2.968 2.392-2.81 2.544-2.666 3.115-2.932 3.579-3.054 5.814-4.594 4.92-3.94 2.684-2.376 2.237-2.239 1.9-2.196 1.678-2.275 1.618-2.614 1.378-2.666 1.36-3.111 1.501-4 5.326-14.82 1.789-4.016 1.789-3.509 1.995-3.43 2.057-3.111L104.558 91l2.562-3.007 2.236-2.334 2.871-2.658 2.73-2.222 2.898-2.071 2.684-1.675 3.13-1.682 3.132-1.406 3.202-1.166 3.14-.889 3.051-.632 3.131-.42 3.131-.2 3.131.007 3.579.234 4.025.507 5.408.949 8.011 1.414 3.578.384 3.131.108 2.944-.129 2.424-.28 3.205-.608 3.365-.89 3.718-1.205 6.404-2.35 6.567-2.352 4.473-1.378 4.026-1.005 3.578-.674 3.579-.443 3.13-.186 3.132.015 3.313.246 3.045.445 3.035.663 3.131.933 3.131 1.204 2.684 1.268 2.684 1.508 2.683 1.779 2.552 1.977 2.002 1.778 2.197 2.222 2.279 2.666 1.959 2.667.641.967" clip-path="url(#p48aa6b185b)" style="fill:none;stroke:#aedea7;stroke-width:1.5"/><path id="PathCollection_4" d="m50.732 199.436-.024-.445-.02-.444-.013-.445-.009-.444-.003-.444.001-.445.007-.444.012-.445.017-.444.022-.444.027-.445.012-.156.02-.288.038-.445.043-.444.048-.444.053-.445.058-.444.064-.445.069-.444.054-.327.02-.118.079-.444.084-.444.09-.445.096-.444.078-.346.023-.099.106-.444.112-.444.117-.445.09-.323.033-.121.129-.445.134-.444.14-.444.01-.033.136-.412.152-.444.158-.445.002-.007.161-.437.17-.444.116-.294.06-.15.183-.445.188-.445.017-.038.178-.406.202-.444.067-.144.141-.3.215-.445.091-.184.131-.26.229-.445.088-.167.148-.278.243-.444.056-.1.194-.344.253-.437.005-.008.266-.444.177-.29.096-.155.281-.444.07-.108.22-.336.227-.341.07-.104.306-.444.071-.102.244-.343.204-.28.12-.164.327-.437.005-.007.343-.445.1-.127.252-.317.195-.241.166-.204.28-.336.092-.108.356-.415.026-.03.393-.444.028-.032.376-.412.072-.079.343-.366.104-.11.323-.334.124-.128.315-.317.133-.132.318-.312.129-.125.336-.32.111-.105.366-.339.082-.074.41-.37.037-.033.447-.393.021-.019.426-.364.095-.08.353-.294.184-.15.263-.215.289-.23.158-.126.41-.318.038-.03.447-.34.101-.075.346-.257.258-.187.19-.137.432-.307.015-.011.447-.311.18-.123.267-.181.395-.263.053-.035.447-.292.184-.118.263-.168.441-.276.007-.004.447-.275.275-.165.172-.104.447-.264.133-.077.315-.183.447-.254.013-.007.434-.243.369-.202.079-.043.447-.241.303-.16.144-.077.448-.233.264-.135.183-.094.447-.225.253-.125.194-.097.448-.218.27-.13.177-.085.447-.212.316-.147.132-.062.447-.206.389-.176.058-.027.447-.2.448-.199.043-.019.404-.177.447-.194.172-.073.276-.119.447-.19.323-.135.124-.053.448-.187.447-.185.047-.02.4-.165.447-.184.237-.095.21-.087.448-.182.433-.176.014-.005.448-.182.447-.182.188-.075.26-.107.446-.182.381-.155.067-.028.447-.185.447-.186.112-.046.336-.142.447-.19.263-.112.184-.081.448-.197.376-.167.07-.032.448-.205.444-.207.003-.002.448-.216.447-.22.012-.006.435-.225.417-.22.03-.017.448-.248.313-.18.134-.08.447-.272.149-.092.299-.195.369-.25.078-.055.447-.325.085-.064.363-.286.194-.158.253-.22.252-.224.195-.186.264-.259.184-.193.232-.251.215-.25.163-.195.284-.366.059-.078.312-.444.076-.117.209-.328.239-.41.02-.034.236-.445.191-.39.025-.054.199-.444.181-.445.042-.11.126-.334.154-.445.141-.444.027-.088.105-.356.122-.445.113-.444.105-.445.002-.01.096-.434.092-.445.086-.444.081-.444.077-.445.015-.092.058-.352.069-.445.066-.444.063-.444.06-.445.059-.444.056-.445.016-.128.04-.316.054-.444.053-.445.052-.444.051-.445.052-.444.05-.444.052-.445.044-.381.007-.063.052-.445.052-.444.053-.445.054-.444.055-.444.055-.445.057-.444.059-.445.003-.024.057-.42.061-.444.063-.445.065-.444.067-.445.07-.444.064-.407.006-.037.074-.445.075-.444.078-.445.081-.444.083-.444.05-.262.036-.183.089-.444.091-.445.095-.444.097-.445.04-.176.06-.268.105-.444.107-.445.11-.444.065-.253.05-.192.117-.444.122-.444.124-.445.035-.118.094-.326.133-.445.137-.444.083-.262.058-.182.145-.445.15-.444.094-.274.06-.17.157-.445.163-.444.067-.18.1-.265.173-.444.175-.44.002-.005.182-.444.187-.445.076-.175.117-.269.197-.444.133-.292.07-.153.21-.444.168-.35.046-.095.22-.444.18-.356.046-.088.232-.445.17-.317.069-.127.245-.445.133-.237.118-.207.258-.444.072-.121.193-.324.254-.415.018-.03.28-.444.15-.232.137-.212.294-.444.016-.024.287-.42.16-.231.15-.214.297-.414.023-.03.328-.445.097-.129.24-.315.207-.268.14-.177.307-.385.048-.06.366-.444.033-.04.344-.404.104-.12.283-.325.164-.184.235-.26.212-.231.2-.213.248-.263.174-.182.273-.28.164-.164.283-.282.167-.163.28-.27.185-.174.263-.245.217-.2.23-.207.267-.237.18-.158.334-.286.114-.097.418-.348.029-.023.447-.36.077-.061.37-.288.206-.156.242-.183.356-.262.091-.066.447-.319.086-.06.362-.248.291-.196.156-.103.447-.29.081-.051.367-.23.353-.214.094-.057.447-.263.219-.125.229-.13.447-.245.13-.07.317-.167.447-.23.095-.047.353-.174.447-.213.123-.057.324-.149.448-.197.23-.099.217-.092.447-.182.432-.17.015-.006.448-.168.447-.16.32-.11.127-.044.448-.146.447-.14.386-.115.061-.018.448-.125.447-.12.447-.112.293-.07.154-.035.448-.1.447-.092.447-.086.448-.08.307-.05.14-.023.447-.067.447-.061.448-.055.447-.049.447-.042.448-.037.447-.031.447-.025.448-.02.447-.013.447-.008.447-.002.448.003.447.01.447.013.448.02.447.024.447.03.447.034.448.04.447.044.447.05.448.053.447.059.378.052.07.01.447.067.447.072.447.075.447.079.448.083.306.059.141.027.447.09.448.094.447.096.447.1.166.037.281.065.448.105.447.107.447.11.234.058.214.053.447.114.447.114.448.116.178.047.269.07.447.12.447.118.448.119.066.017.381.102.447.12.448.118.4.105.047.013.447.117.447.115.448.113.345.086.102.026.447.11.448.106.447.104.44.099.007.001.448.097.447.093.447.09.447.083.448.08h.005l.442.073.447.07.448.062.447.057.447.05.447.043.448.036.447.03.447.022.063.002.385.012.447.006.447-.001.448-.01.173-.007.274-.012.447-.026.447-.035.448-.044.447-.053.447-.061.448-.07.447-.08.325-.064.122-.024.448-.096.447-.105.447-.113.389-.106.058-.016.448-.13.447-.138.447-.146.044-.015.404-.138.447-.16.386-.146.061-.023.447-.174.448-.182.155-.066.292-.122.447-.194.286-.128.162-.071.447-.205.355-.168.092-.043.448-.215.378-.187.069-.033.447-.224.365-.187.082-.042.448-.232.324-.17.123-.065.447-.238.262-.142.186-.1.447-.243.184-.101.263-.144.447-.248.094-.053.354-.196.442-.248.005-.003.447-.251.337-.19.11-.063.448-.253.227-.129.22-.124.448-.253.117-.067.33-.186.447-.253.01-.006.437-.246.351-.198.097-.054.447-.25.25-.14.197-.11.448-.248.157-.087.29-.16.447-.244.074-.04.373-.203.448-.24.002-.002.445-.237.391-.207.056-.03.448-.234.35-.18.097-.051.447-.229.327-.165.12-.06.448-.224.327-.16.12-.06.447-.216.353-.169.095-.045.447-.21.409-.19.038-.017.448-.204.447-.2.053-.023.394-.173.447-.192.188-.08.26-.109.447-.185.37-.15.077-.03.448-.177.447-.173.168-.064.28-.105.447-.165.447-.16.04-.014.407-.143.447-.152.448-.148.007-.002.44-.141.447-.139.448-.134.102-.03.345-.1.447-.126.447-.121.376-.098.072-.018.447-.112.447-.108.448-.102.447-.098.031-.006.416-.087.448-.088.447-.083.447-.08.447-.073.22-.033.228-.036.447-.064.447-.059.448-.054.447-.049.447-.044.447-.039.448-.034.447-.028.447-.024.339-.014.109-.004.447-.014.447-.008.448-.002.447.002.447.009.447.013.1.004.348.015.447.024.447.03.448.035.447.041.447.047.447.052.448.058.447.064.447.07.049.009.399.067.447.082.447.087.448.094.447.1.057.014.39.093.447.112.448.12.428.12.019.005.447.132.448.138.447.146.067.023.38.13.448.158.418.156.029.01.447.174.447.181.19.08.258.109.447.195.307.14.14.064.448.211.345.17.102.05.447.227.316.167.131.07.448.244.23.13.217.123.447.263.098.059.35.212.37.232.077.05.447.29.157.104.29.197.358.248.09.063.447.321.082.06.365.273.225.172.223.172.344.272.103.083.44.362.007.006.448.38.066.058.38.335.122.11.326.297.157.147.29.275.176.17.272.266.177.178.27.274.164.17.283.298.137.146.31.34.095.105.353.399.04.045.38.445.027.033.34.411.108.133.248.311.199.255.146.19.301.4.033.044.324.445.09.126.224.318.224.325.081.12.295.444.071.108.216.336.231.37.047.075.269.444.132.223.129.222.253.444.065.117.18.327.238.445.03.056.2.388.223.445.023.047.193.397.21.444.045.1.157.345.196.444.094.222.095.223.183.444.17.428.006.016.17.445.164.444.107.298.052.147.152.444.147.444.096.304.044.14.136.445.13.445.123.444.014.053.105.392.113.444.108.444.102.445.02.087.078.357.092.445.087.444.082.444.077.445.03.191.042.253.067.445.062.444.057.444.052.445.047.444.042.445.038.444.033.444.008.136.02.309.023.444.018.445.014.444.009.444.004.445v.444l-.006.445-.01.444-.015.445-.02.444-.024.444-.013.193-.016.252-.034.444-.039.445-.043.444-.048.444-.054.445-.058.444-.062.445-.068.444-.025.152-.048.292-.077.445-.083.444-.088.445-.092.444-.06.269-.038.175-.103.445-.108.444-.113.445-.085.316-.034.128-.124.445-.129.444-.135.444-.025.081-.115.364-.145.444-.152.445-.035.1-.122.344-.163.444-.163.429-.006.016-.174.444-.181.445-.086.204-.101.24-.193.444-.153.341-.047.104-.206.444-.195.407-.018.038-.219.444-.21.413-.016.031-.233.445-.198.366-.043.078-.248.445-.156.273-.099.171-.263.445-.086.141-.185.303-.262.418-.017.026-.287.445-.143.216-.153.228-.295.43-.01.015-.314.444-.123.17-.2.274-.247.33-.086.115-.343.444-.018.023-.336.422-.112.137-.253.307-.194.232-.181.212-.266.307-.122.138-.326.363-.074.081-.373.403-.04.042-.407.426-.018.018-.43.434-.01.01-.437.427-.019.018-.428.405-.043.04-.404.37-.083.074-.365.322-.14.122-.307.262-.218.183-.23.19-.314.254-.133.106-.432.338-.015.012-.447.338-.128.095-.32.234-.295.21-.152.108-.447.308-.042.029-.405.27-.269.174-.179.115-.447.28-.08.05-.367.223-.376.22-.072.043-.447.255-.267.147-.18.1-.447.238-.206.107-.242.124-.447.223-.2.097-.247.12-.448.208-.259.116-.188.085-.447.194-.395.166-.052.022-.448.18-.447.174-.182.068-.265.1-.448.16-.447.155-.089.03-.358.119-.448.142-.447.136-.162.047-.285.083-.447.125-.448.118-.447.113-.024.005-.423.102-.448.102-.447.096-.447.09-.285.055-.163.031-.447.08-.447.075-.447.07-.448.065-.447.059-.447.055-.088.01-.36.04-.447.044-.447.04-.447.036-.448.03-.447.026-.447.022-.448.016-.447.013-.447.008-.448.003h-.447l-.447-.006-.447-.01-.448-.013-.447-.017-.447-.022-.448-.026-.447-.03-.447-.033-.447-.038-.448-.041-.418-.043-.029-.003-.447-.048-.448-.053-.447-.056-.447-.06-.448-.063-.447-.067-.447-.07-.15-.024-.297-.049-.448-.076-.447-.08-.447-.083-.448-.086-.356-.07-.09-.019-.448-.091-.447-.095-.448-.097-.447-.1-.186-.043-.261-.06-.448-.105-.447-.108-.447-.11-.248-.061-.2-.05-.447-.115-.447-.116-.447-.119-.17-.045-.278-.075-.447-.122-.447-.123-.443-.124-.005-.001-.447-.127-.447-.128-.447-.129-.207-.06-.24-.07-.448-.13-.447-.132-.378-.112-.07-.02-.447-.134-.447-.133-.448-.133-.081-.024-.366-.11-.447-.133-.447-.133-.234-.069-.214-.063-.447-.132-.447-.131-.407-.118-.04-.012-.448-.129-.447-.127-.447-.126-.185-.05-.263-.074-.447-.122-.447-.12-.448-.116-.05-.013-.397-.102-.447-.111-.448-.109-.447-.104-.08-.018-.367-.084-.447-.098-.448-.093-.447-.09-.427-.08-.02-.004-.448-.08-.447-.075-.447-.07-.447-.064-.448-.058-.447-.053-.385-.04-.062-.007-.448-.04-.447-.035-.447-.027-.448-.02-.447-.015-.447-.006h-.447l-.448.008-.447.015-.447.022-.448.03-.447.038-.368.037-.08.008-.446.052-.448.06-.447.067-.447.074-.448.082-.447.089-.057.012-.39.083-.448.103-.447.109-.447.116-.124.034-.323.088-.448.127-.447.134-.304.095-.143.044-.448.145-.447.15-.307.105-.14.048-.448.159-.447.163-.2.075-.247.092-.447.17-.448.174-.021.008-.426.168-.447.18-.24.097-.208.084-.447.184-.423.176-.024.01-.447.187-.448.189-.138.058-.309.131-.447.19-.287.124-.16.068-.448.191-.43.185-.017.007-.448.192-.447.191-.127.055-.32.136-.447.19-.279.118-.169.071-.447.189-.441.184-.006.003-.448.186-.447.184-.174.072-.273.111-.447.181-.378.152-.07.028-.447.178-.447.176-.162.063-.286.11-.447.172-.427.162-.02.008-.448.167-.447.165-.286.105-.161.058-.447.16-.448.159-.191.067-.256.089-.447.153-.448.152-.152.05-.295.098-.447.147-.447.144-.176.056-.272.086-.447.14-.447.137-.27.081-.178.054-.447.132-.447.131-.444.128h-.004l-.447.127-.447.124-.447.123-.262.07-.186.05-.447.119-.447.116-.448.115-.174.044-.273.07-.447.111-.447.11-.448.11-.184.044-.263.063-.447.107-.448.105-.447.104-.284.065-.163.038-.448.102-.447.102-.447.101-.447.1-.005.002-.443.099-.447.1-.447.1-.448.1-.201.045-.246.055-.447.101-.447.101-.448.103-.369.084-.078.019-.447.104-.448.106-.447.107-.445.109h-.002l-.448.112-.447.114-.447.117-.377.101-.07.02-.448.123-.447.128-.447.133-.136.04-.312.097-.447.143-.447.15-.16.055-.287.102-.448.164-.447.173-.013.005-.434.179-.448.194-.158.072-.289.136-.447.221-.168.087-.28.152-.447.256-.06.037-.387.242-.302.202-.145.102-.448.334-.01.009-.437.36-.095.084-.352.328-.118.116-.33.347-.087.098-.36.43-.012.014-.331.445-.104.15-.193.294-.255.423-.012.021-.24.445-.195.398-.021.046-.196.445-.178.444-.052.14-.109.304-.146.445-.134.444-.058.21-.063.235-.111.444-.102.444-.093.445-.079.41-.006.034-.078.445-.072.444-.066.445-.06.444-.057.444-.052.445-.048.444-.008.074-.037.37-.042.445-.038.444-.037.445-.034.444-.032.445-.03.444-.03.444-.028.445-.026.444-.026.445-.025.444-.024.444-.024.445-.014.259-.01.185-.023.445-.024.444-.023.445-.024.444-.024.444-.024.445-.025.444-.025.445-.026.444-.027.444-.028.445-.028.444-.03.445-.031.444-.032.444-.034.445-.01.127-.024.317-.036.445-.038.444-.039.444-.04.445-.042.444-.045.445-.045.444-.048.444-.05.445-.04.341-.012.103-.053.445-.056.444-.058.445-.06.444-.063.444-.065.445-.067.444-.013.08-.057.365-.072.444-.075.444-.078.445-.08.444-.084.445-.001.008-.085.436-.089.444-.092.445-.095.444-.087.394-.011.05-.101.445-.105.444-.108.445-.111.444-.011.043-.104.402-.118.444-.122.445-.103.364-.023.08-.13.444-.133.445-.137.444-.025.078-.116.367-.146.444-.15.444-.035.103-.119.342-.158.444-.163.445-.007.019-.16.425-.173.444-.115.288-.062.157-.183.444-.187.445-.015.034-.178.41-.198.444-.071.157-.132.288-.21.444-.105.22-.11.225-.22.444-.118.23-.11.215-.233.444-.104.194-.136.25-.246.445-.065.114-.19.33-.258.44-.002.005-.268.444-.177.285-.1.16-.283.444-.064.098-.228.346-.22.325-.08.12-.31.444-.057.08-.262.364-.185.252-.144.193-.303.4-.035.044-.35.445-.063.079-.297.365-.15.182-.221.262-.226.264-.158.18-.29.327-.107.118-.34.37-.07.075-.377.396-.047.048-.4.405-.04.04-.408.398-.048.046-.399.376-.074.068-.373.339-.12.106-.328.287-.184.157-.263.222-.271.223-.176.142-.382.302-.065.051-.448.34-.07.053-.377.276-.237.169-.21.148-.435.296-.013.009-.447.294-.222.142-.225.141-.448.273-.05.03-.397.233-.374.211-.073.041-.447.243-.308.16-.14.073-.447.224-.308.148-.14.067-.447.205-.391.173-.056.024-.447.188-.447.18-.139.052-.309.118-.447.162-.447.154-.031.01-.417.136-.447.138-.447.13-.148.04-.3.083-.447.114-.447.107-.447.099-.208.042-.24.05-.447.083-.447.077-.448.069-.447.061-.447.054-.447.047-.038.004-.41.036-.447.032-.447.025-.448.018-.447.011-.447.003-.448-.004-.447-.01-.447-.019-.447-.026-.448-.033-.375-.033-.072-.007-.447-.047-.448-.055-.447-.063-.447-.07-.447-.077-.448-.085-.2-.04-.247-.052-.447-.1-.448-.108-.447-.116-.251-.07-.196-.053-.448-.132-.447-.14-.36-.119-.087-.029-.447-.156-.448-.165-.244-.094-.203-.079-.447-.182-.43-.183-.018-.008-.447-.2-.447-.209-.057-.028-.39-.19-.448-.229-.048-.025-.4-.213-.417-.232-.03-.016-.447-.258-.283-.17-.164-.1-.447-.279-.102-.065-.346-.226-.324-.219-.123-.083-.447-.315-.064-.046-.383-.28-.218-.165-.23-.175-.342-.269-.105-.084-.44-.36-.007-.006-.448-.38-.066-.059-.38-.337-.119-.107-.33-.304-.148-.14-.299-.288-.16-.157-.287-.288-.153-.156-.294-.307-.13-.138-.317-.344-.091-.1-.357-.402-.037-.043-.38-.444-.03-.037-.335-.408-.112-.14-.24-.304-.208-.268-.133-.176-.314-.423-.016-.022-.318-.444-.113-.163-.194-.282-.253-.378-.044-.066-.287-.444-.117-.187-.16-.258-.268-.444-.019-.033-.24-.412-.207-.368-.043-.076-.242-.444-.163-.31-.07-.135-.225-.444-.152-.309-.066-.136-.21-.444-.171-.376-.031-.068-.195-.445-.188-.444-.034-.081-.147-.364-.174-.444-.126-.333-.042-.112-.16-.444-.155-.444-.09-.272-.057-.173-.142-.444-.135-.445-.113-.389-.016-.055-.124-.444-.117-.445-.111-.444-.08-.335-.026-.11-.1-.444-.094-.444-.088-.445-.083-.444-.056-.32-.022-.125-.071-.444-.067-.444-.061-.445-.056-.444-.05-.445-.045-.444-.04-.445-.035-.444v-.008z" clip-path="url(#p48aa6b185b)" style="fill:none;stroke:#73c476;stroke-width:1.5"/><g id="PathCollection_5"><path d="m60.545 200.324-.052-.444-.046-.444-.037-.445-.03-.444-.023-.445-.016-.444-.008-.444v-.445l.007-.444.014-.445.022-.444.029-.444.036-.445.044-.444.051-.445.058-.444.007-.046.06-.398.074-.445.081-.444.09-.445.096-.444.046-.2.058-.245.113-.444.12-.444.128-.445.029-.093.108-.351.146-.445.153-.444.04-.112.122-.332.171-.445.154-.383.025-.061.19-.445.197-.444.036-.076.173-.368.217-.445.057-.113.17-.331.238-.445.04-.071.209-.373.238-.41.02-.034.272-.445.155-.247.127-.197.294-.445.026-.039.281-.405.166-.234.154-.21.294-.394.039-.05.348-.445.06-.075.303-.37.144-.172.234-.272.214-.243.181-.202.266-.289.146-.155.301-.313.13-.131.318-.316.133-.129.314-.298.158-.146.29-.263.204-.182.242-.21.277-.234.17-.142.376-.302.072-.058.447-.345.056-.042.392-.289.217-.155.23-.162.413-.283.034-.023.447-.291.206-.13.242-.15.447-.27.043-.024.404-.232.385-.213.063-.034.447-.236.346-.174.101-.051.448-.215.388-.179.059-.027.447-.195.447-.187.09-.035.358-.141.447-.168.383-.135.064-.023.448-.15.447-.14.447-.131h.002l.445-.123.448-.114.447-.105.447-.097.035-.006.413-.081.447-.079.447-.07.448-.06.447-.053.447-.043.447-.034.448-.024h.01l.437-.015.447-.006.448.004.447.015.03.001.417.023.447.035.448.046.447.057.447.069.448.08.447.093.18.042.267.063.448.119.447.132.397.13.05.017.447.162.448.178.203.088.244.107.447.212.244.125.204.107.447.25.145.087.302.186.394.259.053.036.448.32.117.088.33.257.227.188.22.186.288.258.16.147.306.297.14.141.29.304.158.172.24.272.208.244.163.2.284.363.062.082.324.444.061.088.242.357.205.317.08.127.269.445.099.17.154.274.239.444.054.105.17.34.214.444.063.138.138.307.19.444.12.294.06.15.168.445.16.444.059.17.092.275.142.444.135.445.078.275.047.169.118.444.11.445.104.444.068.313.029.132.089.444.082.444.076.445.07.444.064.445.038.292.02.152.05.444.045.445.04.444.033.445.028.444.022.444.016.445.011.444.005.445v.444l-.006.445-.012.444-.017.444-.023.445-.028.444-.034.445-.04.444-.044.444-.05.445-.016.123-.041.321-.063.445-.068.444-.074.444-.08.445-.085.444-.037.178-.055.267-.098.444-.104.444-.111.445-.079.3-.038.144-.124.445-.13.444-.137.445-.018.054-.127.39-.152.444-.158.445-.01.028-.157.416-.174.445-.117.286-.065.158-.19.444-.192.43-.006.015-.208.444-.216.445-.017.034-.21.41-.234.444-.004.007-.242.438-.205.358-.05.086-.267.445-.13.21-.149.234-.29.444-.008.014-.295.43-.153.219-.163.226-.284.385-.045.06-.345.444-.057.071-.305.374-.143.17-.235.274-.212.24-.184.204-.263.284-.153.16-.295.302-.143.143-.304.296-.157.149-.29.267-.198.177-.25.219-.266.225-.18.15-.368.295-.08.063-.447.34-.058.041-.39.28-.24.165-.207.14-.447.29-.022.014-.425.26-.316.184-.132.076-.447.246-.236.123-.211.108-.448.219-.254.117-.193.088-.447.192-.407.165-.04.016-.448.167-.447.156-.325.105-.122.04-.448.132-.447.12-.447.111-.186.041-.262.058-.447.088-.447.077-.447.066-.448.056-.447.045-.447.035-.368.02-.08.004-.447.014-.447.003-.448-.008-.325-.013-.122-.005-.447-.029-.447-.04-.448-.05-.447-.06-.447-.072-.448-.082-.447-.093-.057-.014-.39-.091-.447-.117-.448-.128-.349-.108-.098-.03-.447-.153-.448-.164-.249-.097-.198-.08-.447-.189-.39-.176-.058-.026-.447-.216-.394-.202-.053-.028-.447-.245-.298-.172-.15-.088-.447-.275-.126-.081-.321-.21-.341-.234-.107-.075-.447-.326-.058-.044-.39-.302-.176-.142-.27-.223-.26-.222-.188-.164-.31-.28-.137-.128-.33-.316-.117-.116-.324-.329-.124-.13-.292-.314-.155-.171-.24-.274-.207-.243-.167-.201-.28-.35-.075-.094-.338-.445-.035-.047-.285-.397-.162-.234-.143-.21-.29-.445-.014-.022-.262-.423-.186-.312-.077-.132-.25-.444-.12-.224-.117-.22-.225-.445-.105-.216-.11-.229-.203-.444-.135-.308-.058-.136-.182-.445-.173-.444-.034-.091-.129-.354-.153-.444-.144-.444-.021-.068-.114-.377-.126-.444-.118-.445-.09-.362-.02-.082-.1-.444-.092-.445-.085-.444-.076-.445-.07-.444-.004-.034zM124.054 124.33l-.058-.444-.045-.444-.034-.445-.021-.444-.01-.444.002-.445.013-.444.025-.445.035-.444.047-.445.058-.444.051-.331.018-.113.081-.445.093-.444.103-.445.115-.444.037-.133.09-.311.14-.445.15-.444.068-.186.096-.259.177-.444.174-.411.014-.033.205-.445.216-.444.012-.024.222-.42.226-.41.02-.035.265-.444.162-.26.118-.185.297-.444.032-.046.287-.399.16-.214.178-.23.27-.337.089-.108.358-.416.025-.028.409-.444.013-.015.424-.43.024-.022.446-.422v-.001l.448-.395.058-.049.39-.32.158-.124.289-.22.305-.224.142-.1.447-.304.063-.04.385-.243.339-.202.108-.063.447-.246.26-.136.188-.095.447-.213.304-.136.143-.062.447-.183.448-.169.087-.03.36-.123.447-.14.448-.127.212-.055.235-.059.447-.1.447-.088.448-.076.447-.064.447-.052.054-.005.394-.035.447-.028.447-.017.448-.005.447.005.447.017.447.027.413.036.035.003.447.05.447.06.448.072.447.082.447.092.371.085.076.018.448.115.447.125.447.135.162.052.286.094.447.158.447.167.065.025.383.154.447.19.227.1.22.101.447.213.266.13.182.093.447.236.213.116.234.132.448.259.09.054.357.22.355.224.092.06.447.3.125.084.323.23.298.215.15.112.433.332.013.01.448.362.088.073.359.307.158.137.29.263.198.181.249.24.211.205.236.24.198.204.25.272.158.173.288.335.095.11.353.437.005.007.334.444.108.155.202.29.245.38.041.064.262.444.145.271.093.174.213.444.14.331.05.113.165.445.14.444.093.362.022.083.092.444.067.444.042.445.019.444-.005.445-.029.444-.051.444-.075.445-.082.377-.014.067-.118.445-.139.444-.16.445-.016.039-.164.405-.2.444-.083.168-.136.277-.24.444-.072.125-.185.32-.262.421-.014.023-.295.444-.138.196-.175.249-.273.364-.06.08-.35.445-.037.044-.333.4-.114.13-.276.314-.171.187-.238.258-.21.217-.22.227-.227.224-.226.22-.221.21-.253.235-.195.174-.305.27-.142.122-.383.323-.064.052-.448.36-.04.032-.407.31-.179.135-.268.195-.35.25-.097.066-.448.303-.112.075-.335.215-.365.229-.082.05-.448.266-.222.128-.225.127-.447.244-.14.074-.307.159-.448.223-.13.062-.317.149-.447.202-.216.094-.232.098-.447.181-.425.165-.022.008-.448.162-.447.153-.375.121-.072.023-.447.133-.448.125-.447.116-.197.048-.25.059-.448.096-.447.088-.447.08-.447.07-.382.051-.066.009-.447.05-.447.042-.448.032-.447.022-.447.013-.448.003-.447-.007-.447-.017-.447-.028-.448-.038-.447-.05-.23-.03-.217-.03-.448-.074-.447-.086-.447-.097-.447-.11-.175-.048-.273-.077-.447-.14-.447-.155-.195-.073-.253-.098-.447-.188-.345-.158-.102-.048-.448-.228-.308-.168-.139-.08-.447-.271-.145-.094-.302-.204-.335-.24-.113-.085-.447-.355-.005-.005-.442-.389-.06-.055-.388-.378-.064-.066-.383-.414-.027-.03-.37-.445-.05-.063-.288-.382-.16-.224-.149-.22-.282-.445-.016-.025-.24-.419-.207-.388-.029-.056-.212-.445-.196-.444-.01-.027-.164-.418-.159-.444-.125-.385-.018-.06-.126-.444-.112-.444-.098-.445-.085-.444-.008-.046zM182.26 117.664l-.092-.444-.07-.444-.05-.445-.03-.444-.012-.445.008-.444.027-.444.044-.445.062-.444.08-.445.038-.174.056-.27.11-.444.124-.445.141-.444.017-.047.134-.398.165-.444.148-.364.031-.08.188-.445.202-.444.026-.055.183-.39.222-.444.043-.08.187-.365.241-.444.019-.032.228-.412.22-.374.039-.07.265-.445.142-.229.131-.216.282-.444.035-.052.253-.392.194-.288.103-.157.303-.444.041-.058.269-.387.179-.247.138-.197.309-.422.016-.022.33-.445.101-.13.236-.314.211-.27.134-.175.314-.395.038-.05.357-.443.052-.063.312-.382.135-.16.237-.284.21-.247.168-.198.28-.321.106-.123.341-.386.052-.059.396-.439.004-.005.407-.444.036-.038.38-.407.067-.07.356-.374.091-.094.34-.35.108-.109.332-.336.115-.113.334-.331.113-.11.345-.335.103-.097.365-.347.082-.076.396-.369.051-.046.437-.398.01-.01.448-.397.041-.037.406-.354.105-.09.342-.292.181-.153.267-.221.27-.224.177-.143.373-.301.074-.059.448-.351.043-.034.404-.31.177-.135.27-.202.328-.242.12-.087.447-.322.05-.036.397-.278.24-.166.207-.141.448-.3.004-.004.443-.29.24-.154.207-.131.447-.28.056-.033.392-.238.349-.207.098-.058.447-.257.229-.13.219-.121.447-.244.147-.079.3-.158.448-.23.11-.056.337-.168.447-.217.125-.06.322-.15.448-.203.204-.09.243-.107.447-.19.361-.148.087-.035.447-.177.447-.17.171-.063.276-.1.448-.157.447-.15.115-.037.332-.106.448-.137.447-.13.256-.071.191-.053.448-.117.447-.11.447-.104.277-.06.17-.038.448-.09.447-.084.447-.077.448-.071.447-.064.164-.021.283-.036.447-.05.448-.045.447-.037.447-.03.448-.023.447-.016.447-.01.448-.003.447.005.447.011.447.02.448.025.447.033.447.04.448.048.447.055.091.013.356.05.447.07.448.078.447.086.447.094.294.066.154.035.447.11.447.119.448.126.181.055.266.08.447.144.447.153.188.067.26.094.447.171.445.18h.002l.448.19.447.2.114.054.333.157.448.22.13.067.317.164.447.242.068.039.38.215.387.229.06.036.447.278.203.13.244.16.423.285.025.017.447.317.151.11.296.22.293.225.154.12.403.324.045.037.447.376.036.031.411.363.09.082.358.33.12.114.327.317.128.128.32.323.116.121.33.352.086.093.362.402.036.042.382.444.03.035.336.41.11.138.24.306.208.272.13.173.317.436.006.008.31.444.131.195.167.25.28.435.007.01.274.444.167.279.097.165.254.444.096.175.147.27.234.444.066.132.157.313.215.444.076.162.13.282.196.445.121.283.068.161.18.445.171.444.028.075.136.37.156.444.148.444.008.023.133.422.133.444.126.445.055.204.064.24.111.444.105.445.098.444.07.339.02.106.085.444.077.444.071.445.065.444.058.445.051.444.02.188.026.256.038.445.033.444.026.445.02.444.013.444.007.445.001.444-.005.445-.012.444-.017.445-.024.444-.03.444-.037.445-.04.412-.003.032-.049.445-.055.444-.062.444-.069.445-.074.444-.082.445-.053.27-.034.174-.095.444-.101.445-.108.444-.11.422-.005.023-.122.444-.129.444-.136.445-.054.17-.09.274-.15.445-.158.444-.05.135-.116.31-.173.444-.158.388-.023.056-.19.445-.198.444-.036.08-.17.365-.215.444-.063.125-.16.32-.234.444-.053.098-.19.346-.25.445-.007.01-.256.434-.191.313-.082.131-.283.445-.083.127-.211.317-.236.345-.07.1-.317.444-.06.082-.27.362-.178.232-.166.213-.28.352-.076.092-.371.445h-.001l-.386.444-.061.07-.342.375-.106.114-.313.33-.134.138-.304.306-.143.142-.314.303-.134.127-.343.317-.104.095-.396.35-.051.044-.448.38-.024.02-.423.343-.129.101-.318.248-.261.197-.186.138-.425.306-.023.016-.447.31-.178.119-.27.177-.418.267-.029.018-.447.274-.26.152-.187.11-.447.252-.154.083-.294.158-.447.231-.11.055-.337.166-.448.212-.146.067-.301.135-.447.193-.28.116-.168.069-.447.175-.447.167-.093.033-.354.126-.448.15-.447.143-.085.026-.362.109-.448.126-.447.12-.358.09-.09.022-.447.104-.447.097-.447.09-.447.083-.283.048-.165.028-.447.069-.447.062-.448.055-.447.05-.447.041-.447.036-.448.03-.447.023-.447.017-.448.01-.447.004-.447-.002-.448-.007-.447-.014-.447-.02-.447-.026-.448-.032-.447-.038-.447-.044-.448-.05-.447-.054-.447-.061-.447-.067-.066-.01-.382-.062-.447-.078-.447-.084-.448-.089-.447-.095-.165-.037-.282-.063-.448-.106-.447-.112-.447-.117-.17-.046-.277-.076-.448-.128-.447-.134-.345-.107-.102-.032-.448-.144-.447-.15-.341-.118-.106-.037-.447-.161-.448-.166-.21-.08-.237-.092-.447-.177-.433-.176-.015-.006-.447-.188-.447-.193-.13-.057-.318-.142-.447-.204-.212-.099-.235-.11-.447-.216-.242-.118-.206-.103-.447-.226-.225-.115-.222-.116-.448-.237-.17-.092-.277-.151-.447-.248-.08-.045-.367-.21-.407-.235-.04-.024-.448-.266-.257-.154-.19-.117-.448-.277-.081-.05-.366-.233-.33-.212-.117-.077-.448-.295-.11-.072-.337-.23-.316-.215-.131-.091-.447-.314-.057-.04-.39-.28-.227-.163-.221-.164-.379-.28-.068-.053-.448-.341-.067-.051-.38-.297-.189-.148-.258-.208-.295-.236-.152-.127-.386-.318-.062-.052-.447-.38-.015-.012-.432-.377-.079-.067-.369-.33-.128-.115-.319-.294-.165-.15-.282-.269-.188-.176-.26-.254-.197-.19-.25-.252-.193-.192-.254-.265-.176-.18-.271-.291-.145-.153-.303-.336-.1-.109-.347-.399-.04-.045-.375-.444-.032-.042-.328-.403-.12-.156-.225-.288-.222-.302-.107-.143-.312-.444-.028-.043-.27-.401-.177-.284-.104-.16-.262-.445-.082-.15-.164-.295-.226-.444-.057-.124-.153-.32-.188-.445-.106-.282-.064-.162-.151-.445-.13-.444-.103-.424z" clip-path="url(#p48aa6b185b)" style="fill:none;stroke:#37a055;stroke-width:1.5"/></g><g id="PathCollection_6"><path d="m73.944 198.547-.079-.445-.059-.444-.039-.444-.02-.445v-.444l.02-.445.038-.444.056-.444.076-.445.083-.39.012-.054.12-.445.137-.444.158-.444.02-.053.165-.392.206-.444.077-.152.157-.293.26-.444.03-.047.266-.398.181-.252.147-.192.3-.368.068-.076.38-.41.035-.035.412-.39.062-.054.385-.32.163-.125.285-.206.36-.238.087-.055.447-.255.265-.134.183-.089.447-.19.447-.164.007-.002.44-.128.448-.105.447-.077.447-.051.448-.024.447.005.447.032.448.062.447.091.447.122.217.073.23.083.448.192.335.17.112.06.447.275.157.109.29.216.276.228.172.153.298.292.15.157.248.287.198.249.145.196.3.444.003.005.252.44.195.378.032.066.193.444.17.445.052.157.09.287.12.445.1.444.08.444.058.432.001.013.04.444.02.445.004.444-.014.444-.031.445-.02.183-.03.261-.07.445-.087.444-.104.444-.123.445-.034.106-.112.338-.166.445-.169.405-.017.04-.215.443-.215.408-.021.037-.27.444-.157.24-.142.205-.305.409-.028.035-.379.445-.04.044-.39.4-.057.056-.435.388-.013.012-.447.347-.122.086-.325.218-.376.226-.072.041-.447.227-.398.177-.05.02-.446.161-.448.133-.447.105-.146.025-.301.05-.448.045-.447.018-.447-.009-.448-.037-.447-.064-.013-.003-.434-.094-.447-.127-.448-.157-.158-.066-.289-.127-.447-.23-.152-.088-.296-.182-.378-.262-.069-.05-.447-.366-.032-.029-.415-.398-.044-.046-.397-.444-.007-.01-.333-.435-.114-.163-.184-.281-.263-.44-.003-.005-.225-.444-.202-.445-.018-.043-.152-.4-.146-.445-.126-.445-.023-.099zM199.703 113.22l-.005-.444.006-.444.006-.13.013-.315.031-.444.043-.445.055-.444.067-.445.078-.444.09-.444.07-.302.033-.143.114-.444.126-.445.138-.444.036-.108.114-.336.162-.445.172-.439.002-.005.186-.445.199-.444.06-.127.151-.317.224-.445.072-.135.166-.31.25-.444.032-.053.232-.391.215-.344.063-.1.293-.445.091-.133.216-.311.231-.32.092-.125.338-.444.018-.023.338-.421.11-.132.263-.313.183-.21.208-.234.24-.261.17-.184.277-.286.155-.158.292-.288.162-.157.286-.267.192-.177.255-.227.25-.217.197-.168.335-.277.112-.09.448-.351.003-.003.444-.33.158-.115.29-.204.35-.24.097-.064.447-.29.145-.09.302-.185.44-.26.007-.004.448-.249.359-.191.088-.047.447-.224.362-.174.086-.04.447-.2.447-.191.032-.013.416-.165.447-.168.315-.111.132-.046.447-.146.448-.135.419-.118.028-.008.447-.113.448-.104.447-.094.447-.083.254-.042.193-.032.448-.062.447-.052.447-.042.448-.032.447-.022.447-.011.448-.001.447.01.447.02.447.03.448.042.447.053.447.063.212.036.236.04.447.087.447.098.447.11.4.11.048.012.447.136.447.148.413.148.035.012.447.176.447.188.151.068.297.136.447.218.174.09.273.145.447.25.084.05.364.22.353.224.094.061.447.306.109.078.339.248.254.196.193.152.355.292.092.079.415.366.033.03.438.414.009.009.43.436.017.017.394.427.053.06.332.384.116.14.245.305.202.26.139.184.308.427.013.018.3.444.135.208.148.237.268.444.03.054.22.39.228.428.01.017.22.444.208.445.01.02.184.424.182.444.08.208.09.237.157.444.147.445.054.175.08.269.124.444.114.445.103.444.026.127.066.318.082.444.072.444.062.445.053.444.043.445.033.444.024.444.013.382.002.063.005.444-.005.445-.002.078-.012.366-.023.445-.033.444-.043.444-.052.445-.061.444-.071.445-.08.444-.073.356-.018.088-.101.445-.111.444-.121.445-.096.324-.036.12-.143.444-.154.445-.114.31-.05.134-.178.445-.188.444-.032.07-.17.374-.214.445-.063.125-.165.32-.24.444-.042.073-.215.371-.232.384-.038.06-.288.445-.122.18-.182.264-.265.37-.056.075-.34.444-.051.064-.311.38-.137.162-.246.283-.2.223-.207.221-.241.252-.191.193-.256.251-.205.193-.243.224-.25.22-.197.171-.33.274-.117.095-.448.348-.001.001-.446.326-.17.119-.277.189-.392.255-.056.036-.447.272-.235.137-.212.12-.447.242-.16.082-.288.145-.447.213-.193.086-.254.112-.448.186-.378.147-.069.026-.447.16-.448.148-.358.11-.089.027-.447.124-.447.114-.448.103-.374.077-.073.015-.447.08-.448.07-.447.06-.447.051-.447.04-.448.03-.447.02-.447.011h-.448l-.447-.008-.447-.019-.448-.028-.447-.038-.447-.047-.447-.057-.448-.066-.447-.076-.202-.038-.245-.048-.448-.096-.447-.105-.447-.115-.289-.08-.158-.046-.448-.136-.447-.146-.338-.117-.11-.039-.447-.168-.447-.177-.144-.06-.303-.13-.448-.201-.241-.114-.206-.099-.447-.225-.23-.12-.217-.118-.448-.25-.132-.077-.315-.188-.414-.256-.033-.021-.448-.295-.19-.129-.257-.18-.365-.264-.082-.061-.447-.344-.051-.04-.397-.323-.145-.12-.302-.263-.205-.182-.242-.223-.236-.222-.212-.207-.236-.237-.21-.22-.213-.224-.235-.261-.163-.184-.285-.336-.09-.108-.353-.445-.004-.005-.328-.44-.12-.167-.192-.276-.254-.384-.04-.06-.276-.445-.132-.225-.126-.22-.242-.444-.079-.155-.146-.29-.209-.444-.092-.21-.102-.234-.178-.445-.164-.444-.004-.01-.146-.435-.135-.444-.122-.444-.044-.181-.064-.264-.094-.444-.082-.445-.068-.444-.055-.444-.043-.445-.03-.444-.011-.273z" clip-path="url(#p48aa6b185b)" style="fill:none;stroke:#0b7734;stroke-width:1.5"/></g><g id="PathCollection_8"><defs><path id="m6165dac2e6" d="M-7.678 7.678H7.678V-7.678H-7.678z" style="stroke:none;fill:#2ca02c;stroke-width:.3"/></defs><g clip-path="url(#p48aa6b185b)"><use xlink:href="#m6165dac2e6" x="227.954" y="108.942" style="stroke:#000;stroke-width:.3"/></g></g><g id="PathCollection_9"><defs><path id="m70a1d20aec" d="M-5.617 5.617H5.617V-5.617H-5.617z" style="stroke:none;stroke-width:.3;fill:#ff7f0e"/></defs><g clip-path="url(#p48aa6b185b)"><use xlink:href="#m70a1d20aec" x="145.133" y="94.384" style="stroke:#000;stroke-width:.3"/></g></g><g id="PathCollection_10"><defs><path id="mb776c270ca" d="M-6.96 6.96H6.96V-6.96H-6.96z" style="stroke:none;fill:#2ca02c;stroke-width:.3"/></defs><g clip-path="url(#p48aa6b185b)"><use xlink:href="#mb776c270ca" x="217.624" y="113.971" style="stroke:#000;stroke-width:.3"/></g></g><g id="PathCollection_11"><defs><path id="m3b1a1320dd" d="M-5.772 5.772H5.772V-5.772H-5.772z" style="stroke:none;stroke-width:.3;fill:#ff7f0e"/></defs><g clip-path="url(#p48aa6b185b)"><use xlink:href="#m3b1a1320dd" x="115.317" y="121.982" style="stroke:#000;stroke-width:.3"/></g></g><g id="PathCollection_12"><defs><path id="m617944f2e5" d="M-9.578 9.578H9.578V-9.578H-9.578z" style="stroke:none;stroke-width:.3;fill:#1f77b4"/></defs><g clip-path="url(#p48aa6b185b)"><use xlink:href="#m617944f2e5" x="81.111" y="197.449" style="stroke:#000;stroke-width:.3"/></g></g><g id="PathCollection_13"><defs><path id="ma1ebc9f463" d="M-5.999 5.999H6V-6H-6z" style="stroke:none;stroke-width:.3;fill:#ff7f0e"/></defs><g clip-path="url(#p48aa6b185b)"><use xlink:href="#ma1ebc9f463" x="152.168" y="136.931" style="stroke:#000;stroke-width:.3"/></g></g><path id="patch_3" d="M36 256.32V34.56" style="fill:none;stroke:#000;stroke-width:.8;stroke-linejoin:miter;stroke-linecap:square"/><path id="patch_4" d="M259.2 256.32V34.56" style="fill:none;stroke:#000;stroke-width:.8;stroke-linejoin:miter;stroke-linecap:square"/><path id="patch_5" d="M36 256.32h223.2" style="fill:none;stroke:#000;stroke-width:.8;stroke-linejoin:miter;stroke-linecap:square"/><path id="patch_6" d="M36 34.56h223.2" style="fill:none;stroke:#000;stroke-width:.8;stroke-linejoin:miter;stroke-linecap:square"/><g id="text_1" transform="matrix(.12 0 0 -.12 77.525 28.56)"><defs><path id="DejaVuSans-53" d="M3425 4513v-616q-359 172-678 256-319 85-616 85-515 0-795-200t-280-569q0-310 186-468 186-157 705-254l381-78q706-135 1042-474t336-907q0-679-455-1029Q2797-91 1919-91q-331 0-705 75-373 75-773 222v650q384-215 753-325 369-109 725-109 540 0 834 212 294 213 294 607 0 343-211 537t-692 291l-385 75q-706 140-1022 440-315 300-315 835 0 619 436 975t1201 356q329 0 669-60 341-59 697-177" transform="scale(.01563)"/><path id="DejaVuSans-74" d="M1172 4494v-994h1184v-447H1172V1153q0-428 117-550t477-122h590V0h-590q-666 0-919 248-253 249-253 905v1900H172v447h422v994z" transform="scale(.01563)"/><path id="DejaVuSans-61" d="M2194 1759q-697 0-966-159t-269-544q0-306 202-486 202-179 548-179 479 0 768 339t289 901v128zm1147 238V0h-575v531q-197-318-491-470T1556-91q-537 0-855 302-317 302-317 808 0 590 395 890 396 300 1180 300h807v57q0 397-261 614t-733 217q-300 0-585-72-284-72-546-216v532q315 122 612 182 297 61 578 61 760 0 1135-394 375-393 375-1193" transform="scale(.01563)"/><path id="DejaVuSans-69" d="M603 3500h575V0H603zm0 1363h575v-729H603z" transform="scale(.01563)"/><path id="DejaVuSans-73" d="M2834 3397v-544q-243 125-506 187-262 63-544 63-428 0-642-131t-214-394q0-200 153-314t616-217l197-44q612-131 870-370t258-667q0-488-386-773Q2250-91 1575-91q-281 0-586 55T347 128v594q319-166 628-249 309-82 613-82 406 0 624 139 219 139 219 392 0 234-158 359-157 125-692 241l-200 47q-534 112-772 345-237 233-237 639 0 494 350 762 350 269 994 269 318 0 599-47 282-46 519-140" transform="scale(.01563)"/><path id="DejaVuSans-63" d="M3122 3366v-538q-244 135-489 202t-495 67q-560 0-870-355-309-354-309-995t309-996q310-354 870-354 250 0 495 67t489 202V134Q2881 22 2623-34q-257-57-548-57-791 0-1257 497-465 497-465 1341 0 856 470 1346 471 491 1290 491 265 0 518-55 253-54 491-163" transform="scale(.01563)"/><path id="DejaVuSans-6c" d="M603 4863h575V0H603z" transform="scale(.01563)"/><path id="DejaVuSans-70" d="M1159 525v-1856H581v4831h578v-531q182 312 458 463 277 152 661 152 638 0 1036-506 399-506 399-1331T3314 415Q2916-91 2278-91q-384 0-661 152-276 152-458 464m1957 1222q0 634-261 995t-717 361q-457 0-718-361t-261-995q0-634 261-995t718-361q456 0 717 361t261 995" transform="scale(.01563)"/><path id="DejaVuSans-65" d="M3597 1894v-281H953q38-594 358-905t892-311q331 0 642 81t618 244V178Q3153 47 2828-22t-659-69q-838 0-1327 487-489 488-489 1320 0 859 464 1363 464 505 1252 505 706 0 1117-455 411-454 411-1235m-575 169q-6 471-264 752-258 282-683 282-481 0-770-272t-333-766z" transform="scale(.01563)"/><path id="DejaVuSans-66" d="M2375 4863v-479h-550q-309 0-430-125-120-125-120-450v-309h947v-447h-947V0H697v3053H147v447h550v244q0 584 272 851 272 268 862 268z" transform="scale(.01563)"/><path id="DejaVuSans-6f" d="M1959 3097q-462 0-731-361t-269-989q0-628 267-989 268-361 733-361 460 0 728 362 269 363 269 988 0 622-269 986-268 364-728 364m0 487q750 0 1178-488 429-487 429-1349 0-859-429-1349Q2709-91 1959-91q-753 0-1180 489-426 490-426 1349 0 862 426 1349 427 488 1180 488" transform="scale(.01563)"/><path id="DejaVuSans-6e" d="M3513 2113V0h-575v2094q0 497-194 743-194 247-581 247-466 0-735-297-269-296-269-809V0H581v3500h578v-544q207 316 486 472 280 156 646 156 603 0 912-373 310-373 310-1098" transform="scale(.01563)"/></defs><use xlink:href="#DejaVuSans-53"/><use xlink:href="#DejaVuSans-74" x="63.477"/><use xlink:href="#DejaVuSans-61" x="102.686"/><use xlink:href="#DejaVuSans-74" x="163.965"/><use xlink:href="#DejaVuSans-69" x="203.174"/><use xlink:href="#DejaVuSans-73" x="230.957"/><use xlink:href="#DejaVuSans-74" x="283.057"/><use xlink:href="#DejaVuSans-69" x="322.266"/><use xlink:href="#DejaVuSans-63" x="350.049"/><use xlink:href="#DejaVuSans-61" x="405.029"/><use xlink:href="#DejaVuSans-6c" x="466.309"/><use xlink:href="#DejaVuSans-53" x="525.879"/><use xlink:href="#DejaVuSans-70" x="589.355"/><use xlink:href="#DejaVuSans-65" x="652.832"/><use xlink:href="#DejaVuSans-63" x="714.355"/><use xlink:href="#DejaVuSans-69" x="769.336"/><use xlink:href="#DejaVuSans-66" x="797.119"/><use xlink:href="#DejaVuSans-69" x="832.324"/><use xlink:href="#DejaVuSans-63" x="860.107"/><use xlink:href="#DejaVuSans-61" x="915.088"/><use xlink:href="#DejaVuSans-74" x="976.367"/><use xlink:href="#DejaVuSans-69" x="1015.576"/><use xlink:href="#DejaVuSans-6f" x="1043.359"/><use xlink:href="#DejaVuSans-6e" x="1104.541"/></g><g id="legend_1"><path id="patch_7" d="M114.481 251.32H252.2q2 0 2-2v-24.876q0-2-2-2H114.481q-2 0-2 2v24.876q0 2 2 2z" style="fill:#fff;opacity:.8;stroke:#ccc;stroke-linejoin:miter"/><g id="PathCollection_14"><defs><path id="m290650663c" d="M-3.839 3.839h7.678v-7.678h-7.678z" style="stroke:#000;stroke-width:.3"/></defs><use xlink:href="#m290650663c" x="126.481" y="238.056" style="stroke:#000;stroke-width:.3"/></g><g id="text_2"><g transform="matrix(.1 0 0 -.1 144.481 234.042)"><defs><path id="DejaVuSans-77" d="M269 3500h575l719-2731 715 2731h678l719-2731 716 2731h575L4050 0h-678l-753 2869L1863 0h-679z" transform="scale(.01563)"/><path id="DejaVuSans-67" d="M2906 1791q0 625-258 968-257 344-723 344-462 0-720-344-258-343-258-968 0-622 258-966t720-344q466 0 723 344 258 344 258 966m575-1357q0-893-397-1329-396-436-1215-436-303 0-572 45t-522 139v559q253-137 500-202 247-66 503-66 566 0 847 295t281 892v285q-178-310-456-463T1784 0Q1141 0 747 490 353 981 353 1791q0 812 394 1302 394 491 1037 491 388 0 666-153t456-462v531h575z" transform="scale(.01563)"/><path id="DejaVuSans-68" d="M3513 2113V0h-575v2094q0 497-194 743-194 247-581 247-466 0-735-297-269-296-269-809V0H581v4863h578V2956q207 316 486 472 280 156 646 156 603 0 912-373 310-373 310-1098" transform="scale(.01563)"/><path id="DejaVuSans-64" d="M2906 2969v1894h575V0h-575v525q-181-312-458-464-276-152-664-152-634 0-1033 506-398 507-398 1332t398 1331q399 506 1033 506 388 0 664-152 277-151 458-463M947 1747q0-634 261-995t717-361q456 0 718 361 263 361 263 995t-263 995q-262 361-718 361t-717-361q-261-361-261-995" transform="scale(.01563)"/><path id="DejaVuSans-2d" d="M313 2009h1684v-512H313z" transform="scale(.01563)"/></defs><use xlink:href="#DejaVuSans-77"/><use xlink:href="#DejaVuSans-65" x="81.787"/><use xlink:href="#DejaVuSans-69" x="143.311"/><use xlink:href="#DejaVuSans-67" x="171.094"/><use xlink:href="#DejaVuSans-68" x="234.57"/><use xlink:href="#DejaVuSans-74" x="297.949"/><use xlink:href="#DejaVuSans-65" x="337.158"/><use xlink:href="#DejaVuSans-64" x="398.682"/><use xlink:href="#DejaVuSans-70" x="493.945"/><use xlink:href="#DejaVuSans-6f" x="557.422"/><use xlink:href="#DejaVuSans-69" x="618.604"/><use xlink:href="#DejaVuSans-6e" x="646.387"/><use xlink:href="#DejaVuSans-74" x="709.766"/><use xlink:href="#DejaVuSans-73" x="748.975"/><use xlink:href="#DejaVuSans-61" x="832.861"/><use xlink:href="#DejaVuSans-70" x="894.141"/><use xlink:href="#DejaVuSans-70" x="957.617"/><use xlink:href="#DejaVuSans-2d" x="1021.094"/></g><g transform="matrix(.1 0 0 -.1 144.481 245.24)"><defs><path id="DejaVuSans-72" d="M2631 2963q-97 56-211 82-114 27-251 27-488 0-749-317t-261-911V0H581v3500h578v-544q182 319 472 473 291 155 707 155 59 0 131-8 72-7 159-23z" transform="scale(.01563)"/><path id="DejaVuSans-78" d="M3513 3500 2247 1797 3578 0h-678L1881 1375 863 0H184l1360 1831L300 3500h678l928-1247 928 1247z" transform="scale(.01563)"/><path id="DejaVuSans-6d" d="M3328 2828q216 388 516 572t706 184q547 0 844-383 297-382 297-1088V0h-578v2094q0 503-179 746-178 244-543 244-447 0-707-297-259-296-259-809V0h-578v2094q0 506-178 748t-550 242q-441 0-701-298-259-298-259-808V0H581v3500h578v-544q197 322 472 475t653 153q382 0 649-194 267-193 395-562" transform="scale(.01563)"/><path id="DejaVuSans-62" d="M3116 1747q0 634-261 995t-717 361q-457 0-718-361t-261-995q0-634 261-995t718-361q456 0 717 361t261 995M1159 2969q182 312 458 463 277 152 661 152 638 0 1036-506 399-506 399-1331T3314 415Q2916-91 2278-91q-384 0-661 152-276 152-458 464V0H581v4863h578z" transform="scale(.01563)"/><path id="DejaVuSans-75" d="M544 1381v2119h575V1403q0-497 193-746 194-248 582-248 465 0 735 297 271 297 271 810v1984h575V0h-575v538q-209-319-486-474-276-155-642-155-603 0-916 375-312 375-312 1097m1447 2203" transform="scale(.01563)"/></defs><use xlink:href="#DejaVuSans-72"/><use xlink:href="#DejaVuSans-6f" x="38.863"/><use xlink:href="#DejaVuSans-78" x="96.92"/><use xlink:href="#DejaVuSans-69" x="156.1"/><use xlink:href="#DejaVuSans-6d" x="183.883"/><use xlink:href="#DejaVuSans-61" x="281.295"/><use xlink:href="#DejaVuSans-74" x="342.574"/><use xlink:href="#DejaVuSans-65" x="381.783"/><use xlink:href="#DejaVuSans-64" x="475.094"/><use xlink:href="#DejaVuSans-69" x="538.57"/><use xlink:href="#DejaVuSans-73" x="566.354"/><use xlink:href="#DejaVuSans-74" x="618.453"/><use xlink:href="#DejaVuSans-72" x="657.662"/><use xlink:href="#DejaVuSans-69" x="698.775"/><use xlink:href="#DejaVuSans-62" x="726.559"/><use xlink:href="#DejaVuSans-75" x="790.035"/><use xlink:href="#DejaVuSans-74" x="853.414"/><use xlink:href="#DejaVuSans-69" x="892.623"/><use xlink:href="#DejaVuSans-6f" x="920.406"/><use xlink:href="#DejaVuSans-6e" x="981.588"/></g></g></g></g></g><defs><clipPath id="p48aa6b185b"><path d="M36 34.56h223.2v221.76H36z"/></clipPath></defs></svg>