<?xml version="1.0" encoding="UTF-8" standalone="no"?>
<!DOCTYPE svg PUBLIC "-//W3C//DTD SVG 1.1//EN" "http://www.w3.org/Graphics/SVG/1.1/DTD/svg11.dtd">
<svg xmlns="http://www.w3.org/2000/svg" version="1.1" viewBox="0.00 0.00 473.00 206.00" width="473.00" height="206.00">
<g stroke-width="2.00" fill="none" stroke-linecap="butt">
<path stroke="#eef5ea" vector-effect="non-scaling-stroke" d="
  M 135.40 19.36
  C 126.25 9.35 110.60 10.45 103.79 22.30
  A 0.60 0.59 -54.8 0 1 102.89 22.46
  C 93.50 14.42 79.68 14.12 70.45 22.79
  C 68.99 24.17 67.78 26.32 66.25 28.02
  Q 65.88 28.43 65.39 28.17
  C 55.40 22.97 44.33 23.29 34.76 29.29
  Q 20.43 38.27 21.32 57.43
  Q 21.34 57.94 20.84 58.06
  C 19.71 58.33 18.49 58.28 17.53 58.63
  C 2.07 64.26 -0.92 83.27 13.03 92.45
  A 0.57 0.57 0.0 0 1 13.16 93.29
  C 1.97 107.09 11.88 125.04 29.19 124.34
  Q 29.67 124.32 29.97 124.69
  C 31.95 127.16 33.56 129.76 35.88 131.80
  C 47.61 142.12 62.56 143.73 76.33 136.62
  A 0.84 0.83 -31.8 0 1 77.39 136.86
  C 84.92 146.91 97.08 151.20 109.18 148.27
  C 118.35 146.04 127.20 138.89 129.95 129.24
  A 0.65 0.65 0.0 0 1 130.89 128.85
  C 147.73 138.05 167.63 127.85 169.35 108.56
  Q 169.42 107.68 170.29 107.49
  C 189.04 103.44 199.94 86.01 192.90 67.84
  C 192.07 65.71 190.49 63.55 189.26 61.38
  A 1.15 1.11 -50.6 0 1 189.18 60.43
  Q 193.34 49.18 186.72 39.22
  C 183.03 33.68 179.14 32.11 173.74 29.62
  Q 173.28 29.40 173.17 28.91
  C 169.94 15.11 154.95 8.83 142.52 14.86
  C 140.25 15.96 138.22 17.69 136.17 19.41
  Q 135.76 19.76 135.40 19.36"
/>
<path stroke="#7d7d7d" vector-effect="non-scaling-stroke" d="
  M 273.73 47.40
  A 30.95 30.95 0.0 0 0 242.78 16.45
  A 30.95 30.95 0.0 0 0 211.83 47.40
  A 30.95 30.95 0.0 0 0 242.78 78.35
  A 30.95 30.95 0.0 0 0 273.73 47.40"
/>
<path stroke="#7d7d7d" vector-effect="non-scaling-stroke" d="
  M 362.32 49.47
  Q 361.68 48.86 360.92 48.64
  Q 360.44 48.50 360.13 48.77
  Q 359.82 49.05 359.69 49.54"
/>
<path stroke="#99a88f" vector-effect="non-scaling-stroke" d="
  M 359.69 49.54
  Q 354.92 47.11 352.61 49.50"
/>
<path stroke="#7d7d7d" vector-effect="non-scaling-stroke" d="
  M 352.61 49.50
  L 351.72 48.20
  Q 351.42 47.78 350.96 48.01
  Q 345.47 50.72 345.07 57.01
  Q 345.04 57.49 346.88 57.90"
/>
<path stroke="#99a88f" vector-effect="non-scaling-stroke" d="
  M 346.88 57.90
  Q 346.18 59.83 348.31 62.97"
/>
<path stroke="#7d7d7d" vector-effect="non-scaling-stroke" d="
  M 348.31 62.97
  Q 348.32 63.77 347.76 64.31
  Q 347.37 64.69 347.85 64.96
  Q 348.50 65.31 348.91 65.93
  Q 349.25 66.45 349.64 65.96
  Q 350.17 65.29 350.90 65.16"
/>
<path stroke="#99a88f" vector-effect="non-scaling-stroke" d="
  M 350.90 65.16
  Q 354.78 67.71 357.81 66.10"
/>
<path stroke="#7d7d7d" vector-effect="non-scaling-stroke" d="
  M 357.81 66.10
  Q 358.94 69.10 363.36 64.96"
/>
<path stroke="#99a88f" vector-effect="non-scaling-stroke" d="
  M 363.36 64.96
  L 365.64 82.46"
/>
<path stroke="#7d7d7d" vector-effect="non-scaling-stroke" d="
  M 365.64 82.46
  Q 364.94 83.15 364.66 84.05
  Q 364.50 84.54 364.82 84.95
  Q 365.23 85.47 365.90 85.74"
/>
<path stroke="#99a88f" vector-effect="non-scaling-stroke" d="
  M 365.90 85.74
  Q 366.54 86.11 366.58 86.50
  Q 366.96 90.30 368.25 93.68"
/>
<path stroke="#7d7d7d" vector-effect="non-scaling-stroke" d="
  M 368.25 93.68
  Q 366.94 97.66 363.76 98.65
  A 1.03 1.03 0.0 0 0 363.05 99.76
  L 363.18 100.81
  Q 363.30 101.74 364.20 101.47
  Q 367.39 100.50 369.40 97.70"
/>
<path stroke="#99a88f" vector-effect="non-scaling-stroke" d="
  M 369.40 97.70
  C 373.10 109.06 378.99 119.61 388.92 126.58
  Q 399.31 133.86 412.20 138.89
  Q 426.26 144.37 440.57 149.17
  Q 445.12 150.70 452.74 154.34
  Q 453.00 154.46 453.17 154.24
  L 456.92 149.55
  Q 457.12 149.29 456.83 149.15
  Q 447.47 144.40 443.47 143.08
  Q 417.59 134.54 406.24 128.99
  C 397.66 124.80 390.33 120.21 384.19 113.01"
/>
<path stroke="#7d7d7d" vector-effect="non-scaling-stroke" d="
  M 384.19 113.01
  Q 385.34 112.74 386.07 112.07"
/>
<path stroke="#99a88f" vector-effect="non-scaling-stroke" d="
  M 386.07 112.07
  Q 389.97 114.19 393.38 112.72"
/>
<path stroke="#7d7d7d" vector-effect="non-scaling-stroke" d="
  M 393.38 112.72
  Q 393.56 113.27 393.86 113.67
  Q 394.18 114.09 394.67 113.90
  Q 400.37 111.62 401.08 105.56
  Q 401.14 105.04 400.63 104.93
  Q 399.85 104.77 399.42 103.84"
/>
<path stroke="#99a88f" vector-effect="non-scaling-stroke" d="
  M 399.42 103.84
  Q 400.12 101.47 397.29 97.96"
/>
<path stroke="#7d7d7d" vector-effect="non-scaling-stroke" d="
  M 397.29 97.96
  Q 397.18 97.47 397.62 96.72
  Q 397.91 96.21 397.41 95.90
  L 395.97 95.00
  Q 395.56 94.74 395.18 95.05
  Q 394.78 95.37 394.46 95.93"
/>
<path stroke="#99a88f" vector-effect="non-scaling-stroke" d="
  M 394.46 95.93
  Q 390.74 93.88 387.10 95.67"
/>
<path stroke="#7d7d7d" vector-effect="non-scaling-stroke" d="
  M 387.10 95.67
  Q 386.51 94.29 386.01 94.50
  Q 381.27 96.46 380.23 101.48
  Q 379.68 104.11 381.38 104.47"
/>
<path stroke="#99a88f" vector-effect="non-scaling-stroke" d="
  M 381.38 104.47
  Q 381.67 107.41 383.34 110.02"
/>
<path stroke="#7d7d7d" vector-effect="non-scaling-stroke" d="
  M 383.34 110.02
  Q 383.14 110.50 383.26 110.54"
/>
<path stroke="#99a88f" vector-effect="non-scaling-stroke" d="
  M 383.26 110.54
  Q 382.56 110.45 382.10 109.64
  Q 376.40 99.68 373.73 88.50
  C 369.44 70.54 368.86 51.41 368.35 33.06
  Q 368.34 32.74 368.02 32.75
  L 361.98 33.00
  A 0.37 0.37 0.0 0 0 361.62 33.39
  L 362.32 49.47"
/>
<path stroke="#1c2c12" vector-effect="non-scaling-stroke" d="
  M 383.26 110.54
  Q 383.44 112.45 384.19 113.01"
/>
<path stroke="#1c2c12" vector-effect="non-scaling-stroke" d="
  M 369.40 97.70
  L 368.25 93.68"
/>
<path stroke="#1c2c12" vector-effect="non-scaling-stroke" d="
  M 365.90 85.74
  Q 366.44 83.45 365.64 82.46"
/>
<path stroke="#1c2c12" vector-effect="non-scaling-stroke" d="
  M 363.36 64.96
  Q 363.49 63.31 363.00 61.88
  Q 362.87 61.48 362.56 61.76
  L 357.81 66.10"
/>
<path stroke="#1c2c12" vector-effect="non-scaling-stroke" d="
  M 350.90 65.16
  Q 350.84 62.19 348.31 62.97"
/>
<path stroke="#1c2c12" vector-effect="non-scaling-stroke" d="
  M 346.88 57.90
  Q 348.64 52.76 352.61 49.50"
/>
<path stroke="#1c2c12" vector-effect="non-scaling-stroke" d="
  M 359.69 49.54
  Q 359.34 50.47 360.08 51.32
  A 1.22 1.22 0.0 0 0 362.22 50.64
  L 362.32 49.47"
/>
<path stroke="#1c2c12" vector-effect="non-scaling-stroke" d="
  M 394.46 95.93
  Q 393.97 97.29 395.25 97.76
  Q 396.61 98.25 397.29 97.96"
/>
<path stroke="#1c2c12" vector-effect="non-scaling-stroke" d="
  M 399.42 103.84
  Q 397.62 109.77 393.81 111.34
  Q 393.35 111.53 393.36 112.03
  L 393.38 112.72"
/>
<path stroke="#1c2c12" vector-effect="non-scaling-stroke" d="
  M 386.07 112.07
  L 385.84 110.55
  Q 385.76 110.01 385.25 109.83
  Q 384.26 109.48 383.34 110.02"
/>
<path stroke="#1c2c12" vector-effect="non-scaling-stroke" d="
  M 387.10 95.67
  Q 388.12 96.47 386.18 97.45
  C 384.09 98.51 383.02 100.88 382.74 103.09
  Q 382.61 104.17 381.38 104.47"
/>
<path stroke="#7d7d7d" vector-effect="non-scaling-stroke" d="
  M 406.84 49.84
  C 406.56 47.11 408.38 44.54 410.87 43.56
  A 0.84 0.84 0.0 0 0 411.38 42.58
  L 411.07 41.24
  Q 410.91 40.59 410.29 40.84
  Q 404.20 43.29 404.05 49.98
  Q 404.04 50.44 404.50 50.41
  L 406.46 50.28
  Q 406.88 50.26 406.84 49.84"
/>
<path stroke="#7d7d7d" vector-effect="non-scaling-stroke" d="
  M 421.6755 43.1011
  A 0.74 0.74 0.0 0 0 421.3835 42.0962
  L 420.2268 41.4603
  A 0.74 0.74 0.0 0 0 419.2219 41.7522
  L 418.6245 42.8389
  A 0.74 0.74 0.0 0 0 418.9165 43.8438
  L 420.0732 44.4797
  A 0.74 0.74 0.0 0 0 421.0781 44.1878
  L 421.6755 43.1011"
/>
<path stroke="#7d7d7d" vector-effect="non-scaling-stroke" d="
  M 422.36 52.66
  Q 421.04 56.39 417.94 57.51
  Q 417.14 57.80 417.37 58.63
  L 417.64 59.59
  A 0.83 0.83 0.0 0 0 418.74 60.14
  Q 424.48 57.93 425.18 51.73
  Q 425.23 51.29 424.79 51.28
  L 422.75 51.19
  Q 422.25 51.17 422.42 51.64
  Q 422.57 52.05 422.36 52.66"
/>
<path stroke="#99a88f" vector-effect="non-scaling-stroke" d="
  M 313.57 65.05
  Q 313.30 67.09 315.29 70.12"
/>
<path stroke="#7d7d7d" vector-effect="non-scaling-stroke" d="
  M 315.29 70.12
  Q 315.31 70.59 314.72 71.23
  Q 314.29 71.70 314.85 72.01
  Q 315.65 72.45 316.11 73.24
  Q 316.50 73.90 316.75 73.17
  Q 317.12 72.13 317.87 72.29"
/>
<path stroke="#99a88f" vector-effect="non-scaling-stroke" d="
  M 317.87 72.29
  Q 321.48 74.58 325.25 73.19"
/>
<path stroke="#7d7d7d" vector-effect="non-scaling-stroke" d="
  M 325.25 73.19
  L 325.55 74.02
  Q 325.73 74.52 326.24 74.35
  Q 332.17 72.42 332.90 66.17
  Q 332.96 65.65 332.71 65.44
  Q 332.41 65.19 331.86 65.22"
/>
<path stroke="#99a88f" vector-effect="non-scaling-stroke" d="
  M 331.86 65.22
  Q 331.57 61.24 329.30 58.40"
/>
<path stroke="#7d7d7d" vector-effect="non-scaling-stroke" d="
  M 329.30 58.40
  Q 329.26 57.76 329.55 56.90
  Q 329.71 56.42 329.25 56.20
  L 327.86 55.55
  Q 327.37 55.32 327.06 55.76
  L 326.55 56.49"
/>
<path stroke="#99a88f" vector-effect="non-scaling-stroke" d="
  M 326.55 56.49
  Q 322.54 54.10 319.47 56.15"
/>
<path stroke="#7d7d7d" vector-effect="non-scaling-stroke" d="
  M 319.47 56.15
  L 318.60 55.23
  Q 318.24 54.86 317.77 55.06
  Q 312.49 57.33 312.01 63.50
  Q 311.94 64.48 313.57 65.05"
/>
<path stroke="#1c2c12" vector-effect="non-scaling-stroke" d="
  M 319.47 56.15
  Q 315.59 59.82 313.57 65.05"
/>
<path stroke="#1c2c12" vector-effect="non-scaling-stroke" d="
  M 326.55 56.49
  Q 326.07 57.94 327.33 58.41
  Q 328.08 58.68 329.30 58.40"
/>
<path stroke="#1c2c12" vector-effect="non-scaling-stroke" d="
  M 331.86 65.22
  L 330.66 65.47
  Q 330.20 65.57 330.14 66.04
  Q 329.68 70.10 325.92 71.59
  Q 325.35 71.82 325.18 72.14
  Q 324.90 72.66 325.25 73.19"
/>
<path stroke="#1c2c12" vector-effect="non-scaling-stroke" d="
  M 317.87 72.29
  Q 317.94 69.18 315.29 70.12"
/>
<path stroke="#7d7d7d" vector-effect="non-scaling-stroke" d="
  M 406.91 57.51
  L 408.47 59.04
  A 0.40 0.40 0.0 0 0 409.03 59.03
  L 409.14 58.92
  A 2.37 1.34 -45.6 0 0 409.84 56.29
  L 409.62 56.08
  A 2.37 1.34 -45.6 0 0 407.01 56.84
  L 406.90 56.94
  A 0.40 0.40 0.0 0 0 406.91 57.51"
/>
<path stroke="#7d7d7d" vector-effect="non-scaling-stroke" d="
  M 445.65 61.21
  Q 445.42 60.64 444.86 60.90
  Q 439.26 63.46 438.86 69.69
  Q 438.82 70.33 439.46 70.36
  L 440.97 70.43
  Q 441.59 70.45 441.62 69.84
  Q 441.88 65.44 445.78 63.47
  A 0.82 0.81 65.3 0 0 446.16 62.43
  L 445.65 61.21"
/>
<path stroke="#7d7d7d" vector-effect="non-scaling-stroke" d="
  M 456.38 62.28
  L 454.82 61.31
  A 0.52 0.52 0.0 0 0 454.10 61.47
  L 453.62 62.24
  A 1.40 1.30 -58.0 0 0 453.98 64.11
  L 454.22 64.26
  A 1.40 1.30 -58.0 0 0 456.07 63.76
  L 456.54 63.00
  A 0.52 0.52 0.0 0 0 456.38 62.28"
/>
<path stroke="#99a88f" vector-effect="non-scaling-stroke" d="
  M 376.66 72.82
  Q 375.86 74.62 378.32 78.13"
/>
<path stroke="#7d7d7d" vector-effect="non-scaling-stroke" d="
  M 378.32 78.13
  Q 378.29 78.57 377.85 79.09
  Q 377.53 79.48 377.83 79.88
  Q 379.37 81.93 380.54 80.39"
/>
<path stroke="#99a88f" vector-effect="non-scaling-stroke" d="
  M 380.54 80.39
  C 383.11 80.87 385.18 82.39 388.09 80.92"
/>
<path stroke="#7d7d7d" vector-effect="non-scaling-stroke" d="
  M 388.09 80.92
  L 388.71 81.89
  Q 388.98 82.31 389.45 82.13
  Q 395.05 79.98 396.09 74.01
  Q 396.17 73.53 394.28 72.19"
/>
<path stroke="#99a88f" vector-effect="non-scaling-stroke" d="
  M 394.28 72.19
  Q 395.05 70.16 392.28 66.00"
/>
<path stroke="#7d7d7d" vector-effect="non-scaling-stroke" d="
  M 392.28 66.00
  Q 392.43 61.77 389.29 63.91"
/>
<path stroke="#99a88f" vector-effect="non-scaling-stroke" d="
  M 389.29 63.91
  Q 386.48 62.86 381.59 63.27"
/>
<path stroke="#7d7d7d" vector-effect="non-scaling-stroke" d="
  M 381.59 63.27
  Q 375.80 63.60 374.79 71.45
  Q 374.73 71.94 375.18 72.14
  L 376.66 72.82"
/>
<path stroke="#1c2c12" vector-effect="non-scaling-stroke" d="
  M 381.59 63.27
  Q 382.70 64.55 381.71 65.22
  Q 378.04 67.73 376.66 72.82"
/>
<path stroke="#1c2c12" vector-effect="non-scaling-stroke" d="
  M 389.29 63.91
  Q 389.51 64.44 389.50 65.02
  Q 389.49 65.54 389.94 65.83
  Q 390.86 66.43 392.28 66.00"
/>
<path stroke="#1c2c12" vector-effect="non-scaling-stroke" d="
  M 394.28 72.19
  Q 392.36 77.77 388.73 79.42
  Q 387.88 79.80 388.09 80.92"
/>
<path stroke="#1c2c12" vector-effect="non-scaling-stroke" d="
  M 380.54 80.39
  Q 381.55 79.32 379.96 78.07
  Q 379.48 77.70 378.32 78.13"
/>
<path stroke="#7d7d7d" vector-effect="non-scaling-stroke" d="
  M 459.27 71.22
  L 457.92 71.26
  Q 457.15 71.29 457.07 72.05
  Q 456.55 76.45 452.40 77.67
  A 0.51 0.51 0.0 0 0 452.05 78.29
  L 452.51 80.09
  Q 452.64 80.56 453.09 80.39
  Q 459.06 78.29 459.94 71.97
  Q 460.05 71.20 459.27 71.22"
/>
<path stroke="#7d7d7d" vector-effect="non-scaling-stroke" d="
  M 444.8843 77.7104
  A 0.59 0.59 0.0 0 0 444.8712 76.8761
  L 443.7652 75.8044
  A 0.59 0.59 0.0 0 0 442.9310 75.8175
  L 441.7757 77.0096
  A 0.59 0.59 0.0 0 0 441.7888 77.8439
  L 442.8948 78.9156
  A 0.59 0.59 0.0 0 0 443.7290 78.9025
  L 444.8843 77.7104"
/>
<path stroke="#7d7d7d" vector-effect="non-scaling-stroke" d="
  M 273.51 89.67
  A 0.33 0.33 0.0 0 1 273.18 90.00
  L 201.83 90.00
  A 0.33 0.33 0.0 0 0 201.50 90.33
  L 201.50 111.79
  A 0.33 0.33 0.0 0 0 201.83 112.12
  L 273.17 112.12
  A 0.33 0.33 0.0 0 1 273.50 112.45
  L 273.50 122.43
  A 0.33 0.33 0.0 0 0 274.06 122.67
  L 295.65 101.07
  A 0.33 0.33 0.0 0 0 295.65 100.60
  L 274.06 79.43
  A 0.33 0.33 0.0 0 0 273.50 79.67
  L 273.51 89.67"
/>
<path stroke="#7d7d7d" vector-effect="non-scaling-stroke" d="
  M 356.75 82.34
  A 0.53 0.52 68.1 0 0 356.04 82.03
  Q 350.31 84.66 349.99 91.00
  A 0.50 0.50 0.0 0 0 350.52 91.53
  L 352.12 91.42
  A 0.69 0.69 0.0 0 0 352.76 90.78
  Q 353.03 86.42 356.93 84.56
  Q 357.43 84.32 357.25 83.79
  L 356.75 82.34"
/>
<path stroke="#7d7d7d" vector-effect="non-scaling-stroke" d="
  M 411.00 86.55
  C 407.18 87.69 404.77 91.78 404.89 95.69
  Q 404.91 96.04 405.25 96.03
  L 407.16 95.97
  A 0.43 0.42 -89.2 0 0 407.57 95.56
  Q 407.85 91.01 411.86 89.01
  Q 412.56 88.67 412.23 87.96
  L 411.76 86.90
  Q 411.53 86.40 411.00 86.55"
/>
<path stroke="#7d7d7d" vector-effect="non-scaling-stroke" d="
  M 422.46 87.95
  L 420.67 86.94
  A 0.41 0.41 0.0 0 0 420.11 87.10
  L 419.94 87.40
  A 2.12 1.29 -60.6 0 0 420.02 89.88
  L 420.28 90.03
  A 2.12 1.29 -60.6 0 0 422.45 88.81
  L 422.62 88.51
  A 0.41 0.41 0.0 0 0 422.46 87.95"
/>
<path stroke="#7d7d7d" vector-effect="non-scaling-stroke" d="
  M 448.76 89.66
  Q 448.65 89.44 448.42 89.53
  Q 442.28 92.15 442.32 98.93
  Q 442.32 99.11 442.50 99.11
  L 444.62 99.16
  Q 444.94 99.17 444.96 98.85
  Q 445.27 93.96 449.56 91.83
  Q 449.79 91.71 449.68 91.48
  L 448.76 89.66"
/>
<path stroke="#7d7d7d" vector-effect="non-scaling-stroke" d="
  M 459.74 91.09
  L 458.36 90.10
  A 0.50 0.50 0.0 0 0 457.66 90.22
  L 457.11 90.99
  A 1.37 1.14 -54.5 0 0 457.24 92.77
  L 457.58 93.01
  A 1.37 1.14 -54.5 0 0 459.31 92.56
  L 459.86 91.78
  A 0.50 0.50 0.0 0 0 459.74 91.09"
/>
<path stroke="#99a88f" vector-effect="non-scaling-stroke" d="
  M 325.84 100.69
  Q 325.35 102.46 327.24 105.73"
/>
<path stroke="#7d7d7d" vector-effect="non-scaling-stroke" d="
  M 327.24 105.73
  Q 326.16 107.13 327.49 108.02
  Q 328.50 108.68 330.00 107.98"
/>
<path stroke="#99a88f" vector-effect="non-scaling-stroke" d="
  M 330.00 107.98
  Q 333.50 109.41 337.24 108.96"
/>
<path stroke="#7d7d7d" vector-effect="non-scaling-stroke" d="
  M 337.24 108.96
  Q 337.80 110.14 339.22 109.46
  Q 347.03 105.71 343.74 99.73"
/>
<path stroke="#99a88f" vector-effect="non-scaling-stroke" d="
  M 343.74 99.73
  Q 343.79 96.98 341.38 93.94"
/>
<path stroke="#7d7d7d" vector-effect="non-scaling-stroke" d="
  M 341.38 93.94
  Q 341.14 93.59 341.77 92.70
  A 0.46 0.45 -55.3 0 0 341.66 92.05
  L 340.02 90.94
  Q 339.63 90.67 339.34 91.04
  L 338.51 92.07"
/>
<path stroke="#99a88f" vector-effect="non-scaling-stroke" d="
  M 338.51 92.07
  Q 333.99 89.42 331.64 92.06"
/>
<path stroke="#7d7d7d" vector-effect="non-scaling-stroke" d="
  M 331.64 92.06
  Q 331.16 91.09 330.67 90.71
  Q 330.16 90.32 329.26 90.81
  Q 324.36 93.48 323.96 99.26
  Q 323.93 99.74 324.36 99.96
  L 325.84 100.69"
/>
<path stroke="#1c2c12" vector-effect="non-scaling-stroke" d="
  M 331.64 92.06
  Q 327.34 95.02 325.84 100.69"
/>
<path stroke="#1c2c12" vector-effect="non-scaling-stroke" d="
  M 338.51 92.07
  Q 338.00 93.15 339.25 93.75
  Q 340.62 94.42 341.38 93.94"
/>
<path stroke="#1c2c12" vector-effect="non-scaling-stroke" d="
  M 343.74 99.73
  Q 341.18 105.91 337.77 107.26
  Q 337.29 107.45 337.27 107.97
  L 337.24 108.96"
/>
<path stroke="#1c2c12" vector-effect="non-scaling-stroke" d="
  M 330.00 107.98
  Q 329.90 106.69 329.68 106.30
  Q 328.69 104.63 327.24 105.73"
/>
<path stroke="#7d7d7d" vector-effect="non-scaling-stroke" d="
  M 355.8804 98.7125
  A 0.58 0.58 0.0 0 0 355.8761 97.8923
  L 354.7815 96.8091
  A 0.58 0.58 0.0 0 0 353.9613 96.8133
  L 352.7796 98.0075
  A 0.58 0.58 0.0 0 0 352.7839 98.8277
  L 353.8785 99.9109
  A 0.58 0.58 0.0 0 0 354.6987 99.9067
  L 355.8804 98.7125"
/>
<path stroke="#7d7d7d" vector-effect="non-scaling-stroke" d="
  M 423.09 97.50
  C 422.44 100.40 421.01 102.60 418.19 103.29
  Q 417.96 103.35 417.99 103.58
  L 418.27 105.80
  Q 418.31 106.07 418.57 106.00
  Q 424.66 104.23 425.87 97.92
  A 0.80 0.80 0.0 0 0 425.17 96.98
  L 424.00 96.85
  A 0.84 0.83 9.2 0 0 423.09 97.50"
/>
<path stroke="#7d7d7d" vector-effect="non-scaling-stroke" d="
  M 460.60 100.20
  Q 460.12 104.63 456.09 106.33
  Q 455.27 106.68 455.49 107.54
  L 455.73 108.50
  Q 455.95 109.37 456.78 109.03
  Q 462.74 106.63 463.31 100.15
  Q 463.32 100.06 463.23 100.05
  L 461.03 99.85
  A 0.40 0.39 5.2 0 0 460.60 100.20"
/>
<path stroke="#7d7d7d" vector-effect="non-scaling-stroke" d="
  M 408.63 101.58
  Q 408.12 101.83 407.63 102.23
  Q 407.12 102.65 407.60 103.12
  L 408.98 104.47
  A 0.54 0.54 0.0 0 0 409.84 104.32
  L 410.65 102.65
  A 1.15 1.00 -0.1 0 0 409.14 101.34
  Q 409.03 101.38 408.63 101.58"
/>
<path stroke="#7d7d7d" vector-effect="non-scaling-stroke" d="
  M 446.39 107.58
  A 0.93 0.93 0.0 0 0 447.84 107.23
  L 448.18 106.40
  A 0.93 0.93 0.0 0 0 447.93 105.34
  L 447.27 104.77
  A 0.93 0.93 0.0 0 0 446.10 104.74
  L 445.40 105.27
  A 0.93 0.93 0.0 0 0 445.36 106.72
  L 446.39 107.58"
/>
<path stroke="#99a88f" vector-effect="non-scaling-stroke" d="
  M 299.66 120.80
  Q 298.69 122.28 301.08 125.59"
/>
<path stroke="#7d7d7d" vector-effect="non-scaling-stroke" d="
  M 301.08 125.59
  L 300.48 126.31
  Q 300.10 126.76 300.52 127.18
  L 301.57 128.23
  Q 301.96 128.62 302.46 128.42
  Q 302.99 128.22 303.27 127.69"
/>
<path stroke="#99a88f" vector-effect="non-scaling-stroke" d="
  M 303.27 127.69
  Q 307.57 130.21 310.29 128.70"
/>
<path stroke="#7d7d7d" vector-effect="non-scaling-stroke" d="
  M 310.29 128.70
  Q 311.45 130.38 313.01 129.58
  Q 317.90 127.04 318.60 122.15
  Q 318.68 121.62 318.25 121.29
  L 317.07 120.39"
/>
<path stroke="#99a88f" vector-effect="non-scaling-stroke" d="
  M 317.07 120.39
  Q 317.85 117.93 315.01 113.95"
/>
<path stroke="#7d7d7d" vector-effect="non-scaling-stroke" d="
  M 315.01 113.95
  L 315.38 112.76
  Q 315.52 112.29 315.12 111.99
  L 314.08 111.22
  Q 313.62 110.88 313.17 111.22
  Q 312.74 111.54 312.48 112.16"
/>
<path stroke="#99a88f" vector-effect="non-scaling-stroke" d="
  M 312.48 112.16
  Q 308.52 109.94 304.79 111.88"
/>
<path stroke="#7d7d7d" vector-effect="non-scaling-stroke" d="
  M 304.79 111.88
  L 304.40 110.87
  Q 304.22 110.41 303.77 110.61
  Q 298.15 113.05 297.74 119.15
  Q 297.71 119.63 298.12 119.87
  L 299.66 120.80"
/>
<path stroke="#1c2c12" vector-effect="non-scaling-stroke" d="
  M 304.79 111.88
  Q 305.01 112.05 305.05 112.30
  Q 305.11 112.80 304.67 113.03
  Q 300.91 115.03 299.66 120.80"
/>
<path stroke="#1c2c12" vector-effect="non-scaling-stroke" d="
  M 312.48 112.16
  Q 312.04 113.59 313.18 114.08
  Q 314.12 114.48 315.01 113.95"
/>
<path stroke="#1c2c12" vector-effect="non-scaling-stroke" d="
  M 317.07 120.39
  Q 314.76 125.74 310.29 128.70"
/>
<path stroke="#1c2c12" vector-effect="non-scaling-stroke" d="
  M 303.27 127.69
  Q 303.70 126.61 303.15 125.93
  Q 302.83 125.53 302.31 125.55
  L 301.08 125.59"
/>
<path stroke="#99a88f" vector-effect="non-scaling-stroke" d="
  M 330.41 127.72
  Q 331.95 129.98 332.67 132.58"
/>
<path stroke="#7d7d7d" vector-effect="non-scaling-stroke" d="
  M 332.67 132.58
  Q 332.32 133.54 332.53 134.37
  C 332.89 135.81 334.42 135.99 335.47 135.11"
/>
<path stroke="#99a88f" vector-effect="non-scaling-stroke" d="
  M 335.47 135.11
  Q 339.22 136.96 342.27 136.14"
/>
<path stroke="#7d7d7d" vector-effect="non-scaling-stroke" d="
  M 342.27 136.14
  Q 342.76 136.00 343.27 136.94
  Q 343.52 137.40 344.00 137.20
  Q 351.20 134.33 350.03 128.19"
/>
<path stroke="#99a88f" vector-effect="non-scaling-stroke" d="
  M 350.03 128.19
  L 347.10 120.71"
/>
<path stroke="#7d7d7d" vector-effect="non-scaling-stroke" d="
  M 347.10 120.71
  Q 348.22 119.33 345.71 118.32
  Q 344.98 118.03 344.47 119.22"
/>
<path stroke="#99a88f" vector-effect="non-scaling-stroke" d="
  M 344.47 119.22
  Q 341.48 118.01 337.01 118.25"
/>
<path stroke="#7d7d7d" vector-effect="non-scaling-stroke" d="
  M 337.01 118.25
  Q 329.13 118.83 330.41 127.72"
/>
<path stroke="#1c2c12" vector-effect="non-scaling-stroke" d="
  M 337.01 118.25
  Q 337.50 119.92 336.28 120.59
  Q 332.85 122.45 332.44 126.19
  Q 332.34 127.20 332.00 127.49
  Q 331.45 127.96 330.41 127.72"
/>
<path stroke="#1c2c12" vector-effect="non-scaling-stroke" d="
  M 344.47 119.22
  C 343.72 121.41 345.95 122.00 347.10 120.71"
/>
<path stroke="#1c2c12" vector-effect="non-scaling-stroke" d="
  M 350.03 128.19
  Q 348.44 127.43 347.50 129.91
  Q 346.72 131.98 346.33 132.45
  C 344.98 134.01 343.16 133.96 342.27 136.14"
/>
<path stroke="#1c2c12" vector-effect="non-scaling-stroke" d="
  M 335.47 135.11
  Q 335.61 134.14 335.36 133.47
  Q 335.09 132.75 334.22 132.61
  Q 333.54 132.49 332.67 132.58"
/>
<path stroke="#99a88f" vector-effect="non-scaling-stroke" d="
  M 368.73 135.11
  Q 367.76 136.99 370.22 140.10"
/>
<path stroke="#7d7d7d" vector-effect="non-scaling-stroke" d="
  M 370.22 140.10
  L 369.50 141.14
  Q 369.20 141.58 369.62 141.91
  L 370.99 143.00
  Q 371.46 143.37 371.73 142.85
  Q 372.14 142.07 372.84 142.19"
/>
<path stroke="#99a88f" vector-effect="non-scaling-stroke" d="
  M 372.84 142.19
  Q 375.85 144.63 379.12 143.36"
/>
<path stroke="#7d7d7d" vector-effect="non-scaling-stroke" d="
  M 379.12 143.36
  Q 379.68 143.05 380.36 144.19
  A 0.73 0.73 0.0 0 0 381.25 144.50
  Q 386.86 142.36 387.80 136.41
  Q 387.89 135.83 387.31 135.72
  L 386.52 135.56"
/>
<path stroke="#99a88f" vector-effect="non-scaling-stroke" d="
  M 386.52 135.56
  Q 386.71 131.44 383.93 128.49"
/>
<path stroke="#7d7d7d" vector-effect="non-scaling-stroke" d="
  M 383.93 128.49
  Q 384.36 128.16 384.59 127.78
  Q 384.89 127.30 384.42 126.98
  Q 383.77 126.53 383.29 125.89
  Q 382.95 125.44 382.47 125.73
  Q 381.88 126.09 381.49 126.83"
/>
<path stroke="#99a88f" vector-effect="non-scaling-stroke" d="
  M 381.49 126.83
  Q 376.99 124.14 374.53 126.55"
/>
<path stroke="#7d7d7d" vector-effect="non-scaling-stroke" d="
  M 374.53 126.55
  L 373.41 125.40
  Q 373.05 125.03 372.59 125.25
  Q 367.07 127.81 366.81 133.93
  Q 366.80 134.35 367.19 134.51
  L 368.73 135.11"
/>
<path stroke="#1c2c12" vector-effect="non-scaling-stroke" d="
  M 374.53 126.55
  Q 370.03 129.89 368.73 135.11"
/>
<path stroke="#1c2c12" vector-effect="non-scaling-stroke" d="
  M 381.49 126.83
  Q 380.90 128.10 382.52 128.67
  Q 383.43 128.99 383.93 128.49"
/>
<path stroke="#1c2c12" vector-effect="non-scaling-stroke" d="
  M 386.52 135.56
  Q 385.97 135.47 385.58 135.57
  Q 385.07 135.71 385.01 136.23
  C 384.36 141.29 380.65 140.44 379.12 143.36"
/>
<path stroke="#1c2c12" vector-effect="non-scaling-stroke" d="
  M 372.84 142.19
  Q 372.27 139.36 370.22 140.10"
/>
<path stroke="#7d7d7d" vector-effect="non-scaling-stroke" d="
  M 116.07 170.90
  A 0.32 0.32 0.0 0 0 115.82 171.01
  L 108.98 178.84
  A 0.32 0.32 0.0 0 1 108.42 178.63
  L 108.51 162.89
  A 0.32 0.32 0.0 0 0 108.19 162.57
  L 106.08 162.53
  A 0.32 0.32 0.0 0 0 105.76 162.85
  L 105.76 187.68
  A 0.32 0.32 0.0 0 0 106.08 188.00
  L 108.26 187.99
  A 0.32 0.32 0.0 0 0 108.58 187.67
  L 108.54 179.92
  A 0.32 0.32 0.0 0 1 109.10 179.70
  L 116.39 187.90
  A 0.32 0.32 0.0 0 0 116.63 188.01
  L 119.47 187.99
  A 0.32 0.32 0.0 0 0 119.70 187.45
  L 111.97 179.26
  A 0.32 0.32 0.0 0 1 111.97 178.82
  L 118.89 171.50
  A 0.32 0.32 0.0 0 0 118.67 170.96
  L 116.07 170.90"
/>
<path stroke="#7d7d7d" vector-effect="non-scaling-stroke" d="
  M 381.89 185.84
  Q 382.73 184.20 382.73 186.00
  L 382.74 187.37
  A 0.63 0.62 0.0 0 0 383.37 187.99
  L 385.00 188.00
  Q 385.49 188.00 385.50 187.50
  L 385.50 162.75
  A 0.24 0.24 0.0 0 0 385.25 162.51
  L 382.99 162.52
  Q 382.76 162.52 382.76 162.76
  L 382.76 172.00
  Q 382.76 173.70 381.75 172.33
  C 379.45 169.20 373.74 170.26 371.69 173.26
  C 368.94 177.31 368.65 184.24 373.05 187.24
  C 375.37 188.82 380.42 188.72 381.89 185.84"
/>
<path stroke="#7d7d7d" vector-effect="non-scaling-stroke" d="
  M 409.24 162.83
  A 0.31 0.31 0.0 0 0 408.93 162.52
  L 406.69 162.52
  A 0.31 0.31 0.0 0 0 406.38 162.83
  L 406.38 187.67
  A 0.31 0.31 0.0 0 0 406.69 187.98
  L 408.93 187.98
  A 0.31 0.31 0.0 0 0 409.24 187.67
  L 409.24 162.83"
/>
<path stroke="#7d7d7d" vector-effect="non-scaling-stroke" d="
  M 132.68 184.62
  C 133.47 178.66 144.97 178.52 143.84 169.03
  C 143.06 162.58 135.00 162.25 131.13 165.70
  Q 130.75 166.04 130.75 166.54
  L 130.76 168.22
  Q 130.77 168.75 131.13 168.36
  C 134.05 165.31 141.67 164.67 141.56 170.10
  C 141.40 177.77 129.46 177.35 129.86 187.58
  Q 129.88 188.00 130.29 188.00
  L 144.04 188.00
  Q 144.61 188.00 144.62 187.43
  L 144.64 185.70
  A 0.44 0.43 90.0 0 0 144.21 185.26
  L 133.24 185.26
  Q 132.59 185.26 132.68 184.62"
/>
<path stroke="#7d7d7d" vector-effect="non-scaling-stroke" d="
  M 424.67 184.61
  C 425.42 178.37 437.93 178.58 435.62 167.89
  C 434.48 162.60 427.34 162.86 423.64 165.21
  Q 422.76 165.77 422.76 166.81
  L 422.76 167.79
  Q 422.76 168.76 423.45 168.08
  C 425.59 165.97 429.81 164.95 432.22 167.15
  C 434.45 169.18 433.46 172.85 431.42 174.68
  C 427.04 178.59 421.58 180.46 421.81 187.53
  Q 421.82 188.00 422.29 188.00
  L 436.04 188.00
  Q 436.61 188.00 436.62 187.43
  L 436.64 185.70
  A 0.44 0.44 0.0 0 0 436.20 185.26
  L 425.24 185.26
  Q 424.59 185.26 424.67 184.61"
/>
<path stroke="#7d7d7d" vector-effect="non-scaling-stroke" d="
  M 60.95 166.48
  A 0.32 0.32 0.0 0 1 61.27 166.80
  L 61.31 187.67
  A 0.32 0.32 0.0 0 0 61.64 187.99
  L 63.60 187.92
  A 0.32 0.32 0.0 0 0 63.91 187.60
  L 63.79 166.81
  A 0.32 0.32 0.0 0 1 64.11 166.49
  L 70.71 166.48
  A 0.32 0.32 0.0 0 0 71.03 166.15
  L 70.97 164.27
  A 0.32 0.32 0.0 0 0 70.65 163.96
  L 54.60 163.95
  A 0.32 0.32 0.0 0 0 54.28 164.25
  L 54.14 166.14
  A 0.32 0.32 0.0 0 0 54.46 166.48
  L 60.95 166.48"
/>
<path stroke="#7d7d7d" vector-effect="non-scaling-stroke" d="
  M 329.74 168.02
  L 338.12 187.40
  A 1.06 1.06 0.0 0 0 340.07 187.40
  L 348.34 168.22
  Q 348.63 167.53 348.63 168.28
  L 348.67 187.71
  Q 348.67 188.00 348.96 188.00
  L 351.25 187.99
  A 0.25 0.25 0.0 0 0 351.50 187.74
  L 351.50 164.47
  Q 351.50 163.93 350.97 163.94
  L 348.31 163.94
  Q 347.75 163.94 347.53 164.45
  L 339.40 182.97
  Q 339.13 183.57 338.87 182.96
  L 330.90 164.39
  Q 330.72 163.97 330.27 163.97
  L 327.30 163.92
  A 0.54 0.54 0.0 0 0 326.76 164.46
  L 326.76 187.50
  Q 326.76 188.00 327.25 188.00
  L 329.00 188.00
  Q 329.50 188.00 329.50 187.50
  L 329.49 168.07
  Q 329.49 167.45 329.74 168.02"
/>
<path stroke="#7d7d7d" vector-effect="non-scaling-stroke" d="
  M 81.74 185.98
  L 81.74 187.49
  Q 81.74 187.99 82.24 187.99
  L 83.83 188.00
  Q 84.48 188.01 84.49 187.35
  C 84.54 183.99 85.32 175.47 83.46 172.71
  C 81.31 169.50 75.95 170.20 72.96 171.78
  A 0.57 0.57 0.0 0 0 72.65 172.29
  L 72.66 174.25
  A 0.21 0.21 0.0 0 0 73.01 174.41
  C 75.80 172.10 81.45 171.40 81.77 176.47
  Q 81.80 176.98 81.30 177.09
  C 76.64 178.06 69.29 177.57 71.53 185.33
  C 72.83 189.83 78.94 188.62 81.08 185.76
  A 0.37 0.36 63.3 0 1 81.74 185.98"
/>
<path stroke="#7d7d7d" vector-effect="non-scaling-stroke" d="
  M 89.43 177.11
  C 90.46 181.02 99.38 180.24 97.16 184.93
  Q 96.95 185.37 96.49 185.53
  Q 92.56 186.85 89.04 184.65
  Q 88.90 184.56 88.91 184.73
  L 89.02 187.21
  A 0.43 0.42 7.8 0 0 89.32 187.60
  C 92.94 188.74 101.46 188.62 100.20 182.43
  C 99.58 179.36 95.26 178.29 92.76 177.08
  A 1.98 1.98 0.0 0 1 91.79 174.56
  C 92.90 171.79 97.35 172.66 99.37 173.76
  Q 99.63 173.91 99.61 173.61
  L 99.46 171.45
  Q 99.44 171.14 99.14 171.04
  C 94.80 169.63 87.72 170.65 89.43 177.11"
/>
<path stroke="#7d7d7d" vector-effect="non-scaling-stroke" d="
  M 368.74 178.05
  A 7.52 7.52 0.0 0 0 361.22 170.53
  L 359.82 170.53
  A 7.52 7.52 0.0 0 0 352.30 178.05
  L 352.30 180.69
  A 7.52 7.52 0.0 0 0 359.82 188.21
  L 361.22 188.21
  A 7.52 7.52 0.0 0 0 368.74 180.69
  L 368.74 178.05"
/>
<path stroke="#7d7d7d" vector-effect="non-scaling-stroke" d="
  M 392.24 180.06
  L 401.79 180.05
  Q 402.34 180.05 402.42 179.51
  C 403.57 171.30 394.27 166.96 389.39 173.42
  C 385.80 178.19 387.21 187.70 394.50 188.26
  Q 397.90 188.51 400.73 187.14
  Q 401.27 186.88 401.26 186.28
  L 401.23 184.98
  Q 401.22 184.34 400.69 184.69
  Q 398.08 186.38 394.92 185.89
  Q 392.14 185.46 390.91 182.94
  L 390.70 182.52
  Q 389.50 180.06 392.24 180.06"
/>
<path stroke="#71786d" vector-effect="non-scaling-stroke" d="
  M 144.64 42.07
  A 9.72 9.72 0.0 0 0 134.92 32.35
  A 9.72 9.72 0.0 0 0 125.20 42.07
  A 9.72 9.72 0.0 0 0 134.92 51.79
  A 9.72 9.72 0.0 0 0 144.64 42.07"
/>
<path stroke="#71786d" vector-effect="non-scaling-stroke" d="
  M 90.76 48.60
  A 9.73 9.73 0.0 0 0 81.03 38.87
  A 9.73 9.73 0.0 0 0 71.30 48.60
  A 9.73 9.73 0.0 0 0 81.03 58.33
  A 9.73 9.73 0.0 0 0 90.76 48.60"
/>
<path stroke="#71786d" vector-effect="non-scaling-stroke" d="
  M 60.53 54.99
  A 9.72 9.72 0.0 0 0 50.81 45.27
  A 9.72 9.72 0.0 0 0 41.09 54.99
  A 9.72 9.72 0.0 0 0 50.81 64.71
  A 9.72 9.72 0.0 0 0 60.53 54.99"
/>
<path stroke="#71786d" vector-effect="non-scaling-stroke" d="
  M 176.30 60.25
  A 9.71 9.71 0.0 0 0 166.59 50.54
  A 9.71 9.71 0.0 0 0 156.88 60.25
  A 9.71 9.71 0.0 0 0 166.59 69.96
  A 9.71 9.71 0.0 0 0 176.30 60.25"
/>
<path stroke="#71786d" vector-effect="non-scaling-stroke" d="
  M 117.94 62.02
  A 9.73 9.73 0.0 0 0 108.21 52.29
  A 9.73 9.73 0.0 0 0 98.48 62.02
  A 9.73 9.73 0.0 0 0 108.21 71.75
  A 9.73 9.73 0.0 0 0 117.94 62.02"
/>
<path stroke="#71786d" vector-effect="non-scaling-stroke" d="
  M 95.34 79.57
  A 9.76 9.76 0.0 0 0 85.58 69.81
  A 9.76 9.76 0.0 0 0 75.82 79.57
  A 9.76 9.76 0.0 0 0 85.58 89.33
  A 9.76 9.76 0.0 0 0 95.34 79.57"
/>
<path stroke="#71786d" vector-effect="non-scaling-stroke" d="
  M 145.28 83.74
  A 9.71 9.71 0.0 0 0 135.57 74.03
  A 9.71 9.71 0.0 0 0 125.86 83.74
  A 9.71 9.71 0.0 0 0 135.57 93.45
  A 9.71 9.71 0.0 0 0 145.28 83.74"
/>
<path stroke="#71786d" vector-effect="non-scaling-stroke" d="
  M 179.36 86.44
  A 9.73 9.73 0.0 0 0 169.63 76.71
  A 9.73 9.73 0.0 0 0 159.90 86.44
  A 9.73 9.73 0.0 0 0 169.63 96.17
  A 9.73 9.73 0.0 0 0 179.36 86.44"
/>
<path stroke="#71786d" vector-effect="non-scaling-stroke" d="
  M 71.72 87.24
  A 9.73 9.73 0.0 0 0 61.99 77.51
  A 9.73 9.73 0.0 0 0 52.26 87.24
  A 9.73 9.73 0.0 0 0 61.99 96.97
  A 9.73 9.73 0.0 0 0 71.72 87.24"
/>
<path stroke="#71786d" vector-effect="non-scaling-stroke" d="
  M 122.56 91.07
  A 9.71 9.71 0.0 0 0 112.85 81.36
  A 9.71 9.71 0.0 0 0 103.14 91.07
  A 9.71 9.71 0.0 0 0 112.85 100.78
  A 9.71 9.71 0.0 0 0 122.56 91.07"
/>
<path stroke="#71786d" vector-effect="non-scaling-stroke" d="
  M 47.56 105.60
  A 9.71 9.71 0.0 0 0 37.85 95.89
  A 9.71 9.71 0.0 0 0 28.14 105.60
  A 9.71 9.71 0.0 0 0 37.85 115.31
  A 9.71 9.71 0.0 0 0 47.56 105.60"
/>
<path stroke="#71786d" vector-effect="non-scaling-stroke" d="
  M 76.83 112.15
  A 9.72 9.72 0.0 0 0 67.11 102.43
  A 9.72 9.72 0.0 0 0 57.39 112.15
  A 9.72 9.72 0.0 0 0 67.11 121.87
  A 9.72 9.72 0.0 0 0 76.83 112.15"
/>
<path stroke="#71786d" vector-effect="non-scaling-stroke" d="
  M 110.59 118.85
  A 9.72 9.72 0.0 0 0 100.87 109.13
  A 9.72 9.72 0.0 0 0 91.15 118.85
  A 9.72 9.72 0.0 0 0 100.87 128.57
  A 9.72 9.72 0.0 0 0 110.59 118.85"
/>
<path stroke="#7d7d7d" vector-effect="non-scaling-stroke" d="
  M 271.34 47.40
  A 28.55 28.55 0.0 0 0 242.79 18.85
  A 28.55 28.55 0.0 0 0 214.24 47.40
  A 28.55 28.55 0.0 0 0 242.79 75.95
  A 28.55 28.55 0.0 0 0 271.34 47.40"
/>
<path stroke="#7d7d7d" vector-effect="non-scaling-stroke" d="
  M 236.76 46.76
  C 230.15 50.43 226.09 53.94 225.36 62.05
  A 1.01 1.01 0.0 0 0 226.37 63.15
  L 258.80 63.17
  A 1.39 1.38 86.2 0 0 260.17 61.60
  Q 258.70 51.01 248.91 46.83
  Q 248.38 46.61 248.80 46.21
  Q 254.25 41.21 252.13 35.12
  C 248.41 24.43 233.54 26.93 232.82 38.28
  Q 232.53 42.73 236.82 46.05
  Q 237.33 46.44 236.76 46.76"
/>
<path stroke="#7d7d7d" vector-effect="non-scaling-stroke" d="
  M 250.17 38.16
  A 7.40 7.40 0.0 0 0 242.77 30.76
  A 7.40 7.40 0.0 0 0 235.37 38.16
  A 7.40 7.40 0.0 0 0 242.77 45.56
  A 7.40 7.40 0.0 0 0 250.17 38.16"
/>
<path stroke="#7d7d7d" vector-effect="non-scaling-stroke" d="
  M 257.48 60.54
  C 254.98 47.53 238.83 43.82 230.77 54.20
  C 229.38 55.98 228.65 58.10 227.93 60.27
  A 0.45 0.45 0.0 0 0 228.36 60.86
  L 257.23 60.85
  Q 257.54 60.85 257.48 60.54"
/>
<path stroke="#7d7d7d" vector-effect="non-scaling-stroke" d="
  M 141.96 42.06
  A 7.02 7.02 0.0 0 0 134.94 35.04
  A 7.02 7.02 0.0 0 0 127.92 42.06
  A 7.02 7.02 0.0 0 0 134.94 49.08
  A 7.02 7.02 0.0 0 0 141.96 42.06"
/>
<path stroke="#1c2c12" vector-effect="non-scaling-stroke" d="
  M 88.04 48.60
  A 7.01 7.01 0.0 0 0 81.03 41.59
  A 7.01 7.01 0.0 0 0 74.02 48.60
  A 7.01 7.01 0.0 0 0 81.03 55.61
  A 7.01 7.01 0.0 0 0 88.04 48.60"
/>
<path stroke="#1c2c12" vector-effect="non-scaling-stroke" d="
  M 57.83 55.01
  A 7.02 7.02 0.0 0 0 50.81 47.99
  A 7.02 7.02 0.0 0 0 43.79 55.01
  A 7.02 7.02 0.0 0 0 50.81 62.03
  A 7.02 7.02 0.0 0 0 57.83 55.01"
/>
<path stroke="#7d7d7d" vector-effect="non-scaling-stroke" d="
  M 173.59 60.25
  A 7.02 7.02 0.0 0 0 166.57 53.23
  A 7.02 7.02 0.0 0 0 159.55 60.25
  A 7.02 7.02 0.0 0 0 166.57 67.27
  A 7.02 7.02 0.0 0 0 173.59 60.25"
/>
<path stroke="#1c2c12" vector-effect="non-scaling-stroke" d="
  M 115.23 62.01
  A 7.01 7.01 0.0 0 0 108.22 55.00
  A 7.01 7.01 0.0 0 0 101.21 62.01
  A 7.01 7.01 0.0 0 0 108.22 69.02
  A 7.01 7.01 0.0 0 0 115.23 62.01"
/>
<path stroke="#7d7d7d" vector-effect="non-scaling-stroke" d="
  M 92.65 79.57
  A 7.07 7.07 0.0 0 0 85.58 72.50
  A 7.07 7.07 0.0 0 0 78.51 79.57
  A 7.07 7.07 0.0 0 0 85.58 86.64
  A 7.07 7.07 0.0 0 0 92.65 79.57"
/>
<path stroke="#7d7d7d" vector-effect="non-scaling-stroke" d="
  M 142.62 83.73
  A 7.04 7.04 0.0 0 0 135.58 76.69
  A 7.04 7.04 0.0 0 0 128.54 83.73
  A 7.04 7.04 0.0 0 0 135.58 90.77
  A 7.04 7.04 0.0 0 0 142.62 83.73"
/>
<path stroke="#7d7d7d" vector-effect="non-scaling-stroke" d="
  M 176.64 86.45
  A 7.03 7.03 0.0 0 0 169.61 79.42
  A 7.03 7.03 0.0 0 0 162.58 86.45
  A 7.03 7.03 0.0 0 0 169.61 93.48
  A 7.03 7.03 0.0 0 0 176.64 86.45"
/>
<path stroke="#1c2c12" vector-effect="non-scaling-stroke" d="
  M 68.99 87.23
  A 7.01 7.01 0.0 0 0 61.98 80.22
  A 7.01 7.01 0.0 0 0 54.97 87.23
  A 7.01 7.01 0.0 0 0 61.98 94.24
  A 7.01 7.01 0.0 0 0 68.99 87.23"
/>
<path stroke="#7d7d7d" vector-effect="non-scaling-stroke" d="
  M 274.42 110.75
  A 0.33 0.33 0.0 0 1 274.75 111.08
  L 274.75 119.57
  A 0.33 0.33 0.0 0 0 275.31 119.81
  L 293.86 101.26
  A 0.33 0.33 0.0 0 0 293.86 100.80
  L 275.31 82.30
  A 0.33 0.33 0.0 0 0 274.75 82.53
  L 274.74 90.92
  A 0.33 0.33 0.0 0 1 274.41 91.25
  L 203.09 91.25
  A 0.33 0.33 0.0 0 0 202.76 91.58
  L 202.74 110.42
  A 0.33 0.33 0.0 0 0 203.07 110.75
  L 274.42 110.75"
/>
<path stroke="#1c2c12" vector-effect="non-scaling-stroke" d="
  M 119.85 91.05
  A 7.01 7.01 0.0 0 0 112.84 84.04
  A 7.01 7.01 0.0 0 0 105.83 91.05
  A 7.01 7.01 0.0 0 0 112.84 98.06
  A 7.01 7.01 0.0 0 0 119.85 91.05"
/>
<path stroke="#1c2c12" vector-effect="non-scaling-stroke" d="
  M 44.85 105.60
  A 7.01 7.01 0.0 0 0 37.84 98.59
  A 7.01 7.01 0.0 0 0 30.83 105.60
  A 7.01 7.01 0.0 0 0 37.84 112.61
  A 7.01 7.01 0.0 0 0 44.85 105.60"
/>
<path stroke="#1c2c12" vector-effect="non-scaling-stroke" d="
  M 74.15 112.16
  A 7.03 7.03 0.0 0 0 67.12 105.13
  A 7.03 7.03 0.0 0 0 60.09 112.16
  A 7.03 7.03 0.0 0 0 67.12 119.19
  A 7.03 7.03 0.0 0 0 74.15 112.16"
/>
<path stroke="#1c2c12" vector-effect="non-scaling-stroke" d="
  M 107.87 118.86
  A 7.02 7.02 0.0 0 0 100.85 111.84
  A 7.02 7.02 0.0 0 0 93.83 118.86
  A 7.02 7.02 0.0 0 0 100.85 125.88
  A 7.02 7.02 0.0 0 0 107.87 118.86"
/>
<path stroke="#7d7d7d" vector-effect="non-scaling-stroke" d="
  M 382.8259 177.7320
  A 4.66 4.66 0.0 0 0 378.3736 172.8732
  L 377.5943 172.8392
  A 4.66 4.66 0.0 0 0 372.7355 177.2915
  L 372.5741 180.9880
  A 4.66 4.66 0.0 0 0 377.0264 185.8468
  L 377.8057 185.8808
  A 4.66 4.66 0.0 0 0 382.6645 181.4285
  L 382.8259 177.7320"
/>
<path stroke="#7d7d7d" vector-effect="non-scaling-stroke" d="
  M 73.50 183.06
  C 73.92 188.21 83.03 186.47 81.62 179.72
  Q 81.54 179.32 81.14 179.35
  C 78.43 179.52 73.24 179.90 73.50 183.06"
/>
<path stroke="#7d7d7d" vector-effect="non-scaling-stroke" d="
  M 360.5364 186.1400
  A 6.75 5.82 90.2 0 0 366.3800 179.4103
  A 6.75 5.82 90.2 0 0 360.5836 172.6400
  A 6.75 5.82 90.2 0 0 354.7400 179.3697
  A 6.75 5.82 90.2 0 0 360.5364 186.1400"
/>
<path stroke="#7d7d7d" vector-effect="non-scaling-stroke" d="
  M 390.97 178.11
  L 399.41 177.81
  A 0.45 0.45 0.0 0 0 399.84 177.35
  L 399.84 177.22
  A 4.64 4.57 88.0 0 0 395.11 172.74
  L 394.91 172.75
  A 4.64 4.57 88.0 0 0 390.50 177.54
  L 390.51 177.67
  A 0.45 0.45 0.0 0 0 390.97 178.11"
/>
</g>
<path fill="#f9f9fa" d="
  M 0.00 0.00
  L 473.00 0.00
  L 473.00 206.00
  L 0.00 206.00
  L 0.00 0.00
  Z
  M 135.40 19.36
  C 126.25 9.35 110.60 10.45 103.79 22.30
  A 0.60 0.59 -54.8 0 1 102.89 22.46
  C 93.50 14.42 79.68 14.12 70.45 22.79
  C 68.99 24.17 67.78 26.32 66.25 28.02
  Q 65.88 28.43 65.39 28.17
  C 55.40 22.97 44.33 23.29 34.76 29.29
  Q 20.43 38.27 21.32 57.43
  Q 21.34 57.94 20.84 58.06
  C 19.71 58.33 18.49 58.28 17.53 58.63
  C 2.07 64.26 -0.92 83.27 13.03 92.45
  A 0.57 0.57 0.0 0 1 13.16 93.29
  C 1.97 107.09 11.88 125.04 29.19 124.34
  Q 29.67 124.32 29.97 124.69
  C 31.95 127.16 33.56 129.76 35.88 131.80
  C 47.61 142.12 62.56 143.73 76.33 136.62
  A 0.84 0.83 -31.8 0 1 77.39 136.86
  C 84.92 146.91 97.08 151.20 109.18 148.27
  C 118.35 146.04 127.20 138.89 129.95 129.24
  A 0.65 0.65 0.0 0 1 130.89 128.85
  C 147.73 138.05 167.63 127.85 169.35 108.56
  Q 169.42 107.68 170.29 107.49
  C 189.04 103.44 199.94 86.01 192.90 67.84
  C 192.07 65.71 190.49 63.55 189.26 61.38
  A 1.15 1.11 -50.6 0 1 189.18 60.43
  Q 193.34 49.18 186.72 39.22
  C 183.03 33.68 179.14 32.11 173.74 29.62
  Q 173.28 29.40 173.17 28.91
  C 169.94 15.11 154.95 8.83 142.52 14.86
  C 140.25 15.96 138.22 17.69 136.17 19.41
  Q 135.76 19.76 135.40 19.36
  Z
  M 273.73 47.40
  A 30.95 30.95 0.0 0 0 242.78 16.45
  A 30.95 30.95 0.0 0 0 211.83 47.40
  A 30.95 30.95 0.0 0 0 242.78 78.35
  A 30.95 30.95 0.0 0 0 273.73 47.40
  Z
  M 362.32 49.47
  Q 361.68 48.86 360.92 48.64
  Q 360.44 48.50 360.13 48.77
  Q 359.82 49.05 359.69 49.54
  Q 354.92 47.11 352.61 49.50
  L 351.72 48.20
  Q 351.42 47.78 350.96 48.01
  Q 345.47 50.72 345.07 57.01
  Q 345.04 57.49 346.88 57.90
  Q 346.18 59.83 348.31 62.97
  Q 348.32 63.77 347.76 64.31
  Q 347.37 64.69 347.85 64.96
  Q 348.50 65.31 348.91 65.93
  Q 349.25 66.45 349.64 65.96
  Q 350.17 65.29 350.90 65.16
  Q 354.78 67.71 357.81 66.10
  Q 358.94 69.10 363.36 64.96
  L 365.64 82.46
  Q 364.94 83.15 364.66 84.05
  Q 364.50 84.54 364.82 84.95
  Q 365.23 85.47 365.90 85.74
  Q 366.54 86.11 366.58 86.50
  Q 366.96 90.30 368.25 93.68
  Q 366.94 97.66 363.76 98.65
  A 1.03 1.03 0.0 0 0 363.05 99.76
  L 363.18 100.81
  Q 363.30 101.74 364.20 101.47
  Q 367.39 100.50 369.40 97.70
  C 373.10 109.06 378.99 119.61 388.92 126.58
  Q 399.31 133.86 412.20 138.89
  Q 426.26 144.37 440.57 149.17
  Q 445.12 150.70 452.74 154.34
  Q 453.00 154.46 453.17 154.24
  L 456.92 149.55
  Q 457.12 149.29 456.83 149.15
  Q 447.47 144.40 443.47 143.08
  Q 417.59 134.54 406.24 128.99
  C 397.66 124.80 390.33 120.21 384.19 113.01
  Q 385.34 112.74 386.07 112.07
  Q 389.97 114.19 393.38 112.72
  Q 393.56 113.27 393.86 113.67
  Q 394.18 114.09 394.67 113.90
  Q 400.37 111.62 401.08 105.56
  Q 401.14 105.04 400.63 104.93
  Q 399.85 104.77 399.42 103.84
  Q 400.12 101.47 397.29 97.96
  Q 397.18 97.47 397.62 96.72
  Q 397.91 96.21 397.41 95.90
  L 395.97 95.00
  Q 395.56 94.74 395.18 95.05
  Q 394.78 95.37 394.46 95.93
  Q 390.74 93.88 387.10 95.67
  Q 386.51 94.29 386.01 94.50
  Q 381.27 96.46 380.23 101.48
  Q 379.68 104.11 381.38 104.47
  Q 381.67 107.41 383.34 110.02
  Q 383.14 110.50 383.26 110.54
  Q 382.56 110.45 382.10 109.64
  Q 376.40 99.68 373.73 88.50
  C 369.44 70.54 368.86 51.41 368.35 33.06
  Q 368.34 32.74 368.02 32.75
  L 361.98 33.00
  A 0.37 0.37 0.0 0 0 361.62 33.39
  L 362.32 49.47
  Z
  M 406.84 49.84
  C 406.56 47.11 408.38 44.54 410.87 43.56
  A 0.84 0.84 0.0 0 0 411.38 42.58
  L 411.07 41.24
  Q 410.91 40.59 410.29 40.84
  Q 404.20 43.29 404.05 49.98
  Q 404.04 50.44 404.50 50.41
  L 406.46 50.28
  Q 406.88 50.26 406.84 49.84
  Z
  M 421.6755 43.1011
  A 0.74 0.74 0.0 0 0 421.3835 42.0962
  L 420.2268 41.4603
  A 0.74 0.74 0.0 0 0 419.2219 41.7522
  L 418.6245 42.8389
  A 0.74 0.74 0.0 0 0 418.9165 43.8438
  L 420.0732 44.4797
  A 0.74 0.74 0.0 0 0 421.0781 44.1878
  L 421.6755 43.1011
  Z
  M 422.36 52.66
  Q 421.04 56.39 417.94 57.51
  Q 417.14 57.80 417.37 58.63
  L 417.64 59.59
  A 0.83 0.83 0.0 0 0 418.74 60.14
  Q 424.48 57.93 425.18 51.73
  Q 425.23 51.29 424.79 51.28
  L 422.75 51.19
  Q 422.25 51.17 422.42 51.64
  Q 422.57 52.05 422.36 52.66
  Z
  M 313.57 65.05
  Q 313.30 67.09 315.29 70.12
  Q 315.31 70.59 314.72 71.23
  Q 314.29 71.70 314.85 72.01
  Q 315.65 72.45 316.11 73.24
  Q 316.50 73.90 316.75 73.17
  Q 317.12 72.13 317.87 72.29
  Q 321.48 74.58 325.25 73.19
  L 325.55 74.02
  Q 325.73 74.52 326.24 74.35
  Q 332.17 72.42 332.90 66.17
  Q 332.96 65.65 332.71 65.44
  Q 332.41 65.19 331.86 65.22
  Q 331.57 61.24 329.30 58.40
  Q 329.26 57.76 329.55 56.90
  Q 329.71 56.42 329.25 56.20
  L 327.86 55.55
  Q 327.37 55.32 327.06 55.76
  L 326.55 56.49
  Q 322.54 54.10 319.47 56.15
  L 318.60 55.23
  Q 318.24 54.86 317.77 55.06
  Q 312.49 57.33 312.01 63.50
  Q 311.94 64.48 313.57 65.05
  Z
  M 406.91 57.51
  L 408.47 59.04
  A 0.40 0.40 0.0 0 0 409.03 59.03
  L 409.14 58.92
  A 2.37 1.34 -45.6 0 0 409.84 56.29
  L 409.62 56.08
  A 2.37 1.34 -45.6 0 0 407.01 56.84
  L 406.90 56.94
  A 0.40 0.40 0.0 0 0 406.91 57.51
  Z
  M 445.65 61.21
  Q 445.42 60.64 444.86 60.90
  Q 439.26 63.46 438.86 69.69
  Q 438.82 70.33 439.46 70.36
  L 440.97 70.43
  Q 441.59 70.45 441.62 69.84
  Q 441.88 65.44 445.78 63.47
  A 0.82 0.81 65.3 0 0 446.16 62.43
  L 445.65 61.21
  Z
  M 456.38 62.28
  L 454.82 61.31
  A 0.52 0.52 0.0 0 0 454.10 61.47
  L 453.62 62.24
  A 1.40 1.30 -58.0 0 0 453.98 64.11
  L 454.22 64.26
  A 1.40 1.30 -58.0 0 0 456.07 63.76
  L 456.54 63.00
  A 0.52 0.52 0.0 0 0 456.38 62.28
  Z
  M 376.66 72.82
  Q 375.86 74.62 378.32 78.13
  Q 378.29 78.57 377.85 79.09
  Q 377.53 79.48 377.83 79.88
  Q 379.37 81.93 380.54 80.39
  C 383.11 80.87 385.18 82.39 388.09 80.92
  L 388.71 81.89
  Q 388.98 82.31 389.45 82.13
  Q 395.05 79.98 396.09 74.01
  Q 396.17 73.53 394.28 72.19
  Q 395.05 70.16 392.28 66.00
  Q 392.43 61.77 389.29 63.91
  Q 386.48 62.86 381.59 63.27
  Q 375.80 63.60 374.79 71.45
  Q 374.73 71.94 375.18 72.14
  L 376.66 72.82
  Z
  M 459.27 71.22
  L 457.92 71.26
  Q 457.15 71.29 457.07 72.05
  Q 456.55 76.45 452.40 77.67
  A 0.51 0.51 0.0 0 0 452.05 78.29
  L 452.51 80.09
  Q 452.64 80.56 453.09 80.39
  Q 459.06 78.29 459.94 71.97
  Q 460.05 71.20 459.27 71.22
  Z
  M 444.8843 77.7104
  A 0.59 0.59 0.0 0 0 444.8712 76.8761
  L 443.7652 75.8044
  A 0.59 0.59 0.0 0 0 442.9310 75.8175
  L 441.7757 77.0096
  A 0.59 0.59 0.0 0 0 441.7888 77.8439
  L 442.8948 78.9156
  A 0.59 0.59 0.0 0 0 443.7290 78.9025
  L 444.8843 77.7104
  Z
  M 273.51 89.67
  A 0.33 0.33 0.0 0 1 273.18 90.00
  L 201.83 90.00
  A 0.33 0.33 0.0 0 0 201.50 90.33
  L 201.50 111.79
  A 0.33 0.33 0.0 0 0 201.83 112.12
  L 273.17 112.12
  A 0.33 0.33 0.0 0 1 273.50 112.45
  L 273.50 122.43
  A 0.33 0.33 0.0 0 0 274.06 122.67
  L 295.65 101.07
  A 0.33 0.33 0.0 0 0 295.65 100.60
  L 274.06 79.43
  A 0.33 0.33 0.0 0 0 273.50 79.67
  L 273.51 89.67
  Z
  M 356.75 82.34
  A 0.53 0.52 68.1 0 0 356.04 82.03
  Q 350.31 84.66 349.99 91.00
  A 0.50 0.50 0.0 0 0 350.52 91.53
  L 352.12 91.42
  A 0.69 0.69 0.0 0 0 352.76 90.78
  Q 353.03 86.42 356.93 84.56
  Q 357.43 84.32 357.25 83.79
  L 356.75 82.34
  Z
  M 411.00 86.55
  C 407.18 87.69 404.77 91.78 404.89 95.69
  Q 404.91 96.04 405.25 96.03
  L 407.16 95.97
  A 0.43 0.42 -89.2 0 0 407.57 95.56
  Q 407.85 91.01 411.86 89.01
  Q 412.56 88.67 412.23 87.96
  L 411.76 86.90
  Q 411.53 86.40 411.00 86.55
  Z
  M 422.46 87.95
  L 420.67 86.94
  A 0.41 0.41 0.0 0 0 420.11 87.10
  L 419.94 87.40
  A 2.12 1.29 -60.6 0 0 420.02 89.88
  L 420.28 90.03
  A 2.12 1.29 -60.6 0 0 422.45 88.81
  L 422.62 88.51
  A 0.41 0.41 0.0 0 0 422.46 87.95
  Z
  M 448.76 89.66
  Q 448.65 89.44 448.42 89.53
  Q 442.28 92.15 442.32 98.93
  Q 442.32 99.11 442.50 99.11
  L 444.62 99.16
  Q 444.94 99.17 444.96 98.85
  Q 445.27 93.96 449.56 91.83
  Q 449.79 91.71 449.68 91.48
  L 448.76 89.66
  Z
  M 459.74 91.09
  L 458.36 90.10
  A 0.50 0.50 0.0 0 0 457.66 90.22
  L 457.11 90.99
  A 1.37 1.14 -54.5 0 0 457.24 92.77
  L 457.58 93.01
  A 1.37 1.14 -54.5 0 0 459.31 92.56
  L 459.86 91.78
  A 0.50 0.50 0.0 0 0 459.74 91.09
  Z
  M 325.84 100.69
  Q 325.35 102.46 327.24 105.73
  Q 326.16 107.13 327.49 108.02
  Q 328.50 108.68 330.00 107.98
  Q 333.50 109.41 337.24 108.96
  Q 337.80 110.14 339.22 109.46
  Q 347.03 105.71 343.74 99.73
  Q 343.79 96.98 341.38 93.94
  Q 341.14 93.59 341.77 92.70
  A 0.46 0.45 -55.3 0 0 341.66 92.05
  L 340.02 90.94
  Q 339.63 90.67 339.34 91.04
  L 338.51 92.07
  Q 333.99 89.42 331.64 92.06
  Q 331.16 91.09 330.67 90.71
  Q 330.16 90.32 329.26 90.81
  Q 324.36 93.48 323.96 99.26
  Q 323.93 99.74 324.36 99.96
  L 325.84 100.69
  Z
  M 355.8804 98.7125
  A 0.58 0.58 0.0 0 0 355.8761 97.8923
  L 354.7815 96.8091
  A 0.58 0.58 0.0 0 0 353.9613 96.8133
  L 352.7796 98.0075
  A 0.58 0.58 0.0 0 0 352.7839 98.8277
  L 353.8785 99.9109
  A 0.58 0.58 0.0 0 0 354.6987 99.9067
  L 355.8804 98.7125
  Z
  M 423.09 97.50
  C 422.44 100.40 421.01 102.60 418.19 103.29
  Q 417.96 103.35 417.99 103.58
  L 418.27 105.80
  Q 418.31 106.07 418.57 106.00
  Q 424.66 104.23 425.87 97.92
  A 0.80 0.80 0.0 0 0 425.17 96.98
  L 424.00 96.85
  A 0.84 0.83 9.2 0 0 423.09 97.50
  Z
  M 460.60 100.20
  Q 460.12 104.63 456.09 106.33
  Q 455.27 106.68 455.49 107.54
  L 455.73 108.50
  Q 455.95 109.37 456.78 109.03
  Q 462.74 106.63 463.31 100.15
  Q 463.32 100.06 463.23 100.05
  L 461.03 99.85
  A 0.40 0.39 5.2 0 0 460.60 100.20
  Z
  M 408.63 101.58
  Q 408.12 101.83 407.63 102.23
  Q 407.12 102.65 407.60 103.12
  L 408.98 104.47
  A 0.54 0.54 0.0 0 0 409.84 104.32
  L 410.65 102.65
  A 1.15 1.00 -0.1 0 0 409.14 101.34
  Q 409.03 101.38 408.63 101.58
  Z
  M 446.39 107.58
  A 0.93 0.93 0.0 0 0 447.84 107.23
  L 448.18 106.40
  A 0.93 0.93 0.0 0 0 447.93 105.34
  L 447.27 104.77
  A 0.93 0.93 0.0 0 0 446.10 104.74
  L 445.40 105.27
  A 0.93 0.93 0.0 0 0 445.36 106.72
  L 446.39 107.58
  Z
  M 299.66 120.80
  Q 298.69 122.28 301.08 125.59
  L 300.48 126.31
  Q 300.10 126.76 300.52 127.18
  L 301.57 128.23
  Q 301.96 128.62 302.46 128.42
  Q 302.99 128.22 303.27 127.69
  Q 307.57 130.21 310.29 128.70
  Q 311.45 130.38 313.01 129.58
  Q 317.90 127.04 318.60 122.15
  Q 318.68 121.62 318.25 121.29
  L 317.07 120.39
  Q 317.85 117.93 315.01 113.95
  L 315.38 112.76
  Q 315.52 112.29 315.12 111.99
  L 314.08 111.22
  Q 313.62 110.88 313.17 111.22
  Q 312.74 111.54 312.48 112.16
  Q 308.52 109.94 304.79 111.88
  L 304.40 110.87
  Q 304.22 110.41 303.77 110.61
  Q 298.15 113.05 297.74 119.15
  Q 297.71 119.63 298.12 119.87
  L 299.66 120.80
  Z
  M 330.41 127.72
  Q 331.95 129.98 332.67 132.58
  Q 332.32 133.54 332.53 134.37
  C 332.89 135.81 334.42 135.99 335.47 135.11
  Q 339.22 136.96 342.27 136.14
  Q 342.76 136.00 343.27 136.94
  Q 343.52 137.40 344.00 137.20
  Q 351.20 134.33 350.03 128.19
  L 347.10 120.71
  Q 348.22 119.33 345.71 118.32
  Q 344.98 118.03 344.47 119.22
  Q 341.48 118.01 337.01 118.25
  Q 329.13 118.83 330.41 127.72
  Z
  M 368.73 135.11
  Q 367.76 136.99 370.22 140.10
  L 369.50 141.14
  Q 369.20 141.58 369.62 141.91
  L 370.99 143.00
  Q 371.46 143.37 371.73 142.85
  Q 372.14 142.07 372.84 142.19
  Q 375.85 144.63 379.12 143.36
  Q 379.68 143.05 380.36 144.19
  A 0.73 0.73 0.0 0 0 381.25 144.50
  Q 386.86 142.36 387.80 136.41
  Q 387.89 135.83 387.31 135.72
  L 386.52 135.56
  Q 386.71 131.44 383.93 128.49
  Q 384.36 128.16 384.59 127.78
  Q 384.89 127.30 384.42 126.98
  Q 383.77 126.53 383.29 125.89
  Q 382.95 125.44 382.47 125.73
  Q 381.88 126.09 381.49 126.83
  Q 376.99 124.14 374.53 126.55
  L 373.41 125.40
  Q 373.05 125.03 372.59 125.25
  Q 367.07 127.81 366.81 133.93
  Q 366.80 134.35 367.19 134.51
  L 368.73 135.11
  Z
  M 116.07 170.90
  A 0.32 0.32 0.0 0 0 115.82 171.01
  L 108.98 178.84
  A 0.32 0.32 0.0 0 1 108.42 178.63
  L 108.51 162.89
  A 0.32 0.32 0.0 0 0 108.19 162.57
  L 106.08 162.53
  A 0.32 0.32 0.0 0 0 105.76 162.85
  L 105.76 187.68
  A 0.32 0.32 0.0 0 0 106.08 188.00
  L 108.26 187.99
  A 0.32 0.32 0.0 0 0 108.58 187.67
  L 108.54 179.92
  A 0.32 0.32 0.0 0 1 109.10 179.70
  L 116.39 187.90
  A 0.32 0.32 0.0 0 0 116.63 188.01
  L 119.47 187.99
  A 0.32 0.32 0.0 0 0 119.70 187.45
  L 111.97 179.26
  A 0.32 0.32 0.0 0 1 111.97 178.82
  L 118.89 171.50
  A 0.32 0.32 0.0 0 0 118.67 170.96
  L 116.07 170.90
  Z
  M 381.89 185.84
  Q 382.73 184.20 382.73 186.00
  L 382.74 187.37
  A 0.63 0.62 0.0 0 0 383.37 187.99
  L 385.00 188.00
  Q 385.49 188.00 385.50 187.50
  L 385.50 162.75
  A 0.24 0.24 0.0 0 0 385.25 162.51
  L 382.99 162.52
  Q 382.76 162.52 382.76 162.76
  L 382.76 172.00
  Q 382.76 173.70 381.75 172.33
  C 379.45 169.20 373.74 170.26 371.69 173.26
  C 368.94 177.31 368.65 184.24 373.05 187.24
  C 375.37 188.82 380.42 188.72 381.89 185.84
  Z
  M 409.24 162.83
  A 0.31 0.31 0.0 0 0 408.93 162.52
  L 406.69 162.52
  A 0.31 0.31 0.0 0 0 406.38 162.83
  L 406.38 187.67
  A 0.31 0.31 0.0 0 0 406.69 187.98
  L 408.93 187.98
  A 0.31 0.31 0.0 0 0 409.24 187.67
  L 409.24 162.83
  Z
  M 132.68 184.62
  C 133.47 178.66 144.97 178.52 143.84 169.03
  C 143.06 162.58 135.00 162.25 131.13 165.70
  Q 130.75 166.04 130.75 166.54
  L 130.76 168.22
  Q 130.77 168.75 131.13 168.36
  C 134.05 165.31 141.67 164.67 141.56 170.10
  C 141.40 177.77 129.46 177.35 129.86 187.58
  Q 129.88 188.00 130.29 188.00
  L 144.04 188.00
  Q 144.61 188.00 144.62 187.43
  L 144.64 185.70
  A 0.44 0.43 90.0 0 0 144.21 185.26
  L 133.24 185.26
  Q 132.59 185.26 132.68 184.62
  Z
  M 424.67 184.61
  C 425.42 178.37 437.93 178.58 435.62 167.89
  C 434.48 162.60 427.34 162.86 423.64 165.21
  Q 422.76 165.77 422.76 166.81
  L 422.76 167.79
  Q 422.76 168.76 423.45 168.08
  C 425.59 165.97 429.81 164.95 432.22 167.15
  C 434.45 169.18 433.46 172.85 431.42 174.68
  C 427.04 178.59 421.58 180.46 421.81 187.53
  Q 421.82 188.00 422.29 188.00
  L 436.04 188.00
  Q 436.61 188.00 436.62 187.43
  L 436.64 185.70
  A 0.44 0.44 0.0 0 0 436.20 185.26
  L 425.24 185.26
  Q 424.59 185.26 424.67 184.61
  Z
  M 60.95 166.48
  A 0.32 0.32 0.0 0 1 61.27 166.80
  L 61.31 187.67
  A 0.32 0.32 0.0 0 0 61.64 187.99
  L 63.60 187.92
  A 0.32 0.32 0.0 0 0 63.91 187.60
  L 63.79 166.81
  A 0.32 0.32 0.0 0 1 64.11 166.49
  L 70.71 166.48
  A 0.32 0.32 0.0 0 0 71.03 166.15
  L 70.97 164.27
  A 0.32 0.32 0.0 0 0 70.65 163.96
  L 54.60 163.95
  A 0.32 0.32 0.0 0 0 54.28 164.25
  L 54.14 166.14
  A 0.32 0.32 0.0 0 0 54.46 166.48
  L 60.95 166.48
  Z
  M 329.74 168.02
  L 338.12 187.40
  A 1.06 1.06 0.0 0 0 340.07 187.40
  L 348.34 168.22
  Q 348.63 167.53 348.63 168.28
  L 348.67 187.71
  Q 348.67 188.00 348.96 188.00
  L 351.25 187.99
  A 0.25 0.25 0.0 0 0 351.50 187.74
  L 351.50 164.47
  Q 351.50 163.93 350.97 163.94
  L 348.31 163.94
  Q 347.75 163.94 347.53 164.45
  L 339.40 182.97
  Q 339.13 183.57 338.87 182.96
  L 330.90 164.39
  Q 330.72 163.97 330.27 163.97
  L 327.30 163.92
  A 0.54 0.54 0.0 0 0 326.76 164.46
  L 326.76 187.50
  Q 326.76 188.00 327.25 188.00
  L 329.00 188.00
  Q 329.50 188.00 329.50 187.50
  L 329.49 168.07
  Q 329.49 167.45 329.74 168.02
  Z
  M 81.74 185.98
  L 81.74 187.49
  Q 81.74 187.99 82.24 187.99
  L 83.83 188.00
  Q 84.48 188.01 84.49 187.35
  C 84.54 183.99 85.32 175.47 83.46 172.71
  C 81.31 169.50 75.95 170.20 72.96 171.78
  A 0.57 0.57 0.0 0 0 72.65 172.29
  L 72.66 174.25
  A 0.21 0.21 0.0 0 0 73.01 174.41
  C 75.80 172.10 81.45 171.40 81.77 176.47
  Q 81.80 176.98 81.30 177.09
  C 76.64 178.06 69.29 177.57 71.53 185.33
  C 72.83 189.83 78.94 188.62 81.08 185.76
  A 0.37 0.36 63.3 0 1 81.74 185.98
  Z
  M 89.43 177.11
  C 90.46 181.02 99.38 180.24 97.16 184.93
  Q 96.95 185.37 96.49 185.53
  Q 92.56 186.85 89.04 184.65
  Q 88.90 184.56 88.91 184.73
  L 89.02 187.21
  A 0.43 0.42 7.8 0 0 89.32 187.60
  C 92.94 188.74 101.46 188.62 100.20 182.43
  C 99.58 179.36 95.26 178.29 92.76 177.08
  A 1.98 1.98 0.0 0 1 91.79 174.56
  C 92.90 171.79 97.35 172.66 99.37 173.76
  Q 99.63 173.91 99.61 173.61
  L 99.46 171.45
  Q 99.44 171.14 99.14 171.04
  C 94.80 169.63 87.72 170.65 89.43 177.11
  Z
  M 368.74 178.05
  A 7.52 7.52 0.0 0 0 361.22 170.53
  L 359.82 170.53
  A 7.52 7.52 0.0 0 0 352.30 178.05
  L 352.30 180.69
  A 7.52 7.52 0.0 0 0 359.82 188.21
  L 361.22 188.21
  A 7.52 7.52 0.0 0 0 368.74 180.69
  L 368.74 178.05
  Z
  M 392.24 180.06
  L 401.79 180.05
  Q 402.34 180.05 402.42 179.51
  C 403.57 171.30 394.27 166.96 389.39 173.42
  C 385.80 178.19 387.21 187.70 394.50 188.26
  Q 397.90 188.51 400.73 187.14
  Q 401.27 186.88 401.26 186.28
  L 401.23 184.98
  Q 401.22 184.34 400.69 184.69
  Q 398.08 186.38 394.92 185.89
  Q 392.14 185.46 390.91 182.94
  L 390.70 182.52
  Q 389.50 180.06 392.24 180.06
  Z"
/>
<path fill="#e2f0d9" d="
  M 136.17 19.41
  C 138.22 17.69 140.25 15.96 142.52 14.86
  C 154.95 8.83 169.94 15.11 173.17 28.91
  Q 173.28 29.40 173.74 29.62
  C 179.14 32.11 183.03 33.68 186.72 39.22
  Q 193.34 49.18 189.18 60.43
  A 1.15 1.11 -50.6 0 0 189.26 61.38
  C 190.49 63.55 192.07 65.71 192.90 67.84
  C 199.94 86.01 189.04 103.44 170.29 107.49
  Q 169.42 107.68 169.35 108.56
  C 167.63 127.85 147.73 138.05 130.89 128.85
  A 0.65 0.65 0.0 0 0 129.95 129.24
  C 127.20 138.89 118.35 146.04 109.18 148.27
  C 97.08 151.20 84.92 146.91 77.39 136.86
  A 0.84 0.83 -31.8 0 0 76.33 136.62
  C 62.56 143.73 47.61 142.12 35.88 131.80
  C 33.56 129.76 31.95 127.16 29.97 124.69
  Q 29.67 124.32 29.19 124.34
  C 11.88 125.04 1.97 107.09 13.16 93.29
  A 0.57 0.57 0.0 0 0 13.03 92.45
  C -0.92 83.27 2.07 64.26 17.53 58.63
  C 18.49 58.28 19.71 58.33 20.84 58.06
  Q 21.34 57.94 21.32 57.43
  Q 20.43 38.27 34.76 29.29
  C 44.33 23.29 55.40 22.97 65.39 28.17
  Q 65.88 28.43 66.25 28.02
  C 67.78 26.32 68.99 24.17 70.45 22.79
  C 79.68 14.12 93.50 14.42 102.89 22.46
  A 0.60 0.59 -54.8 0 0 103.79 22.30
  C 110.60 10.45 126.25 9.35 135.40 19.36
  Q 135.76 19.76 136.17 19.41
  Z
  M 144.64 42.07
  A 9.72 9.72 0.0 0 0 134.92 32.35
  A 9.72 9.72 0.0 0 0 125.20 42.07
  A 9.72 9.72 0.0 0 0 134.92 51.79
  A 9.72 9.72 0.0 0 0 144.64 42.07
  Z
  M 90.76 48.60
  A 9.73 9.73 0.0 0 0 81.03 38.87
  A 9.73 9.73 0.0 0 0 71.30 48.60
  A 9.73 9.73 0.0 0 0 81.03 58.33
  A 9.73 9.73 0.0 0 0 90.76 48.60
  Z
  M 60.53 54.99
  A 9.72 9.72 0.0 0 0 50.81 45.27
  A 9.72 9.72 0.0 0 0 41.09 54.99
  A 9.72 9.72 0.0 0 0 50.81 64.71
  A 9.72 9.72 0.0 0 0 60.53 54.99
  Z
  M 176.30 60.25
  A 9.71 9.71 0.0 0 0 166.59 50.54
  A 9.71 9.71 0.0 0 0 156.88 60.25
  A 9.71 9.71 0.0 0 0 166.59 69.96
  A 9.71 9.71 0.0 0 0 176.30 60.25
  Z
  M 117.94 62.02
  A 9.73 9.73 0.0 0 0 108.21 52.29
  A 9.73 9.73 0.0 0 0 98.48 62.02
  A 9.73 9.73 0.0 0 0 108.21 71.75
  A 9.73 9.73 0.0 0 0 117.94 62.02
  Z
  M 95.34 79.57
  A 9.76 9.76 0.0 0 0 85.58 69.81
  A 9.76 9.76 0.0 0 0 75.82 79.57
  A 9.76 9.76 0.0 0 0 85.58 89.33
  A 9.76 9.76 0.0 0 0 95.34 79.57
  Z
  M 145.28 83.74
  A 9.71 9.71 0.0 0 0 135.57 74.03
  A 9.71 9.71 0.0 0 0 125.86 83.74
  A 9.71 9.71 0.0 0 0 135.57 93.45
  A 9.71 9.71 0.0 0 0 145.28 83.74
  Z
  M 179.36 86.44
  A 9.73 9.73 0.0 0 0 169.63 76.71
  A 9.73 9.73 0.0 0 0 159.90 86.44
  A 9.73 9.73 0.0 0 0 169.63 96.17
  A 9.73 9.73 0.0 0 0 179.36 86.44
  Z
  M 71.72 87.24
  A 9.73 9.73 0.0 0 0 61.99 77.51
  A 9.73 9.73 0.0 0 0 52.26 87.24
  A 9.73 9.73 0.0 0 0 61.99 96.97
  A 9.73 9.73 0.0 0 0 71.72 87.24
  Z
  M 122.56 91.07
  A 9.71 9.71 0.0 0 0 112.85 81.36
  A 9.71 9.71 0.0 0 0 103.14 91.07
  A 9.71 9.71 0.0 0 0 112.85 100.78
  A 9.71 9.71 0.0 0 0 122.56 91.07
  Z
  M 47.56 105.60
  A 9.71 9.71 0.0 0 0 37.85 95.89
  A 9.71 9.71 0.0 0 0 28.14 105.60
  A 9.71 9.71 0.0 0 0 37.85 115.31
  A 9.71 9.71 0.0 0 0 47.56 105.60
  Z
  M 76.83 112.15
  A 9.72 9.72 0.0 0 0 67.11 102.43
  A 9.72 9.72 0.0 0 0 57.39 112.15
  A 9.72 9.72 0.0 0 0 67.11 121.87
  A 9.72 9.72 0.0 0 0 76.83 112.15
  Z
  M 110.59 118.85
  A 9.72 9.72 0.0 0 0 100.87 109.13
  A 9.72 9.72 0.0 0 0 91.15 118.85
  A 9.72 9.72 0.0 0 0 100.87 128.57
  A 9.72 9.72 0.0 0 0 110.59 118.85
  Z"
/>
<path fill="#000000" d="
  M 273.73 47.40
  A 30.95 30.95 0.0 0 1 242.78 78.35
  A 30.95 30.95 0.0 0 1 211.83 47.40
  A 30.95 30.95 0.0 0 1 242.78 16.45
  A 30.95 30.95 0.0 0 1 273.73 47.40
  Z
  M 271.34 47.40
  A 28.55 28.55 0.0 0 0 242.79 18.85
  A 28.55 28.55 0.0 0 0 214.24 47.40
  A 28.55 28.55 0.0 0 0 242.79 75.95
  A 28.55 28.55 0.0 0 0 271.34 47.40
  Z"
/>
<path fill="#f9f9fa" d="
  M 271.34 47.40
  A 28.55 28.55 0.0 0 1 242.79 75.95
  A 28.55 28.55 0.0 0 1 214.24 47.40
  A 28.55 28.55 0.0 0 1 242.79 18.85
  A 28.55 28.55 0.0 0 1 271.34 47.40
  Z
  M 236.76 46.76
  C 230.15 50.43 226.09 53.94 225.36 62.05
  A 1.01 1.01 0.0 0 0 226.37 63.15
  L 258.80 63.17
  A 1.39 1.38 86.2 0 0 260.17 61.60
  Q 258.70 51.01 248.91 46.83
  Q 248.38 46.61 248.80 46.21
  Q 254.25 41.21 252.13 35.12
  C 248.41 24.43 233.54 26.93 232.82 38.28
  Q 232.53 42.73 236.82 46.05
  Q 237.33 46.44 236.76 46.76
  Z"
/>
<path fill="#000000" d="
  M 236.82 46.05
  Q 232.53 42.73 232.82 38.28
  C 233.54 26.93 248.41 24.43 252.13 35.12
  Q 254.25 41.21 248.80 46.21
  Q 248.38 46.61 248.91 46.83
  Q 258.70 51.01 260.17 61.60
  A 1.39 1.38 86.2 0 1 258.80 63.17
  L 226.37 63.15
  A 1.01 1.01 0.0 0 1 225.36 62.05
  C 226.09 53.94 230.15 50.43 236.76 46.76
  Q 237.33 46.44 236.82 46.05
  Z
  M 250.17 38.16
  A 7.40 7.40 0.0 0 0 242.77 30.76
  A 7.40 7.40 0.0 0 0 235.37 38.16
  A 7.40 7.40 0.0 0 0 242.77 45.56
  A 7.40 7.40 0.0 0 0 250.17 38.16
  Z
  M 257.48 60.54
  C 254.98 47.53 238.83 43.82 230.77 54.20
  C 229.38 55.98 228.65 58.10 227.93 60.27
  A 0.45 0.45 0.0 0 0 228.36 60.86
  L 257.23 60.85
  Q 257.54 60.85 257.48 60.54
  Z"
/>
<circle fill="#f9f9fa" cx="242.77" cy="38.16" r="7.40"/>
<path fill="#000000" d="
  M 144.64 42.07
  A 9.72 9.72 0.0 0 1 134.92 51.79
  A 9.72 9.72 0.0 0 1 125.20 42.07
  A 9.72 9.72 0.0 0 1 134.92 32.35
  A 9.72 9.72 0.0 0 1 144.64 42.07
  Z
  M 141.96 42.06
  A 7.02 7.02 0.0 0 0 134.94 35.04
  A 7.02 7.02 0.0 0 0 127.92 42.06
  A 7.02 7.02 0.0 0 0 134.94 49.08
  A 7.02 7.02 0.0 0 0 141.96 42.06
  Z"
/>
<path fill="#385723" d="
  M 383.26 110.54
  Q 383.44 112.45 384.19 113.01
  C 390.33 120.21 397.66 124.80 406.24 128.99
  Q 417.59 134.54 443.47 143.08
  Q 447.47 144.40 456.83 149.15
  Q 457.12 149.29 456.92 149.55
  L 453.17 154.24
  Q 453.00 154.46 452.74 154.34
  Q 445.12 150.70 440.57 149.17
  Q 426.26 144.37 412.20 138.89
  Q 399.31 133.86 388.92 126.58
  C 378.99 119.61 373.10 109.06 369.40 97.70
  L 368.25 93.68
  Q 366.96 90.30 366.58 86.50
  Q 366.54 86.11 365.90 85.74
  Q 366.44 83.45 365.64 82.46
  L 363.36 64.96
  Q 363.49 63.31 363.00 61.88
  Q 362.87 61.48 362.56 61.76
  L 357.81 66.10
  Q 354.78 67.71 350.90 65.16
  Q 350.84 62.19 348.31 62.97
  Q 346.18 59.83 346.88 57.90
  Q 348.64 52.76 352.61 49.50
  Q 354.92 47.11 359.69 49.54
  Q 359.34 50.47 360.08 51.32
  A 1.22 1.22 0.0 0 0 362.22 50.64
  L 362.32 49.47
  L 361.62 33.39
  A 0.37 0.37 0.0 0 1 361.98 33.00
  L 368.02 32.75
  Q 368.34 32.74 368.35 33.06
  C 368.86 51.41 369.44 70.54 373.73 88.50
  Q 376.40 99.68 382.10 109.64
  Q 382.56 110.45 383.26 110.54
  Z"
/>
<circle fill="#f9f9fa" cx="134.94" cy="42.06" r="7.02"/>
<path fill="#000000" d="
  M 90.76 48.60
  A 9.73 9.73 0.0 0 1 81.03 58.33
  A 9.73 9.73 0.0 0 1 71.30 48.60
  A 9.73 9.73 0.0 0 1 81.03 38.87
  A 9.73 9.73 0.0 0 1 90.76 48.60
  Z
  M 88.04 48.60
  A 7.01 7.01 0.0 0 0 81.03 41.59
  A 7.01 7.01 0.0 0 0 74.02 48.60
  A 7.01 7.01 0.0 0 0 81.03 55.61
  A 7.01 7.01 0.0 0 0 88.04 48.60
  Z"
/>
<path fill="#000000" d="
  M 410.87 43.56
  C 408.38 44.54 406.56 47.11 406.84 49.84
  Q 406.88 50.26 406.46 50.28
  L 404.50 50.41
  Q 404.04 50.44 404.05 49.98
  Q 404.20 43.29 410.29 40.84
  Q 410.91 40.59 411.07 41.24
  L 411.38 42.58
  A 0.84 0.84 0.0 0 1 410.87 43.56
  Z"
/>
<circle fill="#385723" cx="81.03" cy="48.60" r="7.01"/>
<rect fill="#000000" x="-1.40" y="-1.36" transform="translate(420.15,42.97) rotate(28.8)" width="2.80" height="2.72" rx="0.74"/>
<path fill="#000000" d="
  M 60.53 54.99
  A 9.72 9.72 0.0 0 1 50.81 64.71
  A 9.72 9.72 0.0 0 1 41.09 54.99
  A 9.72 9.72 0.0 0 1 50.81 45.27
  A 9.72 9.72 0.0 0 1 60.53 54.99
  Z
  M 57.83 55.01
  A 7.02 7.02 0.0 0 0 50.81 47.99
  A 7.02 7.02 0.0 0 0 43.79 55.01
  A 7.02 7.02 0.0 0 0 50.81 62.03
  A 7.02 7.02 0.0 0 0 57.83 55.01
  Z"
/>
<path fill="#000000" d="
  M 352.61 49.50
  Q 348.64 52.76 346.88 57.90
  Q 345.04 57.49 345.07 57.01
  Q 345.47 50.72 350.96 48.01
  Q 351.42 47.78 351.72 48.20
  L 352.61 49.50
  Z"
/>
<circle fill="#385723" cx="50.81" cy="55.01" r="7.02"/>
<path fill="#f9f9fa" d="
  M 230.77 54.20
  C 238.83 43.82 254.98 47.53 257.48 60.54
  Q 257.54 60.85 257.23 60.85
  L 228.36 60.86
  A 0.45 0.45 0.0 0 1 227.93 60.27
  C 228.65 58.10 229.38 55.98 230.77 54.20
  Z"
/>
<path fill="#000000" d="
  M 362.32 49.47
  L 362.22 50.64
  A 1.22 1.22 0.0 0 1 360.08 51.32
  Q 359.34 50.47 359.69 49.54
  Q 359.82 49.05 360.13 48.77
  Q 360.44 48.50 360.92 48.64
  Q 361.68 48.86 362.32 49.47
  Z"
/>
<path fill="#000000" d="
  M 176.30 60.25
  A 9.71 9.71 0.0 0 1 166.59 69.96
  A 9.71 9.71 0.0 0 1 156.88 60.25
  A 9.71 9.71 0.0 0 1 166.59 50.54
  A 9.71 9.71 0.0 0 1 176.30 60.25
  Z
  M 173.59 60.25
  A 7.02 7.02 0.0 0 0 166.57 53.23
  A 7.02 7.02 0.0 0 0 159.55 60.25
  A 7.02 7.02 0.0 0 0 166.57 67.27
  A 7.02 7.02 0.0 0 0 173.59 60.25
  Z"
/>
<path fill="#000000" d="
  M 422.36 52.66
  Q 422.57 52.05 422.42 51.64
  Q 422.25 51.17 422.75 51.19
  L 424.79 51.28
  Q 425.23 51.29 425.18 51.73
  Q 424.48 57.93 418.74 60.14
  A 0.83 0.83 0.0 0 1 417.64 59.59
  L 417.37 58.63
  Q 417.14 57.80 417.94 57.51
  Q 421.04 56.39 422.36 52.66
  Z"
/>
<path fill="#000000" d="
  M 117.94 62.02
  A 9.73 9.73 0.0 0 1 108.21 71.75
  A 9.73 9.73 0.0 0 1 98.48 62.02
  A 9.73 9.73 0.0 0 1 108.21 52.29
  A 9.73 9.73 0.0 0 1 117.94 62.02
  Z
  M 115.23 62.01
  A 7.01 7.01 0.0 0 0 108.22 55.00
  A 7.01 7.01 0.0 0 0 101.21 62.01
  A 7.01 7.01 0.0 0 0 108.22 69.02
  A 7.01 7.01 0.0 0 0 115.23 62.01
  Z"
/>
<circle fill="#f9f9fa" cx="166.57" cy="60.25" r="7.02"/>
<circle fill="#385723" cx="108.22" cy="62.01" r="7.01"/>
<path fill="#000000" d="
  M 319.47 56.15
  Q 315.59 59.82 313.57 65.05
  Q 311.94 64.48 312.01 63.50
  Q 312.49 57.33 317.77 55.06
  Q 318.24 54.86 318.60 55.23
  L 319.47 56.15
  Z"
/>
<path fill="#385723" d="
  M 326.55 56.49
  Q 326.07 57.94 327.33 58.41
  Q 328.08 58.68 329.30 58.40
  Q 331.57 61.24 331.86 65.22
  L 330.66 65.47
  Q 330.20 65.57 330.14 66.04
  Q 329.68 70.10 325.92 71.59
  Q 325.35 71.82 325.18 72.14
  Q 324.90 72.66 325.25 73.19
  Q 321.48 74.58 317.87 72.29
  Q 317.94 69.18 315.29 70.12
  Q 313.30 67.09 313.57 65.05
  Q 315.59 59.82 319.47 56.15
  Q 322.54 54.10 326.55 56.49
  Z"
/>
<path fill="#000000" d="
  M 329.30 58.40
  Q 328.08 58.68 327.33 58.41
  Q 326.07 57.94 326.55 56.49
  L 327.06 55.76
  Q 327.37 55.32 327.86 55.55
  L 329.25 56.20
  Q 329.71 56.42 329.55 56.90
  Q 329.26 57.76 329.30 58.40
  Z"
/>
<path fill="#000000" d="
  M 406.91 57.51
  A 0.40 0.40 0.0 0 1 406.90 56.94
  L 407.01 56.84
  A 2.37 1.34 -45.6 0 1 409.62 56.08
  L 409.84 56.29
  A 2.37 1.34 -45.6 0 1 409.14 58.92
  L 409.03 59.03
  A 0.40 0.40 0.0 0 1 408.47 59.04
  L 406.91 57.51
  Z"
/>
<path fill="#000000" d="
  M 445.65 61.21
  L 446.16 62.43
  A 0.82 0.81 65.3 0 1 445.78 63.47
  Q 441.88 65.44 441.62 69.84
  Q 441.59 70.45 440.97 70.43
  L 439.46 70.36
  Q 438.82 70.33 438.86 69.69
  Q 439.26 63.46 444.86 60.90
  Q 445.42 60.64 445.65 61.21
  Z"
/>
<path fill="#000000" d="
  M 363.36 64.96
  Q 358.94 69.10 357.81 66.10
  L 362.56 61.76
  Q 362.87 61.48 363.00 61.88
  Q 363.49 63.31 363.36 64.96
  Z"
/>
<path fill="#000000" d="
  M 456.38 62.28
  A 0.52 0.52 0.0 0 1 456.54 63.00
  L 456.07 63.76
  A 1.40 1.30 -58.0 0 1 454.22 64.26
  L 453.98 64.11
  A 1.40 1.30 -58.0 0 1 453.62 62.24
  L 454.10 61.47
  A 0.52 0.52 0.0 0 1 454.82 61.31
  L 456.38 62.28
  Z"
/>
<path fill="#000000" d="
  M 350.90 65.16
  Q 350.17 65.29 349.64 65.96
  Q 349.25 66.45 348.91 65.93
  Q 348.50 65.31 347.85 64.96
  Q 347.37 64.69 347.76 64.31
  Q 348.32 63.77 348.31 62.97
  Q 350.84 62.19 350.90 65.16
  Z"
/>
<path fill="#000000" d="
  M 381.59 63.27
  Q 382.70 64.55 381.71 65.22
  Q 378.04 67.73 376.66 72.82
  L 375.18 72.14
  Q 374.73 71.94 374.79 71.45
  Q 375.80 63.60 381.59 63.27
  Z"
/>
<path fill="#385723" d="
  M 389.29 63.91
  Q 389.51 64.44 389.50 65.02
  Q 389.49 65.54 389.94 65.83
  Q 390.86 66.43 392.28 66.00
  Q 395.05 70.16 394.28 72.19
  Q 392.36 77.77 388.73 79.42
  Q 387.88 79.80 388.09 80.92
  C 385.18 82.39 383.11 80.87 380.54 80.39
  Q 381.55 79.32 379.96 78.07
  Q 379.48 77.70 378.32 78.13
  Q 375.86 74.62 376.66 72.82
  Q 378.04 67.73 381.71 65.22
  Q 382.70 64.55 381.59 63.27
  Q 386.48 62.86 389.29 63.91
  Z"
/>
<path fill="#000000" d="
  M 392.28 66.00
  Q 390.86 66.43 389.94 65.83
  Q 389.49 65.54 389.50 65.02
  Q 389.51 64.44 389.29 63.91
  Q 392.43 61.77 392.28 66.00
  Z"
/>
<path fill="#000000" d="
  M 331.86 65.22
  Q 332.41 65.19 332.71 65.44
  Q 332.96 65.65 332.90 66.17
  Q 332.17 72.42 326.24 74.35
  Q 325.73 74.52 325.55 74.02
  L 325.25 73.19
  Q 324.90 72.66 325.18 72.14
  Q 325.35 71.82 325.92 71.59
  Q 329.68 70.10 330.14 66.04
  Q 330.20 65.57 330.66 65.47
  L 331.86 65.22
  Z"
/>
<path fill="#000000" d="
  M 95.34 79.57
  A 9.76 9.76 0.0 0 1 85.58 89.33
  A 9.76 9.76 0.0 0 1 75.82 79.57
  A 9.76 9.76 0.0 0 1 85.58 69.81
  A 9.76 9.76 0.0 0 1 95.34 79.57
  Z
  M 92.65 79.57
  A 7.07 7.07 0.0 0 0 85.58 72.50
  A 7.07 7.07 0.0 0 0 78.51 79.57
  A 7.07 7.07 0.0 0 0 85.58 86.64
  A 7.07 7.07 0.0 0 0 92.65 79.57
  Z"
/>
<path fill="#000000" d="
  M 317.87 72.29
  Q 317.12 72.13 316.75 73.17
  Q 316.50 73.90 316.11 73.24
  Q 315.65 72.45 314.85 72.01
  Q 314.29 71.70 314.72 71.23
  Q 315.31 70.59 315.29 70.12
  Q 317.94 69.18 317.87 72.29
  Z"
/>
<path fill="#000000" d="
  M 459.94 71.97
  Q 459.06 78.29 453.09 80.39
  Q 452.64 80.56 452.51 80.09
  L 452.05 78.29
  A 0.51 0.51 0.0 0 1 452.40 77.67
  Q 456.55 76.45 457.07 72.05
  Q 457.15 71.29 457.92 71.26
  L 459.27 71.22
  Q 460.05 71.20 459.94 71.97
  Z"
/>
<circle fill="#f9f9fa" cx="85.58" cy="79.57" r="7.07"/>
<path fill="#000000" d="
  M 394.28 72.19
  Q 396.17 73.53 396.09 74.01
  Q 395.05 79.98 389.45 82.13
  Q 388.98 82.31 388.71 81.89
  L 388.09 80.92
  Q 387.88 79.80 388.73 79.42
  Q 392.36 77.77 394.28 72.19
  Z"
/>
<path fill="#000000" d="
  M 145.28 83.74
  A 9.71 9.71 0.0 0 1 135.57 93.45
  A 9.71 9.71 0.0 0 1 125.86 83.74
  A 9.71 9.71 0.0 0 1 135.57 74.03
  A 9.71 9.71 0.0 0 1 145.28 83.74
  Z
  M 142.62 83.73
  A 7.04 7.04 0.0 0 0 135.58 76.69
  A 7.04 7.04 0.0 0 0 128.54 83.73
  A 7.04 7.04 0.0 0 0 135.58 90.77
  A 7.04 7.04 0.0 0 0 142.62 83.73
  Z"
/>
<rect fill="#000000" x="-1.36" y="-1.42" transform="translate(443.33,77.36) rotate(44.1)" width="2.72" height="2.84" rx="0.59"/>
<circle fill="#f9f9fa" cx="135.58" cy="83.73" r="7.04"/>
<path fill="#000000" d="
  M 179.36 86.44
  A 9.73 9.73 0.0 0 1 169.63 96.17
  A 9.73 9.73 0.0 0 1 159.90 86.44
  A 9.73 9.73 0.0 0 1 169.63 76.71
  A 9.73 9.73 0.0 0 1 179.36 86.44
  Z
  M 176.64 86.45
  A 7.03 7.03 0.0 0 0 169.61 79.42
  A 7.03 7.03 0.0 0 0 162.58 86.45
  A 7.03 7.03 0.0 0 0 169.61 93.48
  A 7.03 7.03 0.0 0 0 176.64 86.45
  Z"
/>
<path fill="#000000" d="
  M 71.72 87.24
  A 9.73 9.73 0.0 0 1 61.99 96.97
  A 9.73 9.73 0.0 0 1 52.26 87.24
  A 9.73 9.73 0.0 0 1 61.99 77.51
  A 9.73 9.73 0.0 0 1 71.72 87.24
  Z
  M 68.99 87.23
  A 7.01 7.01 0.0 0 0 61.98 80.22
  A 7.01 7.01 0.0 0 0 54.97 87.23
  A 7.01 7.01 0.0 0 0 61.98 94.24
  A 7.01 7.01 0.0 0 0 68.99 87.23
  Z"
/>
<path fill="#000000" d="
  M 378.32 78.13
  Q 379.48 77.70 379.96 78.07
  Q 381.55 79.32 380.54 80.39
  Q 379.37 81.93 377.83 79.88
  Q 377.53 79.48 377.85 79.09
  Q 378.29 78.57 378.32 78.13
  Z"
/>
<path fill="#000000" d="
  M 273.51 89.67
  L 273.50 79.67
  A 0.33 0.33 0.0 0 1 274.06 79.43
  L 295.65 100.60
  A 0.33 0.33 0.0 0 1 295.65 101.07
  L 274.06 122.67
  A 0.33 0.33 0.0 0 1 273.50 122.43
  L 273.50 112.45
  A 0.33 0.33 0.0 0 0 273.17 112.12
  L 201.83 112.12
  A 0.33 0.33 0.0 0 1 201.50 111.79
  L 201.50 90.33
  A 0.33 0.33 0.0 0 1 201.83 90.00
  L 273.18 90.00
  A 0.33 0.33 0.0 0 0 273.51 89.67
  Z
  M 274.42 110.75
  A 0.33 0.33 0.0 0 1 274.75 111.08
  L 274.75 119.57
  A 0.33 0.33 0.0 0 0 275.31 119.81
  L 293.86 101.26
  A 0.33 0.33 0.0 0 0 293.86 100.80
  L 275.31 82.30
  A 0.33 0.33 0.0 0 0 274.75 82.53
  L 274.74 90.92
  A 0.33 0.33 0.0 0 1 274.41 91.25
  L 203.09 91.25
  A 0.33 0.33 0.0 0 0 202.76 91.58
  L 202.74 110.42
  A 0.33 0.33 0.0 0 0 203.07 110.75
  L 274.42 110.75
  Z"
/>
<circle fill="#f9f9fa" cx="169.61" cy="86.45" r="7.03"/>
<circle fill="#385723" cx="61.98" cy="87.23" r="7.01"/>
<path fill="#000000" d="
  M 122.56 91.07
  A 9.71 9.71 0.0 0 1 112.85 100.78
  A 9.71 9.71 0.0 0 1 103.14 91.07
  A 9.71 9.71 0.0 0 1 112.85 81.36
  A 9.71 9.71 0.0 0 1 122.56 91.07
  Z
  M 119.85 91.05
  A 7.01 7.01 0.0 0 0 112.84 84.04
  A 7.01 7.01 0.0 0 0 105.83 91.05
  A 7.01 7.01 0.0 0 0 112.84 98.06
  A 7.01 7.01 0.0 0 0 119.85 91.05
  Z"
/>
<path fill="#f9f9fa" d="
  M 274.42 110.75
  L 203.07 110.75
  A 0.33 0.33 0.0 0 1 202.74 110.42
  L 202.76 91.58
  A 0.33 0.33 0.0 0 1 203.09 91.25
  L 274.41 91.25
  A 0.33 0.33 0.0 0 0 274.74 90.92
  L 274.75 82.53
  A 0.33 0.33 0.0 0 1 275.31 82.30
  L 293.86 100.80
  A 0.33 0.33 0.0 0 1 293.86 101.26
  L 275.31 119.81
  A 0.33 0.33 0.0 0 1 274.75 119.57
  L 274.75 111.08
  A 0.33 0.33 0.0 0 0 274.42 110.75
  Z"
/>
<path fill="#000000" d="
  M 356.93 84.56
  Q 353.03 86.42 352.76 90.78
  A 0.69 0.69 0.0 0 1 352.12 91.42
  L 350.52 91.53
  A 0.50 0.50 0.0 0 1 349.99 91.00
  Q 350.31 84.66 356.04 82.03
  A 0.53 0.52 68.1 0 1 356.75 82.34
  L 357.25 83.79
  Q 357.43 84.32 356.93 84.56
  Z"
/>
<path fill="#000000" d="
  M 365.64 82.46
  Q 366.44 83.45 365.90 85.74
  Q 365.23 85.47 364.82 84.95
  Q 364.50 84.54 364.66 84.05
  Q 364.94 83.15 365.64 82.46
  Z"
/>
<circle fill="#385723" cx="112.84" cy="91.05" r="7.01"/>
<path fill="#000000" d="
  M 404.89 95.69
  C 404.77 91.78 407.18 87.69 411.00 86.55
  Q 411.53 86.40 411.76 86.90
  L 412.23 87.96
  Q 412.56 88.67 411.86 89.01
  Q 407.85 91.01 407.57 95.56
  A 0.43 0.42 -89.2 0 1 407.16 95.97
  L 405.25 96.03
  Q 404.91 96.04 404.89 95.69
  Z"
/>
<path fill="#000000" d="
  M 422.46 87.95
  A 0.41 0.41 0.0 0 1 422.62 88.51
  L 422.45 88.81
  A 2.12 1.29 -60.6 0 1 420.28 90.03
  L 420.02 89.88
  A 2.12 1.29 -60.6 0 1 419.94 87.40
  L 420.11 87.10
  A 0.41 0.41 0.0 0 1 420.67 86.94
  L 422.46 87.95
  Z"
/>
<path fill="#000000" d="
  M 448.76 89.66
  L 449.68 91.48
  Q 449.79 91.71 449.56 91.83
  Q 445.27 93.96 444.96 98.85
  Q 444.94 99.17 444.62 99.16
  L 442.50 99.11
  Q 442.32 99.11 442.32 98.93
  Q 442.28 92.15 448.42 89.53
  Q 448.65 89.44 448.76 89.66
  Z"
/>
<path fill="#000000" d="
  M 459.74 91.09
  A 0.50 0.50 0.0 0 1 459.86 91.78
  L 459.31 92.56
  A 1.37 1.14 -54.5 0 1 457.58 93.01
  L 457.24 92.77
  A 1.37 1.14 -54.5 0 1 457.11 90.99
  L 457.66 90.22
  A 0.50 0.50 0.0 0 1 458.36 90.10
  L 459.74 91.09
  Z"
/>
<path fill="#000000" d="
  M 331.64 92.06
  Q 327.34 95.02 325.84 100.69
  L 324.36 99.96
  Q 323.93 99.74 323.96 99.26
  Q 324.36 93.48 329.26 90.81
  Q 330.16 90.32 330.67 90.71
  Q 331.16 91.09 331.64 92.06
  Z"
/>
<path fill="#385723" d="
  M 338.51 92.07
  Q 338.00 93.15 339.25 93.75
  Q 340.62 94.42 341.38 93.94
  Q 343.79 96.98 343.74 99.73
  Q 341.18 105.91 337.77 107.26
  Q 337.29 107.45 337.27 107.97
  L 337.24 108.96
  Q 333.50 109.41 330.00 107.98
  Q 329.90 106.69 329.68 106.30
  Q 328.69 104.63 327.24 105.73
  Q 325.35 102.46 325.84 100.69
  Q 327.34 95.02 331.64 92.06
  Q 333.99 89.42 338.51 92.07
  Z"
/>
<path fill="#000000" d="
  M 341.38 93.94
  Q 340.62 94.42 339.25 93.75
  Q 338.00 93.15 338.51 92.07
  L 339.34 91.04
  Q 339.63 90.67 340.02 90.94
  L 341.66 92.05
  A 0.46 0.45 -55.3 0 1 341.77 92.70
  Q 341.14 93.59 341.38 93.94
  Z"
/>
<path fill="#000000" d="
  M 368.25 93.68
  L 369.40 97.70
  Q 367.39 100.50 364.20 101.47
  Q 363.30 101.74 363.18 100.81
  L 363.05 99.76
  A 1.03 1.03 0.0 0 1 363.76 98.65
  Q 366.94 97.66 368.25 93.68
  Z"
/>
<path fill="#000000" d="
  M 387.10 95.67
  Q 388.12 96.47 386.18 97.45
  C 384.09 98.51 383.02 100.88 382.74 103.09
  Q 382.61 104.17 381.38 104.47
  Q 379.68 104.11 380.23 101.48
  Q 381.27 96.46 386.01 94.50
  Q 386.51 94.29 387.10 95.67
  Z"
/>
<path fill="#385723" d="
  M 394.46 95.93
  Q 393.97 97.29 395.25 97.76
  Q 396.61 98.25 397.29 97.96
  Q 400.12 101.47 399.42 103.84
  Q 397.62 109.77 393.81 111.34
  Q 393.35 111.53 393.36 112.03
  L 393.38 112.72
  Q 389.97 114.19 386.07 112.07
  L 385.84 110.55
  Q 385.76 110.01 385.25 109.83
  Q 384.26 109.48 383.34 110.02
  Q 381.67 107.41 381.38 104.47
  Q 382.61 104.17 382.74 103.09
  C 383.02 100.88 384.09 98.51 386.18 97.45
  Q 388.12 96.47 387.10 95.67
  Q 390.74 93.88 394.46 95.93
  Z"
/>
<path fill="#000000" d="
  M 397.29 97.96
  Q 396.61 98.25 395.25 97.76
  Q 393.97 97.29 394.46 95.93
  Q 394.78 95.37 395.18 95.05
  Q 395.56 94.74 395.97 95.00
  L 397.41 95.90
  Q 397.91 96.21 397.62 96.72
  Q 397.18 97.47 397.29 97.96
  Z"
/>
<path fill="#000000" d="
  M 47.56 105.60
  A 9.71 9.71 0.0 0 1 37.85 115.31
  A 9.71 9.71 0.0 0 1 28.14 105.60
  A 9.71 9.71 0.0 0 1 37.85 95.89
  A 9.71 9.71 0.0 0 1 47.56 105.60
  Z
  M 44.85 105.60
  A 7.01 7.01 0.0 0 0 37.84 98.59
  A 7.01 7.01 0.0 0 0 30.83 105.60
  A 7.01 7.01 0.0 0 0 37.84 112.61
  A 7.01 7.01 0.0 0 0 44.85 105.60
  Z"
/>
<rect fill="#000000" x="-1.35" y="-1.42" transform="translate(354.33,98.36) rotate(44.7)" width="2.70" height="2.84" rx="0.58"/>
<path fill="#000000" d="
  M 418.19 103.29
  C 421.01 102.60 422.44 100.40 423.09 97.50
  A 0.84 0.83 9.2 0 1 424.00 96.85
  L 425.17 96.98
  A 0.80 0.80 0.0 0 1 425.87 97.92
  Q 424.66 104.23 418.57 106.00
  Q 418.31 106.07 418.27 105.80
  L 417.99 103.58
  Q 417.96 103.35 418.19 103.29
  Z"
/>
<circle fill="#385723" cx="37.84" cy="105.60" r="7.01"/>
<path fill="#000000" d="
  M 460.60 100.20
  A 0.40 0.39 5.2 0 1 461.03 99.85
  L 463.23 100.05
  Q 463.32 100.06 463.31 100.15
  Q 462.74 106.63 456.78 109.03
  Q 455.95 109.37 455.73 108.50
  L 455.49 107.54
  Q 455.27 106.68 456.09 106.33
  Q 460.12 104.63 460.60 100.20
  Z"
/>
<path fill="#000000" d="
  M 343.74 99.73
  Q 347.03 105.71 339.22 109.46
  Q 337.80 110.14 337.24 108.96
  L 337.27 107.97
  Q 337.29 107.45 337.77 107.26
  Q 341.18 105.91 343.74 99.73
  Z"
/>
<path fill="#000000" d="
  M 408.63 101.58
  Q 409.03 101.38 409.14 101.34
  A 1.15 1.00 -0.1 0 1 410.65 102.65
  L 409.84 104.32
  A 0.54 0.54 0.0 0 1 408.98 104.47
  L 407.60 103.12
  Q 407.12 102.65 407.63 102.23
  Q 408.12 101.83 408.63 101.58
  Z"
/>
<path fill="#000000" d="
  M 76.83 112.15
  A 9.72 9.72 0.0 0 1 67.11 121.87
  A 9.72 9.72 0.0 0 1 57.39 112.15
  A 9.72 9.72 0.0 0 1 67.11 102.43
  A 9.72 9.72 0.0 0 1 76.83 112.15
  Z
  M 74.15 112.16
  A 7.03 7.03 0.0 0 0 67.12 105.13
  A 7.03 7.03 0.0 0 0 60.09 112.16
  A 7.03 7.03 0.0 0 0 67.12 119.19
  A 7.03 7.03 0.0 0 0 74.15 112.16
  Z"
/>
<path fill="#000000" d="
  M 399.42 103.84
  Q 399.85 104.77 400.63 104.93
  Q 401.14 105.04 401.08 105.56
  Q 400.37 111.62 394.67 113.90
  Q 394.18 114.09 393.86 113.67
  Q 393.56 113.27 393.38 112.72
  L 393.36 112.03
  Q 393.35 111.53 393.81 111.34
  Q 397.62 109.77 399.42 103.84
  Z"
/>
<path fill="#000000" d="
  M 446.39 107.58
  L 445.36 106.72
  A 0.93 0.93 0.0 0 1 445.40 105.27
  L 446.10 104.74
  A 0.93 0.93 0.0 0 1 447.27 104.77
  L 447.93 105.34
  A 0.93 0.93 0.0 0 1 448.18 106.40
  L 447.84 107.23
  A 0.93 0.93 0.0 0 1 446.39 107.58
  Z"
/>
<circle fill="#385723" cx="67.12" cy="112.16" r="7.03"/>
<path fill="#000000" d="
  M 330.00 107.98
  Q 328.50 108.68 327.49 108.02
  Q 326.16 107.13 327.24 105.73
  Q 328.69 104.63 329.68 106.30
  Q 329.90 106.69 330.00 107.98
  Z"
/>
<path fill="#000000" d="
  M 110.59 118.85
  A 9.72 9.72 0.0 0 1 100.87 128.57
  A 9.72 9.72 0.0 0 1 91.15 118.85
  A 9.72 9.72 0.0 0 1 100.87 109.13
  A 9.72 9.72 0.0 0 1 110.59 118.85
  Z
  M 107.87 118.86
  A 7.02 7.02 0.0 0 0 100.85 111.84
  A 7.02 7.02 0.0 0 0 93.83 118.86
  A 7.02 7.02 0.0 0 0 100.85 125.88
  A 7.02 7.02 0.0 0 0 107.87 118.86
  Z"
/>
<path fill="#000000" d="
  M 386.07 112.07
  Q 385.34 112.74 384.19 113.01
  Q 383.44 112.45 383.26 110.54
  Q 383.14 110.50 383.34 110.02
  Q 384.26 109.48 385.25 109.83
  Q 385.76 110.01 385.84 110.55
  L 386.07 112.07
  Z"
/>
<path fill="#000000" d="
  M 304.79 111.88
  Q 305.01 112.05 305.05 112.30
  Q 305.11 112.80 304.67 113.03
  Q 300.91 115.03 299.66 120.80
  L 298.12 119.87
  Q 297.71 119.63 297.74 119.15
  Q 298.15 113.05 303.77 110.61
  Q 304.22 110.41 304.40 110.87
  L 304.79 111.88
  Z"
/>
<path fill="#385723" d="
  M 312.48 112.16
  Q 312.04 113.59 313.18 114.08
  Q 314.12 114.48 315.01 113.95
  Q 317.85 117.93 317.07 120.39
  Q 314.76 125.74 310.29 128.70
  Q 307.57 130.21 303.27 127.69
  Q 303.70 126.61 303.15 125.93
  Q 302.83 125.53 302.31 125.55
  L 301.08 125.59
  Q 298.69 122.28 299.66 120.80
  Q 300.91 115.03 304.67 113.03
  Q 305.11 112.80 305.05 112.30
  Q 305.01 112.05 304.79 111.88
  Q 308.52 109.94 312.48 112.16
  Z"
/>
<path fill="#000000" d="
  M 315.01 113.95
  Q 314.12 114.48 313.18 114.08
  Q 312.04 113.59 312.48 112.16
  Q 312.74 111.54 313.17 111.22
  Q 313.62 110.88 314.08 111.22
  L 315.12 111.99
  Q 315.52 112.29 315.38 112.76
  L 315.01 113.95
  Z"
/>
<circle fill="#385723" cx="100.85" cy="118.86" r="7.02"/>
<path fill="#000000" d="
  M 337.01 118.25
  Q 337.50 119.92 336.28 120.59
  Q 332.85 122.45 332.44 126.19
  Q 332.34 127.20 332.00 127.49
  Q 331.45 127.96 330.41 127.72
  Q 329.13 118.83 337.01 118.25
  Z"
/>
<path fill="#385723" d="
  M 344.47 119.22
  C 343.72 121.41 345.95 122.00 347.10 120.71
  L 350.03 128.19
  Q 348.44 127.43 347.50 129.91
  Q 346.72 131.98 346.33 132.45
  C 344.98 134.01 343.16 133.96 342.27 136.14
  Q 339.22 136.96 335.47 135.11
  Q 335.61 134.14 335.36 133.47
  Q 335.09 132.75 334.22 132.61
  Q 333.54 132.49 332.67 132.58
  Q 331.95 129.98 330.41 127.72
  Q 331.45 127.96 332.00 127.49
  Q 332.34 127.20 332.44 126.19
  Q 332.85 122.45 336.28 120.59
  Q 337.50 119.92 337.01 118.25
  Q 341.48 118.01 344.47 119.22
  Z"
/>
<path fill="#000000" d="
  M 347.10 120.71
  C 345.95 122.00 343.72 121.41 344.47 119.22
  Q 344.98 118.03 345.71 118.32
  Q 348.22 119.33 347.10 120.71
  Z"
/>
<path fill="#000000" d="
  M 317.07 120.39
  L 318.25 121.29
  Q 318.68 121.62 318.60 122.15
  Q 317.90 127.04 313.01 129.58
  Q 311.45 130.38 310.29 128.70
  Q 314.76 125.74 317.07 120.39
  Z"
/>
<path fill="#000000" d="
  M 374.53 126.55
  Q 370.03 129.89 368.73 135.11
  L 367.19 134.51
  Q 366.80 134.35 366.81 133.93
  Q 367.07 127.81 372.59 125.25
  Q 373.05 125.03 373.41 125.40
  L 374.53 126.55
  Z"
/>
<path fill="#000000" d="
  M 301.08 125.59
  L 302.31 125.55
  Q 302.83 125.53 303.15 125.93
  Q 303.70 126.61 303.27 127.69
  Q 302.99 128.22 302.46 128.42
  Q 301.96 128.62 301.57 128.23
  L 300.52 127.18
  Q 300.10 126.76 300.48 126.31
  L 301.08 125.59
  Z"
/>
<path fill="#385723" d="
  M 381.49 126.83
  Q 380.90 128.10 382.52 128.67
  Q 383.43 128.99 383.93 128.49
  Q 386.71 131.44 386.52 135.56
  Q 385.97 135.47 385.58 135.57
  Q 385.07 135.71 385.01 136.23
  C 384.36 141.29 380.65 140.44 379.12 143.36
  Q 375.85 144.63 372.84 142.19
  Q 372.27 139.36 370.22 140.10
  Q 367.76 136.99 368.73 135.11
  Q 370.03 129.89 374.53 126.55
  Q 376.99 124.14 381.49 126.83
  Z"
/>
<path fill="#000000" d="
  M 383.93 128.49
  Q 383.43 128.99 382.52 128.67
  Q 380.90 128.10 381.49 126.83
  Q 381.88 126.09 382.47 125.73
  Q 382.95 125.44 383.29 125.89
  Q 383.77 126.53 384.42 126.98
  Q 384.89 127.30 384.59 127.78
  Q 384.36 128.16 383.93 128.49
  Z"
/>
<path fill="#000000" d="
  M 350.03 128.19
  Q 351.20 134.33 344.00 137.20
  Q 343.52 137.40 343.27 136.94
  Q 342.76 136.00 342.27 136.14
  C 343.16 133.96 344.98 134.01 346.33 132.45
  Q 346.72 131.98 347.50 129.91
  Q 348.44 127.43 350.03 128.19
  Z"
/>
<path fill="#000000" d="
  M 332.67 132.58
  Q 333.54 132.49 334.22 132.61
  Q 335.09 132.75 335.36 133.47
  Q 335.61 134.14 335.47 135.11
  C 334.42 135.99 332.89 135.81 332.53 134.37
  Q 332.32 133.54 332.67 132.58
  Z"
/>
<path fill="#000000" d="
  M 386.52 135.56
  L 387.31 135.72
  Q 387.89 135.83 387.80 136.41
  Q 386.86 142.36 381.25 144.50
  A 0.73 0.73 0.0 0 1 380.36 144.19
  Q 379.68 143.05 379.12 143.36
  C 380.65 140.44 384.36 141.29 385.01 136.23
  Q 385.07 135.71 385.58 135.57
  Q 385.97 135.47 386.52 135.56
  Z"
/>
<path fill="#000000" d="
  M 372.84 142.19
  Q 372.14 142.07 371.73 142.85
  Q 371.46 143.37 370.99 143.00
  L 369.62 141.91
  Q 369.20 141.58 369.50 141.14
  L 370.22 140.10
  Q 372.27 139.36 372.84 142.19
  Z"
/>
<path fill="#000000" d="
  M 116.07 170.90
  L 118.67 170.96
  A 0.32 0.32 0.0 0 1 118.89 171.50
  L 111.97 178.82
  A 0.32 0.32 0.0 0 0 111.97 179.26
  L 119.70 187.45
  A 0.32 0.32 0.0 0 1 119.47 187.99
  L 116.63 188.01
  A 0.32 0.32 0.0 0 1 116.39 187.90
  L 109.10 179.70
  A 0.32 0.32 0.0 0 0 108.54 179.92
  L 108.58 187.67
  A 0.32 0.32 0.0 0 1 108.26 187.99
  L 106.08 188.00
  A 0.32 0.32 0.0 0 1 105.76 187.68
  L 105.76 162.85
  A 0.32 0.32 0.0 0 1 106.08 162.53
  L 108.19 162.57
  A 0.32 0.32 0.0 0 1 108.51 162.89
  L 108.42 178.63
  A 0.32 0.32 0.0 0 0 108.98 178.84
  L 115.82 171.01
  A 0.32 0.32 0.0 0 1 116.07 170.90
  Z"
/>
<path fill="#000000" d="
  M 381.89 185.84
  C 380.42 188.72 375.37 188.82 373.05 187.24
  C 368.65 184.24 368.94 177.31 371.69 173.26
  C 373.74 170.26 379.45 169.20 381.75 172.33
  Q 382.76 173.70 382.76 172.00
  L 382.76 162.76
  Q 382.76 162.52 382.99 162.52
  L 385.25 162.51
  A 0.24 0.24 0.0 0 1 385.50 162.75
  L 385.50 187.50
  Q 385.49 188.00 385.00 188.00
  L 383.37 187.99
  A 0.63 0.62 -0.0 0 1 382.74 187.37
  L 382.73 186.00
  Q 382.73 184.20 381.89 185.84
  Z
  M 382.8259 177.7320
  A 4.66 4.66 0.0 0 0 378.3736 172.8732
  L 377.5943 172.8392
  A 4.66 4.66 0.0 0 0 372.7355 177.2915
  L 372.5741 180.9880
  A 4.66 4.66 0.0 0 0 377.0264 185.8468
  L 377.8057 185.8808
  A 4.66 4.66 0.0 0 0 382.6645 181.4285
  L 382.8259 177.7320
  Z"
/>
<rect fill="#000000" x="406.38" y="162.52" width="2.86" height="25.46" rx="0.31"/>
<path fill="#000000" d="
  M 133.24 185.26
  L 144.21 185.26
  A 0.44 0.43 -90.0 0 1 144.64 185.70
  L 144.62 187.43
  Q 144.61 188.00 144.04 188.00
  L 130.29 188.00
  Q 129.88 188.00 129.86 187.58
  C 129.46 177.35 141.40 177.77 141.56 170.10
  C 141.67 164.67 134.05 165.31 131.13 168.36
  Q 130.77 168.75 130.76 168.22
  L 130.75 166.54
  Q 130.75 166.04 131.13 165.70
  C 135.00 162.25 143.06 162.58 143.84 169.03
  C 144.97 178.52 133.47 178.66 132.68 184.62
  Q 132.59 185.26 133.24 185.26
  Z"
/>
<path fill="#000000" d="
  M 425.24 185.26
  L 436.20 185.26
  A 0.44 0.44 0.0 0 1 436.64 185.70
  L 436.62 187.43
  Q 436.61 188.00 436.04 188.00
  L 422.29 188.00
  Q 421.82 188.00 421.81 187.53
  C 421.58 180.46 427.04 178.59 431.42 174.68
  C 433.46 172.85 434.45 169.18 432.22 167.15
  C 429.81 164.95 425.59 165.97 423.45 168.08
  Q 422.76 168.76 422.76 167.79
  L 422.76 166.81
  Q 422.76 165.77 423.64 165.21
  C 427.34 162.86 434.48 162.60 435.62 167.89
  C 437.93 178.58 425.42 178.37 424.67 184.61
  Q 424.59 185.26 425.24 185.26
  Z"
/>
<path fill="#000000" d="
  M 60.95 166.48
  L 54.46 166.48
  A 0.32 0.32 0.0 0 1 54.14 166.14
  L 54.28 164.25
  A 0.32 0.32 0.0 0 1 54.60 163.95
  L 70.65 163.96
  A 0.32 0.32 0.0 0 1 70.97 164.27
  L 71.03 166.15
  A 0.32 0.32 0.0 0 1 70.71 166.48
  L 64.11 166.49
  A 0.32 0.32 0.0 0 0 63.79 166.81
  L 63.91 187.60
  A 0.32 0.32 0.0 0 1 63.60 187.92
  L 61.64 187.99
  A 0.32 0.32 0.0 0 1 61.31 187.67
  L 61.27 166.80
  A 0.32 0.32 0.0 0 0 60.95 166.48
  Z"
/>
<path fill="#000000" d="
  M 329.49 168.07
  L 329.50 187.50
  Q 329.50 188.00 329.00 188.00
  L 327.25 188.00
  Q 326.76 188.00 326.76 187.50
  L 326.76 164.46
  A 0.54 0.54 0.0 0 1 327.30 163.92
  L 330.27 163.97
  Q 330.72 163.97 330.90 164.39
  L 338.87 182.96
  Q 339.13 183.57 339.40 182.97
  L 347.53 164.45
  Q 347.75 163.94 348.31 163.94
  L 350.97 163.94
  Q 351.50 163.93 351.50 164.47
  L 351.50 187.74
  A 0.25 0.25 0.0 0 1 351.25 187.99
  L 348.96 188.00
  Q 348.67 188.00 348.67 187.71
  L 348.63 168.28
  Q 348.63 167.53 348.34 168.22
  L 340.07 187.40
  A 1.06 1.06 0.0 0 1 338.12 187.40
  L 329.74 168.02
  Q 329.49 167.45 329.49 168.07
  Z"
/>
<path fill="#000000" d="
  M 81.74 185.98
  A 0.37 0.36 63.3 0 0 81.08 185.76
  C 78.94 188.62 72.83 189.83 71.53 185.33
  C 69.29 177.57 76.64 178.06 81.30 177.09
  Q 81.80 176.98 81.77 176.47
  C 81.45 171.40 75.80 172.10 73.01 174.41
  A 0.21 0.21 0.0 0 1 72.66 174.25
  L 72.65 172.29
  A 0.57 0.57 0.0 0 1 72.96 171.78
  C 75.95 170.20 81.31 169.50 83.46 172.71
  C 85.32 175.47 84.54 183.99 84.49 187.35
  Q 84.48 188.01 83.83 188.00
  L 82.24 187.99
  Q 81.74 187.99 81.74 187.49
  L 81.74 185.98
  Z
  M 73.50 183.06
  C 73.92 188.21 83.03 186.47 81.62 179.72
  Q 81.54 179.32 81.14 179.35
  C 78.43 179.52 73.24 179.90 73.50 183.06
  Z"
/>
<path fill="#000000" d="
  M 89.43 177.11
  C 87.72 170.65 94.80 169.63 99.14 171.04
  Q 99.44 171.14 99.46 171.45
  L 99.61 173.61
  Q 99.63 173.91 99.37 173.76
  C 97.35 172.66 92.90 171.79 91.79 174.56
  A 1.98 1.98 0.0 0 0 92.76 177.08
  C 95.26 178.29 99.58 179.36 100.20 182.43
  C 101.46 188.62 92.94 188.74 89.32 187.60
  A 0.43 0.42 7.8 0 1 89.02 187.21
  L 88.91 184.73
  Q 88.90 184.56 89.04 184.65
  Q 92.56 186.85 96.49 185.53
  Q 96.95 185.37 97.16 184.93
  C 99.38 180.24 90.46 181.02 89.43 177.11
  Z"
/>
<path fill="#000000" d="
  M 368.74 180.69
  A 7.52 7.52 0.0 0 1 361.22 188.21
  L 359.82 188.21
  A 7.52 7.52 0.0 0 1 352.30 180.69
  L 352.30 178.05
  A 7.52 7.52 0.0 0 1 359.82 170.53
  L 361.22 170.53
  A 7.52 7.52 0.0 0 1 368.74 178.05
  L 368.74 180.69
  Z
  M 360.5364 186.1400
  A 6.75 5.82 90.2 0 0 366.3800 179.4103
  A 6.75 5.82 90.2 0 0 360.5836 172.6400
  A 6.75 5.82 90.2 0 0 354.7400 179.3697
  A 6.75 5.82 90.2 0 0 360.5364 186.1400
  Z"
/>
<path fill="#000000" d="
  M 392.24 180.06
  Q 389.50 180.06 390.70 182.52
  L 390.91 182.94
  Q 392.14 185.46 394.92 185.89
  Q 398.08 186.38 400.69 184.69
  Q 401.22 184.34 401.23 184.98
  L 401.26 186.28
  Q 401.27 186.88 400.73 187.14
  Q 397.90 188.51 394.50 188.26
  C 387.21 187.70 385.80 178.19 389.39 173.42
  C 394.27 166.96 403.57 171.30 402.42 179.51
  Q 402.34 180.05 401.79 180.05
  L 392.24 180.06
  Z
  M 390.97 178.11
  L 399.41 177.81
  A 0.45 0.45 0.0 0 0 399.84 177.35
  L 399.84 177.22
  A 4.64 4.57 88.0 0 0 395.11 172.74
  L 394.91 172.75
  A 4.64 4.57 88.0 0 0 390.50 177.54
  L 390.51 177.67
  A 0.45 0.45 0.0 0 0 390.97 178.11
  Z"
/>
<ellipse fill="#f9f9fa" cx="0.00" cy="0.00" transform="translate(360.56,179.39) rotate(90.2)" rx="6.75" ry="5.82"/>
<rect fill="#f9f9fa" x="-5.05" y="-6.51" transform="translate(377.70,179.36) rotate(2.5)" width="10.10" height="13.02" rx="4.66"/>
<path fill="#f9f9fa" d="
  M 390.97 178.11
  A 0.45 0.45 0.0 0 1 390.51 177.67
  L 390.50 177.54
  A 4.64 4.57 88.0 0 1 394.91 172.75
  L 395.11 172.74
  A 4.64 4.57 88.0 0 1 399.84 177.22
  L 399.84 177.35
  A 0.45 0.45 0.0 0 1 399.41 177.81
  L 390.97 178.11
  Z"
/>
<path fill="#f9f9fa" d="
  M 81.62 179.72
  C 83.03 186.47 73.92 188.21 73.50 183.06
  C 73.24 179.90 78.43 179.52 81.14 179.35
  Q 81.54 179.32 81.62 179.72
  Z"
/>
</svg>
