<?xml version="1.0" encoding="UTF-8" standalone="no"?>
<svg
   version="1.1"
   width="354.924pt"
   height="154.836pt"
   viewBox="0 0 354.924 154.836"
   id="svg646"
   sodipodi:docname="task2.svg"
   xmlns:inkscape="http://www.inkscape.org/namespaces/inkscape"
   xmlns:sodipodi="http://sodipodi.sourceforge.net/DTD/sodipodi-0.dtd"
   xmlns:xlink="http://www.w3.org/1999/xlink"
   xmlns="http://www.w3.org/2000/svg"
   xmlns:svg="http://www.w3.org/2000/svg">
  <defs
     id="defs650" />
  <sodipodi:namedview
     id="namedview648"
     pagecolor="#ffffff"
     bordercolor="#000000"
     borderopacity="0.25"
     inkscape:showpageshadow="2"
     inkscape:pageopacity="0.0"
     inkscape:pagecheckerboard="0"
     inkscape:deskcolor="#d1d1d1"
     inkscape:document-units="pt" />
  <g
     enable-background="new"
     id="g644">
    <g
       id="Layer-1"
       data-name="Artifact">
      <g
         id="Layer-2"
         data-name="背景">
        <path
           transform="matrix(1,0,0,-1,-263.622,543.472)"
           d="M 0 0 L 1386.12 0 L 1386.12 793.8 L 0 793.8 Z "
           fill="#ffffff"
           id="path2" />
      </g>
    </g>
    <g
       id="g6"
       data-name="Figure" />
    <g
       id="g10"
       data-name="Figure">
      <path
         transform="matrix(1,0,0,-1,-263.622,543.472)"
         d="M 261.48 545.28 L 620.04006 545.28 L 620.04006 387.84004 L 261.48 387.84004 Z "
         fill="#f9f9fa"
         fill-rule="evenodd"
         id="path8" />
    </g>
    <g
       id="g12"
       data-name="Figure" />
    <g
       id="g642"
       data-name="Figure">
      <g
         id="g14"
         data-name="P" />
      <g
         id="g16"
         data-name="Artifact" />
      <g
         id="g18"
         data-name="P" />
      <g
         id="g20"
         data-name="P" />
      <g
         id="g22"
         data-name="P" />
      <g
         id="g24"
         data-name="P" />
      <g
         id="g26"
         data-name="P" />
      <g
         id="g28"
         data-name="P" />
      <g
         id="g30"
         data-name="P" />
      <g
         id="g32"
         data-name="P" />
      <g
         id="g34"
         data-name="P" />
      <g
         id="g36"
         data-name="Figure" />
      <g
         id="g38"
         data-name="P" />
      <g
         id="g40"
         data-name="P" />
      <g
         id="g42"
         data-name="Figure" />
      <g
         id="g44"
         data-name="Figure" />
      <g
         id="g46"
         data-name="Figure" />
      <g
         id="g48"
         data-name="P" />
      <g
         id="g50"
         data-name="Figure" />
      <g
         id="g52"
         data-name="Figure" />
      <g
         id="g54"
         data-name="P" />
      <g
         id="g56"
         data-name="Span" />
      <g
         id="g58"
         data-name="Span" />
      <g
         id="g60"
         data-name="Span" />
      <g
         id="g62"
         data-name="Figure" />
      <g
         id="g64"
         data-name="P" />
      <g
         id="g66"
         data-name="Span" />
      <g
         id="g68"
         data-name="Span" />
      <g
         id="g70"
         data-name="Span" />
      <g
         id="g72"
         data-name="Figure" />
      <g
         id="g74"
         data-name="P" />
      <g
         id="g76"
         data-name="Figure" />
      <g
         id="g78"
         data-name="P" />
      <g
         id="g80"
         data-name="Figure" />
      <g
         id="g82"
         data-name="Figure" />
      <g
         id="g84"
         data-name="Figure" />
      <g
         id="g86"
         data-name="Figure" />
      <g
         id="g88"
         data-name="P" />
      <g
         id="g90"
         data-name="Span" />
      <g
         id="g92"
         data-name="Span" />
      <g
         id="g94"
         data-name="Span" />
      <g
         id="g96"
         data-name="Figure" />
      <g
         id="g98"
         data-name="P" />
      <g
         id="g100"
         data-name="Span" />
      <g
         id="g102"
         data-name="Span" />
      <g
         id="g104"
         data-name="Span" />
      <g
         id="g106"
         data-name="P" />
      <g
         id="g640"
         data-name="Figure">
        <g
           id="Layer-3"
           data-name="P" />
        <symbol
           id="font_0_37">
          <path
             d="M .23583985 0 L .23583985 .63134768 L 0 .63134768 L 0 .7158203 L .5673828 .7158203 L .5673828 .63134768 L .3305664 .63134768 L .3305664 0 L .23583985 0 Z "
             id="path109" />
        </symbol>
        <symbol
           id="font_0_44">
          <path
             d="M .36816407 .075683597 C .33561198 .048014326 .30419923 .028483073 .27392579 .017089844 C .24397786 .0056966149 .2117513 0 .1772461 0 C .120279949 0 .0764974 .013834636 .045898439 .041503908 C .0152994799 .069498699 0 .10514323 0 .1484375 C 0 .17382813 .0056966149 .19694011 .017089844 .21777344 C .028808594 .2389323 .043945314 .25585938 .0625 .2685547 C .08138021 .28125 .10253906 .29085288 .12597656 .29736329 C .14322917 .30192057 .16927083 .3063151 .20410156 .31054688 C .2750651 .3190104 .3273112 .32910157 .36083985 .3408203 C .36116538 .3528646 .36132813 .3605143 .36132813 .36376954 C .36132813 .3995768 .35302735 .4248047 .33642579 .43945313 C .31396485 .4593099 .28059898 .46923829 .23632813 .46923829 C .19498699 .46923829 .16438802 .46191407 .14453125 .44726563 C .125 .43294273 .11051432 .4073893 .10107422 .37060548 L .015136719 .38232423 C .022949219 .41910807 .035807294 .44873048 .053710939 .4711914 C .071614589 .49397788 .09749349 .51139327 .13134766 .5234375 C .16520183 .5358073 .20442708 .5419922 .24902344 .5419922 C .29329429 .5419922 .3292643 .5367839 .3569336 .5263672 C .38460288 .5159505 .4049479 .5027669 .41796876 .4868164 C .4309896 .4711914 .44010417 .45133464 .4453125 .4272461 C .4482422 .41227214 .44970704 .3852539 .44970704 .3461914 L .44970704 .2290039 C .44970704 .14729817 .4514974 .09554037 .45507813 .07373047 C .45898438 .052246095 .46647135 .03157552 .47753907 .01171875 L .3857422 .01171875 C .3766276 .029947916 .37076823 .05126953 .36816407 .075683597 M .36083985 .27197267 C .3289388 .2589518 .28108726 .24788411 .21728516 .23876953 C .18115235 .2335612 .15559896 .22770183 .140625 .2211914 C .12565105 .21468099 .114095058 .20507813 .10595703 .19238281 C .09781901 .18001302 .09375 .16617839 .09375 .1508789 C .09375 .1274414 .10253906 .107910159 .12011719 .092285159 C .13802083 .076660159 .1640625 .068847659 .19824219 .068847659 C .23209636 .068847659 .26220704 .076171878 .28857423 .09082031 C .3149414 .10579427 .3343099 .12613933 .3466797 .15185547 C .35611979 .17171224 .36083985 .20100911 .36083985 .2397461 L .36083985 .27197267 Z "
             id="path112" />
        </symbol>
        <symbol
           id="font_0_56">
          <path
             d="M 0 .1665039 L .08691406 .18017578 C .091796878 .14534505 .10530599 .118652347 .1274414 .100097659 C .14990235 .08154297 .18115235 .072265628 .2211914 .072265628 C .261556 .072265628 .2915039 .08040365 .31103517 .09667969 C .3305664 .11328125 .34033204 .13264974 .34033204 .15478516 C .34033204 .17464192 .33170573 .19026692 .31445313 .20166016 C .30240885 .20947266 .27246095 .21940105 .22460938 .23144531 C .16015625 .24772136 .11539713 .26171876 .09033203 .2734375 C .065592449 .28548179 .04671224 .30192057 .033691408 .3227539 C .020996094 .34391276 .0146484379 .3671875 .0146484379 .39257813 C .0146484379 .4156901 .019856772 .43701173 .030273438 .45654298 C .041015626 .47639976 .0555013 .49283854 .07373047 .5058594 C .087402347 .5159505 .10595703 .52441409 .12939453 .53125 C .15315755 .53841146 .17854817 .5419922 .2055664 .5419922 C .24625652 .5419922 .28190104 .5361328 .3125 .52441409 C .34342448 .5126953 .36621095 .49674479 .38085938 .4765625 C .3955078 .45670573 .40559898 .43001304 .4111328 .39648438 L .3251953 .38476563 C .32128907 .41145835 .30989585 .43229167 .29101563 .44726563 C .27246095 .4622396 .24609375 .46972657 .21191406 .46972657 C .17154949 .46972657 .14274089 .46305339 .12548828 .44970704 C .10823568 .4363607 .099609378 .4207357 .099609378 .40283204 C .099609378 .3914388 .1031901 .3811849 .11035156 .3720703 C .11751302 .36263023 .12874349 .35481773 .14404297 .3486328 C .15283203 .3453776 .17871094 .33789063 .22167969 .32617188 C .28385417 .3095703 .32714845 .29589845 .3515625 .28515626 C .3763021 .2747396 .39567057 .2594401 .40966798 .23925781 C .42366538 .21907552 .43066407 .19401042 .43066407 .1640625 C .43066407 .13476563 .42203776 .10709635 .40478517 .08105469 C .38785807 .055338544 .36328126 .03531901 .3310547 .020996094 C .29882813 .0069986979 .26236979 0 .22167969 0 C .15429688 0 .102864589 .0139973959 .06738281 .041992189 C .032226564 .06998698 .009765625 .11149088 0 .1665039 Z "
             id="path115" />
        </symbol>
        <symbol
           id="font_0_4e">
          <path
             d="M 0 0 L 0 .7158203 L .087890628 .7158203 L .087890628 .3076172 L .29589845 .5185547 L .40966798 .5185547 L .21142578 .32617188 L .4296875 0 L .32128907 0 L .14990235 .26513673 L .087890628 .2055664 L .087890628 0 L 0 0 Z "
             id="path118" />
        </symbol>
        <symbol
           id="font_0_3">
          <path
             d="M 0 0 Z "
             id="path121" />
        </symbol>
        <symbol
           id="font_0_15">
          <path
             d="M .47379557 .084472659 L .47379557 0 L .00065104107 0 C -.00000000062088176 .021158854 .003417968 .041503908 .010904947 .061035158 C .022949219 .09326172 .04215495 .125 .06852213 .15625 C .095214847 .1875 .1336263 .22363281 .18375652 .26464845 C .261556 .32845054 .3141276 .37890626 .34147135 .41601563 C .3688151 .45345054 .38248698 .48876954 .38248698 .52197268 C .38248698 .5568034 .36995445 .5861003 .3448893 .6098633 C .32014976 .63395187 .2877604 .6459961 .24772136 .6459961 C .20540364 .6459961 .17154949 .6333008 .14615886 .60791018 C .12076823 .58251956 .107910159 .5473633 .10758463 .5024414 L .017252604 .51171877 C .0234375 .57910159 .04671224 .6303711 .08707682 .66552737 C .1274414 .7010091 .18164063 .71875 .24967449 .71875 C .31835938 .71875 .37272135 .69970706 .4127604 .6616211 C .45279948 .62353518 .472819 .57633468 .472819 .52001956 C .472819 .4913737 .46695964 .46321617 .45524089 .43554688 C .44352214 .4078776 .42399089 .3787435 .39664714 .34814454 C .3696289 .31754557 .32454429 .27555339 .26139323 .22216797 C .20865886 .17789714 .17480469 .14778646 .15983074 .13183594 C .14485677 .11621094 .13248699 .10042318 .12272135 .084472659 L .47379557 .084472659 Z "
             id="path124" />
        </symbol>
        <use
           xlink:href="#font_0_37"
           transform="matrix(24,0,0,-24,40.571596,140.9896)"
           id="use127" />
        <use
           xlink:href="#font_0_44"
           transform="matrix(24,0,0,-24,52.87628,141.27085)"
           id="use129" />
        <use
           xlink:href="#font_0_56"
           transform="matrix(24,0,0,-24,66.06738,141.27085)"
           id="use131" />
        <use
           xlink:href="#font_0_4e"
           transform="matrix(24,0,0,-24,78.92285,140.9896)"
           id="use133" />
        <use
           xlink:href="#font_0_3"
           transform="matrix(24,0,0,-24,89.3291,140.9896)"
           id="use135" />
        <use
           xlink:href="#font_0_15"
           transform="matrix(24,0,0,-24,96.640048,140.9896)"
           id="use137" />
        <g
           id="g289"
           data-name="Figure">
          <clipPath
             id="cp1">
            <path
               transform="matrix(1,0,0,-1,-263.622,543.472)"
               d="M 0 0 L 1386.12 0 L 1386.12 793.8 L 0 793.8 Z "
               id="path139" />
          </clipPath>
          <g
             clip-path="url(#cp1)"
             id="g144">
            <path
               transform="matrix(1,0,0,-1,16.066376,43.20999)"
               d="M 0 0 C -.898 6.456 1.197 12.966 5.712 17.758 C 12.846 25.328 24.413 27.015 33.5 21.815 C 39.046 32.031 53.089 34.141 61.516 26.027 C 63.641 30.189 67.722 33.066 72.433 33.718 C 77.618 34.436 82.796 32.361 85.972 28.29 C 90.553 33.558 98.132 35.288 104.636 32.552 C 109.592 30.467 113.146 26.103 114.101 20.925 C 119.829 19.398 124.391 15.162 126.247 9.642 C 127.597 5.635 127.404 1.283 125.704 -2.594 C 129.884 -7.909 131.346 -14.801 129.675 -21.301 C 127.454 -29.944 120.101 -36.416 111.071 -37.677 C 111.028 -43.072 108.598 -48.187 104.411 -51.709 C 98.049 -57.061 88.859 -57.748 81.735 -53.408 C 79.431 -60.863 73.261 -66.562 65.531 -68.378 C 56.42 -70.517 46.913 -66.871 41.705 -59.24 C 29.412 -66.483 13.446 -62.412 6.312 -50.212 C -.696 -51.014 -7.277 -46.767 -9.249 -40.166 C -10.678 -35.39 -9.415 -30.236 -5.924 -26.605 C -10.877 -23.757 -13.635 -18.291 -12.946 -12.692 C -12.137 -6.137 -6.813 -1.002 -.123 -.326 C -.083 -.217 -.04 -.109 0 0 "
               fill="#e2f0d9"
               fill-rule="evenodd"
               id="path142" />
          </g>
          <g
             id="g146"
             data-name="Figure" />
          <clipPath
             id="cp2">
            <path
               transform="matrix(1,0,0,-1,-263.622,543.472)"
               d="M 0 0 L 1386.12 0 L 1386.12 793.8 L 0 793.8 Z "
               id="path148" />
          </clipPath>
          <g
             clip-path="url(#cp2)"
             id="g155">
            <path
               transform="matrix(1,0,0,-1,94.87799,31.612)"
               d="M 0 0 C 0 3.513 2.847 6.36 6.36 6.36 C 9.873 6.36 12.72 3.513 12.72 0 C 12.72 -3.513 9.873 -6.36 6.36 -6.36 C 2.847 -6.36 0 -3.513 0 0 "
               fill="#f9f9fa"
               fill-rule="evenodd"
               id="path151" />
            <path
               transform="matrix(1,0,0,-1,94.87799,31.612)"
               stroke-width="2.04"
               stroke-linecap="butt"
               stroke-miterlimit="8"
               stroke-linejoin="miter"
               fill="none"
               stroke="#000000"
               d="M 0 0 C 0 3.513 2.847 6.36 6.36 6.36 C 9.873 6.36 12.72 3.513 12.72 0 C 12.72 -3.513 9.873 -6.36 6.36 -6.36 C 2.847 -6.36 0 -3.513 0 0 Z "
               id="path153" />
          </g>
          <g
             id="g157"
             data-name="Figure" />
          <clipPath
             id="cp3">
            <path
               transform="matrix(1,0,0,-1,-263.622,543.472)"
               d="M 0 0 L 1386.12 0 L 1386.12 793.8 L 0 793.8 Z "
               id="path159" />
          </clipPath>
          <g
             clip-path="url(#cp3)"
             id="g166">
            <path
               transform="matrix(1,0,0,-1,95.358,62.931978)"
               d="M 0 0 C 0 3.513 2.847 6.36 6.36 6.36 C 9.873 6.36 12.72 3.513 12.72 0 C 12.72 -3.513 9.873 -6.36 6.36 -6.36 C 2.847 -6.36 0 -3.513 0 0 "
               fill="#f9f9fa"
               fill-rule="evenodd"
               id="path162" />
            <path
               transform="matrix(1,0,0,-1,95.358,62.931978)"
               stroke-width="2.04"
               stroke-linecap="butt"
               stroke-miterlimit="8"
               stroke-linejoin="miter"
               fill="none"
               stroke="#000000"
               d="M 0 0 C 0 3.513 2.847 6.36 6.36 6.36 C 9.873 6.36 12.72 3.513 12.72 0 C 12.72 -3.513 9.873 -6.36 6.36 -6.36 C 2.847 -6.36 0 -3.513 0 0 Z "
               id="path164" />
          </g>
          <g
             id="g168"
             data-name="Figure" />
          <clipPath
             id="cp4">
            <path
               transform="matrix(1,0,0,-1,-263.622,543.472)"
               d="M 0 0 L 1386.12 0 L 1386.12 793.8 L 0 793.8 Z "
               id="path170" />
          </clipPath>
          <g
             clip-path="url(#cp4)"
             id="g177">
            <path
               transform="matrix(1,0,0,-1,118.638,45.291994)"
               d="M 0 0 C 0 3.513 2.847 6.36 6.36 6.36 C 9.873 6.36 12.72 3.513 12.72 0 C 12.72 -3.513 9.873 -6.36 6.36 -6.36 C 2.847 -6.36 0 -3.513 0 0 "
               fill="#f9f9fa"
               fill-rule="evenodd"
               id="path173" />
            <path
               transform="matrix(1,0,0,-1,118.638,45.291994)"
               stroke-width="2.04"
               stroke-linecap="butt"
               stroke-miterlimit="8"
               stroke-linejoin="miter"
               fill="none"
               stroke="#000000"
               d="M 0 0 C 0 3.513 2.847 6.36 6.36 6.36 C 9.873 6.36 12.72 3.513 12.72 0 C 12.72 -3.513 9.873 -6.36 6.36 -6.36 C 2.847 -6.36 0 -3.513 0 0 Z "
               id="path175" />
          </g>
          <g
             id="g179"
             data-name="Figure" />
          <clipPath
             id="cp5">
            <path
               transform="matrix(1,0,0,-1,-263.622,543.472)"
               d="M 0 0 L 1386.12 0 L 1386.12 793.8 L 0 793.8 Z "
               id="path181" />
          </clipPath>
          <g
             clip-path="url(#cp5)"
             id="g188">
            <path
               transform="matrix(1,0,0,-1,57.798006,59.81198)"
               d="M 0 0 C 0 3.513 2.874 6.36 6.42 6.36 C 9.966 6.36 12.84 3.513 12.84 0 C 12.84 -3.513 9.966 -6.36 6.42 -6.36 C 2.874 -6.36 0 -3.513 0 0 "
               fill="#f9f9fa"
               fill-rule="evenodd"
               id="path184" />
            <path
               transform="matrix(1,0,0,-1,57.798006,59.81198)"
               stroke-width="2.04"
               stroke-linecap="butt"
               stroke-miterlimit="8"
               stroke-linejoin="miter"
               fill="none"
               stroke="#000000"
               d="M 0 0 C 0 3.513 2.874 6.36 6.42 6.36 C 9.966 6.36 12.84 3.513 12.84 0 C 12.84 -3.513 9.966 -6.36 6.42 -6.36 C 2.874 -6.36 0 -3.513 0 0 Z "
               id="path186" />
          </g>
          <g
             id="g190"
             data-name="Figure" />
          <clipPath
             id="cp6">
            <path
               transform="matrix(1,0,0,-1,-263.622,543.472)"
               d="M 0 0 L 1386.12 0 L 1386.12 793.8 L 0 793.8 Z "
               id="path192" />
          </clipPath>
          <g
             clip-path="url(#cp6)"
             id="g199">
            <path
               transform="matrix(1,0,0,-1,43.997987,84.29199)"
               d="M 0 0 C 0 3.513 2.847 6.36 6.36 6.36 C 9.873 6.36 12.72 3.513 12.72 0 C 12.72 -3.513 9.873 -6.36 6.36 -6.36 C 2.847 -6.36 0 -3.513 0 0 "
               fill="#385723"
               fill-rule="evenodd"
               id="path195" />
            <path
               transform="matrix(1,0,0,-1,43.997987,84.29199)"
               stroke-width="2.04"
               stroke-linecap="butt"
               stroke-miterlimit="8"
               stroke-linejoin="miter"
               fill="none"
               stroke="#000000"
               d="M 0 0 C 0 3.513 2.847 6.36 6.36 6.36 C 9.873 6.36 12.72 3.513 12.72 0 C 12.72 -3.513 9.873 -6.36 6.36 -6.36 C 2.847 -6.36 0 -3.513 0 0 Z "
               id="path197" />
          </g>
          <g
             id="g201"
             data-name="Figure" />
          <clipPath
             id="cp7">
            <path
               transform="matrix(1,0,0,-1,-263.622,543.472)"
               d="M 0 0 L 1386.12 0 L 1386.12 793.8 L 0 793.8 Z "
               id="path203" />
          </clipPath>
          <g
             clip-path="url(#cp7)"
             id="g210">
            <path
               transform="matrix(1,0,0,-1,22.037995,79.37198)"
               d="M 0 0 C 0 3.513 2.847 6.36 6.36 6.36 C 9.873 6.36 12.72 3.513 12.72 0 C 12.72 -3.513 9.873 -6.36 6.36 -6.36 C 2.847 -6.36 0 -3.513 0 0 "
               fill="#385723"
               fill-rule="evenodd"
               id="path206" />
            <path
               transform="matrix(1,0,0,-1,22.037995,79.37198)"
               stroke-width="2.04"
               stroke-linecap="butt"
               stroke-miterlimit="8"
               stroke-linejoin="miter"
               fill="none"
               stroke="#000000"
               d="M 0 0 C 0 3.513 2.847 6.36 6.36 6.36 C 9.873 6.36 12.72 3.513 12.72 0 C 12.72 -3.513 9.873 -6.36 6.36 -6.36 C 2.847 -6.36 0 -3.513 0 0 Z "
               id="path208" />
          </g>
          <g
             id="g212"
             data-name="Figure" />
          <clipPath
             id="cp8">
            <path
               transform="matrix(1,0,0,-1,-263.622,543.472)"
               d="M 0 0 L 1386.12 0 L 1386.12 793.8 L 0 793.8 Z "
               id="path214" />
          </clipPath>
          <g
             clip-path="url(#cp8)"
             id="g221">
            <path
               transform="matrix(1,0,0,-1,69.31799,89.33197)"
               d="M 0 0 C 0 3.513 2.847 6.36 6.36 6.36 C 9.873 6.36 12.72 3.513 12.72 0 C 12.72 -3.513 9.873 -6.36 6.36 -6.36 C 2.847 -6.36 0 -3.513 0 0 "
               fill="#385723"
               fill-rule="evenodd"
               id="path217" />
            <path
               transform="matrix(1,0,0,-1,69.31799,89.33197)"
               stroke-width="2.04"
               stroke-linecap="butt"
               stroke-miterlimit="8"
               stroke-linejoin="miter"
               fill="none"
               stroke="#000000"
               d="M 0 0 C 0 3.513 2.847 6.36 6.36 6.36 C 9.873 6.36 12.72 3.513 12.72 0 C 12.72 -3.513 9.873 -6.36 6.36 -6.36 C 2.847 -6.36 0 -3.513 0 0 Z "
               id="path219" />
          </g>
          <g
             id="g223"
             data-name="Figure" />
          <clipPath
             id="cp9">
            <path
               transform="matrix(1,0,0,-1,-263.622,543.472)"
               d="M 0 0 L 1386.12 0 L 1386.12 793.8 L 0 793.8 Z "
               id="path225" />
          </clipPath>
          <g
             clip-path="url(#cp9)"
             id="g232">
            <path
               transform="matrix(1,0,0,-1,54.43799,36.531984)"
               d="M 0 0 C 0 3.513 2.847 6.36 6.36 6.36 C 9.873 6.36 12.72 3.513 12.72 0 C 12.72 -3.513 9.873 -6.36 6.36 -6.36 C 2.847 -6.36 0 -3.513 0 0 "
               fill="#385723"
               fill-rule="evenodd"
               id="path228" />
            <path
               transform="matrix(1,0,0,-1,54.43799,36.531984)"
               stroke-width="2.04"
               stroke-linecap="butt"
               stroke-miterlimit="8"
               stroke-linejoin="miter"
               fill="none"
               stroke="#000000"
               d="M 0 0 C 0 3.513 2.847 6.36 6.36 6.36 C 9.873 6.36 12.72 3.513 12.72 0 C 12.72 -3.513 9.873 -6.36 6.36 -6.36 C 2.847 -6.36 0 -3.513 0 0 Z "
               id="path230" />
          </g>
          <g
             id="g234"
             data-name="Figure" />
          <clipPath
             id="cp10">
            <path
               transform="matrix(1,0,0,-1,-263.622,543.472)"
               d="M 0 0 L 1386.12 0 L 1386.12 793.8 L 0 793.8 Z "
               id="path236" />
          </clipPath>
          <g
             clip-path="url(#cp10)"
             id="g243">
            <path
               transform="matrix(1,0,0,-1,74.83798,46.612)"
               d="M 0 0 C 0 3.513 2.847 6.36 6.36 6.36 C 9.873 6.36 12.72 3.513 12.72 0 C 12.72 -3.513 9.873 -6.36 6.36 -6.36 C 2.847 -6.36 0 -3.513 0 0 "
               fill="#385723"
               fill-rule="evenodd"
               id="path239" />
            <path
               transform="matrix(1,0,0,-1,74.83798,46.612)"
               stroke-width="2.04"
               stroke-linecap="butt"
               stroke-miterlimit="8"
               stroke-linejoin="miter"
               fill="none"
               stroke="#000000"
               d="M 0 0 C 0 3.513 2.847 6.36 6.36 6.36 C 9.873 6.36 12.72 3.513 12.72 0 C 12.72 -3.513 9.873 -6.36 6.36 -6.36 C 2.847 -6.36 0 -3.513 0 0 Z "
               id="path241" />
          </g>
          <g
             id="g245"
             data-name="Figure" />
          <clipPath
             id="cp11">
            <path
               transform="matrix(1,0,0,-1,-263.622,543.472)"
               d="M 0 0 L 1386.12 0 L 1386.12 793.8 L 0 793.8 Z "
               id="path247" />
          </clipPath>
          <g
             clip-path="url(#cp11)"
             id="g254">
            <path
               transform="matrix(1,0,0,-1,31.757996,41.33197)"
               d="M 0 0 C 0 3.513 2.847 6.36 6.36 6.36 C 9.873 6.36 12.72 3.513 12.72 0 C 12.72 -3.513 9.873 -6.36 6.36 -6.36 C 2.847 -6.36 0 -3.513 0 0 "
               fill="#385723"
               fill-rule="evenodd"
               id="path250" />
            <path
               transform="matrix(1,0,0,-1,31.757996,41.33197)"
               stroke-width="2.04"
               stroke-linecap="butt"
               stroke-miterlimit="8"
               stroke-linejoin="miter"
               fill="none"
               stroke="#000000"
               d="M 0 0 C 0 3.513 2.847 6.36 6.36 6.36 C 9.873 6.36 12.72 3.513 12.72 0 C 12.72 -3.513 9.873 -6.36 6.36 -6.36 C 2.847 -6.36 0 -3.513 0 0 Z "
               id="path252" />
          </g>
          <g
             id="g256"
             data-name="Figure" />
          <clipPath
             id="cp12">
            <path
               transform="matrix(1,0,0,-1,-263.622,543.472)"
               d="M 0 0 L 1386.12 0 L 1386.12 793.8 L 0 793.8 Z "
               id="path258" />
          </clipPath>
          <g
             clip-path="url(#cp12)"
             id="g265">
            <path
               transform="matrix(1,0,0,-1,120.918,64.971988)"
               d="M 0 0 C 0 3.513 2.847 6.36 6.36 6.36 C 9.873 6.36 12.72 3.513 12.72 0 C 12.72 -3.513 9.873 -6.36 6.36 -6.36 C 2.847 -6.36 0 -3.513 0 0 "
               fill="#f9f9fa"
               fill-rule="evenodd"
               id="path261" />
            <path
               transform="matrix(1,0,0,-1,120.918,64.971988)"
               stroke-width="2.04"
               stroke-linecap="butt"
               stroke-miterlimit="8"
               stroke-linejoin="miter"
               fill="none"
               stroke="#000000"
               d="M 0 0 C 0 3.513 2.847 6.36 6.36 6.36 C 9.873 6.36 12.72 3.513 12.72 0 C 12.72 -3.513 9.873 -6.36 6.36 -6.36 C 2.847 -6.36 0 -3.513 0 0 Z "
               id="path263" />
          </g>
          <g
             id="g267"
             data-name="Figure" />
          <clipPath
             id="cp13">
            <path
               transform="matrix(1,0,0,-1,-263.622,543.472)"
               d="M 0 0 L 1386.12 0 L 1386.12 793.8 L 0 793.8 Z "
               id="path269" />
          </clipPath>
          <g
             clip-path="url(#cp13)"
             id="g276">
            <path
               transform="matrix(1,0,0,-1,78.31799,68.451999)"
               d="M 0 0 C 0 3.513 2.847 6.36 6.36 6.36 C 9.873 6.36 12.72 3.513 12.72 0 C 12.72 -3.513 9.873 -6.36 6.36 -6.36 C 2.847 -6.36 0 -3.513 0 0 "
               fill="#385723"
               fill-rule="evenodd"
               id="path272" />
            <path
               transform="matrix(1,0,0,-1,78.31799,68.451999)"
               stroke-width="2.04"
               stroke-linecap="butt"
               stroke-miterlimit="8"
               stroke-linejoin="miter"
               fill="none"
               stroke="#000000"
               d="M 0 0 C 0 3.513 2.847 6.36 6.36 6.36 C 9.873 6.36 12.72 3.513 12.72 0 C 12.72 -3.513 9.873 -6.36 6.36 -6.36 C 2.847 -6.36 0 -3.513 0 0 Z "
               id="path274" />
          </g>
          <g
             id="g278"
             data-name="Figure" />
          <clipPath
             id="cp14">
            <path
               transform="matrix(1,0,0,-1,-263.622,543.472)"
               d="M 0 0 L 1386.12 0 L 1386.12 793.8 L 0 793.8 Z "
               id="path280" />
          </clipPath>
          <g
             clip-path="url(#cp14)"
             id="g287">
            <path
               transform="matrix(1,0,0,-1,40.15799,65.57199)"
               d="M 0 0 C 0 3.513 2.847 6.36 6.36 6.36 C 9.873 6.36 12.72 3.513 12.72 0 C 12.72 -3.513 9.873 -6.36 6.36 -6.36 C 2.847 -6.36 0 -3.513 0 0 "
               fill="#385723"
               fill-rule="evenodd"
               id="path283" />
            <path
               transform="matrix(1,0,0,-1,40.15799,65.57199)"
               stroke-width="2.04"
               stroke-linecap="butt"
               stroke-miterlimit="8"
               stroke-linejoin="miter"
               fill="none"
               stroke="#000000"
               d="M 0 0 C 0 3.513 2.847 6.36 6.36 6.36 C 9.873 6.36 12.72 3.513 12.72 0 C 12.72 -3.513 9.873 -6.36 6.36 -6.36 C 2.847 -6.36 0 -3.513 0 0 Z "
               id="path285" />
          </g>
        </g>
        <g
           id="g291"
           data-name="P" />
        <symbol
           id="font_0_30">
          <path
             d="M 0 0 L 0 .7158203 L .14257813 .7158203 L .31201173 .20898438 C .32763673 .16178386 .33902995 .12646485 .3461914 .103027347 C .35432945 .12906902 .36702476 .1673177 .38427735 .21777344 L .55566409 .7158203 L .68310549 .7158203 L .68310549 0 L .5917969 0 L .5917969 .5991211 L .38378907 0 L .29833985 0 L .091308597 .609375 L .091308597 0 L 0 0 Z "
             id="path293" />
        </symbol>
        <symbol
           id="font_0_52">
          <path
             d="M 0 .2709961 C 0 .36702476 .026692709 .43815104 .080078128 .484375 C .12467448 .52278646 .17903646 .5419922 .24316406 .5419922 C .31445313 .5419922 .37272135 .5185547 .41796876 .4716797 C .46321617 .42513023 .48583985 .3606771 .48583985 .2783203 C .48583985 .21158855 .4757487 .15901692 .4555664 .12060547 C .43570964 .08251953 .40657554 .052897138 .36816407 .03173828 C .33007813 .010579427 .28841148 0 .24316406 0 C .17057292 0 .111816409 .02327474 .06689453 .06982422 C .022298178 .116373699 0 .18343099 0 .2709961 M .09033203 .2709961 C .09033203 .20458985 .10481771 .15478516 .13378906 .12158203 C .16276042 .08870443 .19921875 .072265628 .24316406 .072265628 C .28678385 .072265628 .32307945 .08886719 .35205079 .12207031 C .38102214 .15527344 .3955078 .20589192 .3955078 .27392579 C .3955078 .33805339 .38085938 .386556 .3515625 .4194336 C .32259117 .45263673 .28645835 .46923829 .24316406 .46923829 C .19921875 .46923829 .16276042 .45279948 .13378906 .41992188 C .10481771 .38704429 .09033203 .33740235 .09033203 .2709961 Z "
             id="path296" />
        </symbol>
        <symbol
           id="font_0_47">
          <path
             d="M .36816407 .01171875 L .36816407 .07714844 C .33528648 .025716147 .28694663 0 .22314453 0 C .18180339 0 .14371746 .0113932299 .10888672 .034179689 C .07438151 .056966146 .047526044 .08870443 .028320313 .12939453 C .0094401049 .17041016 0 .21744792 0 .2705078 C 0 .32226563 .008626302 .36914063 .025878907 .4111328 C .04313151 .45345054 .069010417 .48583985 .103515628 .5083008 C .13802083 .5307617 .17659505 .5419922 .21923828 .5419922 C .25048829 .5419922 .2783203 .53531906 .30273438 .52197268 C .32714845 .50895187 .34700523 .49186198 .3623047 .47070313 L .3623047 .72753909 L .44970704 .72753909 L .44970704 .01171875 L .36816407 .01171875 M .09033203 .2705078 C .09033203 .20410156 .10432943 .15445964 .13232422 .12158203 C .16031902 .08870443 .19335938 .072265628 .23144531 .072265628 C .26985679 .072265628 .30240885 .087890628 .32910157 .119140628 C .35611979 .15071614 .3696289 .19873047 .3696289 .2631836 C .3696289 .33414714 .35595704 .38623048 .32861329 .4194336 C .30126954 .45263673 .26757813 .46923829 .22753906 .46923829 C .18847656 .46923829 .15576172 .45328776 .12939453 .42138673 C .10335287 .3894857 .09033203 .33919273 .09033203 .2705078 Z "
             id="path299" />
        </symbol>
        <symbol
           id="font_0_48">
          <path
             d="M .38427735 .17871094 L .47509767 .16748047 C .46077476 .11442057 .43424479 .07324219 .3955078 .043945314 C .35677085 .0146484379 .30729167 0 .24707031 0 C .17122396 0 .1110026 .02327474 .06640625 .06982422 C .022135416 .11669922 0 .18229167 0 .26660157 C 0 .35384117 .022460938 .42154948 .06738281 .46972657 C .11230469 .5179036 .17057292 .5419922 .2421875 .5419922 C .31152345 .5419922 .36816407 .5183919 .41210938 .4711914 C .4560547 .42399089 .47802735 .35758464 .47802735 .27197267 C .47802735 .2667643 .4778646 .2589518 .47753907 .24853516 L .09082031 .24853516 C .09407552 .19156902 .110188808 .14794922 .13916016 .11767578 C .16813152 .087402347 .20426433 .072265628 .2475586 .072265628 C .27978517 .072265628 .30729167 .080729167 .33007813 .09765625 C .3528646 .114583339 .370931 .14160156 .38427735 .17871094 M .095703128 .32080079 L .3852539 .32080079 C .38134767 .36442057 .37027995 .3971354 .35205079 .4189453 C .324056 .45279948 .2877604 .46972657 .24316406 .46972657 C .20279949 .46972657 .16878255 .45621745 .14111328 .42919923 C .11376953 .402181 .09863281 .3660482 .095703128 .32080079 Z "
             id="path302" />
        </symbol>
        <symbol
           id="font_0_4f">
          <path
             d="M 0 0 L 0 .7158203 L .087890628 .7158203 L .087890628 0 L 0 0 Z "
             id="path305" />
        </symbol>
        <use
           xlink:href="#font_0_30"
           transform="matrix(24,0,0,-24,244.56266,141.11188)"
           id="use308" />
        <use
           xlink:href="#font_0_52"
           transform="matrix(24,0,0,-24,263.6183,141.39313)"
           id="use310" />
        <use
           xlink:href="#font_0_47"
           transform="matrix(24,0,0,-24,276.96174,141.39313)"
           id="use312" />
        <use
           xlink:href="#font_0_48"
           transform="matrix(24,0,0,-24,290.34034,141.39313)"
           id="use314" />
        <use
           xlink:href="#font_0_4f"
           transform="matrix(24,0,0,-24,304.3166,141.11188)"
           id="use316" />
        <use
           xlink:href="#font_0_3"
           transform="matrix(24,0,0,-24,308.06147,141.11188)"
           id="use318" />
        <use
           xlink:href="#font_0_15"
           transform="matrix(24,0,0,-24,315.61244,141.11188)"
           id="use320" />
        <g
           id="g326"
           data-name="Figure">
          <path
             transform="matrix(1,0,0,-1,151.698,68.15198)"
             d="M 0 0 L 54 0 L 54 7.8 L 69.6 -7.8 L 54 -23.4 L 54 -15.6 L 0 -15.6 Z "
             fill="#f9f9fa"
             fill-rule="evenodd"
             id="path322" />
          <path
             transform="matrix(1,0,0,-1,151.698,68.15198)"
             stroke-width=".96"
             stroke-linecap="butt"
             stroke-miterlimit="8"
             stroke-linejoin="miter"
             fill="none"
             stroke="#000000"
             d="M 0 0 L 54 0 L 54 7.8 L 69.6 -7.8 L 54 -23.4 L 54 -15.6 L 0 -15.6 L 0 0 Z "
             id="path324" />
        </g>
        <g
           id="g488"
           data-name="Figure">
          <clipPath
             id="cp15">
            <path
               transform="matrix(1,0,0,-1,-263.622,543.472)"
               d="M 0 0 L 1386.12 0 L 1386.12 793.8 L 0 793.8 Z "
               id="path328" />
          </clipPath>
          <g
             clip-path="url(#cp15)"
             id="g333">
            <path
               transform="matrix(1,0,0,-1,304.15803,37.85199)"
               stroke-width="2.04"
               stroke-linecap="butt"
               stroke-dasharray="8.16,6.12,2.04,6.12"
               stroke-miterlimit="8"
               stroke-linejoin="miter"
               fill="none"
               stroke="#000000"
               d="M 0 0 C 0 3.844 3.143 6.96 7.02 6.96 C 10.897 6.96 14.04 3.844 14.04 0 C 14.04 -3.844 10.897 -6.96 7.02 -6.96 C 3.143 -6.96 0 -3.844 0 0 Z "
               id="path331" />
          </g>
          <g
             id="g335"
             data-name="Figure" />
          <clipPath
             id="cp16">
            <path
               transform="matrix(1,0,0,-1,-263.622,543.472)"
               d="M 0 0 L 1386.12 0 L 1386.12 793.8 L 0 793.8 Z "
               id="path337" />
          </clipPath>
          <g
             clip-path="url(#cp16)"
             id="g342">
            <path
               transform="matrix(1,0,0,-1,304.758,72.172)"
               stroke-width="2.04"
               stroke-linecap="butt"
               stroke-dasharray="8.16,6.12,2.04,6.12"
               stroke-miterlimit="8"
               stroke-linejoin="miter"
               fill="none"
               stroke="#000000"
               d="M 0 0 C 0 3.844 3.116 6.96 6.96 6.96 C 10.804 6.96 13.92 3.844 13.92 0 C 13.92 -3.844 10.804 -6.96 6.96 -6.96 C 3.116 -6.96 0 -3.844 0 0 Z "
               id="path340" />
          </g>
          <g
             id="g344"
             data-name="Figure" />
          <clipPath
             id="cp17">
            <path
               transform="matrix(1,0,0,-1,-263.622,543.472)"
               d="M 0 0 L 1386.12 0 L 1386.12 793.8 L 0 793.8 Z "
               id="path346" />
          </clipPath>
          <g
             clip-path="url(#cp17)"
             id="g351">
            <path
               transform="matrix(1,0,0,-1,330.318,52.911989)"
               stroke-width="2.04"
               stroke-linecap="butt"
               stroke-dasharray="8.16,6.12,2.04,6.12"
               stroke-miterlimit="8"
               stroke-linejoin="miter"
               fill="none"
               stroke="#000000"
               d="M 0 0 C 0 3.877 3.116 7.02 6.96 7.02 C 10.804 7.02 13.92 3.877 13.92 0 C 13.92 -3.877 10.804 -7.02 6.96 -7.02 C 3.116 -7.02 0 -3.877 0 0 Z "
               id="path349" />
          </g>
          <g
             id="g353"
             data-name="Figure" />
          <clipPath
             id="cp18">
            <path
               transform="matrix(1,0,0,-1,-263.622,543.472)"
               d="M 0 0 L 1386.12 0 L 1386.12 793.8 L 0 793.8 Z "
               id="path355" />
          </clipPath>
          <g
             clip-path="url(#cp18)"
             id="g360">
            <path
               transform="matrix(1,0,0,-1,263.59797,68.81198)"
               stroke-width="2.04"
               stroke-linecap="butt"
               stroke-dasharray="8.16,6.12,2.04,6.12"
               stroke-miterlimit="8"
               stroke-linejoin="miter"
               fill="none"
               stroke="#000000"
               d="M 0 0 C 0 3.844 3.116 6.96 6.96 6.96 C 10.804 6.96 13.92 3.844 13.92 0 C 13.92 -3.844 10.804 -6.96 6.96 -6.96 C 3.116 -6.96 0 -3.844 0 0 Z "
               id="path358" />
          </g>
          <g
             id="g362"
             data-name="Figure" />
          <clipPath
             id="cp19">
            <path
               transform="matrix(1,0,0,-1,-263.622,543.472)"
               d="M 0 0 L 1386.12 0 L 1386.12 793.8 L 0 793.8 Z "
               id="path364" />
          </clipPath>
          <g
             clip-path="url(#cp19)"
             id="g371">
            <path
               transform="matrix(1,0,0,-1,248.358,95.691989)"
               d="M 0 0 C 0 3.844 3.116 6.96 6.96 6.96 C 10.804 6.96 13.92 3.844 13.92 0 C 13.92 -3.844 10.804 -6.96 6.96 -6.96 C 3.116 -6.96 0 -3.844 0 0 "
               fill="#385723"
               fill-rule="evenodd"
               id="path367" />
            <path
               transform="matrix(1,0,0,-1,248.358,95.691989)"
               stroke-width="2.04"
               stroke-linecap="butt"
               stroke-dasharray="8.16,6.12,2.04,6.12"
               stroke-miterlimit="8"
               stroke-linejoin="miter"
               fill="none"
               stroke="#000000"
               d="M 0 0 C 0 3.844 3.116 6.96 6.96 6.96 C 10.804 6.96 13.92 3.844 13.92 0 C 13.92 -3.844 10.804 -6.96 6.96 -6.96 C 3.116 -6.96 0 -3.844 0 0 Z "
               id="path369" />
          </g>
          <g
             id="g373"
             data-name="Figure" />
          <clipPath
             id="cp20">
            <path
               transform="matrix(1,0,0,-1,-263.622,543.472)"
               d="M 0 0 L 1386.12 0 L 1386.12 793.8 L 0 793.8 Z "
               id="path375" />
          </clipPath>
          <g
             clip-path="url(#cp20)"
             id="g382">
            <path
               transform="matrix(1,0,0,-1,224.358,90.29199)"
               d="M 0 0 C 0 3.844 3.116 6.96 6.96 6.96 C 10.804 6.96 13.92 3.844 13.92 0 C 13.92 -3.844 10.804 -6.96 6.96 -6.96 C 3.116 -6.96 0 -3.844 0 0 "
               fill="#385723"
               fill-rule="evenodd"
               id="path378" />
            <path
               transform="matrix(1,0,0,-1,224.358,90.29199)"
               stroke-width="2.04"
               stroke-linecap="butt"
               stroke-dasharray="8.16,6.12,2.04,6.12"
               stroke-miterlimit="8"
               stroke-linejoin="miter"
               fill="none"
               stroke="#000000"
               d="M 0 0 C 0 3.844 3.116 6.96 6.96 6.96 C 10.804 6.96 13.92 3.844 13.92 0 C 13.92 -3.844 10.804 -6.96 6.96 -6.96 C 3.116 -6.96 0 -3.844 0 0 Z "
               id="path380" />
          </g>
          <g
             id="g384"
             data-name="Figure" />
          <clipPath
             id="cp21">
            <path
               transform="matrix(1,0,0,-1,-263.622,543.472)"
               d="M 0 0 L 1386.12 0 L 1386.12 793.8 L 0 793.8 Z "
               id="path386" />
          </clipPath>
          <g
             clip-path="url(#cp21)"
             id="g393">
            <path
               transform="matrix(1,0,0,-1,276.198,101.211978)"
               d="M 0 0 C 0 3.844 3.116 6.96 6.96 6.96 C 10.804 6.96 13.92 3.844 13.92 0 C 13.92 -3.844 10.804 -6.96 6.96 -6.96 C 3.116 -6.96 0 -3.844 0 0 "
               fill="#385723"
               fill-rule="evenodd"
               id="path389" />
            <path
               transform="matrix(1,0,0,-1,276.198,101.211978)"
               stroke-width="2.04"
               stroke-linecap="butt"
               stroke-dasharray="8.16,6.12,2.04,6.12"
               stroke-miterlimit="8"
               stroke-linejoin="miter"
               fill="none"
               stroke="#000000"
               d="M 0 0 C 0 3.844 3.116 6.96 6.96 6.96 C 10.804 6.96 13.92 3.844 13.92 0 C 13.92 -3.844 10.804 -6.96 6.96 -6.96 C 3.116 -6.96 0 -3.844 0 0 Z "
               id="path391" />
          </g>
          <g
             id="g395"
             data-name="Figure" />
          <clipPath
             id="cp22">
            <path
               transform="matrix(1,0,0,-1,-263.622,543.472)"
               d="M 0 0 L 1386.12 0 L 1386.12 793.8 L 0 793.8 Z "
               id="path397" />
          </clipPath>
          <g
             clip-path="url(#cp22)"
             id="g404">
            <path
               transform="matrix(1,0,0,-1,259.878,43.251985)"
               d="M 0 0 C 0 3.844 3.116 6.96 6.96 6.96 C 10.804 6.96 13.92 3.844 13.92 0 C 13.92 -3.844 10.804 -6.96 6.96 -6.96 C 3.116 -6.96 0 -3.844 0 0 "
               fill="#385723"
               fill-rule="evenodd"
               id="path400" />
            <path
               transform="matrix(1,0,0,-1,259.878,43.251985)"
               stroke-width="2.04"
               stroke-linecap="butt"
               stroke-dasharray="8.16,6.12,2.04,6.12"
               stroke-miterlimit="8"
               stroke-linejoin="miter"
               fill="none"
               stroke="#000000"
               d="M 0 0 C 0 3.844 3.116 6.96 6.96 6.96 C 10.804 6.96 13.92 3.844 13.92 0 C 13.92 -3.844 10.804 -6.96 6.96 -6.96 C 3.116 -6.96 0 -3.844 0 0 Z "
               id="path402" />
          </g>
          <g
             id="g406"
             data-name="Figure" />
          <clipPath
             id="cp23">
            <path
               transform="matrix(1,0,0,-1,-263.622,543.472)"
               d="M 0 0 L 1386.12 0 L 1386.12 793.8 L 0 793.8 Z "
               id="path408" />
          </clipPath>
          <g
             clip-path="url(#cp23)"
             id="g415">
            <path
               transform="matrix(1,0,0,-1,282.198,54.35199)"
               d="M 0 0 C 0 3.877 3.143 7.02 7.02 7.02 C 10.897 7.02 14.04 3.877 14.04 0 C 14.04 -3.877 10.897 -7.02 7.02 -7.02 C 3.143 -7.02 0 -3.877 0 0 "
               fill="#385723"
               fill-rule="evenodd"
               id="path411" />
            <path
               transform="matrix(1,0,0,-1,282.198,54.35199)"
               stroke-width="2.04"
               stroke-linecap="butt"
               stroke-dasharray="8.16,6.12,2.04,6.12"
               stroke-miterlimit="8"
               stroke-linejoin="miter"
               fill="none"
               stroke="#000000"
               d="M 0 0 C 0 3.877 3.143 7.02 7.02 7.02 C 10.897 7.02 14.04 3.877 14.04 0 C 14.04 -3.877 10.897 -7.02 7.02 -7.02 C 3.143 -7.02 0 -3.877 0 0 Z "
               id="path413" />
          </g>
          <g
             id="g417"
             data-name="Figure" />
          <clipPath
             id="cp24">
            <path
               transform="matrix(1,0,0,-1,-263.622,543.472)"
               d="M 0 0 L 1386.12 0 L 1386.12 793.8 L 0 793.8 Z "
               id="path419" />
          </clipPath>
          <g
             clip-path="url(#cp24)"
             id="g426">
            <path
               transform="matrix(1,0,0,-1,235.038,48.471986)"
               d="M 0 0 C 0 3.877 3.116 7.02 6.96 7.02 C 10.804 7.02 13.92 3.877 13.92 0 C 13.92 -3.877 10.804 -7.02 6.96 -7.02 C 3.116 -7.02 0 -3.877 0 0 "
               fill="#385723"
               fill-rule="evenodd"
               id="path422" />
            <path
               transform="matrix(1,0,0,-1,235.038,48.471986)"
               stroke-width="2.04"
               stroke-linecap="butt"
               stroke-dasharray="8.16,6.12,2.04,6.12"
               stroke-miterlimit="8"
               stroke-linejoin="miter"
               fill="none"
               stroke="#000000"
               d="M 0 0 C 0 3.877 3.116 7.02 6.96 7.02 C 10.804 7.02 13.92 3.877 13.92 0 C 13.92 -3.877 10.804 -7.02 6.96 -7.02 C 3.116 -7.02 0 -3.877 0 0 Z "
               id="path424" />
          </g>
          <g
             id="g428"
             data-name="Figure" />
          <clipPath
             id="cp25">
            <path
               transform="matrix(1,0,0,-1,-263.622,543.472)"
               d="M 0 0 L 1386.12 0 L 1386.12 793.8 L 0 793.8 Z "
               id="path430" />
          </clipPath>
          <g
             clip-path="url(#cp25)"
             id="g435">
            <path
               transform="matrix(1,0,0,-1,332.838,74.51199)"
               stroke-width="2.04"
               stroke-linecap="butt"
               stroke-dasharray="8.16,6.12,2.04,6.12"
               stroke-miterlimit="8"
               stroke-linejoin="miter"
               fill="none"
               stroke="#000000"
               d="M 0 0 C 0 3.877 3.116 7.02 6.96 7.02 C 10.804 7.02 13.92 3.877 13.92 0 C 13.92 -3.877 10.804 -7.02 6.96 -7.02 C 3.116 -7.02 0 -3.877 0 0 Z "
               id="path433" />
          </g>
          <g
             id="g437"
             data-name="Figure" />
          <clipPath
             id="cp26">
            <path
               transform="matrix(1,0,0,-1,-263.622,543.472)"
               d="M 0 0 L 1386.12 0 L 1386.12 793.8 L 0 793.8 Z "
               id="path439" />
          </clipPath>
          <g
             clip-path="url(#cp26)"
             id="g446">
            <path
               transform="matrix(1,0,0,-1,286.03797,78.231998)"
               d="M 0 0 C 0 3.877 3.143 7.02 7.02 7.02 C 10.897 7.02 14.04 3.877 14.04 0 C 14.04 -3.877 10.897 -7.02 7.02 -7.02 C 3.143 -7.02 0 -3.877 0 0 "
               fill="#385723"
               fill-rule="evenodd"
               id="path442" />
            <path
               transform="matrix(1,0,0,-1,286.03797,78.231998)"
               stroke-width="2.04"
               stroke-linecap="butt"
               stroke-dasharray="8.16,6.12,2.04,6.12"
               stroke-miterlimit="8"
               stroke-linejoin="miter"
               fill="none"
               stroke="#000000"
               d="M 0 0 C 0 3.877 3.143 7.02 7.02 7.02 C 10.897 7.02 14.04 3.877 14.04 0 C 14.04 -3.877 10.897 -7.02 7.02 -7.02 C 3.143 -7.02 0 -3.877 0 0 Z "
               id="path444" />
          </g>
          <g
             id="g448"
             data-name="Figure" />
          <clipPath
             id="cp27">
            <path
               transform="matrix(1,0,0,-1,-263.622,543.472)"
               d="M 0 0 L 1386.12 0 L 1386.12 793.8 L 0 793.8 Z "
               id="path450" />
          </clipPath>
          <g
             clip-path="url(#cp27)"
             id="g457">
            <path
               transform="matrix(1,0,0,-1,244.038,75.172)"
               d="M 0 0 C 0 3.844 3.143 6.96 7.02 6.96 C 10.897 6.96 14.04 3.844 14.04 0 C 14.04 -3.844 10.897 -6.96 7.02 -6.96 C 3.143 -6.96 0 -3.844 0 0 "
               fill="#385723"
               fill-rule="evenodd"
               id="path453" />
            <path
               transform="matrix(1,0,0,-1,244.038,75.172)"
               stroke-width="2.04"
               stroke-linecap="butt"
               stroke-dasharray="8.16,6.12,2.04,6.12"
               stroke-miterlimit="8"
               stroke-linejoin="miter"
               fill="none"
               stroke="#000000"
               d="M 0 0 C 0 3.844 3.143 6.96 7.02 6.96 C 10.897 6.96 14.04 3.844 14.04 0 C 14.04 -3.844 10.897 -6.96 7.02 -6.96 C 3.143 -6.96 0 -3.844 0 0 Z "
               id="path455" />
          </g>
          <g
             id="g459"
             data-name="Figure" />
          <clipPath
             id="cp28">
            <path
               transform="matrix(1,0,0,-1,-263.622,543.472)"
               d="M 0 0 L 1386.12 0 L 1386.12 793.8 L 0 793.8 Z "
               id="path461" />
          </clipPath>
          <g
             clip-path="url(#cp28)"
             id="g466">
            <path
               transform="matrix(1,0,0,-1,273.85798,24.711976)"
               stroke-width="5.04"
               stroke-linecap="butt"
               stroke-miterlimit="8"
               stroke-linejoin="miter"
               fill="none"
               stroke="#385723"
               d="M 0 0 C .777 -23.644 1.553 -47.289 12.813 -62.209 C 24.073 -77.129 60.506 -84.125 67.56 -89.52 "
               id="path464" />
          </g>
          <g
             id="g468"
             data-name="Figure" />
          <clipPath
             id="cp29">
            <path
               transform="matrix(1,0,0,-1,-263.622,543.472)"
               d="M 416.4 479.76 L 475.319 479.76 L 475.319 538.679 L 416.4 538.679 Z "
               id="path470" />
          </clipPath>
          <g
             clip-path="url(#cp29)"
             id="g477">
            <path
               transform="matrix(.0575315,0,0,.0575727,195.28311,46.31958)"
               d="M 0 0 C -7.76 -92.577 -71.15 -169.139 -156.843 -196.984 C -120.941 -220.234 -97.107 -260.408 -97.107 -306.253 C -97.075 -378.252 -155.637 -436.651 -227.831 -436.651 C -300.057 -436.651 -358.621 -378.251 -358.621 -306.253 C -358.621 -260.408 -334.782 -220.235 -298.881 -196.952 C -384.576 -169.139 -447.932 -92.575 -455.726 0 C -455.822 1.758 -456.051 2.771 -455.726 5.185 C -455.074 13.335 -447.867 19.857 -439.682 19.857 C -430.551 19.857 -423.347 12.39 -423.347 3.553 C -414.835 -97.204 -330.478 -175.758 -227.83 -175.758 C -125.211 -175.758 -40.857 -97.204 -32.346 3.553 C -32.346 12.39 -25.139 19.857 -16.008 19.857 C -7.824 19.857 -.62 13.335 .001 5.185 C .326 2.771 .13 1.726 0 0 M -325.914 -306.253 C -325.914 -360.253 -281.992 -404.045 -227.831 -404.045 C -173.67 -404.045 -129.779 -360.252 -129.779 -306.253 C -129.779 -252.224 -173.67 -208.431 -227.831 -208.431 C -281.992 -208.431 -325.914 -252.224 -325.914 -306.253 "
               id="path473" />
            <path
               transform="matrix(.0575315,0,0,.0575727,195.06537,46.606599)"
               d="M 0 0 C 0 8.213 -6.656 14.869 -14.869 14.869 L -435.071 14.869 C -443.282 14.869 -449.939 8.213 -449.939 0 C -449.939 -8.212 -443.282 -14.868 -435.071 -14.868 L -14.869 -14.868 C -6.656 -14.868 0 -8.211 0 0 "
               id="path475" />
          </g>
          <g
             id="g479"
             data-name="Figure" />
          <clipPath
             id="cp30">
            <path
               transform="matrix(1,0,0,-1,-263.622,543.472)"
               d="M 0 0 L 1386.12 0 L 1386.12 793.8 L 0 793.8 Z "
               id="path481" />
          </clipPath>
          <g
             clip-path="url(#cp30)"
             id="g486">
            <path
               transform="matrix(1,0,0,-1,159.798,35.63199)"
               stroke-width="1.8"
               stroke-linecap="butt"
               stroke-miterlimit="8"
               stroke-linejoin="miter"
               fill="none"
               stroke="#000000"
               d="M 0 0 C 0 12.36 10.02 22.38 22.38 22.38 C 34.74 22.38 44.76 12.36 44.76 0 C 44.76 -12.36 34.74 -22.38 22.38 -22.38 C 10.02 -22.38 0 -12.36 0 0 Z "
               id="path484" />
          </g>
        </g>
        <g
           id="g490"
           data-name="P" />
        <g
           id="g492"
           data-name="Figure" />
        <g
           id="g494"
           data-name="Figure" />
        <g
           id="g496"
           data-name="Figure" />
        <g
           id="g498"
           data-name="Figure" />
        <g
           id="g500"
           data-name="Figure" />
        <g
           id="g502"
           data-name="Figure" />
        <g
           id="g504"
           data-name="Figure" />
        <g
           id="g506"
           data-name="Figure" />
        <g
           id="g508"
           data-name="Figure" />
        <g
           id="g510"
           data-name="Figure" />
        <g
           id="g512"
           data-name="Figure" />
        <g
           id="g514"
           data-name="Figure" />
        <g
           id="g516"
           data-name="Figure" />
        <g
           id="g518"
           data-name="Figure" />
        <g
           id="g520"
           data-name="Figure" />
        <g
           id="g522"
           data-name="Figure" />
        <g
           id="g524"
           data-name="Figure" />
        <g
           id="g526"
           data-name="Figure" />
        <g
           id="g528"
           data-name="Figure" />
        <g
           id="g530"
           data-name="Figure" />
        <g
           id="g532"
           data-name="Figure" />
        <g
           id="g534"
           data-name="Figure" />
        <g
           id="g536"
           data-name="Figure" />
        <g
           id="g538"
           data-name="Figure" />
        <g
           id="g540"
           data-name="Figure" />
        <g
           id="g542"
           data-name="Figure" />
        <g
           id="g544"
           data-name="Figure" />
        <g
           id="g546"
           data-name="Figure" />
        <g
           id="g548"
           data-name="Figure" />
        <g
           id="g550"
           data-name="Figure" />
        <g
           id="g552"
           data-name="Figure" />
        <g
           id="g554"
           data-name="Figure" />
        <g
           id="g556"
           data-name="Figure" />
        <g
           id="g558"
           data-name="Figure" />
        <g
           id="g560"
           data-name="Figure" />
        <g
           id="g562"
           data-name="Figure" />
        <g
           id="g564"
           data-name="Figure" />
        <g
           id="g566"
           data-name="Figure" />
        <g
           id="g568"
           data-name="Figure" />
        <g
           id="g570"
           data-name="Figure" />
        <g
           id="g572"
           data-name="Figure" />
        <g
           id="g574"
           data-name="Figure" />
        <g
           id="g576"
           data-name="Figure" />
        <g
           id="g578"
           data-name="Figure" />
        <g
           id="g580"
           data-name="Figure" />
        <g
           id="g582"
           data-name="Figure" />
        <g
           id="g584"
           data-name="Figure" />
        <g
           id="g586"
           data-name="Figure" />
        <g
           id="g588"
           data-name="Figure" />
        <g
           id="g590"
           data-name="Figure" />
        <g
           id="g592"
           data-name="Figure" />
        <g
           id="g594"
           data-name="Figure" />
        <g
           id="g596"
           data-name="Figure" />
        <g
           id="g598"
           data-name="Figure" />
        <g
           id="g600"
           data-name="Figure" />
        <g
           id="g602"
           data-name="Figure" />
        <g
           id="g604"
           data-name="Figure" />
        <g
           id="g606"
           data-name="Figure" />
        <g
           id="g608"
           data-name="Figure" />
        <g
           id="g610"
           data-name="Figure" />
        <g
           id="g612"
           data-name="Figure" />
        <g
           id="g614"
           data-name="Figure" />
        <g
           id="g616"
           data-name="Figure" />
        <g
           id="g618"
           data-name="Figure" />
        <g
           id="g620"
           data-name="Figure" />
        <g
           id="g622"
           data-name="Figure" />
        <g
           id="g624"
           data-name="Figure" />
        <g
           id="g626"
           data-name="Figure" />
        <g
           id="g628"
           data-name="Figure" />
        <g
           id="g630"
           data-name="Figure" />
        <g
           id="g632"
           data-name="Figure" />
        <g
           id="g634"
           data-name="P" />
        <g
           id="g636"
           data-name="Figure" />
        <g
           id="g638"
           data-name="Figure" />
      </g>
    </g>
  </g>
</svg>
