<?xml version="1.0" encoding="UTF-8" standalone="no"?>
<!DOCTYPE svg PUBLIC "-//W3C//DTD SVG 1.1//EN" "http://www.w3.org/Graphics/SVG/1.1/DTD/svg11.dtd">
<svg xmlns="http://www.w3.org/2000/svg" xmlns:xlink="http://www.w3.org/1999/xlink" version="1.1" width="354.76304pt" height="154.87099pt" viewBox="0 0 354.76304 154.87099">
<g enable-background="new">
<g id="Layer-1" data-name="Artifact">
<g id="Layer-2" data-name="背景">
<path transform="matrix(1,0,0,-1,-243.491,307.658)" d="M 0 0 L 1386.12 0 L 1386.12 793.8 L 0 793.8 Z " fill="#ffffff"/>
</g>
</g>
<g id="Layer-1" data-name="Figure">
</g>
<g id="Layer-1" data-name="Figure">
</g>
<g id="Layer-1" data-name="Figure">
<path transform="matrix(1,0,0,-1,-243.491,307.658)" d="M 241.56 308.76 L 600 308.76 L 600 151.44 L 241.56 151.44 Z " fill="#f9f9fa" fill-rule="evenodd"/>
</g>
<g id="Layer-1" data-name="Figure">
<clipPath id="cp0">
<path transform="matrix(1,0,0,-1,-243.491,307.658)" d="M 0 0 L 1386.12 0 L 1386.12 793.8 L 0 793.8 Z "/>
</clipPath>
<g clip-path="url(#cp0)">
<path transform="matrix(1,0,0,-1,18.2854,46.51358)" d="M 0 0 C -.954 6.493 1.271 13.042 6.066 17.862 C 13.642 25.475 25.924 27.172 35.574 21.943 C 41.464 32.217 56.376 34.34 65.325 26.179 C 67.582 30.365 71.915 33.259 76.918 33.914 C 82.424 34.637 87.923 32.55 91.296 28.455 C 96.161 33.754 104.208 35.494 111.116 32.742 C 116.379 30.645 120.153 26.256 121.166 21.047 C 127.25 19.511 132.094 15.251 134.065 9.698 C 135.498 5.668 135.294 1.29 133.488 -2.609 C 137.927 -7.956 139.48 -14.887 137.705 -21.426 C 135.347 -30.118 127.538 -36.628 117.949 -37.897 C 117.903 -43.323 115.322 -48.469 110.876 -52.011 C 104.12 -57.394 94.362 -58.085 86.796 -53.72 C 84.35 -61.218 77.798 -66.95 69.588 -68.777 C 59.914 -70.928 49.818 -67.261 44.287 -59.586 C 31.233 -66.871 14.279 -62.776 6.703 -50.505 C -.739 -51.312 -7.727 -47.04 -9.822 -40.4 C -11.339 -35.597 -9.998 -30.413 -6.291 -26.761 C -11.551 -23.896 -14.48 -18.398 -13.747 -12.766 C -12.888 -6.173 -7.234 -1.008 -.13 -.328 C -.088 -.218 -.042 -.11 0 0 " fill="#fbe5d6" fill-rule="evenodd"/>
</g>
</g>
<g id="Layer-1" data-name="P">
</g>
<symbol id="font_1_37">
<path d="M .23583985 0 L .23583985 .63134768 L 0 .63134768 L 0 .7158203 L .5673828 .7158203 L .5673828 .63134768 L .3305664 .63134768 L .3305664 0 L .23583985 0 Z "/>
</symbol>
<symbol id="font_1_44">
<path d="M .36816407 .075683597 C .33561198 .048014326 .30419923 .028483073 .27392579 .017089844 C .24397786 .0056966149 .2117513 0 .1772461 0 C .120279949 0 .0764974 .013834636 .045898439 .041503908 C .0152994799 .069498699 0 .10514323 0 .1484375 C 0 .17382813 .0056966149 .19694011 .017089844 .21777344 C .028808594 .2389323 .043945314 .25585938 .0625 .2685547 C .08138021 .28125 .10253906 .29085288 .12597656 .29736329 C .14322917 .30192057 .16927083 .3063151 .20410156 .31054688 C .2750651 .3190104 .3273112 .32910157 .36083985 .3408203 C .36116538 .3528646 .36132813 .3605143 .36132813 .36376954 C .36132813 .3995768 .35302735 .4248047 .33642579 .43945313 C .31396485 .4593099 .28059898 .46923829 .23632813 .46923829 C .19498699 .46923829 .16438802 .46191407 .14453125 .44726563 C .125 .43294273 .11051432 .4073893 .10107422 .37060548 L .015136719 .38232423 C .022949219 .41910807 .035807294 .44873048 .053710939 .4711914 C .071614589 .49397788 .09749349 .51139327 .13134766 .5234375 C .16520183 .5358073 .20442708 .5419922 .24902344 .5419922 C .29329429 .5419922 .3292643 .5367839 .3569336 .5263672 C .38460288 .5159505 .4049479 .5027669 .41796876 .4868164 C .4309896 .4711914 .44010417 .45133464 .4453125 .4272461 C .4482422 .41227214 .44970704 .3852539 .44970704 .3461914 L .44970704 .2290039 C .44970704 .14729817 .4514974 .09554037 .45507813 .07373047 C .45898438 .052246095 .46647135 .03157552 .47753907 .01171875 L .3857422 .01171875 C .3766276 .029947916 .37076823 .05126953 .36816407 .075683597 M .36083985 .27197267 C .3289388 .2589518 .28108726 .24788411 .21728516 .23876953 C .18115235 .2335612 .15559896 .22770183 .140625 .2211914 C .12565105 .21468099 .114095058 .20507813 .10595703 .19238281 C .09781901 .18001302 .09375 .16617839 .09375 .1508789 C .09375 .1274414 .10253906 .107910159 .12011719 .092285159 C .13802083 .076660159 .1640625 .068847659 .19824219 .068847659 C .23209636 .068847659 .26220704 .076171878 .28857423 .09082031 C .3149414 .10579427 .3343099 .12613933 .3466797 .15185547 C .35611979 .17171224 .36083985 .20100911 .36083985 .2397461 L .36083985 .27197267 Z "/>
</symbol>
<symbol id="font_1_56">
<path d="M 0 .1665039 L .08691406 .18017578 C .091796878 .14534505 .10530599 .118652347 .1274414 .100097659 C .14990235 .08154297 .18115235 .072265628 .2211914 .072265628 C .261556 .072265628 .2915039 .08040365 .31103517 .09667969 C .3305664 .11328125 .34033204 .13264974 .34033204 .15478516 C .34033204 .17464192 .33170573 .19026692 .31445313 .20166016 C .30240885 .20947266 .27246095 .21940105 .22460938 .23144531 C .16015625 .24772136 .11539713 .26171876 .09033203 .2734375 C .065592449 .28548179 .04671224 .30192057 .033691408 .3227539 C .020996094 .34391276 .0146484379 .3671875 .0146484379 .39257813 C .0146484379 .4156901 .019856772 .43701173 .030273438 .45654298 C .041015626 .47639976 .0555013 .49283854 .07373047 .5058594 C .087402347 .5159505 .10595703 .52441409 .12939453 .53125 C .15315755 .53841146 .17854817 .5419922 .2055664 .5419922 C .24625652 .5419922 .28190104 .5361328 .3125 .52441409 C .34342448 .5126953 .36621095 .49674479 .38085938 .4765625 C .3955078 .45670573 .40559898 .43001304 .4111328 .39648438 L .3251953 .38476563 C .32128907 .41145835 .30989585 .43229167 .29101563 .44726563 C .27246095 .4622396 .24609375 .46972657 .21191406 .46972657 C .17154949 .46972657 .14274089 .46305339 .12548828 .44970704 C .10823568 .4363607 .099609378 .4207357 .099609378 .40283204 C .099609378 .3914388 .1031901 .3811849 .11035156 .3720703 C .11751302 .36263023 .12874349 .35481773 .14404297 .3486328 C .15283203 .3453776 .17871094 .33789063 .22167969 .32617188 C .28385417 .3095703 .32714845 .29589845 .3515625 .28515626 C .3763021 .2747396 .39567057 .2594401 .40966798 .23925781 C .42366538 .21907552 .43066407 .19401042 .43066407 .1640625 C .43066407 .13476563 .42203776 .10709635 .40478517 .08105469 C .38785807 .055338544 .36328126 .03531901 .3310547 .020996094 C .29882813 .0069986979 .26236979 0 .22167969 0 C .15429688 0 .102864589 .0139973959 .06738281 .041992189 C .032226564 .06998698 .009765625 .11149088 0 .1665039 Z "/>
</symbol>
<symbol id="font_1_4e">
<path d="M 0 0 L 0 .7158203 L .087890628 .7158203 L .087890628 .3076172 L .29589845 .5185547 L .40966798 .5185547 L .21142578 .32617188 L .4296875 0 L .32128907 0 L .14990235 .26513673 L .087890628 .2055664 L .087890628 0 L 0 0 Z "/>
</symbol>
<symbol id="font_1_3">
<path d="M 0 0 Z "/>
</symbol>
<symbol id="font_1_26">
<path d="M .53808596 .2631836 L .6328125 .23925781 C .61295577 .16145833 .57714846 .10205078 .5253906 .061035158 C .47395835 .020345053 .41097007 0 .33642579 0 C .25927735 0 .19645183 .015625 .14794922 .046875 C .09977213 .07845052 .06298828 .12402344 .037597658 .18359375 C .012532552 .24316406 0 .3071289 0 .37548829 C 0 .45003257 .014160156 .51497396 .04248047 .5703125 C .071126308 .62597659 .11165365 .66813156 .1640625 .69677737 C .21679688 .7257487 .2747396 .7402344 .33789063 .7402344 C .40950523 .7402344 .46972657 .7220052 .5185547 .6855469 C .5673828 .64908859 .6013997 .59781906 .62060549 .5317383 L .52734377 .5097656 C .5107422 .56184896 .48665367 .59977218 .45507813 .62353518 C .4235026 .64729818 .38378907 .6591797 .3359375 .6591797 C .28092448 .6591797 .23486328 .6459961 .1977539 .6196289 C .16097005 .5932617 .13509114 .55777999 .12011719 .5131836 C .10514323 .46891276 .09765625 .4231771 .09765625 .37597657 C .09765625 .31510417 .10644531 .2618815 .12402344 .2163086 C .14192708 .1710612 .16959636 .13720703 .20703125 .114746097 C .24446614 .092285159 .2849935 .08105469 .32861329 .08105469 C .3816732 .08105469 .42659507 .096354167 .4633789 .12695313 C .5001628 .15755208 .5250651 .20296224 .53808596 .2631836 Z "/>
</symbol>
<use xlink:href="#font_1_37" transform="matrix(24,0,0,-24,44.545106,146.83209)"/>
<use xlink:href="#font_1_44" transform="matrix(24,0,0,-24,56.849794,147.11334)"/>
<use xlink:href="#font_1_56" transform="matrix(24,0,0,-24,70.04089,147.11334)"/>
<use xlink:href="#font_1_4e" transform="matrix(24,0,0,-24,82.89636,146.83209)"/>
<use xlink:href="#font_1_3" transform="matrix(24,0,0,-24,93.30261,146.83209)"/>
<use xlink:href="#font_1_26" transform="matrix(24,0,0,-24,101.09793,147.12506)"/>
<g id="Layer-1" data-name="Artifact">
<path transform="matrix(1,0,0,-1,61.543,34.34558)" stroke-width="1" stroke-linecap="butt" stroke-linejoin="round" fill="none" stroke="#000000" d="M 0 0 L 0 -57.313 "/>
<path transform="matrix(1,0,0,-1,99.582309,34.34558)" stroke-width="1" stroke-linecap="butt" stroke-linejoin="round" fill="none" stroke="#000000" d="M 0 0 L 0 -57.313 "/>
<path transform="matrix(1,0,0,-1,23.003693,51.709688)" stroke-width="1" stroke-linecap="butt" stroke-linejoin="round" fill="none" stroke="#000000" d="M 0 0 L 115.118 0 "/>
<path transform="matrix(1,0,0,-1,23.003693,66.8754)" stroke-width="1" stroke-linecap="butt" stroke-linejoin="round" fill="none" stroke="#000000" d="M 0 0 L 115.118 0 "/>
<path transform="matrix(1,0,0,-1,23.003693,82.04109)" stroke-width="1" stroke-linecap="butt" stroke-linejoin="round" fill="none" stroke="#000000" d="M 0 0 L 115.118 0 "/>
<path transform="matrix(1,0,0,-1,23.503693,34.34558)" stroke-width="1" stroke-linecap="butt" stroke-linejoin="round" fill="none" stroke="#000000" d="M 0 0 L 0 -57.313 "/>
<path transform="matrix(1,0,0,-1,137.62162,34.34558)" stroke-width="1" stroke-linecap="butt" stroke-linejoin="round" fill="none" stroke="#000000" d="M 0 0 L 0 -57.313 "/>
<path transform="matrix(1,0,0,-1,23.003693,34.84558)" stroke-width="1" stroke-linecap="butt" stroke-linejoin="round" fill="none" stroke="#000000" d="M 0 0 L 115.118 0 "/>
</g>
<g id="Layer-1" data-name="P">
</g>
<g id="Layer-1" data-name="P">
</g>
<g id="Layer-1" data-name="P">
</g>
<g id="Layer-1" data-name="P">
</g>
<g id="Layer-1" data-name="P">
</g>
<g id="Layer-1" data-name="P">
</g>
<g id="Layer-1" data-name="P">
</g>
<g id="Layer-1" data-name="P">
</g>
<g id="Layer-1" data-name="P">
</g>
<symbol id="font_2_35e">
<path d="M .31347657 .12646485 L .31347657 .05078125 C .31347657 .039713544 .31217448 .030761719 .3095703 .023925782 C .30729167 .017415366 .3035482 .012369792 .29833985 .0087890629 C .29345704 .0052083337 .28694663 .002766927 .2788086 .0014648438 C .2709961 .00048828127 .2618815 0 .25146485 0 C .24072266 0 .23160808 .00048828127 .2241211 .0014648438 C .21663411 .002766927 .21044922 .0052083337 .2055664 .0087890629 C .2006836 .012369792 .19710286 .017415366 .19482422 .023925782 C .1928711 .030761719 .19189453 .039713544 .19189453 .05078125 C .19189453 .06315104 .19238281 .07454427 .19335938 .08496094 C .19466146 .0953776 .19661458 .10530599 .19921875 .114746097 C .20182292 .124186199 .20524089 .13330078 .20947266 .14208985 C .21402996 .1508789 .21940105 .15983074 .22558594 .16894531 L .28759767 .26220704 C .2898763 .26546226 .29215495 .26822917 .2944336 .2705078 C .29703776 .27278648 .30013023 .2745768 .30371095 .2758789 C .3076172 .2775065 .31217448 .27864585 .3173828 .27929688 C .32259117 .2799479 .32910157 .28027345 .33691407 .28027345 C .3453776 .28027345 .35221354 .2799479 .35742188 .27929688 C .36263023 .27864585 .3663737 .27734376 .36865235 .27539063 C .3712565 .27376304 .3725586 .27164714 .3725586 .26904298 C .37288413 .2664388 .37223307 .26334635 .37060548 .25976563 L .31347657 .12646485 M .12158203 .12646485 L .12158203 .05078125 C .12158203 .039713544 .120279949 .030761719 .11767578 .023925782 C .11539713 .017415366 .11165365 .012369792 .10644531 .0087890629 C .1015625 .0052083337 .095214847 .002766927 .087402347 .0014648438 C .079589847 .00048828127 .0703125 0 .059570314 0 C .048828126 0 .039713544 .00048828127 .032226564 .0014648438 C .024739584 .002766927 .018554688 .0052083337 .013671875 .0087890629 C .009114583 .012369792 .0056966149 .017415366 .0034179688 .023925782 C .0011393229 .030761719 0 .039713544 0 .05078125 C 0 .06315104 .00048828127 .07454427 .0014648438 .08496094 C .002766927 .0953776 .0047200524 .10530599 .0073242189 .114746097 C .009928386 .124186199 .0133463549 .13330078 .017578125 .14208985 C .022135416 .1508789 .02750651 .15983074 .033691408 .16894531 L .096191409 .26220704 C .098470058 .26546226 .100748699 .26822917 .103027347 .2705078 C .10563151 .27278648 .10872396 .2745768 .11230469 .2758789 C .11621094 .2775065 .12076823 .27864585 .12597656 .27929688 C .13118489 .2799479 .13753255 .28027345 .14501953 .28027345 C .15348308 .28027345 .16031902 .2799479 .16552735 .27929688 C .17073567 .27864585 .17464192 .27734376 .1772461 .27539063 C .17985027 .27376304 .18115235 .27164714 .18115235 .26904298 C .18115235 .2664388 .1805013 .26334635 .17919922 .25976563 L .12158203 .12646485 Z "/>
</symbol>
<symbol id="font_2_102">
<path d="M .39794923 .026367188 C .39794923 .021809897 .39632163 .018229166 .3930664 .015625 C .3898112 .013020833 .38460288 .011230469 .3774414 .010253906 C .37060548 .008951823 .36035157 .008300781 .3466797 .008300781 C .33203126 .008300781 .32128907 .008951823 .31445313 .010253906 C .30794273 .011230469 .30322267 .013020833 .30029298 .015625 C .2976888 .018229166 .29638673 .021809897 .29638673 .026367188 L .29638673 .061035158 C .27848307 .041829427 .25797526 .026855469 .23486328 .016113282 C .21207683 .0053710939 .1866862 0 .1586914 0 C .13557942 0 .11425781 .003092448 .09472656 .009277344 C .075520839 .015136719 .05875651 .023925782 .044433595 .03564453 C .030436198 .0476888 .01953125 .0625 .01171875 .080078128 C .00390625 .09765625 0 .11816406 0 .14160156 C 0 .16699219 .0048828127 .18896485 .0146484379 .20751953 C .024739584 .22639974 .03955078 .24186199 .05908203 .25390626 C .078938808 .26627604 .103515628 .27539063 .1328125 .28125 C .16210938 .28710938 .1961263 .29003907 .23486328 .29003907 L .27734376 .29003907 L .27734376 .31640626 C .27734376 .33007813 .2758789 .34195964 .27294923 .35205079 C .27034507 .36246745 .26578776 .37109376 .25927735 .3779297 C .25309245 .38476563 .2446289 .3898112 .23388672 .3930664 C .22347005 .39632163 .21044922 .39794923 .19482422 .39794923 C .1743164 .39794923 .15592449 .39567057 .13964844 .39111329 C .123697917 .386556 .10953776 .3815104 .09716797 .37597657 C .08479818 .37044273 .07438151 .36539714 .06591797 .36083985 C .05777995 .35628257 .05110677 .3540039 .045898439 .3540039 C .042317708 .3540039 .0390625 .35514323 .036132814 .35742188 C .033528646 .35970054 .03125 .36295573 .029296875 .3671875 C .027669272 .37141929 .026367188 .3766276 .025390625 .3828125 C .024414063 .3889974 .023925782 .39583335 .023925782 .4033203 C .023925782 .41341148 .024739584 .42138673 .026367188 .4272461 C .027994791 .43310548 .03108724 .4383138 .03564453 .4428711 C .040201826 .4477539 .048177083 .45296226 .059570314 .4584961 C .07096354 .46435548 .0843099 .46972657 .099609378 .47460938 C .11490885 .4794922 .13151042 .48339845 .14941406 .48632813 C .16764324 .48958335 .18636067 .49121095 .2055664 .49121095 C .2397461 .49121095 .26888023 .48779298 .29296876 .48095704 C .3173828 .47444663 .33740235 .46419273 .35302735 .4501953 C .36865235 .43652345 .38004557 .41878257 .38720704 .39697267 C .3943685 .37516276 .39794923 .34928385 .39794923 .31933595 L .39794923 .026367188 M .27734376 .21289063 L .23046875 .21289063 C .21061199 .21289063 .19368489 .21142578 .1796875 .2084961 C .16569011 .2055664 .15429688 .20117188 .14550781 .1953125 C .13671875 .18945313 .13020833 .18229167 .12597656 .17382813 C .12207031 .16569011 .12011719 .15625 .12011719 .14550781 C .12011719 .12727864 .1258138 .11295573 .13720703 .10253906 C .14892578 .0921224 .16503906 .08691406 .18554688 .08691406 C .20279949 .08691406 .21858724 .091308597 .23291016 .100097659 C .2475586 .10888672 .26236979 .12174479 .27734376 .13867188 L .27734376 .21289063 Z "/>
</symbol>
<symbol id="font_2_10f">
<path d="M .43847657 .25146485 C .43847657 .21272786 .43424479 .17789714 .42578126 .14697266 C .41731773 .11604818 .4051107 .08968099 .38916017 .067871097 C .37320964 .0460612 .35351563 .029296875 .33007813 .017578125 C .30696617 .005859375 .28059898 0 .25097657 0 C .23632813 0 .22265625 .0014648438 .20996094 .0043945314 C .19726563 .0069986979 .1850586 .0113932299 .17333985 .017578125 C .16194661 .023763022 .15055339 .03157552 .13916016 .041015626 C .12809246 .05045573 .11669922 .061848958 .10498047 .07519531 L .10498047 .027832032 C .10498047 .024251303 .104003909 .021158854 .10205078 .018554688 C .10042318 .016276041 .09749349 .014322917 .09326172 .0126953129 C .08935547 .011067708 .083984378 .009928386 .07714844 .009277344 C .0703125 .008626302 .06201172 .008300781 .052246095 .008300781 C .04215495 .008300781 .033691408 .008626302 .026855469 .009277344 C .020345053 .009928386 .014973958 .011067708 .0107421879 .0126953129 C .0068359377 .014322917 .0040690104 .016276041 .0024414063 .018554688 C .00081380209 .021158854 0 .024251303 0 .027832032 L 0 .6699219 C 0 .67317709 .0009765625 .67610678 .0029296876 .67871096 C .0048828127 .6813151 .0081380209 .68343099 .0126953129 .6850586 C .017578125 .6870117 .023925782 .68847659 .03173828 .6894531 C .03955078 .6904297 .049479169 .69091799 .061523439 .69091799 C .07356771 .69091799 .083496097 .6904297 .091308597 .6894531 C .099121097 .68847659 .10530599 .6870117 .10986328 .6850586 C .114746097 .68343099 .11816406 .6813151 .12011719 .67871096 C .12207031 .67610678 .123046878 .67317709 .123046878 .6699219 L .123046878 .42919923 C .13411458 .44026695 .1451823 .44970704 .15625 .45751954 C .1673177 .46533204 .17838542 .4716797 .18945313 .4765625 C .20052083 .48177085 .21191406 .4855143 .22363281 .48779298 C .23535156 .49007163 .24772136 .49121095 .2607422 .49121095 C .29296876 .49121095 .3203125 .48470054 .34277345 .4716797 C .36523438 .45898438 .38346354 .44173179 .39746095 .41992188 C .41178385 .39811198 .42220054 .3725586 .42871095 .34326173 C .43522135 .31429038 .43847657 .2836914 .43847657 .25146485 M .31103517 .24267578 C .31103517 .26123048 .3095703 .27913413 .30664063 .29638673 C .30403648 .3136393 .2993164 .3289388 .29248048 .34228517 C .28564454 .3556315 .27669273 .36621095 .265625 .37402345 C .2548828 .38216148 .24121094 .38623048 .22460938 .38623048 C .21647136 .38623048 .2084961 .38509117 .2006836 .3828125 C .1928711 .38053385 .18473308 .3766276 .17626953 .37109376 C .16813152 .3655599 .15966797 .35839845 .1508789 .34960938 C .14208985 .3408203 .1328125 .32991538 .123046878 .31689454 L .123046878 .17236328 C .14029949 .15022786 .15673828 .13330078 .17236328 .12158203 C .1883138 .110188808 .20491536 .10449219 .22216797 .10449219 C .23811849 .10449219 .2516276 .108561199 .2626953 .11669922 C .27376304 .12483724 .2828776 .13541667 .29003907 .1484375 C .29752604 .16145833 .30289714 .17626953 .30615235 .1928711 C .30940757 .20947266 .31103517 .22607422 .31103517 .24267578 Z "/>
</symbol>
<symbol id="font_2_35f">
<path d="M .37304688 .22949219 C .37304688 .21712239 .37239585 .20572917 .37109376 .1953125 C .3701172 .18489583 .3683268 .17496746 .36572267 .16552735 C .3631185 .15608724 .35970054 .14697266 .35546876 .1381836 C .35123698 .12939453 .34586589 .12044271 .33935548 .111328128 L .27685548 .018066407 C .2745768 .014811198 .2721354 .0120442709 .26953126 .009765625 C .2672526 .007486979 .26416017 .005533854 .2602539 .00390625 C .2566732 .0026041668 .25227867 .0016276041 .24707031 .0009765625 C .24186199 .00032552085 .23551433 0 .22802735 0 C .2195638 0 .21272786 .00032552085 .20751953 .0009765625 C .2023112 .0016276041 .19840496 .002766927 .19580078 .0043945314 C .19352214 .0063476564 .19222005 .008626302 .19189453 .011230469 C .19189453 .013834636 .19254558 .017089844 .19384766 .020996094 L .25146485 .1538086 L .25146485 .22949219 C .25146485 .24055989 .25260417 .24934896 .2548828 .25585938 C .25748698 .2626953 .26123048 .26790367 .26611329 .27148438 C .2709961 .2750651 .27734376 .27734376 .28515626 .2783203 C .29329429 .2796224 .30273438 .28027345 .31347657 .28027345 C .32421876 .28027345 .33333335 .2796224 .3408203 .2783203 C .34830729 .27734376 .35432945 .2750651 .35888673 .27148438 C .36376954 .26790367 .36735026 .2626953 .3696289 .25585938 C .37190757 .24934896 .37304688 .24055989 .37304688 .22949219 M .18164063 .22949219 C .18164063 .21712239 .18098958 .20572917 .1796875 .1953125 C .17871094 .18489583 .17692058 .17496746 .1743164 .16552735 C .17171224 .15608724 .16813152 .14697266 .16357422 .1381836 C .15934246 .12939453 .15413411 .12044271 .14794922 .111328128 L .08496094 .018066407 C .08300781 .014811198 .080729167 .0120442709 .078125 .009765625 C .075520839 .007486979 .072265628 .005533854 .068359378 .00390625 C .06477865 .0026041668 .060384115 .0016276041 .05517578 .0009765625 C .05029297 .00032552085 .044108076 0 .036621095 0 C .028157553 0 .021158854 .00032552085 .015625 .0009765625 C .010416667 .0016276041 .0065104167 .002766927 .00390625 .0043945314 C .0016276041 .0063476564 .00032552085 .008626302 0 .011230469 C 0 .013834636 .00081380209 .017089844 .0024414063 .020996094 L .060058595 .1538086 L .060058595 .22949219 C .060058595 .24055989 .061197919 .24934896 .06347656 .25585938 C .06575521 .2626953 .06933594 .26790367 .07421875 .27148438 C .079427089 .2750651 .0859375 .27734376 .09375 .2783203 C .10188802 .2796224 .111328128 .28027345 .12207031 .28027345 C .1328125 .28027345 .14192708 .2796224 .14941406 .2783203 C .15690105 .27734376 .16292317 .2750651 .16748047 .27148438 C .17236328 .26790367 .17594402 .2626953 .17822266 .25585938 C .1805013 .24934896 .18164063 .24055989 .18164063 .22949219 Z "/>
</symbol>
<use xlink:href="#font_2_35e" transform="matrix(12,0,0,-12,31.751832,42.268556)"/>
<use xlink:href="#font_2_102" transform="matrix(12,0,0,-12,36.501924,47.243165)"/>
<use xlink:href="#font_2_10f" transform="matrix(12,0,0,-12,42.704195,47.243165)"/>
<use xlink:href="#font_2_35f" transform="matrix(12,0,0,-12,48.604127,42.268556)"/>
<symbol id="font_2_359">
<path d="M .13769531 .07470703 C .13769531 .045084638 .13264974 .025227866 .122558597 .015136719 C .112467449 .0050455729 .09440104 0 .068359378 0 C .04264323 0 .024739584 .0048828127 .0146484379 .0146484379 C .0048828127 .024739584 0 .043945314 0 .072265628 C 0 .10188802 .0050455729 .12174479 .015136719 .13183594 C .025227866 .14192708 .04329427 .14697266 .06933594 .14697266 C .095052089 .14697266 .11279297 .14192708 .122558597 .13183594 C .13264974 .12207031 .13769531 .103027347 .13769531 .07470703 M .3642578 .07470703 C .3642578 .045084638 .35904948 .025227866 .3486328 .015136719 C .33854167 .0050455729 .32063804 0 .29492188 0 C .26888023 0 .2508138 .0048828127 .24072266 .0146484379 C .23095703 .024739584 .22607422 .043945314 .22607422 .072265628 C .22607422 .10188802 .2311198 .12174479 .24121094 .13183594 C .2513021 .14192708 .2693685 .14697266 .29541017 .14697266 C .3211263 .14697266 .33902995 .14192708 .3491211 .13183594 C .35921226 .12207031 .3642578 .103027347 .3642578 .07470703 M .59033206 .07470703 C .59033206 .045084638 .58528646 .025227866 .5751953 .015136719 C .5651042 .0050455729 .5470378 0 .5209961 0 C .49527995 0 .4773763 .0048828127 .46728517 .0146484379 C .45751954 .024739584 .45263673 .043945314 .45263673 .072265628 C .45263673 .10188802 .45768229 .12174479 .46777345 .13183594 C .4778646 .14192708 .49576823 .14697266 .5214844 .14697266 C .54752609 .14697266 .5654297 .14192708 .5751953 .13183594 C .58528646 .12207031 .59033206 .103027347 .59033206 .07470703 Z "/>
</symbol>
<use xlink:href="#font_2_359" transform="matrix(6.96,0,0,-6.96,78.50411,42.46916)"/>
<symbol id="font_2_5e">
<path d="M .41259767 .2006836 C .41259767 .16748047 .40641276 .13834636 .39404298 .11328125 C .3816732 .08821615 .36490885 .067220058 .34375 .05029297 C .32259117 .033691408 .29785157 .021158854 .26953126 .0126953129 C .24121094 .004231771 .2109375 0 .17871094 0 C .15690105 0 .13655599 .0017903646 .11767578 .0053710939 C .099121097 .008951823 .08268229 .013183594 .068359378 .018066407 C .054036458 .02327474 .041992189 .028645834 .032226564 .034179689 C .022786459 .039713544 .015950522 .044596357 .01171875 .048828126 C .007486979 .053059896 .0043945314 .05908203 .0024414063 .06689453 C .00081380209 .075032558 0 .08658854 0 .1015625 C 0 .11165365 .00032552085 .12011719 .0009765625 .12695313 C .0016276041 .13378906 .0026041668 .13932292 .00390625 .14355469 C .005533854 .14778646 .007486979 .15071614 .009765625 .15234375 C .012369792 .15429688 .0152994799 .15527344 .018554688 .15527344 C .023111979 .15527344 .029459635 .15250652 .037597658 .14697266 C .0460612 .14176433 .056803388 .13590496 .06982422 .12939453 C .082845058 .12288412 .09830729 .11686198 .11621094 .111328128 C .13444011 .10611979 .1554362 .103515628 .17919922 .103515628 C .19482422 .103515628 .20882161 .10530599 .2211914 .10888672 C .2335612 .11279297 .24397786 .11816406 .2524414 .125 C .26123048 .13183594 .26790367 .14029949 .27246095 .15039063 C .27701823 .16048177 .27929688 .17171224 .27929688 .18408203 C .27929688 .19840496 .27539063 .21061199 .26757813 .22070313 C .25976563 .2311198 .24951172 .24023438 .2368164 .24804688 C .22444661 .2561849 .21028646 .26367188 .19433594 .2705078 C .17838542 .27766929 .16194661 .28515626 .14501953 .29296876 C .12809246 .30078126 .11165365 .3095703 .095703128 .31933595 C .0797526 .3294271 .06542969 .3413086 .052734376 .35498048 C .040364583 .36897788 .030273438 .38541667 .022460938 .40429688 C .0146484379 .4231771 .0107421879 .44580079 .0107421879 .47216798 C .0107421879 .5024414 .016276041 .5289714 .02734375 .5517578 C .03873698 .5748698 .0538737 .5939128 .072753909 .6088867 C .09195963 .6241862 .11442057 .6355794 .14013672 .6430664 C .16617839 .6505534 .19368489 .6542969 .22265625 .6542969 C .2376302 .6542969 .25260417 .65315756 .26757813 .6508789 C .2825521 .6486003 .29654948 .6455078 .3095703 .64160159 C .32259117 .6376953 .33414714 .6333008 .34423829 .62841799 C .35432945 .62353518 .3610026 .6194661 .3642578 .61621096 C .36751304 .61295577 .3696289 .6101888 .37060548 .60791018 C .37190757 .60563156 .37288413 .60253909 .37353517 .5986328 C .37451173 .59505209 .37516276 .59033206 .37548829 .58447268 C .3758138 .5789388 .37597657 .5719401 .37597657 .56347659 C .37597657 .55403646 .37565104 .5460612 .375 .5395508 C .37467448 .53304037 .3738607 .52766928 .3725586 .5234375 C .37158204 .51920577 .36995445 .5161133 .36767579 .51416018 C .36572267 .51220706 .36295573 .51123049 .359375 .51123049 C .35579429 .51123049 .35009767 .5135091 .34228517 .5180664 C .33447267 .5226237 .32486979 .52750656 .31347657 .53271487 C .30208335 .5382487 .28889976 .54313156 .27392579 .5473633 C .2589518 .5519206 .24251302 .5541992 .22460938 .5541992 C .21061199 .5541992 .19840496 .5524089 .18798828 .5488281 C .17757161 .54557296 .16878255 .54085287 .1616211 .53466799 C .15478516 .5288086 .14957683 .52164718 .1459961 .5131836 C .14274089 .50472006 .14111328 .49576823 .14111328 .48632813 C .14111328 .47233073 .14485677 .4601237 .15234375 .44970704 C .16015625 .43961589 .17041016 .4305013 .18310547 .42236329 C .1961263 .41455079 .21077474 .4070638 .22705078 .39990235 C .24332683 .3930664 .25992839 .3857422 .27685548 .3779297 C .29378257 .3701172 .31038413 .36116538 .32666017 .35107423 C .3429362 .3413086 .35742188 .3294271 .3701172 .3154297 C .3828125 .3017578 .3930664 .28548179 .4008789 .26660157 C .4086914 .24804688 .41259767 .22607422 .41259767 .2006836 Z "/>
</symbol>
<symbol id="font_2_189">
<path d="M .43847657 .41796876 C .43847657 .37923179 .43424479 .34423829 .42578126 .31298829 C .41764323 .2820638 .40559898 .25569663 .38964845 .23388672 C .3736979 .21207683 .35384117 .1953125 .33007813 .18359375 C .3063151 .171875 .27913413 .16601563 .24853516 .16601563 C .23583985 .16601563 .2241211 .1673177 .2133789 .16992188 C .20296224 .17220052 .19270833 .17578125 .18261719 .18066406 C .17285156 .18587239 .16308594 .19222005 .15332031 .19970703 C .14355469 .20719402 .13346355 .21598308 .123046878 .22607422 L .123046878 .020996094 C .123046878 .017740885 .12207031 .014811198 .12011719 .012207031 C .11816406 .009602864 .114746097 .007486979 .10986328 .005859375 C .10530599 .00390625 .099121097 .0024414063 .091308597 .0014648438 C .083496097 .00048828127 .07356771 0 .061523439 0 C .049479169 0 .03955078 .00048828127 .03173828 .0014648438 C .023925782 .0024414063 .017578125 .00390625 .0126953129 .005859375 C .0081380209 .007486979 .0048828127 .009602864 .0029296876 .012207031 C .0009765625 .014811198 0 .017740885 0 .020996094 L 0 .62939456 C 0 .6326497 .00081380209 .6354167 .0024414063 .6376953 C .0040690104 .6402995 .0068359377 .64241537 .0107421879 .64404299 C .014973958 .6456706 .020345053 .6468099 .026855469 .64746096 C .033691408 .6484375 .04215495 .6489258 .052246095 .6489258 C .06201172 .6489258 .07014974 .6484375 .076660159 .64746096 C .083496097 .6468099 .08886719 .6456706 .09277344 .64404299 C .09700521 .64241537 .0999349 .6402995 .1015625 .6376953 C .1031901 .6354167 .104003909 .6326497 .104003909 .62939456 L .104003909 .578125 C .11669922 .5911458 .12906902 .60253909 .14111328 .6123047 C .15348308 .6223958 .16601563 .6306966 .17871094 .63720706 C .19140625 .64404299 .20442708 .64908859 .21777344 .65234377 C .23144531 .65559896 .24593099 .65722659 .26123048 .65722659 C .2931315 .65722659 .3203125 .6508789 .34277345 .6381836 C .36523438 .6258138 .38346354 .60872396 .39746095 .58691409 C .41178385 .5651042 .42220054 .53971359 .42871095 .5107422 C .43522135 .48177085 .43847657 .45084635 .43847657 .41796876 M .31054688 .4091797 C .31054688 .42773438 .30908204 .44547526 .30615235 .46240235 C .3035482 .47965495 .29882813 .49495445 .2919922 .5083008 C .28548179 .52164718 .27669273 .53222659 .265625 .54003909 C .2548828 .54817709 .2413737 .5522461 .22509766 .5522461 C .21695964 .5522461 .20882161 .55094406 .2006836 .54833987 C .1928711 .5460612 .18473308 .54215499 .17626953 .5366211 C .16813152 .5310872 .15966797 .5239258 .1508789 .5151367 C .14208985 .50634768 .1328125 .49544273 .123046878 .48242188 L .123046878 .3388672 C .14029949 .31705729 .15673828 .30013023 .17236328 .28808595 C .18798828 .2763672 .20426433 .2705078 .2211914 .2705078 C .23714192 .2705078 .25065104 .2745768 .26171876 .28271485 C .27311198 .29085288 .2823893 .30143229 .28955079 .31445313 C .29671226 .32779948 .30192057 .34277345 .30517579 .359375 C .3087565 .37597657 .31054688 .39257813 .31054688 .4091797 Z "/>
</symbol>
<symbol id="font_2_175">
<path d="M .6928711 .01953125 C .6928711 .016276041 .69189456 .0133463549 .6899414 .0107421879 C .6879883 .008463542 .6847331 .0065104167 .6801758 .0048828127 C .67561849 .0032552083 .6694336 .0021158856 .6616211 .0014648438 C .6538086 .00048828127 .6438802 0 .63183596 0 C .6194661 0 .609375 .00048828127 .6015625 .0014648438 C .59375 .0021158856 .58740237 .0032552083 .58251956 .0048828127 C .5779622 .0065104167 .57470706 .008463542 .5727539 .0107421879 C .5711263 .0133463549 .5703125 .016276041 .5703125 .01953125 L .5703125 .27783204 C .5703125 .29248048 .56884768 .3058268 .56591799 .3178711 C .5633138 .32991538 .55908206 .34016929 .55322268 .3486328 C .5476888 .35742188 .54052737 .36409507 .5317383 .36865235 C .5232747 .37353517 .5130208 .37597657 .50097659 .37597657 C .48632813 .37597657 .47151695 .37027995 .45654298 .35888673 C .441569 .3474935 .42529298 .33089195 .40771485 .30908204 L .40771485 .01953125 C .40771485 .016276041 .40673829 .0133463549 .40478517 .0107421879 C .40283204 .008463542 .39941407 .0065104167 .39453126 .0048828127 C .38997398 .0032552083 .38378907 .0021158856 .37597657 .0014648438 C .36816407 .00048828127 .35839845 0 .3466797 0 C .3346354 0 .32470704 .00048828127 .31689454 .0014648438 C .30908204 .0021158856 .30273438 .0032552083 .29785157 .0048828127 C .29329429 .0065104167 .29003907 .008463542 .28808595 .0107421879 C .2861328 .0133463549 .28515626 .016276041 .28515626 .01953125 L .28515626 .27783204 C .28515626 .29248048 .2836914 .3058268 .28076173 .3178711 C .27815757 .32991538 .27408854 .34016929 .2685547 .3486328 C .26302085 .35742188 .25585938 .36409507 .24707031 .36865235 C .23828125 .37353517 .22802735 .37597657 .2163086 .37597657 C .20133464 .37597657 .18636067 .37027995 .17138672 .35888673 C .15641277 .3474935 .14029949 .33089195 .123046878 .30908204 L .123046878 .01953125 C .123046878 .016276041 .12207031 .0133463549 .12011719 .0107421879 C .11816406 .008463542 .114746097 .0065104167 .10986328 .0048828127 C .10530599 .0032552083 .099121097 .0021158856 .091308597 .0014648438 C .083496097 .00048828127 .07356771 0 .061523439 0 C .049479169 0 .03955078 .00048828127 .03173828 .0014648438 C .023925782 .0021158856 .017578125 .0032552083 .0126953129 .0048828127 C .0081380209 .0065104167 .0048828127 .008463542 .0029296876 .0107421879 C .0009765625 .0133463549 0 .016276041 0 .01953125 L 0 .45507813 C 0 .45833335 .00081380209 .46110026 .0024414063 .4633789 C .0040690104 .46598307 .0069986979 .46809898 .011230469 .46972657 C .015462239 .47135417 .020833334 .4724935 .02734375 .47314454 C .034179689 .4741211 .04264323 .47460938 .052734376 .47460938 C .06315104 .47460938 .071777347 .4741211 .07861328 .47314454 C .08544922 .4724935 .090657558 .47135417 .09423828 .46972657 C .09814453 .46809898 .10091146 .46598307 .10253906 .4633789 C .104166667 .46110026 .10498047 .45833335 .10498047 .45507813 L .10498047 .40478517 C .12906902 .4308268 .1529948 .45035807 .17675781 .4633789 C .20084636 .47639976 .22591146 .48291017 .25195313 .48291017 C .26985679 .48291017 .28597007 .48095704 .30029298 .47705079 C .31461589 .47347007 .3273112 .46809898 .3383789 .4609375 C .34977214 .45410157 .35953776 .44580079 .36767579 .43603517 C .3758138 .42626954 .38264976 .4153646 .3881836 .4033203 C .40120445 .41731773 .41389976 .42936198 .42626954 .43945313 C .43896485 .44954429 .45133464 .45768229 .4633789 .4638672 C .4757487 .4703776 .48795573 .47509767 .5 .47802735 C .5123698 .48128257 .52490237 .48291017 .53759768 .48291017 C .56656906 .48291017 .5909831 .47802735 .61083987 .46826173 C .6306966 .4584961 .64664718 .44514976 .6586914 .42822267 C .6710612 .4116211 .6798503 .39208985 .6850586 .3696289 C .6902669 .34716798 .6928711 .32340495 .6928711 .29833985 L .6928711 .01953125 Z "/>
</symbol>
<symbol id="font_2_34d">
<path d="M .36669923 .4897461 C .36669923 .46305339 .36279298 .43896485 .35498048 .41748048 C .3474935 .3959961 .3367513 .3774414 .3227539 .3618164 C .30908204 .3461914 .29248048 .33365885 .27294923 .32421876 C .2537435 .31477867 .23242188 .3087565 .20898438 .30615235 L .20507813 .2109375 C .20475261 .20507813 .20003255 .2006836 .19091797 .1977539 C .1821289 .19482422 .16927083 .19335938 .15234375 .19335938 C .14160156 .19335938 .13248699 .19352214 .125 .19384766 C .11783854 .1944987 .11214193 .19547527 .107910159 .19677735 C .10367838 .19807942 .10058594 .1998698 .09863281 .20214844 C .09667969 .20442708 .09554037 .20735677 .095214847 .2109375 L .09082031 .32617188 C .09049479 .33658854 .09098307 .3450521 .092285159 .3515625 C .09358724 .3580729 .09586588 .36328126 .099121097 .3671875 C .10270182 .37109376 .10709635 .3736979 .11230469 .375 C .11751302 .3766276 .123697917 .3774414 .13085938 .3774414 L .13769531 .3774414 C .15494792 .3774414 .16975911 .38020835 .1821289 .3857422 C .19482422 .39127604 .20524089 .39860026 .2133789 .40771485 C .22151692 .41682945 .2273763 .42757163 .23095703 .4399414 C .23486328 .4523112 .2368164 .46549479 .2368164 .4794922 C .2368164 .4951172 .23453777 .5094401 .22998047 .52246096 C .2257487 .53548178 .21907552 .5467122 .20996094 .55615237 C .20117188 .56559249 .1899414 .5727539 .17626953 .5776367 C .16292317 .58284506 .14713542 .5854492 .12890625 .5854492 C .11230469 .5854492 .09765625 .5838216 .08496094 .5805664 C .072265628 .5773112 .061360677 .57373049 .052246095 .5698242 C .04313151 .56591799 .03548177 .5623372 .029296875 .55908206 C .0234375 .55582687 .018880209 .5541992 .015625 .5541992 C .0133463549 .5541992 .011230469 .5548503 .009277344 .55615237 C .0073242189 .55777999 .0056966149 .5605469 .0043945314 .5644531 C .003092448 .5683594 .001953125 .57389327 .0009765625 .5810547 C .00032552085 .5882161 0 .59733077 0 .60839846 C 0 .6197917 .00048828127 .62809249 .0014648438 .6333008 C .0024414063 .6385091 .0045572917 .6427409 .0078125 .6459961 C .011067708 .6492513 .017252604 .6529948 .026367188 .65722659 C .03548177 .6617839 .04638672 .66585287 .05908203 .6694336 C .071777347 .67333987 .0859375 .67659506 .1015625 .6791992 C .1171875 .6818034 .13346355 .68310549 .15039063 .68310549 C .18880208 .68310549 .22167969 .6777344 .24902344 .6669922 C .2763672 .6565755 .29866538 .64241537 .31591798 .6245117 C .3334961 .6066081 .34635417 .5861003 .3544922 .5629883 C .36263023 .5398763 .36669923 .5154622 .36669923 .4897461 M .22216797 .07128906 C .22216797 .057942708 .22102864 .04671224 .21875 .037597658 C .21679688 .028483073 .21305339 .021158854 .20751953 .015625 C .2023112 .0100911459 .19514974 .006184896 .18603516 .00390625 C .1772461 .0013020834 .16634114 0 .15332031 0 C .13964844 0 .12841797 .0013020834 .119628909 .00390625 C .110839847 .006184896 .10367838 .0100911459 .09814453 .015625 C .092936199 .021158854 .08919271 .028483073 .08691406 .037597658 C .08496094 .04671224 .083984378 .057942708 .083984378 .07128906 C .083984378 .08496094 .08496094 .096354167 .08691406 .10546875 C .08919271 .11490885 .092936199 .122395839 .09814453 .12792969 C .10367838 .13378906 .110839847 .13785808 .119628909 .14013672 C .12841797 .14274089 .13964844 .14404297 .15332031 .14404297 C .16634114 .14404297 .1772461 .14274089 .18603516 .14013672 C .19514974 .13785808 .2023112 .13378906 .20751953 .12792969 C .21305339 .122395839 .21679688 .11490885 .21875 .10546875 C .22102864 .096354167 .22216797 .08496094 .22216797 .07128906 Z "/>
</symbol>
<use xlink:href="#font_2_5e" transform="matrix(12,0,0,-12,102.331058,47.243165)"/>
<use xlink:href="#font_2_189" transform="matrix(12,0,0,-12,108.34018,49.23535)"/>
<use xlink:href="#font_2_102" transform="matrix(12,0,0,-12,114.497928,47.243165)"/>
<use xlink:href="#font_2_175" transform="matrix(12,0,0,-12,120.700199,47.143556)"/>
<use xlink:href="#font_2_34d" transform="matrix(12,0,0,-12,130.35575,47.19629)"/>
<symbol id="font_3_3ec">
<path d="M .43701173 .32666017 C .43701173 .27815757 .43310548 .23388672 .42529298 .19384766 C .417806 .1538086 .4051107 .11930338 .38720704 .09033203 C .3696289 .0616862 .34651695 .03938802 .3178711 .0234375 C .28922526 .0078125 .25390626 0 .21191406 0 C .17220052 0 .13867188 .0069986979 .111328128 .020996094 C .0843099 .03531901 .0625 .056152345 .045898439 .083496097 C .029296875 .11116537 .017415366 .14501953 .010253906 .1850586 C .0034179688 .22542317 0 .27164714 0 .32373048 C 0 .37190757 .00390625 .41601563 .01171875 .4560547 C .01953125 .49641929 .032226564 .5309245 .049804689 .5595703 C .06738281 .5885417 .09049479 .61083987 .119140628 .62646487 C .14778646 .64241537 .1829427 .6503906 .22460938 .6503906 C .26464845 .6503906 .2981771 .6432292 .3251953 .62890627 C .35253907 .6149089 .37451173 .5940755 .39111329 .56640627 C .40771485 .5390625 .4194336 .5052083 .42626954 .46484376 C .433431 .4248047 .43701173 .3787435 .43701173 .32666017 M .35107423 .32080079 C .35107423 .3523763 .3499349 .38069663 .34765626 .40576173 C .3453776 .4308268 .34195964 .45296226 .33740235 .47216798 C .33317057 .4913737 .32747398 .5078125 .3203125 .5214844 C .31347657 .53548178 .30517579 .546875 .29541017 .55566409 C .28564454 .5647786 .27441407 .57128909 .26171876 .5751953 C .24934896 .57942709 .23535156 .58154299 .21972656 .58154299 C .1920573 .58154299 .16959636 .57503256 .15234375 .5620117 C .13509114 .5489909 .12141927 .5310872 .111328128 .5083008 C .1015625 .4855143 .09488932 .45882163 .091308597 .42822267 C .08772787 .3976237 .0859375 .3647461 .0859375 .32958985 C .0859375 .2823893 .088378909 .2421875 .09326172 .20898438 C .09814453 .17610677 .10579427 .1492513 .11621094 .12841797 C .12695313 .10758463 .14046224 .092447917 .15673828 .08300781 C .17333985 .07356771 .19335938 .068847659 .21679688 .068847659 C .23502605 .068847659 .25097657 .071777347 .26464845 .07763672 C .27864585 .083496097 .29052735 .091796878 .30029298 .10253906 C .31038413 .11360677 .3186849 .12679036 .3251953 .14208985 C .33170573 .15738933 .33691407 .1743164 .3408203 .1928711 C .34472657 .21142578 .34733073 .23144531 .3486328 .2529297 C .3502604 .2747396 .35107423 .29736329 .35107423 .32080079 Z "/>
</symbol>
<symbol id="font_3_359">
<path d="M .103027347 .057128908 C .103027347 .03434245 .099121097 .019042969 .091308597 .011230469 C .08382162 .0037434896 .0703125 0 .05078125 0 C .031901044 0 .018717448 .0037434896 .011230469 .011230469 C .0037434896 .018717448 0 .033528646 0 .055664064 C 0 .07845052 .0037434896 .09358724 .011230469 .10107422 C .019042969 .10888672 .032714845 .11279297 .052246095 .11279297 C .071126308 .11279297 .0843099 .10904948 .091796878 .1015625 C .09928385 .09407552 .103027347 .07926432 .103027347 .057128908 M .3232422 .057128908 C .3232422 .03434245 .3194987 .019042969 .31201173 .011230469 C .30452476 .0037434896 .29101563 0 .27148438 0 C .25260417 0 .23942058 .0037434896 .2319336 .011230469 C .22444661 .018717448 .22070313 .033528646 .22070313 .055664064 C .22070313 .07845052 .22444661 .09358724 .2319336 .10107422 C .2397461 .10888672 .25325523 .11279297 .27246095 .11279297 C .29166667 .11279297 .30485026 .10904948 .31201173 .1015625 C .3194987 .09407552 .3232422 .07926432 .3232422 .057128908 M .5439453 .057128908 C .5439453 .03434245 .54003909 .019042969 .53222659 .011230469 C .52473959 .0037434896 .51123049 0 .49169923 0 C .472819 0 .4596354 .0037434896 .45214845 .011230469 C .44466148 .018717448 .44091798 .033528646 .44091798 .055664064 C .44091798 .07845052 .44466148 .09358724 .45214845 .10107422 C .45996095 .10888672 .4736328 .11279297 .49316407 .11279297 C .51204428 .11279297 .52522787 .10904948 .53271487 .1015625 C .54020187 .09407552 .5439453 .07926432 .5439453 .057128908 Z "/>
</symbol>
<symbol id="font_3_3ed">
<path d="M .36767579 .033203126 C .36767579 .027018229 .3671875 .021809897 .36621095 .017578125 C .36523438 .0133463549 .36393229 .009928386 .3623047 .0073242189 C .3606771 .0047200524 .35872398 .002766927 .3564453 .0014648438 C .3544922 .00048828127 .3523763 0 .35009767 0 L .020019532 0 C .017740885 0 .015625 .00048828127 .013671875 .0014648438 C .01171875 .002766927 .009765625 .0047200524 .0078125 .0073242189 C .006184896 .009928386 .0048828127 .0133463549 .00390625 .017578125 C .0029296876 .021809897 .0024414063 .027018229 .0024414063 .033203126 C .0024414063 .0390625 .0029296876 .044108076 .00390625 .048339845 C .0048828127 .052571615 .0060221354 .055989583 .0073242189 .05859375 C .008951823 .061523439 .0107421879 .06363932 .0126953129 .064941409 C .014973958 .06656901 .017415366 .06738281 .020019532 .06738281 L .15185547 .06738281 L .15185547 .54785159 L .029785157 .47509767 C .02360026 .47184245 .018554688 .4698893 .0146484379 .46923829 C .011067708 .46858726 .0081380209 .46923829 .005859375 .4711914 C .0035807293 .47347007 .001953125 .47705079 .0009765625 .4819336 C .00032552085 .4868164 0 .4930013 0 .5004883 C 0 .50602218 .00016276042 .5107422 .00048828127 .51464846 C .0011393229 .5185547 .001953125 .5218099 .0029296876 .52441409 C .00390625 .52701827 .0052083337 .5292969 .0068359377 .53125 C .0087890629 .5332031 .011230469 .53515627 .014160156 .5371094 L .15966797 .6303711 C .16097005 .63134768 .16259766 .63216146 .16455078 .6328125 C .1665039 .63346359 .16894531 .63411459 .171875 .6347656 C .17480469 .6354167 .17822266 .6357422 .1821289 .6357422 C .18603516 .6360677 .19091797 .63623049 .19677735 .63623049 C .20458985 .63623049 .21110027 .63590499 .2163086 .6352539 C .22151692 .63460287 .22558594 .6336263 .22851563 .6323242 C .23144531 .63134768 .23339844 .6298828 .234375 .6279297 C .23535156 .62630209 .23583985 .6245117 .23583985 .6225586 L .23583985 .06738281 L .35009767 .06738281 C .3527018 .06738281 .35514323 .06656901 .35742188 .064941409 C .35970054 .06363932 .36149089 .061523439 .36279298 .05859375 C .36442057 .055989583 .3655599 .052571615 .36621095 .048339845 C .3671875 .044108076 .36767579 .0390625 .36767579 .033203126 Z "/>
</symbol>
<use xlink:href="#font_3_3ec" transform="matrix(11.04,0,0,-11.04,40.073919,63.11501)"/>
<use xlink:href="#font_3_359" transform="matrix(11.04,0,0,-11.04,77.4563,63.061105)"/>
<use xlink:href="#font_3_3ec" transform="matrix(11.04,0,0,-11.04,116.15054,63.11501)"/>
<use xlink:href="#font_3_3ed" transform="matrix(11.04,0,0,-11.04,40.62376,78.18155)"/>
<use xlink:href="#font_3_359" transform="matrix(11.04,0,0,-11.04,77.4563,78.230068)"/>
<use xlink:href="#font_3_3ed" transform="matrix(11.04,0,0,-11.04,116.700389,78.18155)"/>
<g id="Layer-1" data-name="Figure">
<path transform="matrix(1,0,0,-1,157.54901,67.17799)" d="M 0 0 L 54 0 L 54 7.8 L 69.6 -7.8 L 54 -23.4 L 54 -15.6 L 0 -15.6 Z " fill="#f9f9fa" fill-rule="evenodd"/>
<path transform="matrix(1,0,0,-1,157.54901,67.17799)" stroke-width=".96" stroke-linecap="butt" stroke-miterlimit="8" stroke-linejoin="miter" fill="none" stroke="#000000" d="M 0 0 L 54 0 L 54 7.8 L 69.6 -7.8 L 54 -23.4 L 54 -15.6 L 0 -15.6 L 0 0 Z "/>
</g>
<g id="Layer-1" data-name="P">
</g>
<g id="Layer-1" data-name="P">
</g>
<symbol id="font_1_53">
<path d="M 0 0 L 0 .71728518 L .080078128 .71728518 L .080078128 .64990237 C .098958339 .67626956 .120279949 .69596359 .14404297 .7089844 C .16780599 .72233077 .19661458 .7290039 .23046875 .7290039 C .2747396 .7290039 .3138021 .71761068 .34765626 .6948242 C .3815104 .6720378 .4070638 .6398112 .4243164 .59814456 C .441569 .5568034 .4501953 .51139327 .4501953 .46191407 C .4501953 .40885417 .44059245 .3610026 .42138673 .31835938 C .4025065 .27604167 .37483726 .24348958 .3383789 .22070313 C .3022461 .19824219 .26416017 .18701172 .2241211 .18701172 C .19482422 .18701172 .16845703 .19319661 .14501953 .2055664 C .121907558 .2179362 .102864589 .2335612 .087890628 .2524414 L .087890628 0 L 0 0 M .079589847 .45507813 C .079589847 .38834635 .09309896 .33902995 .12011719 .3071289 C .14713542 .27522788 .17985027 .25927735 .21826172 .25927735 C .25732423 .25927735 .2906901 .27571617 .31835938 .30859376 C .34635417 .34179688 .36035157 .3930664 .36035157 .46240235 C .36035157 .5284831 .3466797 .5779622 .31933595 .61083987 C .29231773 .64371749 .25992839 .66015627 .22216797 .66015627 C .18473308 .66015627 .15152996 .6425781 .122558597 .6074219 C .09391276 .5725911 .079589847 .5218099 .079589847 .45507813 Z "/>
</symbol>
<symbol id="font_1_50">
<path d="M 0 0 L 0 .5185547 L .07861328 .5185547 L .07861328 .44580079 C .09488932 .4711914 .11653646 .49153648 .14355469 .50683596 C .17057292 .52246096 .20133464 .53027346 .23583985 .53027346 C .2742513 .53027346 .30566407 .52229818 .33007813 .50634768 C .35481773 .49039714 .37223307 .46809898 .38232423 .43945313 C .42333985 .5 .47672526 .53027346 .54248049 .53027346 C .5939128 .53027346 .63346359 .5159505 .6611328 .4873047 C .68880209 .45898438 .7026367 .4152018 .7026367 .35595704 L .7026367 0 L .6152344 0 L .6152344 .32666017 C .6152344 .3618164 .6123047 .38704429 .6064453 .40234376 C .60091146 .41796876 .59065756 .4305013 .5756836 .4399414 C .56070968 .4493815 .54313156 .45410157 .5229492 .45410157 C .48649089 .45410157 .45621745 .44189454 .4321289 .41748048 C .40804038 .39339195 .3959961 .35465495 .3959961 .30126954 L .3959961 0 L .30810548 0 L .30810548 .33691407 C .30810548 .37597657 .300944 .40527345 .2866211 .4248047 C .2722982 .44433595 .24886067 .45410157 .2163086 .45410157 C .19156902 .45410157 .1686198 .44759117 .14746094 .4345703 C .12662761 .42154948 .11149088 .4025065 .10205078 .3774414 C .09261068 .3523763 .087890628 .3162435 .087890628 .26904298 L .087890628 0 L 0 0 Z "/>
</symbol>
<symbol id="font_1_48">
<path d="M .38427735 .17871094 L .47509767 .16748047 C .46077476 .11442057 .43424479 .07324219 .3955078 .043945314 C .35677085 .0146484379 .30729167 0 .24707031 0 C .17122396 0 .1110026 .02327474 .06640625 .06982422 C .022135416 .11669922 0 .18229167 0 .26660157 C 0 .35384117 .022460938 .42154948 .06738281 .46972657 C .11230469 .5179036 .17057292 .5419922 .2421875 .5419922 C .31152345 .5419922 .36816407 .5183919 .41210938 .4711914 C .4560547 .42399089 .47802735 .35758464 .47802735 .27197267 C .47802735 .2667643 .4778646 .2589518 .47753907 .24853516 L .09082031 .24853516 C .09407552 .19156902 .110188808 .14794922 .13916016 .11767578 C .16813152 .087402347 .20426433 .072265628 .2475586 .072265628 C .27978517 .072265628 .30729167 .080729167 .33007813 .09765625 C .3528646 .114583339 .370931 .14160156 .38427735 .17871094 M .095703128 .32080079 L .3852539 .32080079 C .38134767 .36442057 .37027995 .3971354 .35205079 .4189453 C .324056 .45279948 .2877604 .46972657 .24316406 .46972657 C .20279949 .46972657 .16878255 .45621745 .14111328 .42919923 C .11376953 .402181 .09863281 .3660482 .095703128 .32080079 Z "/>
</symbol>
<symbol id="font_1_4c">
<path d="M 0 .6147461 L 0 .7158203 L .087890628 .7158203 L .087890628 .6147461 L 0 .6147461 M 0 0 L 0 .5185547 L .087890628 .5185547 L .087890628 0 L 0 0 Z "/>
</symbol>
<symbol id="font_1_4f">
<path d="M 0 0 L 0 .7158203 L .087890628 .7158203 L .087890628 0 L 0 0 Z "/>
</symbol>
<use xlink:href="#font_1_56" transform="matrix(10.56,0,0,-10.56,262.16645,116.24834)"/>
<use xlink:href="#font_1_53" transform="matrix(10.56,0,0,-10.56,267.81773,118.22318)"/>
<use xlink:href="#font_1_44" transform="matrix(10.56,0,0,-10.56,273.38508,116.24834)"/>
<use xlink:href="#font_1_50" transform="matrix(10.56,0,0,-10.56,279.5815,116.12459)"/>
<use xlink:href="#font_1_48" transform="matrix(10.56,0,0,-10.56,322.2936,116.24834)"/>
<use xlink:href="#font_1_50" transform="matrix(10.56,0,0,-10.56,328.4849,116.12459)"/>
<use xlink:href="#font_1_44" transform="matrix(10.56,0,0,-10.56,337.0503,116.24834)"/>
<use xlink:href="#font_1_4c" transform="matrix(10.56,0,0,-10.56,343.2519,116.12459)"/>
<use xlink:href="#font_1_4f" transform="matrix(10.56,0,0,-10.56,345.62638,116.12459)"/>
<g id="Layer-1" data-name="Figure">
<path transform="matrix(1,0,0,-1,309.34904,73.65799)" stroke-width=".48" stroke-linecap="butt" stroke-miterlimit="8" stroke-linejoin="miter" fill="none" stroke="#800000" d="M 0 0 L 23.977 -29.853 "/>
</g>
<g id="Layer-1" data-name="Figure">
<path transform="matrix(1,0,0,-1,280.66899,26.497986)" stroke-width=".48" stroke-linecap="butt" stroke-miterlimit="8" stroke-linejoin="miter" fill="none" stroke="#800000" d="M 0 0 L 23.977 -29.853 "/>
</g>
<g id="Layer-1" data-name="Figure">
<path transform="matrix(1,0,0,-1,-243.491,307.658)" stroke-width=".96" stroke-linecap="butt" stroke-miterlimit="8" stroke-linejoin="miter" fill="none" stroke="#800000" d="M 501.12 298.68 L 535.32 298.68 L 535.32 281.03999 L 501.12 281.03999 Z "/>
</g>
<g id="Layer-1" data-name="P">
</g>
<use xlink:href="#font_1_48" transform="matrix(10.56,0,0,-10.56,263.7412,21.525546)"/>
<use xlink:href="#font_1_50" transform="matrix(10.56,0,0,-10.56,269.93254,21.401795)"/>
<use xlink:href="#font_1_44" transform="matrix(10.56,0,0,-10.56,278.49794,21.525546)"/>
<use xlink:href="#font_1_4c" transform="matrix(10.56,0,0,-10.56,284.69953,21.401795)"/>
<use xlink:href="#font_1_4f" transform="matrix(10.56,0,0,-10.56,287.074,21.401795)"/>
<g id="Layer-1" data-name="Figure">
<path transform="matrix(1,0,0,-1,270.08628,26.497986)" stroke-width=".48" stroke-linecap="butt" stroke-miterlimit="8" stroke-linejoin="miter" fill="none" stroke="#800000" d="M 0 0 L -23.977 -29.853 "/>
</g>
<g id="Layer-1" data-name="Figure">
<path transform="matrix(1,0,0,-1,-243.491,307.658)" d="M 462.96 275.52 L 533.04 275.52 L 533.04 254.87999 L 462.96 254.87999 Z " fill="#f9f9fa" fill-rule="evenodd"/>
</g>
<g id="Layer-1" data-name="P">
</g>
<g id="Layer-1" data-name="Span">
</g>
<g id="Layer-1" data-name="Span">
</g>
<g id="Layer-1" data-name="Span">
</g>
<symbol id="font_4_7021">
<path d="M .13574219 0 L .13574219 .05810547 C .13574219 .08642578 .13802083 .110839847 .14257813 .13134766 C .14713542 .15185547 .15511067 .17203777 .1665039 .19189453 L .20996094 .19189453 C .18587239 .15283203 .17382813 .11507162 .17382813 .07861328 L .20654297 .07861328 L .20654297 0 L .13574219 0 M 0 0 L 0 .05810547 C 0 .08642578 .0022786458 .110677089 .0068359377 .13085938 C .01171875 .15136719 .01969401 .17171224 .030761719 .19189453 L .07421875 .19189453 C .049804689 .15250652 .037597658 .114746097 .037597658 .07861328 L .0703125 .07861328 L .0703125 0 L 0 0 Z "/>
</symbol>
<use xlink:href="#font_4_7021" transform="matrix(10.56,0,0,-10.56,227.46588,40.78795)" fill="#8181ff"/>
<symbol id="font_1_45">
<path d="M .08154297 .01171875 L 0 .01171875 L 0 .72753909 L .087890628 .72753909 L .087890628 .47216798 C .125 .51871749 .17236328 .5419922 .22998047 .5419922 C .2618815 .5419922 .2919922 .53548178 .3203125 .52246096 C .34895835 .5097656 .37239585 .49169923 .390625 .46826173 C .4091797 .44514976 .42366538 .41715495 .43408204 .38427735 C .4444987 .35139976 .44970704 .3162435 .44970704 .2788086 C .44970704 .1899414 .42773438 .12125651 .38378907 .072753909 C .33984376 .024251303 .28710938 0 .22558594 0 C .16438802 0 .116373699 .025553385 .08154297 .076660159 L .08154297 .01171875 M .080566409 .27490235 C .080566409 .21272786 .089029949 .16780599 .10595703 .14013672 C .1336263 .09488932 .1710612 .072265628 .21826172 .072265628 C .2566732 .072265628 .2898763 .08886719 .3178711 .12207031 C .34586589 .15559896 .35986329 .20540364 .35986329 .27148438 C .35986329 .33919273 .34635417 .38916017 .31933595 .42138673 C .29264323 .45361329 .2602539 .46972657 .22216797 .46972657 C .18375652 .46972657 .15055339 .45296226 .122558597 .4194336 C .094563808 .38623048 .080566409 .33805339 .080566409 .27490235 Z "/>
</symbol>
<use xlink:href="#font_1_44" transform="matrix(10.56,0,0,-10.56,230.7963,45.737947)" fill="#8181ff"/>
<use xlink:href="#font_1_45" transform="matrix(10.56,0,0,-10.56,236.9876,45.737947)" fill="#8181ff"/>
<symbol id="font_4_7022">
<path d="M .20996094 .13378906 C .20996094 .10546875 .2076823 .081217449 .203125 .061035158 C .1985677 .040852865 .19059246 .020507813 .17919922 0 L .13623047 0 C .16031902 .040039064 .17236328 .07779948 .17236328 .11328125 L .13964844 .11328125 L .13964844 .19189453 L .20996094 .19189453 L .20996094 .13378906 M .07373047 .13378906 C .07373047 .10514323 .07128906 .080566409 .06640625 .060058595 C .061848958 .0398763 .05419922 .019856772 .04345703 0 L 0 0 C .023763022 .03938802 .03564453 .07714844 .03564453 .11328125 L .0034179688 .11328125 L .0034179688 .19189453 L .07373047 .19189453 L .07373047 .13378906 Z "/>
</symbol>
<use xlink:href="#font_4_7022" transform="matrix(10.56,0,0,-10.56,242.94687,40.78795)" fill="#8181ff"/>
<symbol id="font_5_d50">
<path d="M 0 0 L 0 .07324219 L .53027346 .30322267 L 0 .5332031 L 0 .6064453 L .6035156 .33740235 L .6035156 .26904298 L 0 0 Z "/>
</symbol>
<symbol id="font_5_372">
<path d="M .2084961 0 C .1381836 0 .08577474 .027669272 .05126953 .08300781 C .017089844 .13834636 0 .22233074 0 .33496095 C 0 .39485679 .0052083337 .4466146 .015625 .49023438 C .026367188 .5338542 .041178388 .5698242 .060058595 .59814456 C .07926432 .62679037 .10221354 .6479492 .12890625 .6616211 C .15559896 .67529299 .18473308 .6821289 .2163086 .6821289 C .28759767 .6821289 .34065757 .6546224 .37548829 .5996094 C .410319 .5445964 .42773438 .46142579 .42773438 .35009767 C .42773438 .23486328 .40901695 .1476237 .37158204 .088378909 C .33447267 .029459635 .2801107 0 .2084961 0 M .095214847 .34960938 C .095214847 .24348958 .10498047 .16552735 .12451172 .115722659 C .14436849 .06624349 .17496746 .041503908 .2163086 .041503908 C .25569663 .041503908 .28483073 .06477865 .30371095 .111328128 C .32291667 .15820313 .33251954 .23063152 .33251954 .32861329 C .33251954 .40348307 .32763673 .46402995 .3178711 .5102539 C .30810548 .5568034 .2944336 .59016928 .27685548 .61035159 C .25960288 .6305339 .23860677 .640625 .21386719 .640625 C .19140625 .640625 .17252605 .63395187 .15722656 .62060549 C .14225261 .6072591 .13004558 .5880534 .12060547 .5629883 C .11149088 .53792318 .10498047 .5073242 .10107422 .4711914 C .09716797 .43538413 .095214847 .39485679 .095214847 .34960938 Z "/>
</symbol>
<symbol id="font_5_1e4">
<path d="M .09863281 .11328125 L .09863281 0 L 0 0 L 0 .11328125 L .09863281 .11328125 Z "/>
</symbol>
<symbol id="font_5_37a">
<path d="M .33251954 .35986329 L .3334961 .35351563 C .37027995 .33919273 .39811198 .31819663 .4169922 .29052735 C .4358724 .2631836 .4453125 .23014324 .4453125 .19140625 C .4453125 .15332031 .4361979 .119791667 .41796876 .09082031 C .3997396 .061848958 .37320964 .03938802 .3383789 .0234375 C .3038737 .0078125 .26350913 0 .21728516 0 C .17399089 0 .13590496 .0071614587 .103027347 .021484375 C .07047526 .036132814 .045084638 .057291669 .026855469 .08496094 C .008951823 .11295573 0 .14583333 0 .18359375 C 0 .21191406 .0048828127 .23649089 .0146484379 .25732423 C .024414063 .27815757 .037109376 .2952474 .052734376 .30859376 C .0686849 .32226563 .08870443 .3346354 .11279297 .34570313 L .111816409 .35205079 C .041829427 .38232423 .0068359377 .43424479 .0068359377 .5078125 C .0068359377 .5413411 .015950522 .57128909 .034179689 .59765627 C .052734376 .62402346 .078938808 .64469406 .11279297 .65966799 C .14697266 .6746419 .18473308 .6821289 .22607422 .6821289 C .27294923 .6821289 .31233726 .67545577 .34423829 .6621094 C .3761393 .64908859 .4000651 .6300456 .41601563 .60498049 C .43229167 .5802409 .4404297 .55045577 .4404297 .515625 C .4404297 .47981773 .43164063 .44889323 .4140625 .42285157 C .39648438 .3971354 .36930339 .3761393 .33251954 .35986329 M .09863281 .51220706 C .09863281 .4930013 .10091146 .4749349 .10546875 .4580078 C .11002604 .44108073 .11735026 .42643229 .1274414 .4140625 C .13753255 .40169273 .15055339 .3917643 .1665039 .38427735 C .18277996 .37711589 .20263672 .37353517 .22607422 .37353517 C .25309245 .37353517 .27571617 .3787435 .2939453 .38916017 C .3125 .39990235 .32617188 .4153646 .33496095 .43554688 C .34407554 .4560547 .3486328 .47965495 .3486328 .50634768 C .3486328 .53564456 .34326173 .5603841 .33251954 .5805664 C .32210288 .6010742 .3076172 .61621096 .2890625 .62597659 C .2705078 .6357422 .2491862 .640625 .22509766 .640625 C .18408203 .640625 .15266927 .62939456 .13085938 .6069336 C .109375 .58479818 .09863281 .55322268 .09863281 .51220706 M .09326172 .19189453 C .09326172 .17073567 .095703128 .1508789 .10058594 .13232422 C .10546875 .114095058 .11311849 .09830729 .123535159 .08496094 C .13427735 .071614589 .14794922 .061035158 .16455078 .053222658 C .18115235 .045410158 .20133464 .041503908 .22509766 .041503908 C .25179038 .041503908 .2745768 .046875 .29345704 .057617189 C .31266276 .0686849 .32714845 .08496094 .33691407 .10644531 C .34700523 .12792969 .35205079 .15332031 .35205079 .18261719 C .35205079 .21386719 .3466797 .24072266 .3359375 .2631836 C .3251953 .28597007 .3100586 .30322267 .29052735 .3149414 C .2709961 .3269857 .24837239 .3330078 .22265625 .3330078 C .1985677 .3330078 .17822266 .3292643 .1616211 .32177735 C .14534505 .31429038 .1319987 .30419923 .12158203 .2915039 C .11149088 .2788086 .104166667 .26383464 .099609378 .24658203 C .0953776 .22965496 .09326172 .21142578 .09326172 .19189453 Z "/>
</symbol>
<use xlink:href="#font_5_d50" transform="matrix(10.56,0,0,-10.56,246.66397,45.79982)" fill="#8181ff"/>
<use xlink:href="#font_5_372" transform="matrix(10.56,0,0,-10.56,257.36375,45.696699)" fill="#8181ff"/>
<use xlink:href="#font_5_1e4" transform="matrix(10.56,0,0,-10.56,263.14256,45.614198)" fill="#8181ff"/>
<use xlink:href="#font_5_37a" transform="matrix(10.56,0,0,-10.56,265.31767,45.696699)" fill="#8181ff"/>
<g id="Layer-1" data-name="Figure">
<path transform="matrix(1,0,0,-1,-243.491,307.658)" d="M 520.32 274.8 L 591.72006 274.8 L 591.72006 254.15999 L 520.32 254.15999 Z " fill="#f9f9fa" fill-rule="evenodd"/>
</g>
<g id="Layer-1" data-name="P">
</g>
<g id="Layer-1" data-name="Span">
</g>
<g id="Layer-1" data-name="Span">
</g>
<g id="Layer-1" data-name="Span">
</g>
<use xlink:href="#font_4_7021" transform="matrix(10.56,0,0,-10.56,284.7766,41.465135)" fill="#8181ff"/>
<use xlink:href="#font_1_44" transform="matrix(10.56,0,0,-10.56,288.107,46.41513)" fill="#8181ff"/>
<use xlink:href="#font_1_45" transform="matrix(10.56,0,0,-10.56,294.29829,46.41513)" fill="#8181ff"/>
<use xlink:href="#font_4_7022" transform="matrix(10.56,0,0,-10.56,300.2575,41.465135)" fill="#8181ff"/>
<symbol id="font_6_d51">
<path d="M 0 .37548829 L 0 .44384767 L .6035156 .67871096 L .6035156 .60546877 L .080566409 .40966798 L .6035156 .21386719 L .6035156 .140625 L 0 .37548829 M .001953125 0 L .001953125 .064941409 L .6035156 .064941409 L .6035156 0 L .001953125 0 Z "/>
</symbol>
<use xlink:href="#font_6_d51" transform="matrix(10.56,0,0,-10.56,303.97468,46.85857)" fill="#8181ff"/>
<use xlink:href="#font_5_372" transform="matrix(10.56,0,0,-10.56,314.6744,46.373884)" fill="#8181ff"/>
<use xlink:href="#font_5_1e4" transform="matrix(10.56,0,0,-10.56,320.4532,46.29138)" fill="#8181ff"/>
<use xlink:href="#font_5_37a" transform="matrix(10.56,0,0,-10.56,322.6283,46.373884)" fill="#8181ff"/>
<g id="Layer-1" data-name="Figure">
<path transform="matrix(1,0,0,-1,-243.491,307.658)" stroke-width=".96" stroke-linecap="butt" stroke-miterlimit="8" stroke-linejoin="miter" fill="none" stroke="#800000" d="M 476.16 251.28 L 510.48 251.28 L 510.48 233.64 L 476.16 233.64 Z "/>
</g>
<g id="Layer-1" data-name="P">
</g>
<use xlink:href="#font_1_56" transform="matrix(10.56,0,0,-10.56,238.53615,68.40114)"/>
<use xlink:href="#font_1_53" transform="matrix(10.56,0,0,-10.56,244.1874,70.375988)"/>
<use xlink:href="#font_1_44" transform="matrix(10.56,0,0,-10.56,249.75479,68.40114)"/>
<use xlink:href="#font_1_50" transform="matrix(10.56,0,0,-10.56,255.95125,68.27739)"/>
<g id="Layer-1" data-name="Figure">
<path transform="matrix(1,0,0,-1,-243.491,307.658)" stroke-width=".96" stroke-linecap="butt" stroke-miterlimit="8" stroke-linejoin="miter" fill="none" stroke="#800000" d="M 529.8 251.28 L 564.12 251.28 L 564.12 233.64 L 529.8 233.64 Z "/>
</g>
<g id="Layer-1" data-name="P">
</g>
<use xlink:href="#font_1_48" transform="matrix(10.56,0,0,-10.56,292.45365,68.40103)"/>
<use xlink:href="#font_1_50" transform="matrix(10.56,0,0,-10.56,298.64494,68.27728)"/>
<use xlink:href="#font_1_44" transform="matrix(10.56,0,0,-10.56,307.21034,68.40103)"/>
<use xlink:href="#font_1_4c" transform="matrix(10.56,0,0,-10.56,313.41194,68.27728)"/>
<use xlink:href="#font_1_4f" transform="matrix(10.56,0,0,-10.56,315.7864,68.27728)"/>
<g id="Layer-1" data-name="Figure">
<path transform="matrix(1,0,0,-1,297.92619,73.65799)" stroke-width=".48" stroke-linecap="butt" stroke-miterlimit="8" stroke-linejoin="miter" fill="none" stroke="#800000" d="M 0 0 L -23.977 -29.853 "/>
</g>
<g id="Layer-1" data-name="Figure">
<path transform="matrix(1,0,0,-1,-243.491,307.658)" stroke-width=".96" stroke-linecap="butt" stroke-miterlimit="8" stroke-linejoin="miter" fill="none" stroke="#800000" d="M 500.28 204 L 534.6 204 L 534.6 186.36 L 500.28 186.36 Z "/>
</g>
<g id="Layer-1" data-name="Figure">
<path transform="matrix(1,0,0,-1,-243.491,307.658)" stroke-width=".96" stroke-linecap="butt" stroke-miterlimit="8" stroke-linejoin="miter" fill="none" stroke="#800000" d="M 559.56 204 L 593.88 204 L 593.88 186.36 L 559.56 186.36 Z "/>
</g>
<g id="Layer-1" data-name="Figure">
<path transform="matrix(1,0,0,-1,-243.491,307.658)" d="M 479.52 228 L 546.6 228 L 546.6 207.36 L 479.52 207.36 Z " fill="#f9f9fa" fill-rule="evenodd"/>
</g>
<g id="Layer-1" data-name="P">
</g>
<g id="Layer-1" data-name="Span">
</g>
<g id="Layer-1" data-name="Span">
</g>
<g id="Layer-1" data-name="Span">
</g>
<use xlink:href="#font_4_7021" transform="matrix(10.56,0,0,-10.56,243.9957,88.27174)" fill="#8181ff"/>
<symbol id="font_1_52">
<path d="M 0 .2709961 C 0 .36702476 .026692709 .43815104 .080078128 .484375 C .12467448 .52278646 .17903646 .5419922 .24316406 .5419922 C .31445313 .5419922 .37272135 .5185547 .41796876 .4716797 C .46321617 .42513023 .48583985 .3606771 .48583985 .2783203 C .48583985 .21158855 .4757487 .15901692 .4555664 .12060547 C .43570964 .08251953 .40657554 .052897138 .36816407 .03173828 C .33007813 .010579427 .28841148 0 .24316406 0 C .17057292 0 .111816409 .02327474 .06689453 .06982422 C .022298178 .116373699 0 .18343099 0 .2709961 M .09033203 .2709961 C .09033203 .20458985 .10481771 .15478516 .13378906 .12158203 C .16276042 .08870443 .19921875 .072265628 .24316406 .072265628 C .28678385 .072265628 .32307945 .08886719 .35205079 .12207031 C .38102214 .15527344 .3955078 .20589192 .3955078 .27392579 C .3955078 .33805339 .38085938 .386556 .3515625 .4194336 C .32259117 .45263673 .28645835 .46923829 .24316406 .46923829 C .19921875 .46923829 .16276042 .45279948 .13378906 .41992188 C .10481771 .38704429 .09033203 .33740235 .09033203 .2709961 Z "/>
</symbol>
<symbol id="font_1_58">
<path d="M .34179688 .01171875 L .34179688 .087890628 C .30143229 .029296875 .24658203 0 .1772461 0 C .14664714 0 .118001308 .005859375 .091308597 .017578125 C .064941409 .029296875 .045247396 .043945314 .032226564 .061523439 C .01953125 .079427089 .010579427 .10123698 .0053710939 .12695313 C .0017903646 .14420574 0 .17154949 0 .20898438 L 0 .53027346 L .087890628 .53027346 L .087890628 .24267578 C .087890628 .19677735 .08968099 .16585286 .09326172 .14990235 C .09879557 .12679036 .11051432 .108561199 .12841797 .095214847 C .14632161 .08219401 .16845703 .075683597 .19482422 .075683597 C .2211914 .075683597 .24593099 .08235677 .26904298 .095703128 C .29215495 .109375 .308431 .12776692 .3178711 .1508789 C .32763673 .1743164 .33251954 .20817058 .33251954 .2524414 L .33251954 .53027346 L .42041017 .53027346 L .42041017 .01171875 L .34179688 .01171875 Z "/>
</symbol>
<symbol id="font_1_55">
<path d="M 0 0 L 0 .5185547 L .07910156 .5185547 L .07910156 .4399414 C .09928385 .47672526 .11783854 .50097659 .13476563 .5126953 C .15201824 .52441409 .17089844 .53027346 .19140625 .53027346 C .22102864 .53027346 .2511393 .5208333 .28173829 .5019531 L .25146485 .42041017 C .22998047 .43310548 .2084961 .43945313 .18701172 .43945313 C .16780599 .43945313 .15055339 .43359376 .1352539 .421875 C .11995443 .41048179 .10904948 .39453126 .10253906 .37402345 C .09277344 .34277345 .087890628 .30859376 .087890628 .27148438 L .087890628 0 L 0 0 Z "/>
</symbol>
<use xlink:href="#font_1_52" transform="matrix(10.56,0,0,-10.56,247.29518,93.22174)" fill="#8181ff"/>
<use xlink:href="#font_1_58" transform="matrix(10.56,0,0,-10.56,253.50196,93.22174)" fill="#8181ff"/>
<use xlink:href="#font_1_55" transform="matrix(10.56,0,0,-10.56,259.3942,93.09799)" fill="#8181ff"/>
<use xlink:href="#font_4_7022" transform="matrix(10.56,0,0,-10.56,262.9509,88.27174)" fill="#8181ff"/>
<symbol id="font_5_373">
<path d="M .2524414 .1274414 C .2524414 .108561199 .25341798 .09423828 .2553711 .084472659 C .25764976 .075032558 .26139323 .067220058 .26660157 .061035158 C .2721354 .05517578 .2799479 .05045573 .29003907 .046875 C .30013023 .043619794 .31282554 .041015626 .328125 .0390625 C .34342448 .037434896 .36360679 .036295576 .38867188 .03564453 L .38867188 0 L .027832032 0 L .027832032 .03564453 C .063964847 .037272138 .08968099 .03938802 .10498047 .041992189 C .12060547 .044921876 .13248699 .049153646 .140625 .0546875 C .14876302 .060221357 .15462239 .06803385 .15820313 .078125 C .16210938 .08821615 .1640625 .104654949 .1640625 .1274414 L .1640625 .5234375 C .1640625 .5364583 .16178386 .54589846 .15722656 .5517578 C .15266927 .5579427 .1459961 .56103518 .13720703 .56103518 C .12679036 .56103518 .111979167 .55566409 .09277344 .5449219 C .07356771 .5341797 .049804689 .51936849 .021484375 .5004883 L 0 .53808596 L .22851563 .6743164 L .2553711 .6743164 C .25341798 .6430664 .2524414 .59977218 .2524414 .5444336 L .2524414 .1274414 Z "/>
</symbol>
<symbol id="font_5_374">
<path d="M .27978517 .078125 C .2957357 .078125 .30859376 .07910156 .31835938 .08105469 C .328125 .08300781 .3359375 .08626302 .34179688 .09082031 C .34765626 .0953776 .35221354 .10123698 .35546876 .10839844 C .35904948 .115885417 .363444 .12727864 .36865235 .14257813 L .41015626 .14257813 L .40185548 0 L 0 0 L 0 .0234375 C .0139973959 .057617189 .032877607 .09261068 .056640626 .12841797 C .08040365 .16422527 .114095058 .2063802 .15771485 .2548828 C .19547527 .29654948 .22265625 .328125 .23925781 .34960938 C .25748698 .37304688 .2709961 .39322917 .27978517 .41015626 C .28889976 .42740885 .29541017 .44352214 .2993164 .4584961 C .30322267 .47379557 .30517579 .48909507 .30517579 .50439456 C .30517579 .5288086 .30126954 .55029299 .29345704 .56884768 C .28564454 .58772787 .27360026 .60253909 .25732423 .61328127 C .2413737 .62402346 .2211914 .62939456 .19677735 .62939456 C .13590496 .62939456 .09488932 .59554037 .07373047 .52783206 L .0146484379 .52783206 L .0146484379 .62158206 C .054036458 .6401367 .09082031 .6534831 .125 .6616211 C .1595052 .67008468 .19042969 .6743164 .21777344 .6743164 C .2783203 .6743164 .324056 .66097006 .35498048 .63427737 C .38590495 .60791018 .4013672 .5694987 .4013672 .51904299 C .4013672 .50179037 .3995768 .48583985 .3959961 .4711914 C .39274089 .4568685 .38736979 .44254557 .3798828 .42822267 C .37272135 .41422526 .36295573 .39908854 .35058595 .3828125 C .33821617 .36653648 .32454429 .3499349 .3095703 .3330078 C .29459635 .31640626 .26871745 .28857423 .2319336 .24951172 C .17008464 .18408203 .12467448 .12695313 .095703128 .078125 L .27978517 .078125 Z "/>
</symbol>
<use xlink:href="#font_5_d50" transform="matrix(10.56,0,0,-10.56,266.66804,93.283618)" fill="#8181ff"/>
<use xlink:href="#font_5_373" transform="matrix(10.56,0,0,-10.56,277.62043,93.09799)" fill="#8181ff"/>
<use xlink:href="#font_5_1e4" transform="matrix(10.56,0,0,-10.56,283.14656,93.09799)" fill="#8181ff"/>
<use xlink:href="#font_5_374" transform="matrix(10.56,0,0,-10.56,285.41447,93.09799)" fill="#8181ff"/>
<g id="Layer-1" data-name="Figure">
<path transform="matrix(1,0,0,-1,-243.491,307.658)" d="M 539.28 227.52 L 606.72006 227.52 L 606.72006 206.88 L 539.28 206.88 Z " fill="#f9f9fa" fill-rule="evenodd"/>
</g>
<g id="Layer-1" data-name="P">
</g>
<g id="Layer-1" data-name="Span">
</g>
<g id="Layer-1" data-name="Span">
</g>
<g id="Layer-1" data-name="Span">
</g>
<g id="Layer-1" data-name="P">
<use xlink:href="#font_4_7021" transform="matrix(10.56,0,0,-10.56,303.7589,88.772449)" fill="#8181ff"/>
<use xlink:href="#font_1_52" transform="matrix(10.56,0,0,-10.56,307.05836,93.72244)" fill="#8181ff"/>
<use xlink:href="#font_1_58" transform="matrix(10.56,0,0,-10.56,313.2651,93.72244)" fill="#8181ff"/>
<use xlink:href="#font_1_55" transform="matrix(10.56,0,0,-10.56,319.15733,93.598697)" fill="#8181ff"/>
<use xlink:href="#font_4_7022" transform="matrix(10.56,0,0,-10.56,322.7141,88.772449)" fill="#8181ff"/>
<use xlink:href="#font_6_d51" transform="matrix(10.56,0,0,-10.56,326.4312,94.16588)" fill="#8181ff"/>
<use xlink:href="#font_5_373" transform="matrix(10.56,0,0,-10.56,337.3836,93.598697)" fill="#8181ff"/>
<use xlink:href="#font_5_1e4" transform="matrix(10.56,0,0,-10.56,342.90974,93.598697)" fill="#8181ff"/>
<use xlink:href="#font_5_374" transform="matrix(10.56,0,0,-10.56,345.17765,93.598697)" fill="#8181ff"/>
</g>
<symbol id="font_1_30">
<path d="M 0 0 L 0 .7158203 L .14257813 .7158203 L .31201173 .20898438 C .32763673 .16178386 .33902995 .12646485 .3461914 .103027347 C .35432945 .12906902 .36702476 .1673177 .38427735 .21777344 L .55566409 .7158203 L .68310549 .7158203 L .68310549 0 L .5917969 0 L .5917969 .5991211 L .38378907 0 L .29833985 0 L .091308597 .609375 L .091308597 0 L 0 0 Z "/>
</symbol>
<symbol id="font_1_47">
<path d="M .36816407 .01171875 L .36816407 .07714844 C .33528648 .025716147 .28694663 0 .22314453 0 C .18180339 0 .14371746 .0113932299 .10888672 .034179689 C .07438151 .056966146 .047526044 .08870443 .028320313 .12939453 C .0094401049 .17041016 0 .21744792 0 .2705078 C 0 .32226563 .008626302 .36914063 .025878907 .4111328 C .04313151 .45345054 .069010417 .48583985 .103515628 .5083008 C .13802083 .5307617 .17659505 .5419922 .21923828 .5419922 C .25048829 .5419922 .2783203 .53531906 .30273438 .52197268 C .32714845 .50895187 .34700523 .49186198 .3623047 .47070313 L .3623047 .72753909 L .44970704 .72753909 L .44970704 .01171875 L .36816407 .01171875 M .09033203 .2705078 C .09033203 .20410156 .10432943 .15445964 .13232422 .12158203 C .16031902 .08870443 .19335938 .072265628 .23144531 .072265628 C .26985679 .072265628 .30240885 .087890628 .32910157 .119140628 C .35611979 .15071614 .3696289 .19873047 .3696289 .2631836 C .3696289 .33414714 .35595704 .38623048 .32861329 .4194336 C .30126954 .45263673 .26757813 .46923829 .22753906 .46923829 C .18847656 .46923829 .15576172 .45328776 .12939453 .42138673 C .10335287 .3894857 .09033203 .33919273 .09033203 .2705078 Z "/>
</symbol>
<use xlink:href="#font_1_30" transform="matrix(24,0,0,-24,248.35056,146.83209)"/>
<use xlink:href="#font_1_52" transform="matrix(24,0,0,-24,267.4062,147.11334)"/>
<use xlink:href="#font_1_47" transform="matrix(24,0,0,-24,280.7496,147.11334)"/>
<use xlink:href="#font_1_48" transform="matrix(24,0,0,-24,294.1282,147.11334)"/>
<use xlink:href="#font_1_4f" transform="matrix(24,0,0,-24,308.10447,146.83209)"/>
<use xlink:href="#font_1_3" transform="matrix(24,0,0,-24,311.84934,146.83209)"/>
<use xlink:href="#font_1_26" transform="matrix(24,0,0,-24,319.88468,147.12506)"/>
<g id="Layer-1" data-name="Figure">
<clipPath id="cp7">
<path transform="matrix(1,0,0,-1,-243.491,307.658)" d="M 402.24 245.4 L 461.15998 245.4 L 461.15998 304.19999 L 402.24 304.19999 Z "/>
</clipPath>
<g clip-path="url(#cp7)">
<path transform="matrix(.0575315,0,0,.0574554,201.25412,44.901216)" d="M 0 0 C -7.76 -92.576 -71.15 -169.139 -156.843 -196.984 C -120.941 -220.234 -97.107 -260.408 -97.107 -306.252 C -97.075 -378.251 -155.637 -436.65 -227.831 -436.65 C -300.057 -436.65 -358.621 -378.25 -358.621 -306.252 C -358.621 -260.408 -334.782 -220.235 -298.881 -196.952 C -384.576 -169.139 -447.932 -92.575 -455.726 0 C -455.822 1.758 -456.051 2.772 -455.726 5.185 C -455.074 13.335 -447.867 19.858 -439.682 19.858 C -430.551 19.858 -423.347 12.39 -423.347 3.553 C -414.835 -97.204 -330.478 -175.757 -227.83 -175.757 C -125.211 -175.757 -40.857 -97.204 -32.346 3.553 C -32.346 12.39 -25.139 19.858 -16.008 19.858 C -7.824 19.858 -.62 13.335 .001 5.185 C .326 2.771 .13 1.726 0 0 M -325.914 -306.252 C -325.914 -360.253 -281.992 -404.044 -227.831 -404.044 C -173.67 -404.044 -129.779 -360.251 -129.779 -306.252 C -129.779 -252.223 -173.67 -208.431 -227.831 -208.431 C -281.992 -208.431 -325.914 -252.223 -325.914 -306.252 "/>
<path transform="matrix(.0575315,0,0,.0574554,201.0364,45.187807)" d="M 0 0 C 0 8.212 -6.656 14.869 -14.869 14.869 L -435.071 14.869 C -443.282 14.869 -449.939 8.212 -449.939 0 C -449.939 -8.213 -443.282 -14.869 -435.071 -14.869 L -14.869 -14.869 C -6.656 -14.869 0 -8.211 0 0 "/>
</g>
<g id="Layer-1" data-name="Figure">
</g>
<clipPath id="cp8">
<path transform="matrix(1,0,0,-1,-243.491,307.658)" d="M 0 0 L 1386.12 0 L 1386.12 793.8 L 0 793.8 Z "/>
</clipPath>
<g clip-path="url(#cp8)">
<path transform="matrix(1,0,0,-1,165.76902,34.298006)" stroke-width="1.8" stroke-linecap="butt" stroke-miterlimit="8" stroke-linejoin="miter" fill="none" stroke="#000000" d="M 0 0 C 0 12.36 10.02 22.38 22.38 22.38 C 34.74 22.38 44.76 12.36 44.76 0 C 44.76 -12.36 34.74 -22.38 22.38 -22.38 C 10.02 -22.38 0 -12.36 0 0 Z "/>
</g>
</g>
<g id="Layer-1" data-name="P">
</g>
<g id="Layer-1" data-name="Figure">
<g id="Layer-2" data-name="P">
</g>
<g id="Layer-2" data-name="Figure">
</g>
<g id="Layer-2" data-name="Figure">
<g id="Layer-3" data-name="P">
</g>
<g id="Layer-3" data-name="Figure">
</g>
<g id="Layer-3" data-name="Figure">
</g>
<g id="Layer-3" data-name="Figure">
</g>
<g id="Layer-3" data-name="Figure">
</g>
<g id="Layer-3" data-name="Figure">
</g>
<g id="Layer-3" data-name="Figure">
</g>
<g id="Layer-3" data-name="Figure">
</g>
<g id="Layer-3" data-name="Figure">
</g>
<g id="Layer-3" data-name="Figure">
</g>
<g id="Layer-3" data-name="Figure">
</g>
<g id="Layer-3" data-name="Figure">
</g>
<g id="Layer-3" data-name="Figure">
</g>
<g id="Layer-3" data-name="Figure">
</g>
<g id="Layer-3" data-name="Figure">
</g>
<g id="Layer-3" data-name="Figure">
</g>
<g id="Layer-3" data-name="Figure">
</g>
<g id="Layer-3" data-name="Figure">
</g>
<g id="Layer-3" data-name="Figure">
</g>
<g id="Layer-3" data-name="Figure">
</g>
<g id="Layer-3" data-name="Figure">
</g>
<g id="Layer-3" data-name="Figure">
</g>
<g id="Layer-3" data-name="Figure">
</g>
<g id="Layer-3" data-name="Figure">
</g>
<g id="Layer-3" data-name="Figure">
</g>
<g id="Layer-3" data-name="Figure">
</g>
<g id="Layer-3" data-name="Figure">
</g>
<g id="Layer-3" data-name="Figure">
</g>
<g id="Layer-3" data-name="Figure">
</g>
<g id="Layer-3" data-name="Figure">
</g>
<g id="Layer-3" data-name="Figure">
</g>
<g id="Layer-3" data-name="Figure">
</g>
<g id="Layer-3" data-name="Figure">
</g>
<g id="Layer-3" data-name="Figure">
</g>
<g id="Layer-3" data-name="Figure">
</g>
<g id="Layer-3" data-name="Figure">
</g>
<g id="Layer-3" data-name="Figure">
</g>
<g id="Layer-3" data-name="Figure">
</g>
<g id="Layer-3" data-name="Figure">
</g>
<g id="Layer-3" data-name="Figure">
</g>
<g id="Layer-3" data-name="Figure">
</g>
<g id="Layer-3" data-name="Figure">
</g>
<g id="Layer-3" data-name="Figure">
</g>
<g id="Layer-3" data-name="Figure">
</g>
<g id="Layer-3" data-name="Figure">
</g>
<g id="Layer-3" data-name="Figure">
</g>
<g id="Layer-3" data-name="Figure">
</g>
<g id="Layer-3" data-name="Figure">
</g>
<g id="Layer-3" data-name="Figure">
</g>
<g id="Layer-3" data-name="Figure">
</g>
<g id="Layer-3" data-name="Figure">
</g>
<g id="Layer-3" data-name="Figure">
</g>
<g id="Layer-3" data-name="Figure">
</g>
<g id="Layer-3" data-name="Figure">
</g>
<g id="Layer-3" data-name="Figure">
</g>
<g id="Layer-3" data-name="Figure">
</g>
<g id="Layer-3" data-name="Figure">
</g>
<g id="Layer-3" data-name="Figure">
</g>
<g id="Layer-3" data-name="Figure">
</g>
<g id="Layer-3" data-name="Figure">
</g>
<g id="Layer-3" data-name="Figure">
</g>
<g id="Layer-3" data-name="Figure">
</g>
<g id="Layer-3" data-name="Figure">
</g>
<g id="Layer-3" data-name="Figure">
</g>
<g id="Layer-3" data-name="Figure">
</g>
<g id="Layer-3" data-name="Figure">
</g>
<g id="Layer-3" data-name="Figure">
</g>
<g id="Layer-3" data-name="Figure">
</g>
<g id="Layer-3" data-name="Figure">
</g>
<g id="Layer-3" data-name="Figure">
</g>
<g id="Layer-3" data-name="Figure">
</g>
<g id="Layer-3" data-name="Figure">
</g>
<g id="Layer-3" data-name="P">
</g>
<g id="Layer-3" data-name="Figure">
</g>
<g id="Layer-3" data-name="Figure">
</g>
</g>
</g>
</g>
</svg>
